  0
SECTION
  2
HEADER
  9
$ANGBASE
  50
0.0
  9
$ANGDIR
  70
1
  9
$MEASUREMENT
  70
1
  0
ENDSEC
  0
SECTION
  2
TABLES
  0
TABLE
  2
LTYPE
  70
4
  0
LTYPE
  5
40F
  2
CONTINUOUS
  70
0
  3
Solid line
  72
65
  73
0
  40
0.0
  0
LTYPE
  5
410
  2
DASHDOT
 70
0
  3
Dash Dot ____ _ ____ _
 72
65
 73
4
 40
2.0
 49
1.25
 49
-0.25
 49
0.25
 49
-0.25
  0
LTYPE
  5
411
  2
DASHED
 70
0
  3
Dashed __ __ __ __ __
 72
65
 73
2
 40
0.75
 49
0.5
 49
-0.25
  0
LTYPE
  5
43B
  2
DOTTED
 70
0
  3
Dotted .  .  .  .
 72
65
 73
2
 40
0.2
 49
0.0
 49
-0.2
  0
ENDTAB
  0
TABLE
  2
STYLE
  70
4
  0
STYLE
  2
KICAD
  70
0
  40
0
  41
1
  42
1
  50
0
  71
0
  3
isocp.shx
  0
STYLE
  2
KICADB
  70
0
  40
0
  41
1
  42
1
  50
0
  71
0
  3
isocp.shx
  0
STYLE
  2
KICADI
  70
0
  40
0
  41
1
  42
1
  50
15
  71
0
  3
isocp.shx
  0
STYLE
  2
KICADBI
  70
0
  40
0
  41
1
  42
1
  50
15
  71
0
  3
isocp.shx
  0
ENDTAB
  0
TABLE
  2
LAYER
  70
1
  0
LAYER
  2
BLACK
  70
0
  62
7
  6
CONTINUOUS
  0
ENDTAB
  0
ENDSEC
  0
SECTION
  2
ENTITIES
0
LINE
8
BLACK
6
CONTINUOUS
10
166.2113959999999793
20
-121.9332059999999984
11
166.2113959999999793
21
-107.8838310000000007
0
LINE
8
BLACK
6
CONTINUOUS
10
65.9607039999999927
20
-83.8331049999999891
11
51.9113289999999949
21
-83.8331049999999891
0
LINE
8
BLACK
6
CONTINUOUS
10
237.4111879999999815
20
-102.8829489999999964
11
223.3618129999999837
21
-102.8829489999999964
0
LINE
8
BLACK
6
CONTINUOUS
10
104.0609819999999957
20
-50.7337679999999978
11
104.0609819999999957
21
-64.7831429999999955
0
LINE
8
BLACK
6
CONTINUOUS
10
218.361284999999981
20
-126.9335279999999955
11
218.361284999999981
21
-140.9829029999999932
0
LINE
8
BLACK
6
CONTINUOUS
10
80.3675250000000005
20
-125.611108999999999
11
80.3675250000000005
21
-126.9211579999999913
0
LINE
8
BLACK
6
CONTINUOUS
10
-5.2390879999999997
20
-50.7334729999999965
11
8.8102869999999989
21
-50.7334729999999965
0
LINE
8
BLACK
6
CONTINUOUS
10
32.8609539999999996
20
-140.9830209999999795
11
32.8609539999999996
21
-126.933645999999996
0
LINE
8
BLACK
6
CONTINUOUS
10
8.8102869999999989
20
-88.8336329999999919
11
8.8102869999999989
21
-102.8830079999999896
0
ARC
8
BLACK
10
26.8649999999999984
20
-46.7349999999999994
40
1.5
50
-90.00000000
51
-0.00000000
0
LINE
8
BLACK
6
CONTINUOUS
10
32.8609539999999996
20
-126.933645999999996
11
46.9103289999999973
21
-126.933645999999996
0
LINE
8
BLACK
6
CONTINUOUS
10
161.2113990000000001
20
-102.8834799999999916
11
147.1620240000000024
21
-102.8834799999999916
0
LINE
8
BLACK
6
CONTINUOUS
10
46.9105649999999983
20
-88.8337509999999924
11
46.9105649999999983
21
-102.8831259999999901
0
LINE
8
BLACK
6
CONTINUOUS
10
70.9614679999999964
20
-107.8839490000000012
11
85.0108429999999942
21
-107.8839490000000012
0
LINE
8
BLACK
6
CONTINUOUS
10
218.36104899999998
20
-64.7828480000000013
11
204.3116739999999822
21
-64.7828480000000013
0
LINE
8
BLACK
6
CONTINUOUS
10
185.2615349999999808
20
-64.7829069999999945
11
185.2615349999999808
21
-50.7335319999999967
0
LINE
8
BLACK
6
CONTINUOUS
10
73.2233360000000033
20
-126.9211869999999891
11
73.2233360000000033
21
-125.611108999999999
0
LINE
8
BLACK
6
CONTINUOUS
10
180.2607710000000054
20
-64.7829660000000018
11
166.2113959999999793
21
-64.7829660000000018
0
LINE
8
BLACK
6
CONTINUOUS
10
147.1620240000000024
20
-126.9342649999999963
11
161.2113990000000001
21
-126.9342649999999963
0
LINE
8
BLACK
6
CONTINUOUS
10
142.1612599999999986
20
-69.7839659999999924
11
142.1612599999999986
21
-83.8333409999999901
0
LINE
8
BLACK
6
CONTINUOUS
10
218.36104899999998
20
-50.7334729999999965
11
218.36104899999998
21
-64.7828480000000013
0
LINE
8
BLACK
6
CONTINUOUS
10
70.9614679999999964
20
-50.7337089999999975
11
85.0108429999999942
21
-50.7337089999999975
0
LINE
8
BLACK
6
CONTINUOUS
10
109.0617459999999994
20
-140.9835219999999936
11
109.0617459999999994
21
-126.9341469999999958
0
LINE
8
BLACK
6
CONTINUOUS
10
-6.7349959999999998
20
-48.2349969999999999
11
26.8649999999999984
21
-48.2349969999999999
0
LINE
8
BLACK
6
CONTINUOUS
10
128.1118850000000009
20
-69.7839659999999924
11
142.1612599999999986
21
-69.7839659999999924
0
LINE
8
BLACK
6
CONTINUOUS
10
28.3649999999999984
20
-46.7349999999999994
11
28.3649999999999984
21
-45.2349999999999994
0
LINE
8
BLACK
6
CONTINUOUS
10
237.4111879999999815
20
-121.9330289999999906
11
223.3618129999999837
21
-121.9330289999999906
0
LINE
8
BLACK
6
CONTINUOUS
10
261.4620909999999867
20
-102.8828309999999959
11
261.4620909999999867
21
-88.8334559999999982
0
LINE
8
BLACK
6
CONTINUOUS
10
32.8611900000000006
20
-88.8337509999999924
11
46.9105649999999983
21
-88.8337509999999924
0
LINE
8
BLACK
6
CONTINUOUS
10
166.2113959999999793
20
-83.833045999999996
11
166.2113959999999793
21
-69.7836709999999982
0
LINE
8
BLACK
6
CONTINUOUS
10
166.5649999999999977
20
-143.4849969999999928
11
103.7149999999999892
21
-143.4849969999999928
0
LINE
8
BLACK
6
CONTINUOUS
10
275.5117020000000139
20
-140.9827259999999853
11
261.4623270000000161
21
-140.9827259999999853
0
LINE
8
BLACK
6
CONTINUOUS
10
27.8604260000000004
20
-107.8837719999999933
11
27.8604260000000004
21
-121.9331469999999911
0
LINE
8
BLACK
6
CONTINUOUS
10
147.1620240000000024
20
-69.7840249999999997
11
161.2113990000000001
21
-69.7840249999999997
0
LINE
8
BLACK
6
CONTINUOUS
10
123.1111209999999971
20
-102.8833619999999911
11
109.0617459999999994
21
-102.8833619999999911
0
LINE
8
BLACK
6
CONTINUOUS
10
142.1612599999999986
20
-64.783260999999996
11
128.1118850000000009
21
-64.783260999999996
0
LINE
8
BLACK
6
CONTINUOUS
10
109.0617459999999994
20
-126.9341469999999958
11
123.1111209999999971
21
-126.9341469999999958
0
LINE
8
BLACK
6
CONTINUOUS
10
46.9105649999999983
20
-83.833045999999996
11
32.8611900000000006
21
-83.833045999999996
0
LINE
8
BLACK
6
CONTINUOUS
10
128.1118850000000009
20
-50.7338859999999983
11
142.1612599999999986
21
-50.7338859999999983
0
LINE
8
BLACK
6
CONTINUOUS
10
32.365000000000002
20
-144.9849999999999852
11
32.365000000000002
21
-146.4849999999999852
0
LINE
8
BLACK
6
CONTINUOUS
10
123.1111209999999971
20
-50.733826999999998
11
123.1111209999999971
21
-64.7832020000000028
0
LINE
8
BLACK
6
CONTINUOUS
10
275.5114659999999844
20
-64.7826709999999935
11
261.4620909999999867
21
-64.7826709999999935
0
LINE
8
BLACK
6
CONTINUOUS
10
128.1118850000000009
20
-140.9835809999999867
11
128.1118850000000009
21
-126.934205999999989
0
LINE
8
BLACK
6
CONTINUOUS
10
96.7149999999999892
20
-143.4849969999999928
11
33.865000000000002
21
-143.4849969999999928
0
LINE
8
BLACK
6
CONTINUOUS
10
46.9105649999999983
20
-107.8838310000000007
11
46.9105649999999983
21
-121.9332059999999984
0
LINE
8
BLACK
6
CONTINUOUS
10
223.3620489999999847
20
-126.9334689999999881
11
237.4114239999999825
21
-126.9334689999999881
0
LINE
8
BLACK
6
CONTINUOUS
10
242.4121879999999862
20
-140.9827850000000069
11
242.4121879999999862
21
-126.933409999999995
0
LINE
8
BLACK
6
CONTINUOUS
10
166.2119480000000067
20
-140.9705919999999821
11
166.2119480000000067
21
-126.9212459999999965
0
LINE
8
BLACK
6
CONTINUOUS
10
46.9105649999999983
20
-50.733590999999997
11
46.9105649999999983
21
-64.7829660000000018
0
LINE
8
BLACK
6
CONTINUOUS
10
-5.2393239999999999
20
-126.9335279999999955
11
8.8100509999999996
21
-126.9335279999999955
0
LINE
8
BLACK
6
CONTINUOUS
10
142.1612599999999986
20
-50.7338859999999983
11
142.1612599999999986
21
-64.783260999999996
0
LINE
8
BLACK
6
CONTINUOUS
10
218.36104899999998
20
-107.8837130000000002
11
218.36104899999998
21
-121.9330879999999979
0
ARC
8
BLACK
10
236.414999999999992
20
-46.7349999999999994
40
1.5
50
-90.00000000
51
-0.00000000
0
ARC
8
BLACK
10
170.0649999999999977
20
-45.2349969999999999
40
2.0000000000022502
50
-360.00008594
51
-179.99991406
0
LINE
8
BLACK
6
CONTINUOUS
10
51.9113289999999949
20
-69.7837299999999914
11
65.9607039999999927
21
-69.7837299999999914
0
ARC
8
BLACK
10
-6.7349989999999993
20
-142.4849959999999953
40
1.0000010000005
50
-179.99977082
51
-90.00005730
0
LINE
8
BLACK
6
CONTINUOUS
10
109.0617459999999994
20
-107.8840670000000017
11
123.1111209999999971
21
-107.8840670000000017
0
LINE
8
BLACK
6
CONTINUOUS
10
173.2361599999999839
20
-126.9212459999999965
11
173.2366489999999999
21
-125.6111679999999922
0
LINE
8
BLACK
6
CONTINUOUS
10
147.1620240000000024
20
-107.8841850000000022
11
161.2113990000000001
21
-107.8841850000000022
0
LINE
8
BLACK
6
CONTINUOUS
10
197.0496739999999818
20
-126.9212749999999943
11
197.0496739999999818
21
-125.61119699999999
0
LINE
8
BLACK
6
CONTINUOUS
10
185.2615349999999808
20
-50.7335319999999967
11
199.3109099999999785
21
-50.7335319999999967
0
LINE
8
BLACK
6
CONTINUOUS
10
46.9105649999999983
20
-102.8831259999999901
11
32.8611900000000006
21
-102.8831259999999901
0
LINE
8
BLACK
6
CONTINUOUS
10
51.9113289999999949
20
-88.8338099999999997
11
65.9607039999999927
21
-88.8338099999999997
0
LINE
8
BLACK
6
CONTINUOUS
10
204.3116739999999822
20
-121.9330879999999979
11
204.3116739999999822
21
-107.8837130000000002
0
LINE
8
BLACK
6
CONTINUOUS
10
173.5649999999999977
20
-48.2349969999999999
11
236.414999999999992
21
-48.2349969999999999
0
LINE
8
BLACK
6
CONTINUOUS
10
128.1118850000000009
20
-126.934205999999989
11
142.1612599999999986
21
-126.934205999999989
0
LINE
8
BLACK
6
CONTINUOUS
10
166.2113959999999793
20
-50.733590999999997
11
180.2607710000000054
21
-50.733590999999997
0
LINE
8
BLACK
6
CONTINUOUS
10
237.4111879999999815
20
-64.782788999999994
11
223.3618129999999837
21
-64.782788999999994
0
LINE
8
BLACK
6
CONTINUOUS
10
172.0649999999999977
20
-144.9849999999999852
11
172.0649999999999977
21
-146.4849999999999852
0
LINE
8
BLACK
6
CONTINUOUS
10
180.2607710000000054
20
-102.8831259999999901
11
166.2113959999999793
21
-102.8831259999999901
0
LINE
8
BLACK
6
CONTINUOUS
10
242.4119519999999852
20
-50.733354999999996
11
256.4613269999999829
21
-50.733354999999996
0
LINE
8
BLACK
6
CONTINUOUS
10
237.4111879999999815
20
-69.7834939999999904
11
237.4111879999999815
21
-83.8328690000000023
0
LINE
8
BLACK
6
CONTINUOUS
10
104.0609819999999957
20
-121.9333829999999921
11
90.0116069999999979
21
-121.9333829999999921
0
LINE
8
BLACK
6
CONTINUOUS
10
109.0617459999999994
20
-50.733826999999998
11
123.1111209999999971
21
-50.733826999999998
0
LINE
8
BLACK
6
CONTINUOUS
10
142.1612599999999986
20
-83.8333409999999901
11
128.1118850000000009
21
-83.8333409999999901
0
LINE
8
BLACK
6
CONTINUOUS
10
51.911093000000001
20
-140.9830800000000011
11
51.911093000000001
21
-126.9337049999999891
0
ARC
8
BLACK
10
173.5649999999999977
20
-46.7349999999999994
40
1.499997
50
-180.00000000
51
-90.00000000
0
LINE
8
BLACK
6
CONTINUOUS
10
237.4114239999999825
20
-126.9334689999999881
11
237.4114239999999825
21
-140.9828440000000001
0
LINE
8
BLACK
6
CONTINUOUS
10
104.0609819999999957
20
-102.883302999999998
11
90.0116069999999979
21
-102.883302999999998
0
LINE
8
BLACK
6
CONTINUOUS
10
85.0108429999999942
20
-64.7830840000000023
11
70.9614679999999964
21
-64.7830840000000023
0
LINE
8
BLACK
6
CONTINUOUS
10
-5.2390879999999997
20
-64.7828480000000013
11
-5.2390879999999997
21
-50.7334729999999965
0
LINE
8
BLACK
6
CONTINUOUS
10
161.2113990000000001
20
-107.8841850000000022
11
161.2113990000000001
21
-121.9335599999999999
0
LINE
8
BLACK
6
CONTINUOUS
10
32.8611900000000006
20
-102.8831259999999901
11
32.8611900000000006
21
-88.8337509999999924
0
LINE
8
BLACK
6
CONTINUOUS
10
65.9607039999999927
20
-107.8838899999999938
11
65.9607039999999927
21
-121.9332649999999916
0
LINE
8
BLACK
6
CONTINUOUS
10
109.0617459999999994
20
-102.8833619999999911
11
109.0617459999999994
21
-88.8339869999999934
0
LINE
8
BLACK
6
CONTINUOUS
10
199.3109099999999785
20
-69.7836119999999909
11
199.3109099999999785
21
-83.8329870000000028
0
LINE
8
BLACK
6
CONTINUOUS
10
90.0116069999999979
20
-102.883302999999998
11
90.0116069999999979
21
-88.8339280000000002
0
LINE
8
BLACK
6
CONTINUOUS
10
218.36104899999998
20
-121.9330879999999979
11
204.3116739999999822
21
-121.9330879999999979
0
LINE
8
BLACK
6
CONTINUOUS
10
8.8102869999999989
20
-64.7828480000000013
11
-5.2390879999999997
21
-64.7828480000000013
0
LINE
8
BLACK
6
CONTINUOUS
10
104.0609819999999957
20
-88.8339280000000002
11
104.0609819999999957
21
-102.883302999999998
0
LINE
8
BLACK
6
CONTINUOUS
10
32.8611900000000006
20
-69.7836709999999982
11
46.9105649999999983
21
-69.7836709999999982
0
LINE
8
BLACK
6
CONTINUOUS
10
161.2113990000000001
20
-121.9335599999999999
11
147.1620240000000024
21
-121.9335599999999999
0
LINE
8
BLACK
6
CONTINUOUS
10
13.8110509999999991
20
-69.7836119999999909
11
27.8604260000000004
21
-69.7836119999999909
0
ARC
8
BLACK
10
170.0649999999999977
20
-146.4849969999999928
40
2.0000000000022502
50
-179.99991406
51
-0.00008594
0
LINE
8
BLACK
6
CONTINUOUS
10
80.3675250000000005
20
-126.9211579999999913
11
97.0368500000000012
21
-126.9211579999999913
0
LINE
8
BLACK
6
CONTINUOUS
10
32.365000000000002
20
-45.2349999999999994
11
32.365000000000002
21
-46.7349999999999994
0
LINE
8
BLACK
6
CONTINUOUS
10
261.4620909999999867
20
-88.8334559999999982
11
275.5114659999999844
21
-88.8334559999999982
0
LINE
8
BLACK
6
CONTINUOUS
10
51.9113289999999949
20
-50.7336499999999972
11
65.9607039999999927
21
-50.7336499999999972
0
LINE
8
BLACK
6
CONTINUOUS
10
275.5117020000000139
20
-126.9333509999999876
11
275.5117020000000139
21
-140.9827259999999853
0
LINE
8
BLACK
6
CONTINUOUS
10
51.9113289999999949
20
-121.9332649999999916
11
51.9113289999999949
21
-107.8838899999999938
0
LINE
8
BLACK
6
CONTINUOUS
10
104.0609819999999957
20
-69.7838479999999919
11
104.0609819999999957
21
-83.8332229999999896
0
LINE
8
BLACK
6
CONTINUOUS
10
168.4741449999999929
20
-125.6111679999999922
11
168.4741449999999929
21
-126.9212459999999965
0
LINE
8
BLACK
6
CONTINUOUS
10
46.9105649999999983
20
-64.7829660000000018
11
32.8611900000000006
21
-64.7829660000000018
0
LINE
8
BLACK
6
CONTINUOUS
10
70.9614679999999964
20
-83.8331639999999965
11
70.9614679999999964
21
-69.7837889999999987
0
ARC
8
BLACK
10
236.414999999999992
20
-144.9849999999999852
40
1.500003
50
0.00000000
51
90.00000000
0
LINE
8
BLACK
6
CONTINUOUS
10
199.3109099999999785
20
-88.8336919999999992
11
199.3109099999999785
21
-102.8830669999999969
0
LINE
8
BLACK
6
CONTINUOUS
10
256.4615630000000124
20
-126.933409999999995
11
256.4615630000000124
21
-140.9827850000000069
0
LINE
8
BLACK
6
CONTINUOUS
10
109.0617459999999994
20
-64.7832020000000028
11
109.0617459999999994
21
-50.733826999999998
0
LINE
8
BLACK
6
CONTINUOUS
10
90.0116069999999979
20
-50.7337679999999978
11
104.0609819999999957
21
-50.7337679999999978
0
LINE
8
BLACK
6
CONTINUOUS
10
168.0649999999999977
20
-146.4849999999999852
11
168.0649999999999977
21
-144.9849999999999852
0
ARC
8
BLACK
10
103.7149999999999892
20
-144.9849999999999852
40
1.5
50
90.00000000
51
180.00000000
0
LINE
8
BLACK
6
CONTINUOUS
10
85.0108429999999942
20
-69.7837889999999987
11
85.0108429999999942
21
-83.8331639999999965
0
LINE
8
BLACK
6
CONTINUOUS
10
168.0649999999999977
20
-46.7349999999999994
11
168.0649999999999977
21
-45.2349999999999994
0
LINE
8
BLACK
6
CONTINUOUS
10
-5.2393239999999999
20
-140.9829029999999932
11
-5.2393239999999999
21
-126.9335279999999955
0
LINE
8
BLACK
6
CONTINUOUS
10
51.9113289999999949
20
-102.8831849999999974
11
51.9113289999999949
21
-88.8338099999999997
0
LINE
8
BLACK
6
CONTINUOUS
10
142.1612599999999986
20
-102.8834209999999985
11
128.1118850000000009
21
-102.8834209999999985
0
LINE
8
BLACK
6
CONTINUOUS
10
256.4613269999999829
20
-64.7827300000000008
11
242.4119519999999852
21
-64.7827300000000008
0
LINE
8
BLACK
6
CONTINUOUS
10
261.4620909999999867
20
-64.7826709999999935
11
261.4620909999999867
21
-50.7332959999999957
0
LINE
8
BLACK
6
CONTINUOUS
10
102.2149999999999892
20
-45.2349999999999994
11
102.2149999999999892
21
-46.7349999999999994
0
LINE
8
BLACK
6
CONTINUOUS
10
13.8110509999999991
20
-83.8329870000000028
11
13.8110509999999991
21
-69.7836119999999909
0
LINE
8
BLACK
6
CONTINUOUS
10
223.3618129999999837
20
-64.782788999999994
11
223.3618129999999837
21
-50.7334139999999962
0
LINE
8
BLACK
6
CONTINUOUS
10
147.1620240000000024
20
-102.8834799999999916
11
147.1620240000000024
21
-88.8341049999999939
0
LINE
8
BLACK
6
CONTINUOUS
10
32.8611900000000006
20
-107.8838310000000007
11
46.9105649999999983
21
-107.8838310000000007
0
LINE
8
BLACK
6
CONTINUOUS
10
142.1612599999999986
20
-126.934205999999989
11
142.1612599999999986
21
-140.9835809999999867
0
LINE
8
BLACK
6
CONTINUOUS
10
-7.7349999999999994
20
-142.4849999999999852
11
-7.7349999999999994
21
-49.2350009999999969
0
ARC
8
BLACK
10
243.414999999999992
20
-144.9849999999999852
40
1.5
50
90.00000000
51
180.00000000
0
LINE
8
BLACK
6
CONTINUOUS
10
85.0108429999999942
20
-50.7337089999999975
11
85.0108429999999942
21
-64.7830840000000023
0
LINE
8
BLACK
6
CONTINUOUS
10
223.3618129999999837
20
-121.9330289999999906
11
223.3618129999999837
21
-107.8836539999999928
0
LINE
8
BLACK
6
CONTINUOUS
10
261.4623270000000161
20
-140.9827259999999853
11
261.4623270000000161
21
-126.9333509999999876
0
LINE
8
BLACK
6
CONTINUOUS
10
166.2113959999999793
20
-102.8831259999999901
11
166.2113959999999793
21
-88.8337509999999924
0
LINE
8
BLACK
6
CONTINUOUS
10
256.4613269999999829
20
-107.8835949999999997
11
256.4613269999999829
21
-121.9329699999999974
0
LINE
8
BLACK
6
CONTINUOUS
10
123.1111209999999971
20
-69.7839069999999992
11
123.1111209999999971
21
-83.833281999999997
0
LINE
8
BLACK
6
CONTINUOUS
10
256.4613269999999829
20
-102.8828899999999891
11
242.4119519999999852
21
-102.8828899999999891
0
LINE
8
BLACK
6
CONTINUOUS
10
102.2149999999999892
20
-144.9849999999999852
11
102.2149999999999892
21
-146.4849999999999852
0
LINE
8
BLACK
6
CONTINUOUS
10
242.4119519999999852
20
-69.7834349999999972
11
256.4613269999999829
21
-69.7834349999999972
0
LINE
8
BLACK
6
CONTINUOUS
10
199.3109099999999785
20
-102.8830669999999969
11
185.2615349999999808
21
-102.8830669999999969
0
LINE
8
BLACK
6
CONTINUOUS
10
65.9604679999999917
20
-140.9830800000000011
11
51.911093000000001
21
-140.9830800000000011
0
LINE
8
BLACK
6
CONTINUOUS
10
204.3116739999999822
20
-102.8830079999999896
11
204.3116739999999822
21
-88.8336329999999919
0
LINE
8
BLACK
6
CONTINUOUS
10
46.9105649999999983
20
-69.7836709999999982
11
46.9105649999999983
21
-83.833045999999996
0
LINE
8
BLACK
6
CONTINUOUS
10
241.914999999999992
20
-144.9849999999999852
11
241.914999999999992
21
-146.4849999999999852
0
LINE
8
BLACK
6
CONTINUOUS
10
223.3618129999999837
20
-88.8335739999999987
11
237.4111879999999815
21
-88.8335739999999987
0
LINE
8
BLACK
6
CONTINUOUS
10
242.4119519999999852
20
-102.8828899999999891
11
242.4119519999999852
21
-88.8335149999999913
0
LINE
8
BLACK
6
CONTINUOUS
10
65.9607039999999927
20
-50.7336499999999972
11
65.9607039999999927
21
-64.783024999999995
0
LINE
8
BLACK
6
CONTINUOUS
10
199.3109099999999785
20
-50.7335319999999967
11
199.3109099999999785
21
-64.7829069999999945
0
LINE
8
BLACK
6
CONTINUOUS
10
199.3109099999999785
20
-107.8837719999999933
11
199.3109099999999785
21
-121.9331469999999911
0
ARC
8
BLACK
10
96.7149999999999892
20
-46.7349999999999994
40
1.5
50
-90.00000000
51
-0.00000000
0
LINE
8
BLACK
6
CONTINUOUS
10
172.0649999999999977
20
-45.2349999999999994
11
172.0649999999999977
21
-46.7349999999999994
0
LINE
8
BLACK
6
CONTINUOUS
10
13.8110509999999991
20
-50.7335319999999967
11
27.8604260000000004
21
-50.7335319999999967
0
ARC
8
BLACK
10
239.914999999999992
20
-45.2349969999999999
40
2.0000000000022502
50
-360.00008594
51
-179.99991406
0
LINE
8
BLACK
6
CONTINUOUS
10
90.0116069999999979
20
-83.8332229999999896
11
90.0116069999999979
21
-69.7838479999999919
0
LINE
8
BLACK
6
CONTINUOUS
10
189.9054849999999988
20
-125.61119699999999
11
189.9054849999999988
21
-126.9212459999999965
0
LINE
8
BLACK
6
CONTINUOUS
10
128.1118850000000009
20
-64.783260999999996
11
128.1118850000000009
21
-50.7338859999999983
0
LINE
8
BLACK
6
CONTINUOUS
10
166.2113959999999793
20
-88.8337509999999924
11
180.2607710000000054
21
-88.8337509999999924
0
LINE
8
BLACK
6
CONTINUOUS
10
142.1612599999999986
20
-140.9835809999999867
11
128.1118850000000009
21
-140.9835809999999867
0
LINE
8
BLACK
6
CONTINUOUS
10
-5.2390879999999997
20
-88.8336329999999919
11
-5.2390879999999997
21
-102.8830079999999896
0
LINE
8
BLACK
6
CONTINUOUS
10
237.4114239999999825
20
-140.9828440000000001
11
223.3620489999999847
21
-140.9828440000000001
0
LINE
8
BLACK
6
CONTINUOUS
10
70.9614679999999964
20
-88.8338689999999929
11
85.0108429999999942
21
-88.8338689999999929
0
LINE
8
BLACK
6
CONTINUOUS
10
128.1118850000000009
20
-88.8340460000000007
11
142.1612599999999986
21
-88.8340460000000007
0
LINE
8
BLACK
6
CONTINUOUS
10
278.0149999999999864
20
-49.2349999999999994
11
278.0149999999999864
21
-142.4849999999999852
0
LINE
8
BLACK
6
CONTINUOUS
10
51.9113289999999949
20
-64.783024999999995
11
51.9113289999999949
21
-50.7336499999999972
0
LINE
8
BLACK
6
CONTINUOUS
10
161.2113990000000001
20
-50.7339449999999985
11
161.2113990000000001
21
-64.7833200000000033
0
LINE
8
BLACK
6
CONTINUOUS
10
236.414999999999992
20
-143.4849969999999928
11
173.5649999999999977
21
-143.4849969999999928
0
LINE
8
BLACK
6
CONTINUOUS
10
161.2113990000000001
20
-83.8333999999999975
11
147.1620240000000024
21
-83.8333999999999975
0
LINE
8
BLACK
6
CONTINUOUS
10
97.0368500000000012
20
-126.9211579999999913
11
97.0363609999999994
21
-125.6110800000000012
0
LINE
8
BLACK
6
CONTINUOUS
10
204.3116739999999822
20
-64.7828480000000013
11
204.3116739999999822
21
-50.7334729999999965
0
ARC
8
BLACK
10
277.0149999999999864
20
-49.2349999999999994
40
1.000003
50
0.00000000
51
90.00000000
0
LINE
8
BLACK
6
CONTINUOUS
10
28.3649999999999984
20
-146.4849999999999852
11
28.3649999999999984
21
-144.9849999999999852
0
LINE
8
BLACK
6
CONTINUOUS
10
128.1118850000000009
20
-121.9335009999999926
11
128.1118850000000009
21
-107.8841259999999949
0
LINE
8
BLACK
6
CONTINUOUS
10
123.1111209999999971
20
-140.9835219999999936
11
109.0617459999999994
21
-140.9835219999999936
0
LINE
8
BLACK
6
CONTINUOUS
10
261.4623270000000161
20
-126.9333509999999876
11
275.5117020000000139
21
-126.9333509999999876
0
LINE
8
BLACK
6
CONTINUOUS
10
218.36104899999998
20
-83.8329279999999954
11
204.3116739999999822
21
-83.8329279999999954
0
LINE
8
BLACK
6
CONTINUOUS
10
90.0116069999999979
20
-107.8840079999999944
11
104.0609819999999957
21
-107.8840079999999944
0
LINE
8
BLACK
6
CONTINUOUS
10
173.2366489999999999
20
-125.6111679999999922
11
168.4741449999999929
21
-125.6111679999999922
0
LINE
8
BLACK
6
CONTINUOUS
10
109.0617459999999994
20
-83.833281999999997
11
109.0617459999999994
21
-69.7839069999999992
0
ARC
8
BLACK
10
100.2149999999999892
20
-146.4849969999999928
40
2.0000000000022502
50
-179.99991406
51
-0.00008594
0
LINE
8
BLACK
6
CONTINUOUS
10
-5.2390879999999997
20
-107.8837130000000002
11
8.8102869999999989
21
-107.8837130000000002
0
LINE
8
BLACK
6
CONTINUOUS
10
204.3119099999999833
20
-126.9335279999999955
11
218.361284999999981
21
-126.9335279999999955
0
LINE
8
BLACK
6
CONTINUOUS
10
204.3116739999999822
20
-69.7835529999999977
11
218.36104899999998
21
-69.7835529999999977
0
LINE
8
BLACK
6
CONTINUOUS
10
142.1612599999999986
20
-121.9335009999999926
11
128.1118850000000009
21
-121.9335009999999926
0
LINE
8
BLACK
6
CONTINUOUS
10
243.414999999999992
20
-48.2349969999999999
11
277.0149999999999864
21
-48.2349969999999999
0
LINE
8
BLACK
6
CONTINUOUS
10
147.1620240000000024
20
-64.7833200000000033
11
147.1620240000000024
21
-50.7339449999999985
0
LINE
8
BLACK
6
CONTINUOUS
10
90.0116069999999979
20
-121.9333829999999921
11
90.0116069999999979
21
-107.8840079999999944
0
ARC
8
BLACK
10
277.0149999999999864
20
-142.4849999999999852
40
1.
50
-90.00000000
51
-0.00000000
0
LINE
8
BLACK
6
CONTINUOUS
10
123.1111209999999971
20
-126.9341469999999958
11
123.1111209999999971
21
-140.9835219999999936
0
LINE
8
BLACK
6
CONTINUOUS
10
223.3618129999999837
20
-69.7834939999999904
11
237.4111879999999815
21
-69.7834939999999904
0
LINE
8
BLACK
6
CONTINUOUS
10
104.0609819999999957
20
-64.7831429999999955
11
90.0116069999999979
21
-64.7831429999999955
0
ARC
8
BLACK
10
33.865000000000002
20
-46.7349999999999994
40
1.499997
50
-180.00000000
51
-90.00000000
0
ARC
8
BLACK
10
243.414999999999992
20
-46.7349999999999994
40
1.499997
50
-180.00000000
51
-90.00000000
0
LINE
8
BLACK
6
CONTINUOUS
10
51.9113289999999949
20
-107.8838899999999938
11
65.9607039999999927
21
-107.8838899999999938
0
LINE
8
BLACK
6
CONTINUOUS
10
104.0615379999999988
20
-126.9211579999999913
11
101.7988649999999922
21
-126.9211579999999913
0
ARC
8
BLACK
10
173.5649999999999977
20
-144.9849999999999852
40
1.5
50
90.00000000
51
180.00000000
0
LINE
8
BLACK
6
CONTINUOUS
10
180.2607710000000054
20
-83.833045999999996
11
166.2113959999999793
21
-83.833045999999996
0
LINE
8
BLACK
6
CONTINUOUS
10
223.3618129999999837
20
-107.8836539999999928
11
237.4111879999999815
21
-107.8836539999999928
0
LINE
8
BLACK
6
CONTINUOUS
10
97.0363609999999994
20
-125.6110800000000012
11
101.7988649999999922
21
-125.6110800000000012
0
LINE
8
BLACK
6
CONTINUOUS
10
275.5114659999999844
20
-69.7833759999999899
11
275.5114659999999844
21
-83.8327510000000018
0
LINE
8
BLACK
6
CONTINUOUS
10
98.2149999999999892
20
-46.7349999999999994
11
98.2149999999999892
21
-45.2349999999999994
0
LINE
8
BLACK
6
CONTINUOUS
10
13.8108149999999998
20
-126.9335869999999886
11
27.8601899999999993
21
-126.9335869999999886
0
LINE
8
BLACK
6
CONTINUOUS
10
13.8108149999999998
20
-140.9829619999999863
11
13.8108149999999998
21
-126.9335869999999886
0
LINE
8
BLACK
6
CONTINUOUS
10
51.911093000000001
20
-126.9337049999999891
11
65.9604679999999917
21
-126.9337049999999891
0
LINE
8
BLACK
6
CONTINUOUS
10
185.2615349999999808
20
-83.8329870000000028
11
185.2615349999999808
21
-69.7836119999999909
0
LINE
8
BLACK
6
CONTINUOUS
10
147.1620240000000024
20
-83.8333999999999975
11
147.1620240000000024
21
-69.7840249999999997
0
LINE
8
BLACK
6
CONTINUOUS
10
85.0108429999999942
20
-83.8331639999999965
11
70.9614679999999964
21
-83.8331639999999965
0
LINE
8
BLACK
6
CONTINUOUS
10
104.0610619999999926
20
-140.9705040000000054
11
104.0610619999999926
21
-126.9211579999999913
0
LINE
8
BLACK
6
CONTINUOUS
10
275.5114659999999844
20
-102.8828309999999959
11
261.4620909999999867
21
-102.8828309999999959
0
LINE
8
BLACK
6
CONTINUOUS
10
242.4119519999999852
20
-107.8835949999999997
11
256.4613269999999829
21
-107.8835949999999997
0
LINE
8
BLACK
6
CONTINUOUS
10
32.8611900000000006
20
-64.7829660000000018
11
32.8611900000000006
21
-50.733590999999997
0
LINE
8
BLACK
6
CONTINUOUS
10
90.0116069999999979
20
-69.7838479999999919
11
104.0609819999999957
21
-69.7838479999999919
0
LINE
8
BLACK
6
CONTINUOUS
10
180.2607710000000054
20
-69.7836709999999982
11
180.2607710000000054
21
-83.833045999999996
0
LINE
8
BLACK
6
CONTINUOUS
10
46.9103289999999973
20
-126.933645999999996
11
46.9103289999999973
21
-140.9830209999999795
0
LINE
8
BLACK
6
CONTINUOUS
10
204.3116739999999822
20
-107.8837130000000002
11
218.36104899999998
21
-107.8837130000000002
0
LINE
8
BLACK
6
CONTINUOUS
10
261.4620909999999867
20
-107.8835359999999923
11
275.5114659999999844
21
-107.8835359999999923
0
LINE
8
BLACK
6
CONTINUOUS
10
8.8102869999999989
20
-121.9330879999999979
11
-5.2390879999999997
21
-121.9330879999999979
0
LINE
8
BLACK
6
CONTINUOUS
10
223.3618129999999837
20
-102.8829489999999964
11
223.3618129999999837
21
-88.8335739999999987
0
LINE
8
BLACK
6
CONTINUOUS
10
185.2615349999999808
20
-102.8830669999999969
11
185.2615349999999808
21
-88.8336919999999992
0
LINE
8
BLACK
6
CONTINUOUS
10
237.914999999999992
20
-146.4849999999999852
11
237.914999999999992
21
-144.9849999999999852
0
LINE
8
BLACK
6
CONTINUOUS
10
142.1612599999999986
20
-88.8340460000000007
11
142.1612599999999986
21
-102.8834209999999985
0
ARC
8
BLACK
10
100.2149999999999892
20
-45.2349969999999999
40
2.0000000000022502
50
-360.00008594
51
-179.99991406
0
LINE
8
BLACK
6
CONTINUOUS
10
256.4613269999999829
20
-83.8328099999999949
11
242.4119519999999852
21
-83.8328099999999949
0
LINE
8
BLACK
6
CONTINUOUS
10
261.4620909999999867
20
-83.8327510000000018
11
261.4620909999999867
21
-69.7833759999999899
0
LINE
8
BLACK
6
CONTINUOUS
10
204.3116739999999822
20
-83.8329279999999954
11
204.3116739999999822
21
-69.7835529999999977
0
LINE
8
BLACK
6
CONTINUOUS
10
123.1111209999999971
20
-83.833281999999997
11
109.0617459999999994
21
-83.833281999999997
0
LINE
8
BLACK
6
CONTINUOUS
10
256.4613269999999829
20
-121.9329699999999974
11
242.4119519999999852
21
-121.9329699999999974
0
LINE
8
BLACK
6
CONTINUOUS
10
109.0617459999999994
20
-69.7839069999999992
11
123.1111209999999971
21
-69.7839069999999992
0
LINE
8
BLACK
6
CONTINUOUS
10
128.1118850000000009
20
-83.8333409999999901
11
128.1118850000000009
21
-69.7839659999999924
0
LINE
8
BLACK
6
CONTINUOUS
10
223.3618129999999837
20
-50.7334139999999962
11
237.4111879999999815
21
-50.7334139999999962
0
ARC
8
BLACK
10
103.7149999999999892
20
-46.7349999999999994
40
1.499997
50
-180.00000000
51
-90.00000000
0
LINE
8
BLACK
6
CONTINUOUS
10
241.914999999999992
20
-45.2349999999999994
11
241.914999999999992
21
-46.7349999999999994
0
LINE
8
BLACK
6
CONTINUOUS
10
101.7988649999999922
20
-125.6110800000000012
11
101.7988649999999922
21
-126.9211579999999913
0
LINE
8
BLACK
6
CONTINUOUS
10
-5.2390879999999997
20
-69.7835529999999977
11
8.8102869999999989
21
-69.7835529999999977
0
LINE
8
BLACK
6
CONTINUOUS
10
65.9607039999999927
20
-69.7837299999999914
11
65.9607039999999927
21
-83.8331049999999891
0
LINE
8
BLACK
6
CONTINUOUS
10
123.1111209999999971
20
-107.8840670000000017
11
123.1111209999999971
21
-121.9334419999999994
0
LINE
8
BLACK
6
CONTINUOUS
10
180.2607710000000054
20
-50.733590999999997
11
180.2607710000000054
21
-64.7829660000000018
0
ARC
8
BLACK
10
33.865000000000002
20
-144.9849999999999852
40
1.5
50
90.00000000
51
180.00000000
0
LINE
8
BLACK
6
CONTINUOUS
10
46.9105649999999983
20
-121.9332059999999984
11
32.8611900000000006
21
-121.9332059999999984
0
LINE
8
BLACK
6
CONTINUOUS
10
65.9607039999999927
20
-64.783024999999995
11
51.9113289999999949
21
-64.783024999999995
0
LINE
8
BLACK
6
CONTINUOUS
10
275.5114659999999844
20
-107.8835359999999923
11
275.5114659999999844
21
-121.9329109999999901
0
LINE
8
BLACK
6
CONTINUOUS
10
65.9607039999999927
20
-102.8831849999999974
11
51.9113289999999949
21
-102.8831849999999974
0
LINE
8
BLACK
6
CONTINUOUS
10
104.0609819999999957
20
-107.8840079999999944
11
104.0609819999999957
21
-121.9333829999999921
0
LINE
8
BLACK
6
CONTINUOUS
10
90.0116069999999979
20
-88.8339280000000002
11
104.0609819999999957
21
-88.8339280000000002
0
LINE
8
BLACK
6
CONTINUOUS
10
13.8110509999999991
20
-102.8830669999999969
11
13.8110509999999991
21
-88.8336919999999992
0
LINE
8
BLACK
6
CONTINUOUS
10
147.1620240000000024
20
-121.9335599999999999
11
147.1620240000000024
21
-107.8841850000000022
0
ARC
8
BLACK
10
-6.7349969999999999
20
-49.2349999999999994
40
1.0000030000005
50
-270.00005730
51
-179.99994270
0
LINE
8
BLACK
6
CONTINUOUS
10
223.3620489999999847
20
-140.9828440000000001
11
223.3620489999999847
21
-126.9334689999999881
0
LINE
8
BLACK
6
CONTINUOUS
10
27.8604260000000004
20
-102.8830669999999969
11
13.8110509999999991
21
-102.8830669999999969
0
LINE
8
BLACK
6
CONTINUOUS
10
275.5114659999999844
20
-50.7332959999999957
11
275.5114659999999844
21
-64.7826709999999935
0
LINE
8
BLACK
6
CONTINUOUS
10
109.0617459999999994
20
-88.8339869999999934
11
123.1111209999999971
21
-88.8339869999999934
0
LINE
8
BLACK
6
CONTINUOUS
10
13.8110509999999991
20
-121.9331469999999911
11
13.8110509999999991
21
-107.8837719999999933
0
LINE
8
BLACK
6
CONTINUOUS
10
27.8604260000000004
20
-50.7335319999999967
11
27.8604260000000004
21
-64.7829069999999945
0
LINE
8
BLACK
6
CONTINUOUS
10
65.9607039999999927
20
-88.8338099999999997
11
65.9607039999999927
21
-102.8831849999999974
0
LINE
8
BLACK
6
CONTINUOUS
10
123.1111209999999971
20
-121.9334419999999994
11
109.0617459999999994
21
-121.9334419999999994
0
LINE
8
BLACK
6
CONTINUOUS
10
199.3117780000000039
20
-140.9706799999999873
11
199.3117780000000039
21
-126.9212459999999965
0
LINE
8
BLACK
6
CONTINUOUS
10
197.0496739999999818
20
-125.61119699999999
11
189.9054849999999988
21
-125.61119699999999
0
LINE
8
BLACK
6
CONTINUOUS
10
261.4620909999999867
20
-69.7833759999999899
11
275.5114659999999844
21
-69.7833759999999899
0
LINE
8
BLACK
6
CONTINUOUS
10
70.9614679999999964
20
-64.7830840000000023
11
70.9614679999999964
21
-50.7337089999999975
0
LINE
8
BLACK
6
CONTINUOUS
10
166.2113959999999793
20
-69.7836709999999982
11
180.2607710000000054
21
-69.7836709999999982
0
LINE
8
BLACK
6
CONTINUOUS
10
70.9615479999999934
20
-140.9705040000000054
11
104.0610619999999926
21
-140.9705040000000054
0
LINE
8
BLACK
6
CONTINUOUS
10
161.2113990000000001
20
-64.7833200000000033
11
147.1620240000000024
21
-64.7833200000000033
0
LINE
8
BLACK
6
CONTINUOUS
10
161.2113990000000001
20
-140.9836399999999799
11
147.1620240000000024
21
-140.9836399999999799
0
LINE
8
BLACK
6
CONTINUOUS
10
70.9612319999999954
20
-140.9705919999999821
11
70.9612319999999954
21
-126.9211579999999913
0
LINE
8
BLACK
6
CONTINUOUS
10
8.8102869999999989
20
-50.7334729999999965
11
8.8102869999999989
21
-64.7828480000000013
0
LINE
8
BLACK
6
CONTINUOUS
10
161.2113990000000001
20
-126.9342649999999963
11
161.2113990000000001
21
-140.9836399999999799
0
LINE
8
BLACK
6
CONTINUOUS
10
32.8611900000000006
20
-50.733590999999997
11
46.9105649999999983
21
-50.733590999999997
0
LINE
8
BLACK
6
CONTINUOUS
10
27.8601899999999993
20
-140.9829619999999863
11
13.8108149999999998
21
-140.9829619999999863
0
LINE
8
BLACK
6
CONTINUOUS
10
199.3109099999999785
20
-83.8329870000000028
11
185.2615349999999808
21
-83.8329870000000028
0
LINE
8
BLACK
6
CONTINUOUS
10
85.0108429999999942
20
-102.8832439999999906
11
70.9614679999999964
21
-102.8832439999999906
0
LINE
8
BLACK
6
CONTINUOUS
10
8.8102869999999989
20
-102.8830079999999896
11
-5.2390879999999997
21
-102.8830079999999896
0
LINE
8
BLACK
6
CONTINUOUS
10
147.1620240000000024
20
-88.8341049999999939
11
161.2113990000000001
21
-88.8341049999999939
0
LINE
8
BLACK
6
CONTINUOUS
10
26.8649999999999984
20
-143.4849969999999928
11
-6.7349999999999994
21
-143.4849969999999928
0
ARC
8
BLACK
10
96.7149999999999892
20
-144.9849999999999852
40
1.500003
50
0.00000000
51
90.00000000
0
LINE
8
BLACK
6
CONTINUOUS
10
90.0116069999999979
20
-64.7831429999999955
11
90.0116069999999979
21
-50.7337679999999978
0
LINE
8
BLACK
6
CONTINUOUS
10
13.8110509999999991
20
-88.8336919999999992
11
27.8604260000000004
21
-88.8336919999999992
0
LINE
8
BLACK
6
CONTINUOUS
10
261.4620909999999867
20
-50.7332959999999957
11
275.5114659999999844
21
-50.7332959999999957
0
LINE
8
BLACK
6
CONTINUOUS
10
185.2615349999999808
20
-88.8336919999999992
11
199.3109099999999785
21
-88.8336919999999992
0
LINE
8
BLACK
6
CONTINUOUS
10
103.7149999999999892
20
-48.2349969999999999
11
166.5649999999999977
21
-48.2349969999999999
0
LINE
8
BLACK
6
CONTINUOUS
10
109.0617459999999994
20
-121.9334419999999994
11
109.0617459999999994
21
-107.8840670000000017
0
LINE
8
BLACK
6
CONTINUOUS
10
180.2607710000000054
20
-88.8337509999999924
11
180.2607710000000054
21
-102.8831259999999901
0
ARC
8
BLACK
10
239.914999999999992
20
-146.4849969999999928
40
2.0000000000022502
50
-179.99991406
51
-0.00008594
0
LINE
8
BLACK
6
CONTINUOUS
10
218.36104899999998
20
-69.7835529999999977
11
218.36104899999998
21
-83.8329279999999954
0
LINE
8
BLACK
6
CONTINUOUS
10
275.5114659999999844
20
-121.9329109999999901
11
261.4620909999999867
21
-121.9329109999999901
0
LINE
8
BLACK
6
CONTINUOUS
10
27.8604260000000004
20
-121.9331469999999911
11
13.8110509999999991
21
-121.9331469999999911
0
LINE
8
BLACK
6
CONTINUOUS
10
123.1111209999999971
20
-88.8339869999999934
11
123.1111209999999971
21
-102.8833619999999911
0
LINE
8
BLACK
6
CONTINUOUS
10
218.361284999999981
20
-140.9829029999999932
11
204.3119099999999833
21
-140.9829029999999932
0
LINE
8
BLACK
6
CONTINUOUS
10
218.36104899999998
20
-88.8336329999999919
11
218.36104899999998
21
-102.8830079999999896
0
LINE
8
BLACK
6
CONTINUOUS
10
256.4613269999999829
20
-69.7834349999999972
11
256.4613269999999829
21
-83.8328099999999949
0
LINE
8
BLACK
6
CONTINUOUS
10
32.8611900000000006
20
-121.9332059999999984
11
32.8611900000000006
21
-107.8838310000000007
0
LINE
8
BLACK
6
CONTINUOUS
10
142.1612599999999986
20
-107.8841259999999949
11
142.1612599999999986
21
-121.9335009999999926
0
LINE
8
BLACK
6
CONTINUOUS
10
199.3109099999999785
20
-121.9331469999999911
11
185.2615349999999808
21
-121.9331469999999911
0
LINE
8
BLACK
6
CONTINUOUS
10
237.4111879999999815
20
-88.8335739999999987
11
237.4111879999999815
21
-102.8829489999999964
0
LINE
8
BLACK
6
CONTINUOUS
10
70.9614679999999964
20
-69.7837889999999987
11
85.0108429999999942
21
-69.7837889999999987
0
LINE
8
BLACK
6
CONTINUOUS
10
161.2113990000000001
20
-88.8341049999999939
11
161.2113990000000001
21
-102.8834799999999916
0
LINE
8
BLACK
6
CONTINUOUS
10
242.4119519999999852
20
-121.9329699999999974
11
242.4119519999999852
21
-107.8835949999999997
0
LINE
8
BLACK
6
CONTINUOUS
10
8.8100509999999996
20
-140.9829029999999932
11
-5.2393239999999999
21
-140.9829029999999932
0
LINE
8
BLACK
6
CONTINUOUS
10
85.0108429999999942
20
-121.9333239999999989
11
70.9614679999999964
21
-121.9333239999999989
0
ARC
8
BLACK
10
30.3649999999999984
20
-45.2349969999999999
40
2.0000000000022502
50
-360.00008594
51
-179.99991406
0
LINE
8
BLACK
6
CONTINUOUS
10
185.2615349999999808
20
-121.9331469999999911
11
185.2615349999999808
21
-107.8837719999999933
0
LINE
8
BLACK
6
CONTINUOUS
10
261.4620909999999867
20
-121.9329109999999901
11
261.4620909999999867
21
-107.8835359999999923
0
LINE
8
BLACK
6
CONTINUOUS
10
242.4121879999999862
20
-126.933409999999995
11
256.4615630000000124
21
-126.933409999999995
0
ARC
8
BLACK
10
26.8649999999999984
20
-144.9849999999999852
40
1.500003
50
0.00000000
51
90.00000000
0
LINE
8
BLACK
6
CONTINUOUS
10
8.8102869999999989
20
-107.8837130000000002
11
8.8102869999999989
21
-121.9330879999999979
0
LINE
8
BLACK
6
CONTINUOUS
10
104.0609819999999957
20
-83.8332229999999896
11
90.0116069999999979
21
-83.8332229999999896
0
LINE
8
BLACK
6
CONTINUOUS
10
85.0108429999999942
20
-88.8338689999999929
11
85.0108429999999942
21
-102.8832439999999906
0
LINE
8
BLACK
6
CONTINUOUS
10
51.9113289999999949
20
-83.8331049999999891
11
51.9113289999999949
21
-69.7837299999999914
0
LINE
8
BLACK
6
CONTINUOUS
10
180.2607710000000054
20
-121.9332059999999984
11
166.2113959999999793
21
-121.9332059999999984
0
ARC
8
BLACK
10
166.5649999999999977
20
-46.7349999999999994
40
1.5
50
-90.00000000
51
-0.00000000
0
LINE
8
BLACK
6
CONTINUOUS
10
27.8601899999999993
20
-126.9335869999999886
11
27.8601899999999993
21
-140.9829619999999863
0
LINE
8
BLACK
6
CONTINUOUS
10
-5.2390879999999997
20
-69.7835529999999977
11
-5.2390879999999997
21
-83.8329279999999954
0
LINE
8
BLACK
6
CONTINUOUS
10
166.2114719999999863
20
-126.9212459999999965
11
168.4741449999999929
21
-126.9212459999999965
0
LINE
8
BLACK
6
CONTINUOUS
10
8.8102869999999989
20
-83.8329279999999954
11
-5.2390879999999997
21
-83.8329279999999954
0
LINE
8
BLACK
6
CONTINUOUS
10
189.9054849999999988
20
-126.9212459999999965
11
173.2361599999999839
21
-126.9212459999999965
0
LINE
8
BLACK
6
CONTINUOUS
10
-5.2390879999999997
20
-121.9330879999999979
11
-5.2390879999999997
21
-107.8837130000000002
0
LINE
8
BLACK
6
CONTINUOUS
10
70.9614679999999964
20
-121.9333239999999989
11
70.9614679999999964
21
-107.8839490000000012
0
LINE
8
BLACK
6
CONTINUOUS
10
204.3119099999999833
20
-140.9829029999999932
11
204.3119099999999833
21
-126.9335279999999955
0
LINE
8
BLACK
6
CONTINUOUS
10
237.4111879999999815
20
-107.8836539999999928
11
237.4111879999999815
21
-121.9330289999999906
0
LINE
8
BLACK
6
CONTINUOUS
10
123.1111209999999971
20
-64.7832020000000028
11
109.0617459999999994
21
-64.7832020000000028
0
LINE
8
BLACK
6
CONTINUOUS
10
73.2233360000000033
20
-125.611108999999999
11
80.3675250000000005
21
-125.611108999999999
0
LINE
8
BLACK
6
CONTINUOUS
10
256.4613269999999829
20
-88.8335149999999913
11
256.4613269999999829
21
-102.8828899999999891
0
LINE
8
BLACK
6
CONTINUOUS
10
166.2113959999999793
20
-107.8838310000000007
11
180.2607710000000054
21
-107.8838310000000007
0
LINE
8
BLACK
6
CONTINUOUS
10
27.8604260000000004
20
-88.8336919999999992
11
27.8604260000000004
21
-102.8830669999999969
0
LINE
8
BLACK
6
CONTINUOUS
10
46.9103289999999973
20
-140.9830209999999795
11
32.8609539999999996
21
-140.9830209999999795
0
LINE
8
BLACK
6
CONTINUOUS
10
166.2113959999999793
20
-64.7829660000000018
11
166.2113959999999793
21
-50.733590999999997
0
LINE
8
BLACK
6
CONTINUOUS
10
147.1620240000000024
20
-50.7339449999999985
11
161.2113990000000001
21
-50.7339449999999985
0
LINE
8
BLACK
6
CONTINUOUS
10
237.4111879999999815
20
-83.8328690000000023
11
223.3618129999999837
21
-83.8328690000000023
0
LINE
8
BLACK
6
CONTINUOUS
10
13.8110509999999991
20
-107.8837719999999933
11
27.8604260000000004
21
-107.8837719999999933
0
LINE
8
BLACK
6
CONTINUOUS
10
27.8604260000000004
20
-64.7829069999999945
11
13.8110509999999991
21
-64.7829069999999945
0
LINE
8
BLACK
6
CONTINUOUS
10
27.8604260000000004
20
-69.7836119999999909
11
27.8604260000000004
21
-83.8329870000000028
0
LINE
8
BLACK
6
CONTINUOUS
10
13.8110509999999991
20
-64.7829069999999945
11
13.8110509999999991
21
-50.7335319999999967
0
LINE
8
BLACK
6
CONTINUOUS
10
32.8611900000000006
20
-83.833045999999996
11
32.8611900000000006
21
-69.7836709999999982
0
LINE
8
BLACK
6
CONTINUOUS
10
199.3114619999999775
20
-140.9705919999999821
11
166.2119480000000067
21
-140.9705919999999821
0
LINE
8
BLACK
6
CONTINUOUS
10
204.3116739999999822
20
-88.8336329999999919
11
218.36104899999998
21
-88.8336329999999919
0
LINE
8
BLACK
6
CONTINUOUS
10
218.36104899999998
20
-102.8830079999999896
11
204.3116739999999822
21
-102.8830079999999896
0
LINE
8
BLACK
6
CONTINUOUS
10
70.9614679999999964
20
-102.8832439999999906
11
70.9614679999999964
21
-88.8338689999999929
0
LINE
8
BLACK
6
CONTINUOUS
10
242.4119519999999852
20
-88.8335149999999913
11
256.4613269999999829
21
-88.8335149999999913
0
LINE
8
BLACK
6
CONTINUOUS
10
275.5114659999999844
20
-83.8327510000000018
11
261.4620909999999867
21
-83.8327510000000018
0
LINE
8
BLACK
6
CONTINUOUS
10
185.2615349999999808
20
-69.7836119999999909
11
199.3109099999999785
21
-69.7836119999999909
0
LINE
8
BLACK
6
CONTINUOUS
10
161.2113990000000001
20
-69.7840249999999997
11
161.2113990000000001
21
-83.8333999999999975
0
LINE
8
BLACK
6
CONTINUOUS
10
204.3116739999999822
20
-50.7334729999999965
11
218.36104899999998
21
-50.7334729999999965
0
LINE
8
BLACK
6
CONTINUOUS
10
147.1620240000000024
20
-140.9836399999999799
11
147.1620240000000024
21
-126.9342649999999963
0
LINE
8
BLACK
6
CONTINUOUS
10
237.4111879999999815
20
-50.7334139999999962
11
237.4111879999999815
21
-64.782788999999994
0
LINE
8
BLACK
6
CONTINUOUS
10
237.914999999999992
20
-46.7349999999999994
11
237.914999999999992
21
-45.2349999999999994
0
LINE
8
BLACK
6
CONTINUOUS
10
256.4615630000000124
20
-140.9827850000000069
11
242.4121879999999862
21
-140.9827850000000069
0
LINE
8
BLACK
6
CONTINUOUS
10
128.1118850000000009
20
-107.8841259999999949
11
142.1612599999999986
21
-107.8841259999999949
0
LINE
8
BLACK
6
CONTINUOUS
10
180.2607710000000054
20
-107.8838310000000007
11
180.2607710000000054
21
-121.9332059999999984
0
LINE
8
BLACK
6
CONTINUOUS
10
98.2149999999999892
20
-146.4849999999999852
11
98.2149999999999892
21
-144.9849999999999852
0
LINE
8
BLACK
6
CONTINUOUS
10
65.9607039999999927
20
-121.9332649999999916
11
51.9113289999999949
21
-121.9332649999999916
0
LINE
8
BLACK
6
CONTINUOUS
10
33.865000000000002
20
-48.2349969999999999
11
96.7149999999999892
21
-48.2349969999999999
0
LINE
8
BLACK
6
CONTINUOUS
10
128.1118850000000009
20
-102.8834209999999985
11
128.1118850000000009
21
-88.8340460000000007
0
LINE
8
BLACK
6
CONTINUOUS
10
85.0108429999999942
20
-107.8839490000000012
11
85.0108429999999942
21
-121.9333239999999989
0
ARC
8
BLACK
10
166.5649999999999977
20
-144.9849999999999852
40
1.500003
50
0.00000000
51
90.00000000
0
LINE
8
BLACK
6
CONTINUOUS
10
8.8102869999999989
20
-69.7835529999999977
11
8.8102869999999989
21
-83.8329279999999954
0
LINE
8
BLACK
6
CONTINUOUS
10
256.4613269999999829
20
-50.733354999999996
11
256.4613269999999829
21
-64.7827300000000008
0
LINE
8
BLACK
6
CONTINUOUS
10
242.4119519999999852
20
-83.8328099999999949
11
242.4119519999999852
21
-69.7834349999999972
0
LINE
8
BLACK
6
CONTINUOUS
10
-5.2390879999999997
20
-88.8336329999999919
11
8.8102869999999989
21
-88.8336329999999919
0
LINE
8
BLACK
6
CONTINUOUS
10
8.8100509999999996
20
-126.9335279999999955
11
8.8100509999999996
21
-140.9829029999999932
0
LINE
8
BLACK
6
CONTINUOUS
10
199.3109099999999785
20
-64.7829069999999945
11
185.2615349999999808
21
-64.7829069999999945
0
LINE
8
BLACK
6
CONTINUOUS
10
70.9615479999999934
20
-126.9211579999999913
11
73.2233360000000033
21
-126.9211869999999891
0
ARC
8
BLACK
10
30.3649999999999984
20
-146.4849969999999928
40
2.0000000000022502
50
-179.99991406
51
-0.00008594
0
LINE
8
BLACK
6
CONTINUOUS
10
65.9604679999999917
20
-126.9337049999999891
11
65.9604679999999917
21
-140.9830800000000011
0
LINE
8
BLACK
6
CONTINUOUS
10
223.3618129999999837
20
-83.8328690000000023
11
223.3618129999999837
21
-69.7834939999999904
0
LINE
8
BLACK
6
CONTINUOUS
10
242.4119519999999852
20
-64.7827300000000008
11
242.4119519999999852
21
-50.733354999999996
0
LINE
8
BLACK
6
CONTINUOUS
10
275.5114659999999844
20
-88.8334559999999982
11
275.5114659999999844
21
-102.8828309999999959
0
LINE
8
BLACK
6
CONTINUOUS
10
185.2615349999999808
20
-107.8837719999999933
11
199.3109099999999785
21
-107.8837719999999933
0
LINE
8
BLACK
6
CONTINUOUS
10
199.3114619999999775
20
-126.9212459999999965
11
197.0496739999999818
21
-126.9212749999999943
0
LINE
8
BLACK
6
CONTINUOUS
10
277.0149999999999864
20
-143.4849969999999928
11
243.414999999999992
21
-143.4849969999999928
0
LINE
8
BLACK
6
CONTINUOUS
10
27.8604260000000004
20
-83.8329870000000028
11
13.8110509999999991
21
-83.8329870000000028
  0
ENDSEC
  0
EOF
