G04 #@! TF.GenerationSoftware,KiCad,Pcbnew,8.0.3*
G04 #@! TF.CreationDate,2024-12-28T10:17:01+01:00*
G04 #@! TF.ProjectId,orthgyle,6f727468-6779-46c6-952e-6b696361645f,1*
G04 #@! TF.SameCoordinates,Original*
G04 #@! TF.FileFunction,Soldermask,Top*
G04 #@! TF.FilePolarity,Negative*
%FSLAX46Y46*%
G04 Gerber Fmt 4.6, Leading zero omitted, Abs format (unit mm)*
G04 Created by KiCad (PCBNEW 8.0.3) date 2024-12-28 10:17:01*
%MOMM*%
%LPD*%
G01*
G04 APERTURE LIST*
%ADD10C,3.987800*%
%ADD11C,3.048000*%
%ADD12C,2.286000*%
%ADD13R,1.600000X1.600000*%
%ADD14O,1.600000X1.600000*%
%ADD15C,1.701800*%
%ADD16C,1.600000*%
%ADD17R,0.900000X1.500000*%
%ADD18C,1.400000*%
%ADD19O,1.400000X1.400000*%
%ADD20C,1.500000*%
%ADD21C,0.650000*%
%ADD22R,0.600000X1.450000*%
%ADD23R,0.300000X1.450000*%
%ADD24O,1.000000X2.100000*%
%ADD25O,1.000000X1.600000*%
%ADD26R,1.800000X1.800000*%
%ADD27C,1.800000*%
%ADD28C,1.710000*%
%ADD29R,1.700000X1.700000*%
%ADD30O,1.700000X1.700000*%
%ADD31R,1.200000X1.200000*%
%ADD32C,1.200000*%
G04 APERTURE END LIST*
D10*
X211963000Y-125095000D03*
X188087000Y-125095000D03*
D11*
X211963000Y-140335000D03*
X188087000Y-140335000D03*
D10*
X200025000Y-133350000D03*
D12*
X196215000Y-130810000D03*
X202565000Y-128270000D03*
D10*
X116713000Y-125095000D03*
X92837000Y-125095000D03*
D11*
X116713000Y-140335000D03*
X92837000Y-140335000D03*
D10*
X104775000Y-133350000D03*
D12*
X100965000Y-130810000D03*
X107315000Y-128270000D03*
D13*
X-21907500Y-125730000D03*
D14*
X-21907500Y-118110000D03*
D15*
X147320000Y-114300000D03*
D10*
X152400000Y-114300000D03*
D15*
X157480000Y-114300000D03*
D12*
X154940000Y-109220000D03*
X148590000Y-111760000D03*
D13*
X318135000Y-115252500D03*
D14*
X318135000Y-107632500D03*
D15*
X128270000Y-114300000D03*
D10*
X133350000Y-114300000D03*
D15*
X138430000Y-114300000D03*
D12*
X135890000Y-109220000D03*
X129540000Y-111760000D03*
D15*
X90170000Y-114300000D03*
D10*
X95250000Y-114300000D03*
D15*
X100330000Y-114300000D03*
D12*
X97790000Y-109220000D03*
X91440000Y-111760000D03*
D15*
X223520000Y-133350000D03*
D10*
X228600000Y-133350000D03*
D15*
X233680000Y-133350000D03*
D12*
X231140000Y-128270000D03*
X224790000Y-130810000D03*
D13*
X-10477500Y-125730000D03*
D14*
X-10477500Y-118110000D03*
D13*
X309562500Y-62865000D03*
D14*
X309562500Y-55245000D03*
D15*
X223520000Y-114300000D03*
D10*
X228600000Y-114300000D03*
D15*
X233680000Y-114300000D03*
D12*
X231140000Y-109220000D03*
X224790000Y-111760000D03*
D13*
X-13335000Y-104775000D03*
D14*
X-13335000Y-97155000D03*
D13*
X312420000Y-125730000D03*
D14*
X312420000Y-118110000D03*
D15*
X13970000Y-95250000D03*
D10*
X19050000Y-95250000D03*
D15*
X24130000Y-95250000D03*
D12*
X21590000Y-90170000D03*
X15240000Y-92710000D03*
D13*
X-10477500Y-104775000D03*
D14*
X-10477500Y-97155000D03*
D13*
X952500Y-73342500D03*
D14*
X952500Y-65722500D03*
D16*
X952500Y-56435000D03*
X952500Y-51435000D03*
D13*
X326707500Y-115252500D03*
D14*
X326707500Y-107632500D03*
D17*
X300990000Y-73800000D03*
X297690000Y-73800000D03*
X297690000Y-78700000D03*
X300990000Y-78700000D03*
D13*
X-4762500Y-94297500D03*
D14*
X-4762500Y-86677500D03*
D13*
X-10477500Y-115252500D03*
D14*
X-10477500Y-107632500D03*
D13*
X-19050000Y-125730000D03*
D14*
X-19050000Y-118110000D03*
D15*
X185420000Y-133350000D03*
D10*
X190500000Y-133350000D03*
D15*
X195580000Y-133350000D03*
D12*
X193040000Y-128270000D03*
X186690000Y-130810000D03*
D13*
X306705000Y-104775000D03*
D14*
X306705000Y-97155000D03*
D13*
X303847500Y-73342500D03*
D14*
X303847500Y-65722500D03*
D16*
X312777500Y-128587500D03*
X317777500Y-128587500D03*
D15*
X71120000Y-95250000D03*
D10*
X76200000Y-95250000D03*
D15*
X81280000Y-95250000D03*
D12*
X78740000Y-90170000D03*
X72390000Y-92710000D03*
D16*
X327660000Y-60960000D03*
X325160000Y-60960000D03*
D15*
X52070000Y-95250000D03*
D10*
X57150000Y-95250000D03*
D15*
X62230000Y-95250000D03*
D12*
X59690000Y-90170000D03*
X53340000Y-92710000D03*
D13*
X952500Y-104775000D03*
D14*
X952500Y-97155000D03*
D13*
X-16192500Y-125730000D03*
D14*
X-16192500Y-118110000D03*
D18*
X-22860000Y-59055000D03*
D19*
X-22860000Y-66675000D03*
D13*
X323850000Y-115252500D03*
D14*
X323850000Y-107632500D03*
D15*
X261620000Y-57150000D03*
D10*
X266700000Y-57150000D03*
D15*
X271780000Y-57150000D03*
D12*
X269240000Y-52070000D03*
X262890000Y-54610000D03*
D15*
X128270000Y-76200000D03*
D10*
X133350000Y-76200000D03*
D15*
X138430000Y-76200000D03*
D12*
X135890000Y-71120000D03*
X129540000Y-73660000D03*
D17*
X300990000Y-92800000D03*
X297690000Y-92800000D03*
X297690000Y-97700000D03*
X300990000Y-97700000D03*
D15*
X185420000Y-95250000D03*
D10*
X190500000Y-95250000D03*
D15*
X195580000Y-95250000D03*
D12*
X193040000Y-90170000D03*
X186690000Y-92710000D03*
D15*
X185420000Y-114300000D03*
D10*
X190500000Y-114300000D03*
D15*
X195580000Y-114300000D03*
D12*
X193040000Y-109220000D03*
X186690000Y-111760000D03*
D13*
X315277500Y-125730000D03*
D14*
X315277500Y-118110000D03*
D13*
X-4762500Y-83820000D03*
D14*
X-4762500Y-76200000D03*
D15*
X109220000Y-57150000D03*
D10*
X114300000Y-57150000D03*
D15*
X119380000Y-57150000D03*
D12*
X116840000Y-52070000D03*
X110490000Y-54610000D03*
D13*
X306705000Y-125730000D03*
D14*
X306705000Y-118110000D03*
D15*
X52070000Y-133350000D03*
D10*
X57150000Y-133350000D03*
D15*
X62230000Y-133350000D03*
D12*
X59690000Y-128270000D03*
X53340000Y-130810000D03*
D15*
X166370000Y-133350000D03*
D10*
X171450000Y-133350000D03*
D15*
X176530000Y-133350000D03*
D12*
X173990000Y-128270000D03*
X167640000Y-130810000D03*
D16*
X-4762500Y-56435000D03*
X-4762500Y-51435000D03*
D15*
X13970000Y-133350000D03*
D10*
X19050000Y-133350000D03*
D15*
X24130000Y-133350000D03*
D12*
X21590000Y-128270000D03*
X15240000Y-130810000D03*
D15*
X242570000Y-133350000D03*
D10*
X247650000Y-133350000D03*
D15*
X252730000Y-133350000D03*
D12*
X250190000Y-128270000D03*
X243840000Y-130810000D03*
D15*
X280670000Y-57150000D03*
D10*
X285750000Y-57150000D03*
D15*
X290830000Y-57150000D03*
D12*
X288290000Y-52070000D03*
X281940000Y-54610000D03*
D13*
X-13335000Y-125730000D03*
D14*
X-13335000Y-118110000D03*
D15*
X280670000Y-95250000D03*
D10*
X285750000Y-95250000D03*
D15*
X290830000Y-95250000D03*
D12*
X288290000Y-90170000D03*
X281940000Y-92710000D03*
D13*
X-7620000Y-115252500D03*
D14*
X-7620000Y-107632500D03*
D16*
X-4405000Y-60007500D03*
X595000Y-60007500D03*
D15*
X242570000Y-57150000D03*
D10*
X247650000Y-57150000D03*
D15*
X252730000Y-57150000D03*
D12*
X250190000Y-52070000D03*
X243840000Y-54610000D03*
D17*
X3810000Y-135650000D03*
X7110000Y-135650000D03*
X7110000Y-130750000D03*
X3810000Y-130750000D03*
D20*
X326707500Y-71030000D03*
X326707500Y-66150000D03*
D15*
X128270000Y-133350000D03*
D10*
X133350000Y-133350000D03*
D15*
X138430000Y-133350000D03*
D12*
X135890000Y-128270000D03*
X129540000Y-130810000D03*
D13*
X-13335000Y-115252500D03*
D14*
X-13335000Y-107632500D03*
D13*
X-4762500Y-104775000D03*
D14*
X-4762500Y-97155000D03*
D13*
X303847500Y-115252500D03*
D14*
X303847500Y-107632500D03*
D15*
X90170000Y-95250000D03*
D10*
X95250000Y-95250000D03*
D15*
X100330000Y-95250000D03*
D12*
X97790000Y-90170000D03*
X91440000Y-92710000D03*
D15*
X185420000Y-57150000D03*
D10*
X190500000Y-57150000D03*
D15*
X195580000Y-57150000D03*
D12*
X193040000Y-52070000D03*
X186690000Y-54610000D03*
D15*
X147320000Y-76200000D03*
D10*
X152400000Y-76200000D03*
D15*
X157480000Y-76200000D03*
D12*
X154940000Y-71120000D03*
X148590000Y-73660000D03*
D13*
X-21907500Y-115252500D03*
D14*
X-21907500Y-107632500D03*
D13*
X303847500Y-125730000D03*
D14*
X303847500Y-118110000D03*
D16*
X303847500Y-51435000D03*
X308847500Y-51435000D03*
D13*
X309562500Y-115252500D03*
D14*
X309562500Y-107632500D03*
D15*
X242570000Y-76200000D03*
D10*
X247650000Y-76200000D03*
D15*
X252730000Y-76200000D03*
D12*
X250190000Y-71120000D03*
X243840000Y-73660000D03*
D13*
X306705000Y-73342500D03*
D14*
X306705000Y-65722500D03*
D16*
X311467500Y-51435000D03*
X316467500Y-51435000D03*
D18*
X-22860000Y-87630000D03*
D19*
X-22860000Y-80010000D03*
D15*
X33020000Y-57150000D03*
D10*
X38100000Y-57150000D03*
D15*
X43180000Y-57150000D03*
D12*
X40640000Y-52070000D03*
X34290000Y-54610000D03*
D13*
X952500Y-125730000D03*
D14*
X952500Y-118110000D03*
D13*
X309562500Y-94297500D03*
D14*
X309562500Y-86677500D03*
D15*
X147320000Y-95250000D03*
D10*
X152400000Y-95250000D03*
D15*
X157480000Y-95250000D03*
D12*
X154940000Y-90170000D03*
X148590000Y-92710000D03*
D15*
X109220000Y-114300000D03*
D10*
X114300000Y-114300000D03*
D15*
X119380000Y-114300000D03*
D12*
X116840000Y-109220000D03*
X110490000Y-111760000D03*
D15*
X33020000Y-114300000D03*
D10*
X38100000Y-114300000D03*
D15*
X43180000Y-114300000D03*
D12*
X40640000Y-109220000D03*
X34290000Y-111760000D03*
D13*
X-16192500Y-80010000D03*
D14*
X-8572500Y-80010000D03*
D13*
X303847500Y-83820000D03*
D14*
X303847500Y-76200000D03*
D17*
X3810000Y-116650000D03*
X7110000Y-116650000D03*
X7110000Y-111750000D03*
X3810000Y-111750000D03*
D15*
X185420000Y-76200000D03*
D10*
X190500000Y-76200000D03*
D15*
X195580000Y-76200000D03*
D12*
X193040000Y-71120000D03*
X186690000Y-73660000D03*
D15*
X52070000Y-57150000D03*
D10*
X57150000Y-57150000D03*
D15*
X62230000Y-57150000D03*
D12*
X59690000Y-52070000D03*
X53340000Y-54610000D03*
D15*
X166370000Y-95250000D03*
D10*
X171450000Y-95250000D03*
D15*
X176530000Y-95250000D03*
D12*
X173990000Y-90170000D03*
X167640000Y-92710000D03*
D13*
X952500Y-115252500D03*
D14*
X952500Y-107632500D03*
D13*
X-1905000Y-104775000D03*
D14*
X-1905000Y-97155000D03*
D13*
X-7620000Y-104775000D03*
D14*
X-7620000Y-97155000D03*
D18*
X-20002500Y-87630000D03*
D19*
X-20002500Y-80010000D03*
D15*
X90170000Y-133350000D03*
D10*
X95250000Y-133350000D03*
D15*
X100330000Y-133350000D03*
D12*
X97790000Y-128270000D03*
X91440000Y-130810000D03*
D15*
X280670000Y-76200000D03*
D10*
X285750000Y-76200000D03*
D15*
X290830000Y-76200000D03*
D12*
X288290000Y-71120000D03*
X281940000Y-73660000D03*
D21*
X-9458750Y-52227500D03*
X-15238750Y-52227500D03*
D22*
X-9098750Y-53672500D03*
X-9898750Y-53672500D03*
D23*
X-11098750Y-53672500D03*
X-12098750Y-53672500D03*
X-12598750Y-53672500D03*
X-13598750Y-53672500D03*
D22*
X-14798750Y-53672500D03*
X-15598750Y-53672500D03*
X-15598750Y-53672500D03*
X-14798750Y-53672500D03*
D23*
X-14098750Y-53672500D03*
X-13098750Y-53672500D03*
X-11598750Y-53672500D03*
X-10598750Y-53672500D03*
D22*
X-9898750Y-53672500D03*
X-9098750Y-53672500D03*
D24*
X-8028750Y-52757500D03*
D25*
X-8028750Y-48577500D03*
D24*
X-16668750Y-52757500D03*
D25*
X-16668750Y-48577500D03*
D26*
X-12382500Y-90170000D03*
D27*
X-12382500Y-87630000D03*
D13*
X-16192500Y-104775000D03*
D14*
X-16192500Y-97155000D03*
D13*
X303847500Y-94297500D03*
D14*
X303847500Y-86677500D03*
D17*
X3810000Y-59450000D03*
X7110000Y-59450000D03*
X7110000Y-54550000D03*
X3810000Y-54550000D03*
D15*
X166370000Y-76200000D03*
D10*
X171450000Y-76200000D03*
D15*
X176530000Y-76200000D03*
D12*
X173990000Y-71120000D03*
X167640000Y-73660000D03*
D15*
X128270000Y-57150000D03*
D10*
X133350000Y-57150000D03*
D15*
X138430000Y-57150000D03*
D12*
X135890000Y-52070000D03*
X129540000Y-54610000D03*
D13*
X320992500Y-115252500D03*
D14*
X320992500Y-107632500D03*
D15*
X13970000Y-114300000D03*
D10*
X19050000Y-114300000D03*
D15*
X24130000Y-114300000D03*
D12*
X21590000Y-109220000D03*
X15240000Y-111760000D03*
D13*
X318135000Y-125730000D03*
D14*
X318135000Y-118110000D03*
D13*
X306705000Y-94297500D03*
D14*
X306705000Y-86677500D03*
D13*
X952500Y-94297500D03*
D14*
X952500Y-86677500D03*
D13*
X-1905000Y-83820000D03*
D14*
X-1905000Y-76200000D03*
D13*
X312420000Y-104775000D03*
D14*
X312420000Y-97155000D03*
D16*
X327660000Y-76200000D03*
X325160000Y-76200000D03*
D15*
X109220000Y-133350000D03*
D10*
X114300000Y-133350000D03*
D15*
X119380000Y-133350000D03*
D12*
X116840000Y-128270000D03*
X110490000Y-130810000D03*
D15*
X204470000Y-95250000D03*
D10*
X209550000Y-95250000D03*
D15*
X214630000Y-95250000D03*
D12*
X212090000Y-90170000D03*
X205740000Y-92710000D03*
D13*
X-7620000Y-125730000D03*
D14*
X-7620000Y-118110000D03*
D15*
X223520000Y-95250000D03*
D10*
X228600000Y-95250000D03*
D15*
X233680000Y-95250000D03*
D12*
X231140000Y-90170000D03*
X224790000Y-92710000D03*
D13*
X323850000Y-104775000D03*
D14*
X323850000Y-97155000D03*
D13*
X312420000Y-115252500D03*
D14*
X312420000Y-107632500D03*
D16*
X-12977500Y-128587500D03*
X-7977500Y-128587500D03*
D13*
X318135000Y-104775000D03*
D14*
X318135000Y-97155000D03*
D15*
X204470000Y-114300000D03*
D10*
X209550000Y-114300000D03*
D15*
X214630000Y-114300000D03*
D12*
X212090000Y-109220000D03*
X205740000Y-111760000D03*
D13*
X952500Y-83820000D03*
D14*
X952500Y-76200000D03*
D13*
X-1905000Y-94297500D03*
D14*
X-1905000Y-86677500D03*
D13*
X315277500Y-104775000D03*
D14*
X315277500Y-97155000D03*
D15*
X13970000Y-57150000D03*
D10*
X19050000Y-57150000D03*
D15*
X24130000Y-57150000D03*
D12*
X21590000Y-52070000D03*
X15240000Y-54610000D03*
D13*
X-1905000Y-125730000D03*
D14*
X-1905000Y-118110000D03*
D17*
X300990000Y-54800000D03*
X297690000Y-54800000D03*
X297690000Y-59700000D03*
X300990000Y-59700000D03*
D13*
X-19050000Y-115252500D03*
D14*
X-19050000Y-107632500D03*
D13*
X306705000Y-62865000D03*
D14*
X306705000Y-55245000D03*
D15*
X52070000Y-114300000D03*
D10*
X57150000Y-114300000D03*
D15*
X62230000Y-114300000D03*
D12*
X59690000Y-109220000D03*
X53340000Y-111760000D03*
D16*
X321350000Y-128587500D03*
X326350000Y-128587500D03*
D13*
X303847500Y-104775000D03*
D14*
X303847500Y-97155000D03*
D13*
X-1905000Y-115252500D03*
D14*
X-1905000Y-107632500D03*
D18*
X320040000Y-94297500D03*
D19*
X327660000Y-94297500D03*
D13*
X315277500Y-115252500D03*
D14*
X315277500Y-107632500D03*
D17*
X3810000Y-97650000D03*
X7110000Y-97650000D03*
X7110000Y-92750000D03*
X3810000Y-92750000D03*
D13*
X309562500Y-73342500D03*
D14*
X309562500Y-65722500D03*
D17*
X300991264Y-111800157D03*
X297691264Y-111800157D03*
X297691264Y-116700157D03*
X300991264Y-116700157D03*
D13*
X303847500Y-62865000D03*
D14*
X303847500Y-55245000D03*
D15*
X223520000Y-57150000D03*
D10*
X228600000Y-57150000D03*
D15*
X233680000Y-57150000D03*
D12*
X231140000Y-52070000D03*
X224790000Y-54610000D03*
D15*
X261620000Y-133350000D03*
D10*
X266700000Y-133350000D03*
D15*
X271780000Y-133350000D03*
D12*
X269240000Y-128270000D03*
X262890000Y-130810000D03*
D15*
X71120000Y-114300000D03*
D10*
X76200000Y-114300000D03*
D15*
X81280000Y-114300000D03*
D12*
X78740000Y-109220000D03*
X72390000Y-111760000D03*
D13*
X309562500Y-125730000D03*
D14*
X309562500Y-118110000D03*
D15*
X204470000Y-76200000D03*
D10*
X209550000Y-76200000D03*
D15*
X214630000Y-76200000D03*
D12*
X212090000Y-71120000D03*
X205740000Y-73660000D03*
D15*
X204470000Y-133350000D03*
D10*
X209550000Y-133350000D03*
D15*
X214630000Y-133350000D03*
D12*
X212090000Y-128270000D03*
X205740000Y-130810000D03*
D15*
X261620000Y-114300000D03*
D10*
X266700000Y-114300000D03*
D15*
X271780000Y-114300000D03*
D12*
X269240000Y-109220000D03*
X262890000Y-111760000D03*
D15*
X166370000Y-57150000D03*
D10*
X171450000Y-57150000D03*
D15*
X176530000Y-57150000D03*
D12*
X173990000Y-52070000D03*
X167640000Y-54610000D03*
D15*
X204470000Y-57150000D03*
D10*
X209550000Y-57150000D03*
D15*
X214630000Y-57150000D03*
D12*
X212090000Y-52070000D03*
X205740000Y-54610000D03*
D13*
X306705000Y-115252500D03*
D14*
X306705000Y-107632500D03*
D15*
X147320000Y-57150000D03*
D10*
X152400000Y-57150000D03*
D15*
X157480000Y-57150000D03*
D12*
X154940000Y-52070000D03*
X148590000Y-54610000D03*
D15*
X128270000Y-95250000D03*
D10*
X133350000Y-95250000D03*
D15*
X138430000Y-95250000D03*
D12*
X135890000Y-90170000D03*
X129540000Y-92710000D03*
D15*
X166370000Y-114300000D03*
D10*
X171450000Y-114300000D03*
D15*
X176530000Y-114300000D03*
D12*
X173990000Y-109220000D03*
X167640000Y-111760000D03*
D15*
X33020000Y-76200000D03*
D10*
X38100000Y-76200000D03*
D15*
X43180000Y-76200000D03*
D12*
X40640000Y-71120000D03*
X34290000Y-73660000D03*
D16*
X-21550000Y-128587500D03*
X-16550000Y-128587500D03*
D15*
X52070000Y-76200000D03*
D10*
X57150000Y-76200000D03*
D15*
X62230000Y-76200000D03*
D12*
X59690000Y-71120000D03*
X53340000Y-73660000D03*
D13*
X323850000Y-125730000D03*
D14*
X323850000Y-118110000D03*
D13*
X320992500Y-104775000D03*
D14*
X320992500Y-97155000D03*
D12*
X154940000Y-128270000D03*
X148590000Y-130810000D03*
D13*
X-4762500Y-125730000D03*
D14*
X-4762500Y-118110000D03*
D15*
X33020000Y-133350000D03*
D10*
X38100000Y-133350000D03*
D15*
X43180000Y-133350000D03*
D12*
X40640000Y-128270000D03*
X34290000Y-130810000D03*
D28*
X-15101292Y-61069949D03*
X-10001292Y-62269949D03*
D18*
X-22860000Y-77152500D03*
D19*
X-22860000Y-69532500D03*
D16*
X304205000Y-128587500D03*
X309205000Y-128587500D03*
D15*
X242570000Y-95250000D03*
D10*
X247650000Y-95250000D03*
D15*
X252730000Y-95250000D03*
D12*
X250190000Y-90170000D03*
X243840000Y-92710000D03*
D29*
X325432500Y-85105000D03*
D30*
X327972500Y-85105000D03*
X325432500Y-87645000D03*
X327972500Y-87645000D03*
X325432500Y-90185000D03*
X327972500Y-90185000D03*
D15*
X90170000Y-57150000D03*
D10*
X95250000Y-57150000D03*
D15*
X100330000Y-57150000D03*
D12*
X97790000Y-52070000D03*
X91440000Y-54610000D03*
D17*
X300990000Y-130800000D03*
X297690000Y-130800000D03*
X297690000Y-135700000D03*
X300990000Y-135700000D03*
D13*
X-4762500Y-73342500D03*
D14*
X-4762500Y-65722500D03*
D18*
X-20002500Y-77152500D03*
D19*
X-20002500Y-69532500D03*
D13*
X-16192500Y-77152500D03*
D14*
X-8572500Y-77152500D03*
D15*
X261620000Y-95250000D03*
D10*
X266700000Y-95250000D03*
D15*
X271780000Y-95250000D03*
D12*
X269240000Y-90170000D03*
X262890000Y-92710000D03*
D15*
X13970000Y-76200000D03*
D10*
X19050000Y-76200000D03*
D15*
X24130000Y-76200000D03*
D12*
X21590000Y-71120000D03*
X15240000Y-73660000D03*
D13*
X326707500Y-104775000D03*
D14*
X326707500Y-97155000D03*
D13*
X326707500Y-125730000D03*
D14*
X326707500Y-118110000D03*
D15*
X90170000Y-76200000D03*
D10*
X95250000Y-76200000D03*
D15*
X100330000Y-76200000D03*
D12*
X97790000Y-71120000D03*
X91440000Y-73660000D03*
D13*
X-21907500Y-104775000D03*
D14*
X-21907500Y-97155000D03*
D15*
X109220000Y-95250000D03*
D10*
X114300000Y-95250000D03*
D15*
X119380000Y-95250000D03*
D12*
X116840000Y-90170000D03*
X110490000Y-92710000D03*
D13*
X320992500Y-90487500D03*
D14*
X320992500Y-87947500D03*
X320992500Y-85407500D03*
X320992500Y-82867500D03*
X320992500Y-80327500D03*
X320992500Y-77787500D03*
X320992500Y-75247500D03*
X320992500Y-72707500D03*
X320992500Y-70167500D03*
X320992500Y-67627500D03*
X320992500Y-65087500D03*
X320992500Y-62547500D03*
X320992500Y-60007500D03*
X320992500Y-57467500D03*
X313372500Y-57467500D03*
X313372500Y-60007500D03*
X313372500Y-62547500D03*
X313372500Y-65087500D03*
X313372500Y-67627500D03*
X313372500Y-70167500D03*
X313372500Y-72707500D03*
X313372500Y-75247500D03*
X313372500Y-77787500D03*
X313372500Y-80327500D03*
X313372500Y-82867500D03*
X313372500Y-85407500D03*
X313372500Y-87947500D03*
X313372500Y-90487500D03*
D16*
X-1905000Y-56435000D03*
X-1905000Y-51435000D03*
D13*
X-16192500Y-115252500D03*
D14*
X-16192500Y-107632500D03*
D13*
X-19050000Y-104775000D03*
D14*
X-19050000Y-97155000D03*
D15*
X71120000Y-133350000D03*
D10*
X76200000Y-133350000D03*
D15*
X81280000Y-133350000D03*
D12*
X78740000Y-128270000D03*
X72390000Y-130810000D03*
D15*
X280670000Y-114300000D03*
D10*
X285750000Y-114300000D03*
D15*
X290830000Y-114300000D03*
D12*
X288290000Y-109220000D03*
X281940000Y-111760000D03*
D16*
X-4405000Y-128587500D03*
X595000Y-128587500D03*
D18*
X-20002500Y-59055000D03*
D19*
X-20002500Y-66675000D03*
D15*
X71120000Y-57150000D03*
D10*
X76200000Y-57150000D03*
D15*
X81280000Y-57150000D03*
D12*
X78740000Y-52070000D03*
X72390000Y-54610000D03*
D13*
X306705000Y-83820000D03*
D14*
X306705000Y-76200000D03*
D13*
X-4762500Y-115252500D03*
D14*
X-4762500Y-107632500D03*
D15*
X242570000Y-114300000D03*
D10*
X247650000Y-114300000D03*
D15*
X252730000Y-114300000D03*
D12*
X250190000Y-109220000D03*
X243840000Y-111760000D03*
D13*
X320992500Y-125730000D03*
D14*
X320992500Y-118110000D03*
D17*
X3810000Y-78650000D03*
X7110000Y-78650000D03*
X7110000Y-73750000D03*
X3810000Y-73750000D03*
D15*
X280670000Y-133350000D03*
D10*
X285750000Y-133350000D03*
D15*
X290830000Y-133350000D03*
D12*
X288290000Y-128270000D03*
X281940000Y-130810000D03*
D31*
X-13335000Y-72390304D03*
D32*
X-11835000Y-72390304D03*
D13*
X309562500Y-83820000D03*
D14*
X309562500Y-76200000D03*
D15*
X261620000Y-76200000D03*
D10*
X266700000Y-76200000D03*
D15*
X271780000Y-76200000D03*
D12*
X269240000Y-71120000D03*
X262890000Y-73660000D03*
D15*
X71120000Y-76200000D03*
D10*
X76200000Y-76200000D03*
D15*
X81280000Y-76200000D03*
D12*
X78740000Y-71120000D03*
X72390000Y-73660000D03*
D15*
X109220000Y-76200000D03*
D10*
X114300000Y-76200000D03*
D15*
X119380000Y-76200000D03*
D12*
X116840000Y-71120000D03*
X110490000Y-73660000D03*
D13*
X309562500Y-104775000D03*
D14*
X309562500Y-97155000D03*
D13*
X-1905000Y-73342500D03*
D14*
X-1905000Y-65722500D03*
D15*
X223520000Y-76200000D03*
D10*
X228600000Y-76200000D03*
D15*
X233680000Y-76200000D03*
D12*
X231140000Y-71120000D03*
X224790000Y-73660000D03*
D15*
X33020000Y-95250000D03*
D10*
X38100000Y-95250000D03*
D15*
X43180000Y-95250000D03*
D12*
X40640000Y-90170000D03*
X34290000Y-92710000D03*
M02*
