%TF.GenerationSoftware,KiCad,Pcbnew,9.0.0*%
%TF.CreationDate,2025-03-29T22:01:33+01:00*%
%TF.ProjectId,orthgyle,6f727468-6779-46c6-952e-6b696361645f,1*%
%TF.SameCoordinates,Original*%
%TF.FileFunction,Paste,Bot*%
%TF.FilePolarity,Positive*%
%FSLAX46Y46*%
G04 Gerber Fmt 4.6, Leading zero omitted, Abs format (unit mm)*
G04 Created by KiCad (PCBNEW 9.0.0) date 2025-03-29 22:01:33*
%MOMM*%
%LPD*%
G01*
G04 APERTURE LIST*
G04 Aperture macros list*
%AMRoundRect*
0 Rectangle with rounded corners*
0 $1 Rounding radius*
0 $2 $3 $4 $5 $6 $7 $8 $9 X,Y pos of 4 corners*
0 Add a 4 corners polygon primitive as box body*
4,1,4,$2,$3,$4,$5,$6,$7,$8,$9,$2,$3,0*
0 Add four circle primitives for the rounded corners*
1,1,$1+$1,$2,$3*
1,1,$1+$1,$4,$5*
1,1,$1+$1,$6,$7*
1,1,$1+$1,$8,$9*
0 Add four rect primitives between the rounded corners*
20,1,$1+$1,$2,$3,$4,$5,0*
20,1,$1+$1,$4,$5,$6,$7,0*
20,1,$1+$1,$6,$7,$8,$9,0*
20,1,$1+$1,$8,$9,$2,$3,0*%
G04 Aperture macros list end*
%ADD10R,0.820000X1.700000*%
%ADD11RoundRect,0.205000X0.205000X-0.645000X0.205000X0.645000X-0.205000X0.645000X-0.205000X-0.645000X0*%
%ADD12RoundRect,0.205000X-0.205000X0.645000X-0.205000X-0.645000X0.205000X-0.645000X0.205000X0.645000X0*%
G04 APERTURE END LIST*
D10*
X357390000Y-125486000D03*
X358890000Y-125486000D03*
D11*
X358890000Y-120386000D03*
D10*
X357390000Y-120386000D03*
X357390000Y-144542159D03*
X358890000Y-144542159D03*
D11*
X358890000Y-139442159D03*
D10*
X357390000Y-139442159D03*
X63742000Y-177442159D03*
X62242000Y-177442159D03*
D12*
X62242000Y-182542159D03*
D10*
X63742000Y-182542159D03*
X63742000Y-158442159D03*
X62242000Y-158442159D03*
D12*
X62242000Y-163542159D03*
D10*
X63742000Y-163542159D03*
X63742000Y-101082000D03*
X62242000Y-101082000D03*
D12*
X62242000Y-106182000D03*
D10*
X63742000Y-106182000D03*
X357390000Y-106182000D03*
X358890000Y-106182000D03*
D11*
X358890000Y-101082000D03*
D10*
X357390000Y-101082000D03*
X63742000Y-139442159D03*
X62242000Y-139442159D03*
D12*
X62242000Y-144542159D03*
D10*
X63742000Y-144542159D03*
X357390000Y-163542159D03*
X358890000Y-163542159D03*
D11*
X358890000Y-158442159D03*
D10*
X357390000Y-158442159D03*
X357390000Y-182542159D03*
X358890000Y-182542159D03*
D11*
X358890000Y-177442159D03*
D10*
X357390000Y-177442159D03*
X63742000Y-120386000D03*
X62242000Y-120386000D03*
D12*
X62242000Y-125486000D03*
D10*
X63742000Y-125486000D03*
M02*
