G04 #@! TF.GenerationSoftware,KiCad,Pcbnew,8.0.3*
G04 #@! TF.CreationDate,2024-12-29T10:49:11+01:00*
G04 #@! TF.ProjectId,orthgyle,6f727468-6779-46c6-952e-6b696361645f,1*
G04 #@! TF.SameCoordinates,Original*
G04 #@! TF.FileFunction,Soldermask,Top*
G04 #@! TF.FilePolarity,Negative*
%FSLAX46Y46*%
G04 Gerber Fmt 4.6, Leading zero omitted, Abs format (unit mm)*
G04 Created by KiCad (PCBNEW 8.0.3) date 2024-12-29 10:49:11*
%MOMM*%
%LPD*%
G01*
G04 APERTURE LIST*
%ADD10C,2.286000*%
%ADD11R,1.600000X1.600000*%
%ADD12O,1.600000X1.600000*%
%ADD13C,1.701800*%
%ADD14C,3.987800*%
%ADD15C,1.600000*%
%ADD16R,0.900000X1.500000*%
%ADD17C,1.400000*%
%ADD18O,1.400000X1.400000*%
%ADD19C,1.500000*%
%ADD20C,0.650000*%
%ADD21R,0.600000X1.450000*%
%ADD22R,0.300000X1.450000*%
%ADD23O,1.000000X2.100000*%
%ADD24O,1.000000X1.600000*%
%ADD25R,1.800000X1.800000*%
%ADD26C,1.800000*%
%ADD27C,1.710000*%
%ADD28R,1.700000X1.700000*%
%ADD29O,1.700000X1.700000*%
%ADD30R,1.200000X1.200000*%
%ADD31C,1.200000*%
G04 APERTURE END LIST*
D10*
X165537447Y-175062159D03*
X159187447Y-177602159D03*
X260787447Y-175062159D03*
X254437447Y-177602159D03*
D11*
X36314947Y-172522159D03*
D12*
X36314947Y-164902159D03*
D13*
X205542447Y-161092159D03*
D14*
X210622447Y-161092159D03*
D13*
X215702447Y-161092159D03*
D10*
X213162447Y-156012159D03*
X206812447Y-158552159D03*
D11*
X376357447Y-162044659D03*
D12*
X376357447Y-154424659D03*
D13*
X186492447Y-161092159D03*
D14*
X191572447Y-161092159D03*
D13*
X196652447Y-161092159D03*
D10*
X194112447Y-156012159D03*
X187762447Y-158552159D03*
D13*
X148392447Y-161092159D03*
D14*
X153472447Y-161092159D03*
D13*
X158552447Y-161092159D03*
D10*
X156012447Y-156012159D03*
X149662447Y-158552159D03*
D13*
X281742447Y-180142159D03*
D14*
X286822447Y-180142159D03*
D13*
X291902447Y-180142159D03*
D10*
X289362447Y-175062159D03*
X283012447Y-177602159D03*
D11*
X47744947Y-172522159D03*
D12*
X47744947Y-164902159D03*
D11*
X367784947Y-109657159D03*
D12*
X367784947Y-102037159D03*
D13*
X281742447Y-161092159D03*
D14*
X286822447Y-161092159D03*
D13*
X291902447Y-161092159D03*
D10*
X289362447Y-156012159D03*
X283012447Y-158552159D03*
D11*
X44887447Y-151567159D03*
D12*
X44887447Y-143947159D03*
D11*
X370642447Y-172522159D03*
D12*
X370642447Y-164902159D03*
D13*
X72192447Y-142042159D03*
D14*
X77272447Y-142042159D03*
D13*
X82352447Y-142042159D03*
D10*
X79812447Y-136962159D03*
X73462447Y-139502159D03*
D11*
X47744947Y-151567159D03*
D12*
X47744947Y-143947159D03*
D11*
X59174947Y-120134659D03*
D12*
X59174947Y-112514659D03*
D15*
X59174947Y-103227159D03*
X59174947Y-98227159D03*
D11*
X384929947Y-162044659D03*
D12*
X384929947Y-154424659D03*
D16*
X359212447Y-120592159D03*
X355912447Y-120592159D03*
X355912447Y-125492159D03*
X359212447Y-125492159D03*
D11*
X53459947Y-141089659D03*
D12*
X53459947Y-133469659D03*
D11*
X47744947Y-162044659D03*
D12*
X47744947Y-154424659D03*
D11*
X39172447Y-172522159D03*
D12*
X39172447Y-164902159D03*
D13*
X243642447Y-180142159D03*
D14*
X248722447Y-180142159D03*
D13*
X253802447Y-180142159D03*
D10*
X251262447Y-175062159D03*
X244912447Y-177602159D03*
D11*
X364927447Y-151567159D03*
D12*
X364927447Y-143947159D03*
D11*
X362069947Y-120134659D03*
D12*
X362069947Y-112514659D03*
D15*
X370999947Y-175379659D03*
X375999947Y-175379659D03*
D13*
X129342447Y-142042159D03*
D14*
X134422447Y-142042159D03*
D13*
X139502447Y-142042159D03*
D10*
X136962447Y-136962159D03*
X130612447Y-139502159D03*
D15*
X385882447Y-107752159D03*
X383382447Y-107752159D03*
D13*
X110292447Y-142042159D03*
D14*
X115372447Y-142042159D03*
D13*
X120452447Y-142042159D03*
D10*
X117912447Y-136962159D03*
X111562447Y-139502159D03*
D11*
X59174947Y-151567159D03*
D12*
X59174947Y-143947159D03*
D11*
X42029947Y-172522159D03*
D12*
X42029947Y-164902159D03*
D17*
X35362447Y-105847159D03*
D18*
X35362447Y-113467159D03*
D11*
X382072447Y-162044659D03*
D12*
X382072447Y-154424659D03*
D13*
X319842447Y-103942159D03*
D14*
X324922447Y-103942159D03*
D13*
X330002447Y-103942159D03*
D10*
X327462447Y-98862159D03*
X321112447Y-101402159D03*
D13*
X186492447Y-122992159D03*
D14*
X191572447Y-122992159D03*
D13*
X196652447Y-122992159D03*
D10*
X194112447Y-117912159D03*
X187762447Y-120452159D03*
D16*
X359212447Y-139592159D03*
X355912447Y-139592159D03*
X355912447Y-144492159D03*
X359212447Y-144492159D03*
D13*
X243642447Y-142042159D03*
D14*
X248722447Y-142042159D03*
D13*
X253802447Y-142042159D03*
D10*
X251262447Y-136962159D03*
X244912447Y-139502159D03*
D13*
X243642447Y-161092159D03*
D14*
X248722447Y-161092159D03*
D13*
X253802447Y-161092159D03*
D10*
X251262447Y-156012159D03*
X244912447Y-158552159D03*
D11*
X373499947Y-172522159D03*
D12*
X373499947Y-164902159D03*
D11*
X53459947Y-130612159D03*
D12*
X53459947Y-122992159D03*
D13*
X167442447Y-103942159D03*
D14*
X172522447Y-103942159D03*
D13*
X177602447Y-103942159D03*
D10*
X175062447Y-98862159D03*
X168712447Y-101402159D03*
D11*
X364927447Y-172522159D03*
D12*
X364927447Y-164902159D03*
D13*
X110292447Y-180142159D03*
D14*
X115372447Y-180142159D03*
D13*
X120452447Y-180142159D03*
D10*
X117912447Y-175062159D03*
X111562447Y-177602159D03*
D13*
X224592447Y-180142159D03*
D14*
X229672447Y-180142159D03*
D13*
X234752447Y-180142159D03*
D10*
X232212447Y-175062159D03*
X225862447Y-177602159D03*
D15*
X53459947Y-103227159D03*
X53459947Y-98227159D03*
D13*
X72192447Y-180142159D03*
D14*
X77272447Y-180142159D03*
D13*
X82352447Y-180142159D03*
D10*
X79812447Y-175062159D03*
X73462447Y-177602159D03*
D13*
X300792447Y-180142159D03*
D14*
X305872447Y-180142159D03*
D13*
X310952447Y-180142159D03*
D10*
X308412447Y-175062159D03*
X302062447Y-177602159D03*
D13*
X338892447Y-103942159D03*
D14*
X343972447Y-103942159D03*
D13*
X349052447Y-103942159D03*
D10*
X346512447Y-98862159D03*
X340162447Y-101402159D03*
D11*
X44887447Y-172522159D03*
D12*
X44887447Y-164902159D03*
D13*
X338892447Y-142042159D03*
D14*
X343972447Y-142042159D03*
D13*
X349052447Y-142042159D03*
D10*
X346512447Y-136962159D03*
X340162447Y-139502159D03*
D11*
X50602447Y-162044659D03*
D12*
X50602447Y-154424659D03*
D15*
X53817447Y-106799659D03*
X58817447Y-106799659D03*
D13*
X300792447Y-103942159D03*
D14*
X305872447Y-103942159D03*
D13*
X310952447Y-103942159D03*
D10*
X308412447Y-98862159D03*
X302062447Y-101402159D03*
D16*
X62032447Y-182442159D03*
X65332447Y-182442159D03*
X65332447Y-177542159D03*
X62032447Y-177542159D03*
D19*
X384929947Y-117822159D03*
X384929947Y-112942159D03*
D13*
X186492447Y-180142159D03*
D14*
X191572447Y-180142159D03*
D13*
X196652447Y-180142159D03*
D10*
X194112447Y-175062159D03*
X187762447Y-177602159D03*
D11*
X44887447Y-162044659D03*
D12*
X44887447Y-154424659D03*
D11*
X53459947Y-151567159D03*
D12*
X53459947Y-143947159D03*
D11*
X362069947Y-162044659D03*
D12*
X362069947Y-154424659D03*
D13*
X148392447Y-142042159D03*
D14*
X153472447Y-142042159D03*
D13*
X158552447Y-142042159D03*
D10*
X156012447Y-136962159D03*
X149662447Y-139502159D03*
D13*
X243642447Y-103942159D03*
D14*
X248722447Y-103942159D03*
D13*
X253802447Y-103942159D03*
D10*
X251262447Y-98862159D03*
X244912447Y-101402159D03*
D13*
X205542447Y-122992159D03*
D14*
X210622447Y-122992159D03*
D13*
X215702447Y-122992159D03*
D10*
X213162447Y-117912159D03*
X206812447Y-120452159D03*
D11*
X36314947Y-162044659D03*
D12*
X36314947Y-154424659D03*
D11*
X362069947Y-172522159D03*
D12*
X362069947Y-164902159D03*
D15*
X362069947Y-98227159D03*
X367069947Y-98227159D03*
D11*
X367784947Y-162044659D03*
D12*
X367784947Y-154424659D03*
D13*
X300792447Y-122992159D03*
D14*
X305872447Y-122992159D03*
D13*
X310952447Y-122992159D03*
D10*
X308412447Y-117912159D03*
X302062447Y-120452159D03*
D11*
X364927447Y-120134659D03*
D12*
X364927447Y-112514659D03*
D15*
X369689947Y-98227159D03*
X374689947Y-98227159D03*
D17*
X35362447Y-134422159D03*
D18*
X35362447Y-126802159D03*
D13*
X91242447Y-103942159D03*
D14*
X96322447Y-103942159D03*
D13*
X101402447Y-103942159D03*
D10*
X98862447Y-98862159D03*
X92512447Y-101402159D03*
D11*
X59174947Y-172522159D03*
D12*
X59174947Y-164902159D03*
D11*
X367784947Y-141089659D03*
D12*
X367784947Y-133469659D03*
D13*
X205542447Y-142042159D03*
D14*
X210622447Y-142042159D03*
D13*
X215702447Y-142042159D03*
D10*
X213162447Y-136962159D03*
X206812447Y-139502159D03*
D13*
X167442447Y-161092159D03*
D14*
X172522447Y-161092159D03*
D13*
X177602447Y-161092159D03*
D10*
X175062447Y-156012159D03*
X168712447Y-158552159D03*
D13*
X91242447Y-161092159D03*
D14*
X96322447Y-161092159D03*
D13*
X101402447Y-161092159D03*
D10*
X98862447Y-156012159D03*
X92512447Y-158552159D03*
D11*
X42029947Y-126802159D03*
D12*
X49649947Y-126802159D03*
D11*
X362069947Y-130612159D03*
D12*
X362069947Y-122992159D03*
D16*
X62032447Y-163442159D03*
X65332447Y-163442159D03*
X65332447Y-158542159D03*
X62032447Y-158542159D03*
D13*
X243642447Y-122992159D03*
D14*
X248722447Y-122992159D03*
D13*
X253802447Y-122992159D03*
D10*
X251262447Y-117912159D03*
X244912447Y-120452159D03*
D13*
X110292447Y-103942159D03*
D14*
X115372447Y-103942159D03*
D13*
X120452447Y-103942159D03*
D10*
X117912447Y-98862159D03*
X111562447Y-101402159D03*
D13*
X224592447Y-142042159D03*
D14*
X229672447Y-142042159D03*
D13*
X234752447Y-142042159D03*
D10*
X232212447Y-136962159D03*
X225862447Y-139502159D03*
D11*
X59174947Y-162044659D03*
D12*
X59174947Y-154424659D03*
D11*
X56317447Y-151567159D03*
D12*
X56317447Y-143947159D03*
D11*
X50602447Y-151567159D03*
D12*
X50602447Y-143947159D03*
D17*
X38219947Y-134422159D03*
D18*
X38219947Y-126802159D03*
D13*
X148392447Y-180142159D03*
D14*
X153472447Y-180142159D03*
D13*
X158552447Y-180142159D03*
D10*
X156012447Y-175062159D03*
X149662447Y-177602159D03*
D13*
X338892447Y-122992159D03*
D14*
X343972447Y-122992159D03*
D13*
X349052447Y-122992159D03*
D10*
X346512447Y-117912159D03*
X340162447Y-120452159D03*
D20*
X48763697Y-99019659D03*
X42983697Y-99019659D03*
D21*
X49123697Y-100464659D03*
X48323697Y-100464659D03*
D22*
X47123697Y-100464659D03*
X46123697Y-100464659D03*
X45623697Y-100464659D03*
X44623697Y-100464659D03*
D21*
X43423697Y-100464659D03*
X42623697Y-100464659D03*
X42623697Y-100464659D03*
X43423697Y-100464659D03*
D22*
X44123697Y-100464659D03*
X45123697Y-100464659D03*
X46623697Y-100464659D03*
X47623697Y-100464659D03*
D21*
X48323697Y-100464659D03*
X49123697Y-100464659D03*
D23*
X50193697Y-99549659D03*
D24*
X50193697Y-95369659D03*
D23*
X41553697Y-99549659D03*
D24*
X41553697Y-95369659D03*
D25*
X45839947Y-136962159D03*
D26*
X45839947Y-134422159D03*
D11*
X42029947Y-151567159D03*
D12*
X42029947Y-143947159D03*
D11*
X362069947Y-141089659D03*
D12*
X362069947Y-133469659D03*
D16*
X62032447Y-106242159D03*
X65332447Y-106242159D03*
X65332447Y-101342159D03*
X62032447Y-101342159D03*
D13*
X224592447Y-122992159D03*
D14*
X229672447Y-122992159D03*
D13*
X234752447Y-122992159D03*
D10*
X232212447Y-117912159D03*
X225862447Y-120452159D03*
D13*
X186492447Y-103942159D03*
D14*
X191572447Y-103942159D03*
D13*
X196652447Y-103942159D03*
D10*
X194112447Y-98862159D03*
X187762447Y-101402159D03*
D11*
X379214947Y-162044659D03*
D12*
X379214947Y-154424659D03*
D13*
X72192447Y-161092159D03*
D14*
X77272447Y-161092159D03*
D13*
X82352447Y-161092159D03*
D10*
X79812447Y-156012159D03*
X73462447Y-158552159D03*
D11*
X376357447Y-172522159D03*
D12*
X376357447Y-164902159D03*
D11*
X364927447Y-141089659D03*
D12*
X364927447Y-133469659D03*
D11*
X59174947Y-141089659D03*
D12*
X59174947Y-133469659D03*
D11*
X56317447Y-130612159D03*
D12*
X56317447Y-122992159D03*
D11*
X370642447Y-151567159D03*
D12*
X370642447Y-143947159D03*
D15*
X385882447Y-122992159D03*
X383382447Y-122992159D03*
D13*
X167442447Y-180142159D03*
D14*
X172522447Y-180142159D03*
D13*
X177602447Y-180142159D03*
D10*
X175062447Y-175062159D03*
X168712447Y-177602159D03*
D13*
X262692447Y-142042159D03*
D14*
X267772447Y-142042159D03*
D13*
X272852447Y-142042159D03*
D10*
X270312447Y-136962159D03*
X263962447Y-139502159D03*
D11*
X50602447Y-172522159D03*
D12*
X50602447Y-164902159D03*
D13*
X281742447Y-142042159D03*
D14*
X286822447Y-142042159D03*
D13*
X291902447Y-142042159D03*
D10*
X289362447Y-136962159D03*
X283012447Y-139502159D03*
D11*
X382072447Y-151567159D03*
D12*
X382072447Y-143947159D03*
D11*
X370642447Y-162044659D03*
D12*
X370642447Y-154424659D03*
D15*
X45244947Y-175379659D03*
X50244947Y-175379659D03*
D11*
X376357447Y-151567159D03*
D12*
X376357447Y-143947159D03*
D13*
X262692447Y-161092159D03*
D14*
X267772447Y-161092159D03*
D13*
X272852447Y-161092159D03*
D10*
X270312447Y-156012159D03*
X263962447Y-158552159D03*
D11*
X59174947Y-130612159D03*
D12*
X59174947Y-122992159D03*
D11*
X56317447Y-141089659D03*
D12*
X56317447Y-133469659D03*
D11*
X373499947Y-151567159D03*
D12*
X373499947Y-143947159D03*
D13*
X72192447Y-103942159D03*
D14*
X77272447Y-103942159D03*
D13*
X82352447Y-103942159D03*
D10*
X79812447Y-98862159D03*
X73462447Y-101402159D03*
D11*
X56317447Y-172522159D03*
D12*
X56317447Y-164902159D03*
D16*
X359212447Y-101592159D03*
X355912447Y-101592159D03*
X355912447Y-106492159D03*
X359212447Y-106492159D03*
D11*
X39172447Y-162044659D03*
D12*
X39172447Y-154424659D03*
D11*
X364927447Y-109657159D03*
D12*
X364927447Y-102037159D03*
D13*
X110292447Y-161092159D03*
D14*
X115372447Y-161092159D03*
D13*
X120452447Y-161092159D03*
D10*
X117912447Y-156012159D03*
X111562447Y-158552159D03*
D15*
X379572447Y-175379659D03*
X384572447Y-175379659D03*
D11*
X362069947Y-151567159D03*
D12*
X362069947Y-143947159D03*
D11*
X56317447Y-162044659D03*
D12*
X56317447Y-154424659D03*
D17*
X378262447Y-141089659D03*
D18*
X385882447Y-141089659D03*
D11*
X373499947Y-162044659D03*
D12*
X373499947Y-154424659D03*
D16*
X62032447Y-144442159D03*
X65332447Y-144442159D03*
X65332447Y-139542159D03*
X62032447Y-139542159D03*
D11*
X367784947Y-120134659D03*
D12*
X367784947Y-112514659D03*
D16*
X359213711Y-158592316D03*
X355913711Y-158592316D03*
X355913711Y-163492316D03*
X359213711Y-163492316D03*
D11*
X362069947Y-109657159D03*
D12*
X362069947Y-102037159D03*
D13*
X281742447Y-103942159D03*
D14*
X286822447Y-103942159D03*
D13*
X291902447Y-103942159D03*
D10*
X289362447Y-98862159D03*
X283012447Y-101402159D03*
D13*
X319842447Y-180142159D03*
D14*
X324922447Y-180142159D03*
D13*
X330002447Y-180142159D03*
D10*
X327462447Y-175062159D03*
X321112447Y-177602159D03*
D13*
X129342447Y-161092159D03*
D14*
X134422447Y-161092159D03*
D13*
X139502447Y-161092159D03*
D10*
X136962447Y-156012159D03*
X130612447Y-158552159D03*
D11*
X367784947Y-172522159D03*
D12*
X367784947Y-164902159D03*
D13*
X262692447Y-122992159D03*
D14*
X267772447Y-122992159D03*
D13*
X272852447Y-122992159D03*
D10*
X270312447Y-117912159D03*
X263962447Y-120452159D03*
D13*
X262692447Y-180142159D03*
D14*
X267772447Y-180142159D03*
D13*
X272852447Y-180142159D03*
D10*
X270312447Y-175062159D03*
X263962447Y-177602159D03*
D13*
X319842447Y-161092159D03*
D14*
X324922447Y-161092159D03*
D13*
X330002447Y-161092159D03*
D10*
X327462447Y-156012159D03*
X321112447Y-158552159D03*
D13*
X224592447Y-103942159D03*
D14*
X229672447Y-103942159D03*
D13*
X234752447Y-103942159D03*
D10*
X232212447Y-98862159D03*
X225862447Y-101402159D03*
D13*
X262692447Y-103942159D03*
D14*
X267772447Y-103942159D03*
D13*
X272852447Y-103942159D03*
D10*
X270312447Y-98862159D03*
X263962447Y-101402159D03*
D11*
X364927447Y-162044659D03*
D12*
X364927447Y-154424659D03*
D13*
X205542447Y-103942159D03*
D14*
X210622447Y-103942159D03*
D13*
X215702447Y-103942159D03*
D10*
X213162447Y-98862159D03*
X206812447Y-101402159D03*
D13*
X186492447Y-142042159D03*
D14*
X191572447Y-142042159D03*
D13*
X196652447Y-142042159D03*
D10*
X194112447Y-136962159D03*
X187762447Y-139502159D03*
D13*
X224592447Y-161092159D03*
D14*
X229672447Y-161092159D03*
D13*
X234752447Y-161092159D03*
D10*
X232212447Y-156012159D03*
X225862447Y-158552159D03*
D13*
X91242447Y-122992159D03*
D14*
X96322447Y-122992159D03*
D13*
X101402447Y-122992159D03*
D10*
X98862447Y-117912159D03*
X92512447Y-120452159D03*
D15*
X36672447Y-175379659D03*
X41672447Y-175379659D03*
D13*
X110292447Y-122992159D03*
D14*
X115372447Y-122992159D03*
D13*
X120452447Y-122992159D03*
D10*
X117912447Y-117912159D03*
X111562447Y-120452159D03*
D11*
X382072447Y-172522159D03*
D12*
X382072447Y-164902159D03*
D11*
X379214947Y-151567159D03*
D12*
X379214947Y-143947159D03*
D10*
X213162447Y-175062159D03*
X206812447Y-177602159D03*
D11*
X53459947Y-172522159D03*
D12*
X53459947Y-164902159D03*
D13*
X91242447Y-180142159D03*
D14*
X96322447Y-180142159D03*
D13*
X101402447Y-180142159D03*
D10*
X98862447Y-175062159D03*
X92512447Y-177602159D03*
D27*
X43121155Y-107862108D03*
X48221155Y-109062108D03*
D17*
X35362447Y-123944659D03*
D18*
X35362447Y-116324659D03*
D15*
X362427447Y-175379659D03*
X367427447Y-175379659D03*
D13*
X300792447Y-142042159D03*
D14*
X305872447Y-142042159D03*
D13*
X310952447Y-142042159D03*
D10*
X308412447Y-136962159D03*
X302062447Y-139502159D03*
D28*
X383654947Y-131897159D03*
D29*
X386194947Y-131897159D03*
X383654947Y-134437159D03*
X386194947Y-134437159D03*
X383654947Y-136977159D03*
X386194947Y-136977159D03*
D13*
X148392447Y-103942159D03*
D14*
X153472447Y-103942159D03*
D13*
X158552447Y-103942159D03*
D10*
X156012447Y-98862159D03*
X149662447Y-101402159D03*
D16*
X359212447Y-177592159D03*
X355912447Y-177592159D03*
X355912447Y-182492159D03*
X359212447Y-182492159D03*
D11*
X53459947Y-120134659D03*
D12*
X53459947Y-112514659D03*
D17*
X38219947Y-123944659D03*
D18*
X38219947Y-116324659D03*
D11*
X42029947Y-123944659D03*
D12*
X49649947Y-123944659D03*
D13*
X319842447Y-142042159D03*
D14*
X324922447Y-142042159D03*
D13*
X330002447Y-142042159D03*
D10*
X327462447Y-136962159D03*
X321112447Y-139502159D03*
D13*
X72192447Y-122992159D03*
D14*
X77272447Y-122992159D03*
D13*
X82352447Y-122992159D03*
D10*
X79812447Y-117912159D03*
X73462447Y-120452159D03*
D11*
X384929947Y-151567159D03*
D12*
X384929947Y-143947159D03*
D11*
X384929947Y-172522159D03*
D12*
X384929947Y-164902159D03*
D13*
X148392447Y-122992159D03*
D14*
X153472447Y-122992159D03*
D13*
X158552447Y-122992159D03*
D10*
X156012447Y-117912159D03*
X149662447Y-120452159D03*
D11*
X36314947Y-151567159D03*
D12*
X36314947Y-143947159D03*
D13*
X167442447Y-142042159D03*
D14*
X172522447Y-142042159D03*
D13*
X177602447Y-142042159D03*
D10*
X175062447Y-136962159D03*
X168712447Y-139502159D03*
D11*
X379214947Y-137279659D03*
D12*
X379214947Y-134739659D03*
X379214947Y-132199659D03*
X379214947Y-129659659D03*
X379214947Y-127119659D03*
X379214947Y-124579659D03*
X379214947Y-122039659D03*
X379214947Y-119499659D03*
X379214947Y-116959659D03*
X379214947Y-114419659D03*
X379214947Y-111879659D03*
X379214947Y-109339659D03*
X379214947Y-106799659D03*
X379214947Y-104259659D03*
X371594947Y-104259659D03*
X371594947Y-106799659D03*
X371594947Y-109339659D03*
X371594947Y-111879659D03*
X371594947Y-114419659D03*
X371594947Y-116959659D03*
X371594947Y-119499659D03*
X371594947Y-122039659D03*
X371594947Y-124579659D03*
X371594947Y-127119659D03*
X371594947Y-129659659D03*
X371594947Y-132199659D03*
X371594947Y-134739659D03*
X371594947Y-137279659D03*
D15*
X56317447Y-103227159D03*
X56317447Y-98227159D03*
D11*
X42029947Y-162044659D03*
D12*
X42029947Y-154424659D03*
D11*
X39172447Y-151567159D03*
D12*
X39172447Y-143947159D03*
D13*
X129342447Y-180142159D03*
D14*
X134422447Y-180142159D03*
D13*
X139502447Y-180142159D03*
D10*
X136962447Y-175062159D03*
X130612447Y-177602159D03*
D13*
X338892447Y-161092159D03*
D14*
X343972447Y-161092159D03*
D13*
X349052447Y-161092159D03*
D10*
X346512447Y-156012159D03*
X340162447Y-158552159D03*
D15*
X53817447Y-175379659D03*
X58817447Y-175379659D03*
D17*
X38219947Y-105847159D03*
D18*
X38219947Y-113467159D03*
D13*
X129342447Y-103942159D03*
D14*
X134422447Y-103942159D03*
D13*
X139502447Y-103942159D03*
D10*
X136962447Y-98862159D03*
X130612447Y-101402159D03*
D11*
X364927447Y-130612159D03*
D12*
X364927447Y-122992159D03*
D11*
X53459947Y-162044659D03*
D12*
X53459947Y-154424659D03*
D13*
X300792447Y-161092159D03*
D14*
X305872447Y-161092159D03*
D13*
X310952447Y-161092159D03*
D10*
X308412447Y-156012159D03*
X302062447Y-158552159D03*
D11*
X379214947Y-172522159D03*
D12*
X379214947Y-164902159D03*
D16*
X62032447Y-125442159D03*
X65332447Y-125442159D03*
X65332447Y-120542159D03*
X62032447Y-120542159D03*
D13*
X338892447Y-180142159D03*
D14*
X343972447Y-180142159D03*
D13*
X349052447Y-180142159D03*
D10*
X346512447Y-175062159D03*
X340162447Y-177602159D03*
D30*
X44887447Y-119182463D03*
D31*
X46387447Y-119182463D03*
D11*
X367784947Y-130612159D03*
D12*
X367784947Y-122992159D03*
D13*
X319842447Y-122992159D03*
D14*
X324922447Y-122992159D03*
D13*
X330002447Y-122992159D03*
D10*
X327462447Y-117912159D03*
X321112447Y-120452159D03*
D13*
X129342447Y-122992159D03*
D14*
X134422447Y-122992159D03*
D13*
X139502447Y-122992159D03*
D10*
X136962447Y-117912159D03*
X130612447Y-120452159D03*
D13*
X167442447Y-122992159D03*
D14*
X172522447Y-122992159D03*
D13*
X177602447Y-122992159D03*
D10*
X175062447Y-117912159D03*
X168712447Y-120452159D03*
D11*
X367784947Y-151567159D03*
D12*
X367784947Y-143947159D03*
D11*
X56317447Y-120134659D03*
D12*
X56317447Y-112514659D03*
D13*
X281742447Y-122992159D03*
D14*
X286822447Y-122992159D03*
D13*
X291902447Y-122992159D03*
D10*
X289362447Y-117912159D03*
X283012447Y-120452159D03*
D13*
X91242447Y-142042159D03*
D14*
X96322447Y-142042159D03*
D13*
X101402447Y-142042159D03*
D10*
X98862447Y-136962159D03*
X92512447Y-139502159D03*
M02*
