M48
; DRILL file {KiCad 9.0.0} date 2025-03-15T16:45:45+0100
; FORMAT={-:-/ absolute / metric / decimal}
; #@! TF.CreationDate,2025-03-15T16:45:45+01:00
; #@! TF.GenerationSoftware,Kicad,Pcbnew,9.0.0
; #@! TF.FileFunction,NonPlated,1,2,NPTH
FMAT,2
METRIC
; #@! TA.AperFunction,NonPlated,NPTH,ComponentDrill
T1C0.650
; #@! TA.AperFunction,NonPlated,NPTH,ComponentDrill
T2C1.702
; #@! TA.AperFunction,NonPlated,NPTH,ComponentDrill
T3C3.048
; #@! TA.AperFunction,NonPlated,NPTH,ComponentDrill
T4C3.988
%
G90
G05
T1
X42.02Y-98.56
X47.8Y-98.56
T2
X72.192Y-103.942
X72.192Y-122.992
X72.192Y-142.042
X72.192Y-161.092
X72.192Y-180.142
X82.352Y-103.942
X82.352Y-122.992
X82.352Y-142.042
X82.352Y-161.092
X82.352Y-180.142
X91.242Y-103.942
X91.242Y-122.992
X91.242Y-142.042
X91.242Y-161.092
X91.242Y-180.142
X101.402Y-103.942
X101.402Y-122.992
X101.402Y-142.042
X101.402Y-161.092
X101.402Y-180.142
X110.292Y-103.942
X110.292Y-122.992
X110.292Y-142.042
X110.292Y-161.092
X110.292Y-180.142
X120.452Y-103.942
X120.452Y-122.992
X120.452Y-142.042
X120.452Y-161.092
X120.452Y-180.142
X129.342Y-103.942
X129.342Y-122.992
X129.342Y-142.042
X129.342Y-161.092
X129.342Y-180.142
X139.502Y-103.942
X139.502Y-122.992
X139.502Y-142.042
X139.502Y-161.092
X139.502Y-180.142
X148.392Y-103.942
X148.392Y-122.992
X148.392Y-142.042
X148.392Y-161.092
X148.392Y-180.142
X157.917Y-180.142
X158.552Y-103.942
X158.552Y-122.992
X158.552Y-142.042
X158.552Y-161.092
X158.552Y-180.142
X167.442Y-103.942
X167.442Y-122.992
X167.442Y-142.042
X167.442Y-161.092
X167.442Y-180.142
X168.077Y-180.142
X177.602Y-103.942
X177.602Y-122.992
X177.602Y-142.042
X177.602Y-161.092
X177.602Y-180.142
X186.492Y-103.942
X186.492Y-122.992
X186.492Y-142.042
X186.492Y-161.092
X186.492Y-180.142
X196.652Y-103.942
X196.652Y-122.992
X196.652Y-142.042
X196.652Y-161.092
X196.652Y-180.142
X205.542Y-103.942
X205.542Y-122.992
X205.542Y-142.042
X205.542Y-161.092
X205.542Y-180.142
X215.702Y-103.942
X215.702Y-122.992
X215.702Y-142.042
X215.702Y-161.092
X215.702Y-180.142
X224.592Y-103.942
X224.592Y-122.992
X224.592Y-142.042
X224.592Y-161.092
X224.592Y-180.142
X234.752Y-103.942
X234.752Y-122.992
X234.752Y-142.042
X234.752Y-161.092
X234.752Y-180.142
X243.642Y-103.942
X243.642Y-122.992
X243.642Y-142.042
X243.642Y-161.092
X243.642Y-180.142
X253.167Y-180.142
X253.802Y-103.942
X253.802Y-122.992
X253.802Y-142.042
X253.802Y-161.092
X253.802Y-180.142
X262.692Y-103.942
X262.692Y-122.992
X262.692Y-142.042
X262.692Y-161.092
X262.692Y-180.142
X263.327Y-180.142
X272.852Y-103.942
X272.852Y-122.992
X272.852Y-142.042
X272.852Y-161.092
X272.852Y-180.142
X281.742Y-103.942
X281.742Y-122.992
X281.742Y-142.042
X281.742Y-161.092
X281.742Y-180.142
X291.902Y-103.942
X291.902Y-122.992
X291.902Y-142.042
X291.902Y-161.092
X291.902Y-180.142
X300.792Y-103.942
X300.792Y-122.992
X300.792Y-142.042
X300.792Y-161.092
X300.792Y-180.142
X310.952Y-103.942
X310.952Y-122.992
X310.952Y-142.042
X310.952Y-161.092
X310.952Y-180.142
X319.842Y-103.942
X319.842Y-122.992
X319.842Y-142.042
X319.842Y-161.092
X319.842Y-180.142
X330.002Y-103.942
X330.002Y-122.992
X330.002Y-142.042
X330.002Y-161.092
X330.002Y-180.142
X338.892Y-103.942
X338.892Y-122.992
X338.892Y-142.042
X338.892Y-161.092
X338.892Y-180.142
X349.052Y-103.942
X349.052Y-122.992
X349.052Y-142.042
X349.052Y-161.092
X349.052Y-180.142
T3
X151.059Y-187.127
X153.472Y-187.127
X174.935Y-187.127
X246.309Y-187.127
X267.772Y-187.127
X270.185Y-187.127
T4
X77.272Y-103.942
X77.272Y-122.992
X77.272Y-142.042
X77.272Y-161.092
X77.272Y-180.142
X96.322Y-103.942
X96.322Y-122.992
X96.322Y-142.042
X96.322Y-161.092
X96.322Y-180.142
X115.372Y-103.942
X115.372Y-122.992
X115.372Y-142.042
X115.372Y-161.092
X115.372Y-180.142
X134.422Y-103.942
X134.422Y-122.992
X134.422Y-142.042
X134.422Y-161.092
X134.422Y-180.142
X151.059Y-171.887
X153.472Y-103.942
X153.472Y-122.992
X153.472Y-142.042
X153.472Y-161.092
X153.472Y-171.887
X153.472Y-180.142
X162.997Y-180.142
X172.522Y-103.942
X172.522Y-122.992
X172.522Y-142.042
X172.522Y-161.092
X172.522Y-180.142
X174.935Y-171.887
X191.572Y-103.942
X191.572Y-122.992
X191.572Y-142.042
X191.572Y-161.092
X191.572Y-180.142
X210.622Y-103.942
X210.622Y-122.992
X210.622Y-142.042
X210.622Y-161.092
X210.622Y-180.142
X229.672Y-103.942
X229.672Y-122.992
X229.672Y-142.042
X229.672Y-161.092
X229.672Y-180.142
X246.309Y-171.887
X248.722Y-103.942
X248.722Y-122.992
X248.722Y-142.042
X248.722Y-161.092
X248.722Y-180.142
X258.247Y-180.142
X267.772Y-103.942
X267.772Y-122.992
X267.772Y-142.042
X267.772Y-161.092
X267.772Y-171.887
X267.772Y-180.142
X270.185Y-171.887
X286.822Y-103.942
X286.822Y-122.992
X286.822Y-142.042
X286.822Y-161.092
X286.822Y-180.142
X305.872Y-103.942
X305.872Y-122.992
X305.872Y-142.042
X305.872Y-161.092
X305.872Y-180.142
X324.922Y-103.942
X324.922Y-122.992
X324.922Y-142.042
X324.922Y-161.092
X324.922Y-180.142
X343.972Y-103.942
X343.972Y-122.992
X343.972Y-142.042
X343.972Y-161.092
X343.972Y-180.142
M30
