%TF.GenerationSoftware,KiCad,Pcbnew,9.0.0*%
%TF.CreationDate,2026-01-20T22:23:28+01:00*%
%TF.ProjectId,orthgyle,6f727468-6779-46c6-952e-6b696361645f,1*%
%TF.SameCoordinates,Original*%
%TF.FileFunction,AssemblyDrawing,Bot*%
%FSLAX46Y46*%
G04 Gerber Fmt 4.6, Leading zero omitted, Abs format (unit mm)*
G04 Created by KiCad (PCBNEW 9.0.0) date 2026-01-20 22:23:28*
%MOMM*%
%LPD*%
G01*
G04 APERTURE LIST*
%ADD10C,0.150000*%
G04 APERTURE END LIST*
D10*
X48487580Y-99131904D02*
X48535200Y-99084285D01*
X48535200Y-99084285D02*
X48582819Y-98941428D01*
X48582819Y-98941428D02*
X48582819Y-98846190D01*
X48582819Y-98846190D02*
X48535200Y-98703333D01*
X48535200Y-98703333D02*
X48439961Y-98608095D01*
X48439961Y-98608095D02*
X48344723Y-98560476D01*
X48344723Y-98560476D02*
X48154247Y-98512857D01*
X48154247Y-98512857D02*
X48011390Y-98512857D01*
X48011390Y-98512857D02*
X47820914Y-98560476D01*
X47820914Y-98560476D02*
X47725676Y-98608095D01*
X47725676Y-98608095D02*
X47630438Y-98703333D01*
X47630438Y-98703333D02*
X47582819Y-98846190D01*
X47582819Y-98846190D02*
X47582819Y-98941428D01*
X47582819Y-98941428D02*
X47630438Y-99084285D01*
X47630438Y-99084285D02*
X47678057Y-99131904D01*
X48582819Y-99703333D02*
X48535200Y-99608095D01*
X48535200Y-99608095D02*
X48487580Y-99560476D01*
X48487580Y-99560476D02*
X48392342Y-99512857D01*
X48392342Y-99512857D02*
X48106628Y-99512857D01*
X48106628Y-99512857D02*
X48011390Y-99560476D01*
X48011390Y-99560476D02*
X47963771Y-99608095D01*
X47963771Y-99608095D02*
X47916152Y-99703333D01*
X47916152Y-99703333D02*
X47916152Y-99846190D01*
X47916152Y-99846190D02*
X47963771Y-99941428D01*
X47963771Y-99941428D02*
X48011390Y-99989047D01*
X48011390Y-99989047D02*
X48106628Y-100036666D01*
X48106628Y-100036666D02*
X48392342Y-100036666D01*
X48392342Y-100036666D02*
X48487580Y-99989047D01*
X48487580Y-99989047D02*
X48535200Y-99941428D01*
X48535200Y-99941428D02*
X48582819Y-99846190D01*
X48582819Y-99846190D02*
X48582819Y-99703333D01*
X47916152Y-100465238D02*
X48582819Y-100465238D01*
X48011390Y-100465238D02*
X47963771Y-100512857D01*
X47963771Y-100512857D02*
X47916152Y-100608095D01*
X47916152Y-100608095D02*
X47916152Y-100750952D01*
X47916152Y-100750952D02*
X47963771Y-100846190D01*
X47963771Y-100846190D02*
X48059009Y-100893809D01*
X48059009Y-100893809D02*
X48582819Y-100893809D01*
X47916152Y-101370000D02*
X48582819Y-101370000D01*
X48011390Y-101370000D02*
X47963771Y-101417619D01*
X47963771Y-101417619D02*
X47916152Y-101512857D01*
X47916152Y-101512857D02*
X47916152Y-101655714D01*
X47916152Y-101655714D02*
X47963771Y-101750952D01*
X47963771Y-101750952D02*
X48059009Y-101798571D01*
X48059009Y-101798571D02*
X48582819Y-101798571D01*
X48678057Y-102036667D02*
X48678057Y-102798571D01*
X47582819Y-103227143D02*
X47582819Y-103322381D01*
X47582819Y-103322381D02*
X47630438Y-103417619D01*
X47630438Y-103417619D02*
X47678057Y-103465238D01*
X47678057Y-103465238D02*
X47773295Y-103512857D01*
X47773295Y-103512857D02*
X47963771Y-103560476D01*
X47963771Y-103560476D02*
X48201866Y-103560476D01*
X48201866Y-103560476D02*
X48392342Y-103512857D01*
X48392342Y-103512857D02*
X48487580Y-103465238D01*
X48487580Y-103465238D02*
X48535200Y-103417619D01*
X48535200Y-103417619D02*
X48582819Y-103322381D01*
X48582819Y-103322381D02*
X48582819Y-103227143D01*
X48582819Y-103227143D02*
X48535200Y-103131905D01*
X48535200Y-103131905D02*
X48487580Y-103084286D01*
X48487580Y-103084286D02*
X48392342Y-103036667D01*
X48392342Y-103036667D02*
X48201866Y-102989048D01*
X48201866Y-102989048D02*
X47963771Y-102989048D01*
X47963771Y-102989048D02*
X47773295Y-103036667D01*
X47773295Y-103036667D02*
X47678057Y-103084286D01*
X47678057Y-103084286D02*
X47630438Y-103131905D01*
X47630438Y-103131905D02*
X47582819Y-103227143D01*
X47678057Y-103941429D02*
X47630438Y-103989048D01*
X47630438Y-103989048D02*
X47582819Y-104084286D01*
X47582819Y-104084286D02*
X47582819Y-104322381D01*
X47582819Y-104322381D02*
X47630438Y-104417619D01*
X47630438Y-104417619D02*
X47678057Y-104465238D01*
X47678057Y-104465238D02*
X47773295Y-104512857D01*
X47773295Y-104512857D02*
X47868533Y-104512857D01*
X47868533Y-104512857D02*
X48011390Y-104465238D01*
X48011390Y-104465238D02*
X48582819Y-103893810D01*
X48582819Y-103893810D02*
X48582819Y-104512857D01*
X48582819Y-104846191D02*
X47916152Y-105370000D01*
X47916152Y-104846191D02*
X48582819Y-105370000D01*
X47582819Y-105941429D02*
X47582819Y-106036667D01*
X47582819Y-106036667D02*
X47630438Y-106131905D01*
X47630438Y-106131905D02*
X47678057Y-106179524D01*
X47678057Y-106179524D02*
X47773295Y-106227143D01*
X47773295Y-106227143D02*
X47963771Y-106274762D01*
X47963771Y-106274762D02*
X48201866Y-106274762D01*
X48201866Y-106274762D02*
X48392342Y-106227143D01*
X48392342Y-106227143D02*
X48487580Y-106179524D01*
X48487580Y-106179524D02*
X48535200Y-106131905D01*
X48535200Y-106131905D02*
X48582819Y-106036667D01*
X48582819Y-106036667D02*
X48582819Y-105941429D01*
X48582819Y-105941429D02*
X48535200Y-105846191D01*
X48535200Y-105846191D02*
X48487580Y-105798572D01*
X48487580Y-105798572D02*
X48392342Y-105750953D01*
X48392342Y-105750953D02*
X48201866Y-105703334D01*
X48201866Y-105703334D02*
X47963771Y-105703334D01*
X47963771Y-105703334D02*
X47773295Y-105750953D01*
X47773295Y-105750953D02*
X47678057Y-105798572D01*
X47678057Y-105798572D02*
X47630438Y-105846191D01*
X47630438Y-105846191D02*
X47582819Y-105941429D01*
X48582819Y-107227143D02*
X48582819Y-106655715D01*
X48582819Y-106941429D02*
X47582819Y-106941429D01*
X47582819Y-106941429D02*
X47725676Y-106846191D01*
X47725676Y-106846191D02*
X47820914Y-106750953D01*
X47820914Y-106750953D02*
X47868533Y-106655715D01*
X358502295Y-122002667D02*
X358121342Y-121736000D01*
X358502295Y-121545524D02*
X357702295Y-121545524D01*
X357702295Y-121545524D02*
X357702295Y-121850286D01*
X357702295Y-121850286D02*
X357740390Y-121926476D01*
X357740390Y-121926476D02*
X357778485Y-121964571D01*
X357778485Y-121964571D02*
X357854676Y-122002667D01*
X357854676Y-122002667D02*
X357968961Y-122002667D01*
X357968961Y-122002667D02*
X358045152Y-121964571D01*
X358045152Y-121964571D02*
X358083247Y-121926476D01*
X358083247Y-121926476D02*
X358121342Y-121850286D01*
X358121342Y-121850286D02*
X358121342Y-121545524D01*
X357740390Y-122764571D02*
X357702295Y-122688381D01*
X357702295Y-122688381D02*
X357702295Y-122574095D01*
X357702295Y-122574095D02*
X357740390Y-122459809D01*
X357740390Y-122459809D02*
X357816580Y-122383619D01*
X357816580Y-122383619D02*
X357892771Y-122345524D01*
X357892771Y-122345524D02*
X358045152Y-122307428D01*
X358045152Y-122307428D02*
X358159438Y-122307428D01*
X358159438Y-122307428D02*
X358311819Y-122345524D01*
X358311819Y-122345524D02*
X358388009Y-122383619D01*
X358388009Y-122383619D02*
X358464200Y-122459809D01*
X358464200Y-122459809D02*
X358502295Y-122574095D01*
X358502295Y-122574095D02*
X358502295Y-122650286D01*
X358502295Y-122650286D02*
X358464200Y-122764571D01*
X358464200Y-122764571D02*
X358426104Y-122802667D01*
X358426104Y-122802667D02*
X358159438Y-122802667D01*
X358159438Y-122802667D02*
X358159438Y-122650286D01*
X358083247Y-123412190D02*
X358121342Y-123526476D01*
X358121342Y-123526476D02*
X358159438Y-123564571D01*
X358159438Y-123564571D02*
X358235628Y-123602667D01*
X358235628Y-123602667D02*
X358349914Y-123602667D01*
X358349914Y-123602667D02*
X358426104Y-123564571D01*
X358426104Y-123564571D02*
X358464200Y-123526476D01*
X358464200Y-123526476D02*
X358502295Y-123450286D01*
X358502295Y-123450286D02*
X358502295Y-123145524D01*
X358502295Y-123145524D02*
X357702295Y-123145524D01*
X357702295Y-123145524D02*
X357702295Y-123412190D01*
X357702295Y-123412190D02*
X357740390Y-123488381D01*
X357740390Y-123488381D02*
X357778485Y-123526476D01*
X357778485Y-123526476D02*
X357854676Y-123564571D01*
X357854676Y-123564571D02*
X357930866Y-123564571D01*
X357930866Y-123564571D02*
X358007057Y-123526476D01*
X358007057Y-123526476D02*
X358045152Y-123488381D01*
X358045152Y-123488381D02*
X358083247Y-123412190D01*
X358083247Y-123412190D02*
X358083247Y-123145524D01*
X357778485Y-123907428D02*
X357740390Y-123945524D01*
X357740390Y-123945524D02*
X357702295Y-124021714D01*
X357702295Y-124021714D02*
X357702295Y-124212190D01*
X357702295Y-124212190D02*
X357740390Y-124288381D01*
X357740390Y-124288381D02*
X357778485Y-124326476D01*
X357778485Y-124326476D02*
X357854676Y-124364571D01*
X357854676Y-124364571D02*
X357930866Y-124364571D01*
X357930866Y-124364571D02*
X358045152Y-124326476D01*
X358045152Y-124326476D02*
X358502295Y-123869333D01*
X358502295Y-123869333D02*
X358502295Y-124364571D01*
X358502295Y-141058826D02*
X358121342Y-140792159D01*
X358502295Y-140601683D02*
X357702295Y-140601683D01*
X357702295Y-140601683D02*
X357702295Y-140906445D01*
X357702295Y-140906445D02*
X357740390Y-140982635D01*
X357740390Y-140982635D02*
X357778485Y-141020730D01*
X357778485Y-141020730D02*
X357854676Y-141058826D01*
X357854676Y-141058826D02*
X357968961Y-141058826D01*
X357968961Y-141058826D02*
X358045152Y-141020730D01*
X358045152Y-141020730D02*
X358083247Y-140982635D01*
X358083247Y-140982635D02*
X358121342Y-140906445D01*
X358121342Y-140906445D02*
X358121342Y-140601683D01*
X357740390Y-141820730D02*
X357702295Y-141744540D01*
X357702295Y-141744540D02*
X357702295Y-141630254D01*
X357702295Y-141630254D02*
X357740390Y-141515968D01*
X357740390Y-141515968D02*
X357816580Y-141439778D01*
X357816580Y-141439778D02*
X357892771Y-141401683D01*
X357892771Y-141401683D02*
X358045152Y-141363587D01*
X358045152Y-141363587D02*
X358159438Y-141363587D01*
X358159438Y-141363587D02*
X358311819Y-141401683D01*
X358311819Y-141401683D02*
X358388009Y-141439778D01*
X358388009Y-141439778D02*
X358464200Y-141515968D01*
X358464200Y-141515968D02*
X358502295Y-141630254D01*
X358502295Y-141630254D02*
X358502295Y-141706445D01*
X358502295Y-141706445D02*
X358464200Y-141820730D01*
X358464200Y-141820730D02*
X358426104Y-141858826D01*
X358426104Y-141858826D02*
X358159438Y-141858826D01*
X358159438Y-141858826D02*
X358159438Y-141706445D01*
X358083247Y-142468349D02*
X358121342Y-142582635D01*
X358121342Y-142582635D02*
X358159438Y-142620730D01*
X358159438Y-142620730D02*
X358235628Y-142658826D01*
X358235628Y-142658826D02*
X358349914Y-142658826D01*
X358349914Y-142658826D02*
X358426104Y-142620730D01*
X358426104Y-142620730D02*
X358464200Y-142582635D01*
X358464200Y-142582635D02*
X358502295Y-142506445D01*
X358502295Y-142506445D02*
X358502295Y-142201683D01*
X358502295Y-142201683D02*
X357702295Y-142201683D01*
X357702295Y-142201683D02*
X357702295Y-142468349D01*
X357702295Y-142468349D02*
X357740390Y-142544540D01*
X357740390Y-142544540D02*
X357778485Y-142582635D01*
X357778485Y-142582635D02*
X357854676Y-142620730D01*
X357854676Y-142620730D02*
X357930866Y-142620730D01*
X357930866Y-142620730D02*
X358007057Y-142582635D01*
X358007057Y-142582635D02*
X358045152Y-142544540D01*
X358045152Y-142544540D02*
X358083247Y-142468349D01*
X358083247Y-142468349D02*
X358083247Y-142201683D01*
X357702295Y-142925492D02*
X357702295Y-143420730D01*
X357702295Y-143420730D02*
X358007057Y-143154064D01*
X358007057Y-143154064D02*
X358007057Y-143268349D01*
X358007057Y-143268349D02*
X358045152Y-143344540D01*
X358045152Y-143344540D02*
X358083247Y-143382635D01*
X358083247Y-143382635D02*
X358159438Y-143420730D01*
X358159438Y-143420730D02*
X358349914Y-143420730D01*
X358349914Y-143420730D02*
X358426104Y-143382635D01*
X358426104Y-143382635D02*
X358464200Y-143344540D01*
X358464200Y-143344540D02*
X358502295Y-143268349D01*
X358502295Y-143268349D02*
X358502295Y-143039778D01*
X358502295Y-143039778D02*
X358464200Y-142963587D01*
X358464200Y-142963587D02*
X358426104Y-142925492D01*
X63354295Y-179058826D02*
X62973342Y-178792159D01*
X63354295Y-178601683D02*
X62554295Y-178601683D01*
X62554295Y-178601683D02*
X62554295Y-178906445D01*
X62554295Y-178906445D02*
X62592390Y-178982635D01*
X62592390Y-178982635D02*
X62630485Y-179020730D01*
X62630485Y-179020730D02*
X62706676Y-179058826D01*
X62706676Y-179058826D02*
X62820961Y-179058826D01*
X62820961Y-179058826D02*
X62897152Y-179020730D01*
X62897152Y-179020730D02*
X62935247Y-178982635D01*
X62935247Y-178982635D02*
X62973342Y-178906445D01*
X62973342Y-178906445D02*
X62973342Y-178601683D01*
X62592390Y-179820730D02*
X62554295Y-179744540D01*
X62554295Y-179744540D02*
X62554295Y-179630254D01*
X62554295Y-179630254D02*
X62592390Y-179515968D01*
X62592390Y-179515968D02*
X62668580Y-179439778D01*
X62668580Y-179439778D02*
X62744771Y-179401683D01*
X62744771Y-179401683D02*
X62897152Y-179363587D01*
X62897152Y-179363587D02*
X63011438Y-179363587D01*
X63011438Y-179363587D02*
X63163819Y-179401683D01*
X63163819Y-179401683D02*
X63240009Y-179439778D01*
X63240009Y-179439778D02*
X63316200Y-179515968D01*
X63316200Y-179515968D02*
X63354295Y-179630254D01*
X63354295Y-179630254D02*
X63354295Y-179706445D01*
X63354295Y-179706445D02*
X63316200Y-179820730D01*
X63316200Y-179820730D02*
X63278104Y-179858826D01*
X63278104Y-179858826D02*
X63011438Y-179858826D01*
X63011438Y-179858826D02*
X63011438Y-179706445D01*
X62935247Y-180468349D02*
X62973342Y-180582635D01*
X62973342Y-180582635D02*
X63011438Y-180620730D01*
X63011438Y-180620730D02*
X63087628Y-180658826D01*
X63087628Y-180658826D02*
X63201914Y-180658826D01*
X63201914Y-180658826D02*
X63278104Y-180620730D01*
X63278104Y-180620730D02*
X63316200Y-180582635D01*
X63316200Y-180582635D02*
X63354295Y-180506445D01*
X63354295Y-180506445D02*
X63354295Y-180201683D01*
X63354295Y-180201683D02*
X62554295Y-180201683D01*
X62554295Y-180201683D02*
X62554295Y-180468349D01*
X62554295Y-180468349D02*
X62592390Y-180544540D01*
X62592390Y-180544540D02*
X62630485Y-180582635D01*
X62630485Y-180582635D02*
X62706676Y-180620730D01*
X62706676Y-180620730D02*
X62782866Y-180620730D01*
X62782866Y-180620730D02*
X62859057Y-180582635D01*
X62859057Y-180582635D02*
X62897152Y-180544540D01*
X62897152Y-180544540D02*
X62935247Y-180468349D01*
X62935247Y-180468349D02*
X62935247Y-180201683D01*
X62554295Y-181344540D02*
X62554295Y-181192159D01*
X62554295Y-181192159D02*
X62592390Y-181115968D01*
X62592390Y-181115968D02*
X62630485Y-181077873D01*
X62630485Y-181077873D02*
X62744771Y-181001683D01*
X62744771Y-181001683D02*
X62897152Y-180963587D01*
X62897152Y-180963587D02*
X63201914Y-180963587D01*
X63201914Y-180963587D02*
X63278104Y-181001683D01*
X63278104Y-181001683D02*
X63316200Y-181039778D01*
X63316200Y-181039778D02*
X63354295Y-181115968D01*
X63354295Y-181115968D02*
X63354295Y-181268349D01*
X63354295Y-181268349D02*
X63316200Y-181344540D01*
X63316200Y-181344540D02*
X63278104Y-181382635D01*
X63278104Y-181382635D02*
X63201914Y-181420730D01*
X63201914Y-181420730D02*
X63011438Y-181420730D01*
X63011438Y-181420730D02*
X62935247Y-181382635D01*
X62935247Y-181382635D02*
X62897152Y-181344540D01*
X62897152Y-181344540D02*
X62859057Y-181268349D01*
X62859057Y-181268349D02*
X62859057Y-181115968D01*
X62859057Y-181115968D02*
X62897152Y-181039778D01*
X62897152Y-181039778D02*
X62935247Y-181001683D01*
X62935247Y-181001683D02*
X63011438Y-180963587D01*
X63354295Y-160058826D02*
X62973342Y-159792159D01*
X63354295Y-159601683D02*
X62554295Y-159601683D01*
X62554295Y-159601683D02*
X62554295Y-159906445D01*
X62554295Y-159906445D02*
X62592390Y-159982635D01*
X62592390Y-159982635D02*
X62630485Y-160020730D01*
X62630485Y-160020730D02*
X62706676Y-160058826D01*
X62706676Y-160058826D02*
X62820961Y-160058826D01*
X62820961Y-160058826D02*
X62897152Y-160020730D01*
X62897152Y-160020730D02*
X62935247Y-159982635D01*
X62935247Y-159982635D02*
X62973342Y-159906445D01*
X62973342Y-159906445D02*
X62973342Y-159601683D01*
X62592390Y-160820730D02*
X62554295Y-160744540D01*
X62554295Y-160744540D02*
X62554295Y-160630254D01*
X62554295Y-160630254D02*
X62592390Y-160515968D01*
X62592390Y-160515968D02*
X62668580Y-160439778D01*
X62668580Y-160439778D02*
X62744771Y-160401683D01*
X62744771Y-160401683D02*
X62897152Y-160363587D01*
X62897152Y-160363587D02*
X63011438Y-160363587D01*
X63011438Y-160363587D02*
X63163819Y-160401683D01*
X63163819Y-160401683D02*
X63240009Y-160439778D01*
X63240009Y-160439778D02*
X63316200Y-160515968D01*
X63316200Y-160515968D02*
X63354295Y-160630254D01*
X63354295Y-160630254D02*
X63354295Y-160706445D01*
X63354295Y-160706445D02*
X63316200Y-160820730D01*
X63316200Y-160820730D02*
X63278104Y-160858826D01*
X63278104Y-160858826D02*
X63011438Y-160858826D01*
X63011438Y-160858826D02*
X63011438Y-160706445D01*
X62935247Y-161468349D02*
X62973342Y-161582635D01*
X62973342Y-161582635D02*
X63011438Y-161620730D01*
X63011438Y-161620730D02*
X63087628Y-161658826D01*
X63087628Y-161658826D02*
X63201914Y-161658826D01*
X63201914Y-161658826D02*
X63278104Y-161620730D01*
X63278104Y-161620730D02*
X63316200Y-161582635D01*
X63316200Y-161582635D02*
X63354295Y-161506445D01*
X63354295Y-161506445D02*
X63354295Y-161201683D01*
X63354295Y-161201683D02*
X62554295Y-161201683D01*
X62554295Y-161201683D02*
X62554295Y-161468349D01*
X62554295Y-161468349D02*
X62592390Y-161544540D01*
X62592390Y-161544540D02*
X62630485Y-161582635D01*
X62630485Y-161582635D02*
X62706676Y-161620730D01*
X62706676Y-161620730D02*
X62782866Y-161620730D01*
X62782866Y-161620730D02*
X62859057Y-161582635D01*
X62859057Y-161582635D02*
X62897152Y-161544540D01*
X62897152Y-161544540D02*
X62935247Y-161468349D01*
X62935247Y-161468349D02*
X62935247Y-161201683D01*
X62554295Y-161925492D02*
X62554295Y-162458826D01*
X62554295Y-162458826D02*
X63354295Y-162115968D01*
X40867580Y-99131904D02*
X40915200Y-99084285D01*
X40915200Y-99084285D02*
X40962819Y-98941428D01*
X40962819Y-98941428D02*
X40962819Y-98846190D01*
X40962819Y-98846190D02*
X40915200Y-98703333D01*
X40915200Y-98703333D02*
X40819961Y-98608095D01*
X40819961Y-98608095D02*
X40724723Y-98560476D01*
X40724723Y-98560476D02*
X40534247Y-98512857D01*
X40534247Y-98512857D02*
X40391390Y-98512857D01*
X40391390Y-98512857D02*
X40200914Y-98560476D01*
X40200914Y-98560476D02*
X40105676Y-98608095D01*
X40105676Y-98608095D02*
X40010438Y-98703333D01*
X40010438Y-98703333D02*
X39962819Y-98846190D01*
X39962819Y-98846190D02*
X39962819Y-98941428D01*
X39962819Y-98941428D02*
X40010438Y-99084285D01*
X40010438Y-99084285D02*
X40058057Y-99131904D01*
X40962819Y-99703333D02*
X40915200Y-99608095D01*
X40915200Y-99608095D02*
X40867580Y-99560476D01*
X40867580Y-99560476D02*
X40772342Y-99512857D01*
X40772342Y-99512857D02*
X40486628Y-99512857D01*
X40486628Y-99512857D02*
X40391390Y-99560476D01*
X40391390Y-99560476D02*
X40343771Y-99608095D01*
X40343771Y-99608095D02*
X40296152Y-99703333D01*
X40296152Y-99703333D02*
X40296152Y-99846190D01*
X40296152Y-99846190D02*
X40343771Y-99941428D01*
X40343771Y-99941428D02*
X40391390Y-99989047D01*
X40391390Y-99989047D02*
X40486628Y-100036666D01*
X40486628Y-100036666D02*
X40772342Y-100036666D01*
X40772342Y-100036666D02*
X40867580Y-99989047D01*
X40867580Y-99989047D02*
X40915200Y-99941428D01*
X40915200Y-99941428D02*
X40962819Y-99846190D01*
X40962819Y-99846190D02*
X40962819Y-99703333D01*
X40296152Y-100465238D02*
X40962819Y-100465238D01*
X40391390Y-100465238D02*
X40343771Y-100512857D01*
X40343771Y-100512857D02*
X40296152Y-100608095D01*
X40296152Y-100608095D02*
X40296152Y-100750952D01*
X40296152Y-100750952D02*
X40343771Y-100846190D01*
X40343771Y-100846190D02*
X40439009Y-100893809D01*
X40439009Y-100893809D02*
X40962819Y-100893809D01*
X40296152Y-101370000D02*
X40962819Y-101370000D01*
X40391390Y-101370000D02*
X40343771Y-101417619D01*
X40343771Y-101417619D02*
X40296152Y-101512857D01*
X40296152Y-101512857D02*
X40296152Y-101655714D01*
X40296152Y-101655714D02*
X40343771Y-101750952D01*
X40343771Y-101750952D02*
X40439009Y-101798571D01*
X40439009Y-101798571D02*
X40962819Y-101798571D01*
X41058057Y-102036667D02*
X41058057Y-102798571D01*
X39962819Y-103227143D02*
X39962819Y-103322381D01*
X39962819Y-103322381D02*
X40010438Y-103417619D01*
X40010438Y-103417619D02*
X40058057Y-103465238D01*
X40058057Y-103465238D02*
X40153295Y-103512857D01*
X40153295Y-103512857D02*
X40343771Y-103560476D01*
X40343771Y-103560476D02*
X40581866Y-103560476D01*
X40581866Y-103560476D02*
X40772342Y-103512857D01*
X40772342Y-103512857D02*
X40867580Y-103465238D01*
X40867580Y-103465238D02*
X40915200Y-103417619D01*
X40915200Y-103417619D02*
X40962819Y-103322381D01*
X40962819Y-103322381D02*
X40962819Y-103227143D01*
X40962819Y-103227143D02*
X40915200Y-103131905D01*
X40915200Y-103131905D02*
X40867580Y-103084286D01*
X40867580Y-103084286D02*
X40772342Y-103036667D01*
X40772342Y-103036667D02*
X40581866Y-102989048D01*
X40581866Y-102989048D02*
X40343771Y-102989048D01*
X40343771Y-102989048D02*
X40153295Y-103036667D01*
X40153295Y-103036667D02*
X40058057Y-103084286D01*
X40058057Y-103084286D02*
X40010438Y-103131905D01*
X40010438Y-103131905D02*
X39962819Y-103227143D01*
X40058057Y-103941429D02*
X40010438Y-103989048D01*
X40010438Y-103989048D02*
X39962819Y-104084286D01*
X39962819Y-104084286D02*
X39962819Y-104322381D01*
X39962819Y-104322381D02*
X40010438Y-104417619D01*
X40010438Y-104417619D02*
X40058057Y-104465238D01*
X40058057Y-104465238D02*
X40153295Y-104512857D01*
X40153295Y-104512857D02*
X40248533Y-104512857D01*
X40248533Y-104512857D02*
X40391390Y-104465238D01*
X40391390Y-104465238D02*
X40962819Y-103893810D01*
X40962819Y-103893810D02*
X40962819Y-104512857D01*
X40962819Y-104846191D02*
X40296152Y-105370000D01*
X40296152Y-104846191D02*
X40962819Y-105370000D01*
X39962819Y-105941429D02*
X39962819Y-106036667D01*
X39962819Y-106036667D02*
X40010438Y-106131905D01*
X40010438Y-106131905D02*
X40058057Y-106179524D01*
X40058057Y-106179524D02*
X40153295Y-106227143D01*
X40153295Y-106227143D02*
X40343771Y-106274762D01*
X40343771Y-106274762D02*
X40581866Y-106274762D01*
X40581866Y-106274762D02*
X40772342Y-106227143D01*
X40772342Y-106227143D02*
X40867580Y-106179524D01*
X40867580Y-106179524D02*
X40915200Y-106131905D01*
X40915200Y-106131905D02*
X40962819Y-106036667D01*
X40962819Y-106036667D02*
X40962819Y-105941429D01*
X40962819Y-105941429D02*
X40915200Y-105846191D01*
X40915200Y-105846191D02*
X40867580Y-105798572D01*
X40867580Y-105798572D02*
X40772342Y-105750953D01*
X40772342Y-105750953D02*
X40581866Y-105703334D01*
X40581866Y-105703334D02*
X40343771Y-105703334D01*
X40343771Y-105703334D02*
X40153295Y-105750953D01*
X40153295Y-105750953D02*
X40058057Y-105798572D01*
X40058057Y-105798572D02*
X40010438Y-105846191D01*
X40010438Y-105846191D02*
X39962819Y-105941429D01*
X40962819Y-107227143D02*
X40962819Y-106655715D01*
X40962819Y-106941429D02*
X39962819Y-106941429D01*
X39962819Y-106941429D02*
X40105676Y-106846191D01*
X40105676Y-106846191D02*
X40200914Y-106750953D01*
X40200914Y-106750953D02*
X40248533Y-106655715D01*
X53567580Y-99131904D02*
X53615200Y-99084285D01*
X53615200Y-99084285D02*
X53662819Y-98941428D01*
X53662819Y-98941428D02*
X53662819Y-98846190D01*
X53662819Y-98846190D02*
X53615200Y-98703333D01*
X53615200Y-98703333D02*
X53519961Y-98608095D01*
X53519961Y-98608095D02*
X53424723Y-98560476D01*
X53424723Y-98560476D02*
X53234247Y-98512857D01*
X53234247Y-98512857D02*
X53091390Y-98512857D01*
X53091390Y-98512857D02*
X52900914Y-98560476D01*
X52900914Y-98560476D02*
X52805676Y-98608095D01*
X52805676Y-98608095D02*
X52710438Y-98703333D01*
X52710438Y-98703333D02*
X52662819Y-98846190D01*
X52662819Y-98846190D02*
X52662819Y-98941428D01*
X52662819Y-98941428D02*
X52710438Y-99084285D01*
X52710438Y-99084285D02*
X52758057Y-99131904D01*
X53662819Y-99703333D02*
X53615200Y-99608095D01*
X53615200Y-99608095D02*
X53567580Y-99560476D01*
X53567580Y-99560476D02*
X53472342Y-99512857D01*
X53472342Y-99512857D02*
X53186628Y-99512857D01*
X53186628Y-99512857D02*
X53091390Y-99560476D01*
X53091390Y-99560476D02*
X53043771Y-99608095D01*
X53043771Y-99608095D02*
X52996152Y-99703333D01*
X52996152Y-99703333D02*
X52996152Y-99846190D01*
X52996152Y-99846190D02*
X53043771Y-99941428D01*
X53043771Y-99941428D02*
X53091390Y-99989047D01*
X53091390Y-99989047D02*
X53186628Y-100036666D01*
X53186628Y-100036666D02*
X53472342Y-100036666D01*
X53472342Y-100036666D02*
X53567580Y-99989047D01*
X53567580Y-99989047D02*
X53615200Y-99941428D01*
X53615200Y-99941428D02*
X53662819Y-99846190D01*
X53662819Y-99846190D02*
X53662819Y-99703333D01*
X52996152Y-100465238D02*
X53662819Y-100465238D01*
X53091390Y-100465238D02*
X53043771Y-100512857D01*
X53043771Y-100512857D02*
X52996152Y-100608095D01*
X52996152Y-100608095D02*
X52996152Y-100750952D01*
X52996152Y-100750952D02*
X53043771Y-100846190D01*
X53043771Y-100846190D02*
X53139009Y-100893809D01*
X53139009Y-100893809D02*
X53662819Y-100893809D01*
X52996152Y-101370000D02*
X53662819Y-101370000D01*
X53091390Y-101370000D02*
X53043771Y-101417619D01*
X53043771Y-101417619D02*
X52996152Y-101512857D01*
X52996152Y-101512857D02*
X52996152Y-101655714D01*
X52996152Y-101655714D02*
X53043771Y-101750952D01*
X53043771Y-101750952D02*
X53139009Y-101798571D01*
X53139009Y-101798571D02*
X53662819Y-101798571D01*
X53758057Y-102036667D02*
X53758057Y-102798571D01*
X52662819Y-103227143D02*
X52662819Y-103322381D01*
X52662819Y-103322381D02*
X52710438Y-103417619D01*
X52710438Y-103417619D02*
X52758057Y-103465238D01*
X52758057Y-103465238D02*
X52853295Y-103512857D01*
X52853295Y-103512857D02*
X53043771Y-103560476D01*
X53043771Y-103560476D02*
X53281866Y-103560476D01*
X53281866Y-103560476D02*
X53472342Y-103512857D01*
X53472342Y-103512857D02*
X53567580Y-103465238D01*
X53567580Y-103465238D02*
X53615200Y-103417619D01*
X53615200Y-103417619D02*
X53662819Y-103322381D01*
X53662819Y-103322381D02*
X53662819Y-103227143D01*
X53662819Y-103227143D02*
X53615200Y-103131905D01*
X53615200Y-103131905D02*
X53567580Y-103084286D01*
X53567580Y-103084286D02*
X53472342Y-103036667D01*
X53472342Y-103036667D02*
X53281866Y-102989048D01*
X53281866Y-102989048D02*
X53043771Y-102989048D01*
X53043771Y-102989048D02*
X52853295Y-103036667D01*
X52853295Y-103036667D02*
X52758057Y-103084286D01*
X52758057Y-103084286D02*
X52710438Y-103131905D01*
X52710438Y-103131905D02*
X52662819Y-103227143D01*
X52758057Y-103941429D02*
X52710438Y-103989048D01*
X52710438Y-103989048D02*
X52662819Y-104084286D01*
X52662819Y-104084286D02*
X52662819Y-104322381D01*
X52662819Y-104322381D02*
X52710438Y-104417619D01*
X52710438Y-104417619D02*
X52758057Y-104465238D01*
X52758057Y-104465238D02*
X52853295Y-104512857D01*
X52853295Y-104512857D02*
X52948533Y-104512857D01*
X52948533Y-104512857D02*
X53091390Y-104465238D01*
X53091390Y-104465238D02*
X53662819Y-103893810D01*
X53662819Y-103893810D02*
X53662819Y-104512857D01*
X53662819Y-104846191D02*
X52996152Y-105370000D01*
X52996152Y-104846191D02*
X53662819Y-105370000D01*
X52662819Y-105941429D02*
X52662819Y-106036667D01*
X52662819Y-106036667D02*
X52710438Y-106131905D01*
X52710438Y-106131905D02*
X52758057Y-106179524D01*
X52758057Y-106179524D02*
X52853295Y-106227143D01*
X52853295Y-106227143D02*
X53043771Y-106274762D01*
X53043771Y-106274762D02*
X53281866Y-106274762D01*
X53281866Y-106274762D02*
X53472342Y-106227143D01*
X53472342Y-106227143D02*
X53567580Y-106179524D01*
X53567580Y-106179524D02*
X53615200Y-106131905D01*
X53615200Y-106131905D02*
X53662819Y-106036667D01*
X53662819Y-106036667D02*
X53662819Y-105941429D01*
X53662819Y-105941429D02*
X53615200Y-105846191D01*
X53615200Y-105846191D02*
X53567580Y-105798572D01*
X53567580Y-105798572D02*
X53472342Y-105750953D01*
X53472342Y-105750953D02*
X53281866Y-105703334D01*
X53281866Y-105703334D02*
X53043771Y-105703334D01*
X53043771Y-105703334D02*
X52853295Y-105750953D01*
X52853295Y-105750953D02*
X52758057Y-105798572D01*
X52758057Y-105798572D02*
X52710438Y-105846191D01*
X52710438Y-105846191D02*
X52662819Y-105941429D01*
X53662819Y-107227143D02*
X53662819Y-106655715D01*
X53662819Y-106941429D02*
X52662819Y-106941429D01*
X52662819Y-106941429D02*
X52805676Y-106846191D01*
X52805676Y-106846191D02*
X52900914Y-106750953D01*
X52900914Y-106750953D02*
X52948533Y-106655715D01*
X63354295Y-102317714D02*
X62973342Y-102051047D01*
X63354295Y-101860571D02*
X62554295Y-101860571D01*
X62554295Y-101860571D02*
X62554295Y-102165333D01*
X62554295Y-102165333D02*
X62592390Y-102241523D01*
X62592390Y-102241523D02*
X62630485Y-102279618D01*
X62630485Y-102279618D02*
X62706676Y-102317714D01*
X62706676Y-102317714D02*
X62820961Y-102317714D01*
X62820961Y-102317714D02*
X62897152Y-102279618D01*
X62897152Y-102279618D02*
X62935247Y-102241523D01*
X62935247Y-102241523D02*
X62973342Y-102165333D01*
X62973342Y-102165333D02*
X62973342Y-101860571D01*
X62592390Y-103079618D02*
X62554295Y-103003428D01*
X62554295Y-103003428D02*
X62554295Y-102889142D01*
X62554295Y-102889142D02*
X62592390Y-102774856D01*
X62592390Y-102774856D02*
X62668580Y-102698666D01*
X62668580Y-102698666D02*
X62744771Y-102660571D01*
X62744771Y-102660571D02*
X62897152Y-102622475D01*
X62897152Y-102622475D02*
X63011438Y-102622475D01*
X63011438Y-102622475D02*
X63163819Y-102660571D01*
X63163819Y-102660571D02*
X63240009Y-102698666D01*
X63240009Y-102698666D02*
X63316200Y-102774856D01*
X63316200Y-102774856D02*
X63354295Y-102889142D01*
X63354295Y-102889142D02*
X63354295Y-102965333D01*
X63354295Y-102965333D02*
X63316200Y-103079618D01*
X63316200Y-103079618D02*
X63278104Y-103117714D01*
X63278104Y-103117714D02*
X63011438Y-103117714D01*
X63011438Y-103117714D02*
X63011438Y-102965333D01*
X62935247Y-103727237D02*
X62973342Y-103841523D01*
X62973342Y-103841523D02*
X63011438Y-103879618D01*
X63011438Y-103879618D02*
X63087628Y-103917714D01*
X63087628Y-103917714D02*
X63201914Y-103917714D01*
X63201914Y-103917714D02*
X63278104Y-103879618D01*
X63278104Y-103879618D02*
X63316200Y-103841523D01*
X63316200Y-103841523D02*
X63354295Y-103765333D01*
X63354295Y-103765333D02*
X63354295Y-103460571D01*
X63354295Y-103460571D02*
X62554295Y-103460571D01*
X62554295Y-103460571D02*
X62554295Y-103727237D01*
X62554295Y-103727237D02*
X62592390Y-103803428D01*
X62592390Y-103803428D02*
X62630485Y-103841523D01*
X62630485Y-103841523D02*
X62706676Y-103879618D01*
X62706676Y-103879618D02*
X62782866Y-103879618D01*
X62782866Y-103879618D02*
X62859057Y-103841523D01*
X62859057Y-103841523D02*
X62897152Y-103803428D01*
X62897152Y-103803428D02*
X62935247Y-103727237D01*
X62935247Y-103727237D02*
X62935247Y-103460571D01*
X63354295Y-104679618D02*
X63354295Y-104222475D01*
X63354295Y-104451047D02*
X62554295Y-104451047D01*
X62554295Y-104451047D02*
X62668580Y-104374856D01*
X62668580Y-104374856D02*
X62744771Y-104298666D01*
X62744771Y-104298666D02*
X62782866Y-104222475D01*
X62554295Y-105174857D02*
X62554295Y-105251047D01*
X62554295Y-105251047D02*
X62592390Y-105327238D01*
X62592390Y-105327238D02*
X62630485Y-105365333D01*
X62630485Y-105365333D02*
X62706676Y-105403428D01*
X62706676Y-105403428D02*
X62859057Y-105441523D01*
X62859057Y-105441523D02*
X63049533Y-105441523D01*
X63049533Y-105441523D02*
X63201914Y-105403428D01*
X63201914Y-105403428D02*
X63278104Y-105365333D01*
X63278104Y-105365333D02*
X63316200Y-105327238D01*
X63316200Y-105327238D02*
X63354295Y-105251047D01*
X63354295Y-105251047D02*
X63354295Y-105174857D01*
X63354295Y-105174857D02*
X63316200Y-105098666D01*
X63316200Y-105098666D02*
X63278104Y-105060571D01*
X63278104Y-105060571D02*
X63201914Y-105022476D01*
X63201914Y-105022476D02*
X63049533Y-104984380D01*
X63049533Y-104984380D02*
X62859057Y-104984380D01*
X62859057Y-104984380D02*
X62706676Y-105022476D01*
X62706676Y-105022476D02*
X62630485Y-105060571D01*
X62630485Y-105060571D02*
X62592390Y-105098666D01*
X62592390Y-105098666D02*
X62554295Y-105174857D01*
X43407580Y-99131904D02*
X43455200Y-99084285D01*
X43455200Y-99084285D02*
X43502819Y-98941428D01*
X43502819Y-98941428D02*
X43502819Y-98846190D01*
X43502819Y-98846190D02*
X43455200Y-98703333D01*
X43455200Y-98703333D02*
X43359961Y-98608095D01*
X43359961Y-98608095D02*
X43264723Y-98560476D01*
X43264723Y-98560476D02*
X43074247Y-98512857D01*
X43074247Y-98512857D02*
X42931390Y-98512857D01*
X42931390Y-98512857D02*
X42740914Y-98560476D01*
X42740914Y-98560476D02*
X42645676Y-98608095D01*
X42645676Y-98608095D02*
X42550438Y-98703333D01*
X42550438Y-98703333D02*
X42502819Y-98846190D01*
X42502819Y-98846190D02*
X42502819Y-98941428D01*
X42502819Y-98941428D02*
X42550438Y-99084285D01*
X42550438Y-99084285D02*
X42598057Y-99131904D01*
X43502819Y-99703333D02*
X43455200Y-99608095D01*
X43455200Y-99608095D02*
X43407580Y-99560476D01*
X43407580Y-99560476D02*
X43312342Y-99512857D01*
X43312342Y-99512857D02*
X43026628Y-99512857D01*
X43026628Y-99512857D02*
X42931390Y-99560476D01*
X42931390Y-99560476D02*
X42883771Y-99608095D01*
X42883771Y-99608095D02*
X42836152Y-99703333D01*
X42836152Y-99703333D02*
X42836152Y-99846190D01*
X42836152Y-99846190D02*
X42883771Y-99941428D01*
X42883771Y-99941428D02*
X42931390Y-99989047D01*
X42931390Y-99989047D02*
X43026628Y-100036666D01*
X43026628Y-100036666D02*
X43312342Y-100036666D01*
X43312342Y-100036666D02*
X43407580Y-99989047D01*
X43407580Y-99989047D02*
X43455200Y-99941428D01*
X43455200Y-99941428D02*
X43502819Y-99846190D01*
X43502819Y-99846190D02*
X43502819Y-99703333D01*
X42836152Y-100465238D02*
X43502819Y-100465238D01*
X42931390Y-100465238D02*
X42883771Y-100512857D01*
X42883771Y-100512857D02*
X42836152Y-100608095D01*
X42836152Y-100608095D02*
X42836152Y-100750952D01*
X42836152Y-100750952D02*
X42883771Y-100846190D01*
X42883771Y-100846190D02*
X42979009Y-100893809D01*
X42979009Y-100893809D02*
X43502819Y-100893809D01*
X42836152Y-101370000D02*
X43502819Y-101370000D01*
X42931390Y-101370000D02*
X42883771Y-101417619D01*
X42883771Y-101417619D02*
X42836152Y-101512857D01*
X42836152Y-101512857D02*
X42836152Y-101655714D01*
X42836152Y-101655714D02*
X42883771Y-101750952D01*
X42883771Y-101750952D02*
X42979009Y-101798571D01*
X42979009Y-101798571D02*
X43502819Y-101798571D01*
X43598057Y-102036667D02*
X43598057Y-102798571D01*
X42502819Y-103227143D02*
X42502819Y-103322381D01*
X42502819Y-103322381D02*
X42550438Y-103417619D01*
X42550438Y-103417619D02*
X42598057Y-103465238D01*
X42598057Y-103465238D02*
X42693295Y-103512857D01*
X42693295Y-103512857D02*
X42883771Y-103560476D01*
X42883771Y-103560476D02*
X43121866Y-103560476D01*
X43121866Y-103560476D02*
X43312342Y-103512857D01*
X43312342Y-103512857D02*
X43407580Y-103465238D01*
X43407580Y-103465238D02*
X43455200Y-103417619D01*
X43455200Y-103417619D02*
X43502819Y-103322381D01*
X43502819Y-103322381D02*
X43502819Y-103227143D01*
X43502819Y-103227143D02*
X43455200Y-103131905D01*
X43455200Y-103131905D02*
X43407580Y-103084286D01*
X43407580Y-103084286D02*
X43312342Y-103036667D01*
X43312342Y-103036667D02*
X43121866Y-102989048D01*
X43121866Y-102989048D02*
X42883771Y-102989048D01*
X42883771Y-102989048D02*
X42693295Y-103036667D01*
X42693295Y-103036667D02*
X42598057Y-103084286D01*
X42598057Y-103084286D02*
X42550438Y-103131905D01*
X42550438Y-103131905D02*
X42502819Y-103227143D01*
X42598057Y-103941429D02*
X42550438Y-103989048D01*
X42550438Y-103989048D02*
X42502819Y-104084286D01*
X42502819Y-104084286D02*
X42502819Y-104322381D01*
X42502819Y-104322381D02*
X42550438Y-104417619D01*
X42550438Y-104417619D02*
X42598057Y-104465238D01*
X42598057Y-104465238D02*
X42693295Y-104512857D01*
X42693295Y-104512857D02*
X42788533Y-104512857D01*
X42788533Y-104512857D02*
X42931390Y-104465238D01*
X42931390Y-104465238D02*
X43502819Y-103893810D01*
X43502819Y-103893810D02*
X43502819Y-104512857D01*
X43502819Y-104846191D02*
X42836152Y-105370000D01*
X42836152Y-104846191D02*
X43502819Y-105370000D01*
X42502819Y-105941429D02*
X42502819Y-106036667D01*
X42502819Y-106036667D02*
X42550438Y-106131905D01*
X42550438Y-106131905D02*
X42598057Y-106179524D01*
X42598057Y-106179524D02*
X42693295Y-106227143D01*
X42693295Y-106227143D02*
X42883771Y-106274762D01*
X42883771Y-106274762D02*
X43121866Y-106274762D01*
X43121866Y-106274762D02*
X43312342Y-106227143D01*
X43312342Y-106227143D02*
X43407580Y-106179524D01*
X43407580Y-106179524D02*
X43455200Y-106131905D01*
X43455200Y-106131905D02*
X43502819Y-106036667D01*
X43502819Y-106036667D02*
X43502819Y-105941429D01*
X43502819Y-105941429D02*
X43455200Y-105846191D01*
X43455200Y-105846191D02*
X43407580Y-105798572D01*
X43407580Y-105798572D02*
X43312342Y-105750953D01*
X43312342Y-105750953D02*
X43121866Y-105703334D01*
X43121866Y-105703334D02*
X42883771Y-105703334D01*
X42883771Y-105703334D02*
X42693295Y-105750953D01*
X42693295Y-105750953D02*
X42598057Y-105798572D01*
X42598057Y-105798572D02*
X42550438Y-105846191D01*
X42550438Y-105846191D02*
X42502819Y-105941429D01*
X43502819Y-107227143D02*
X43502819Y-106655715D01*
X43502819Y-106941429D02*
X42502819Y-106941429D01*
X42502819Y-106941429D02*
X42645676Y-106846191D01*
X42645676Y-106846191D02*
X42740914Y-106750953D01*
X42740914Y-106750953D02*
X42788533Y-106655715D01*
X45947580Y-99131904D02*
X45995200Y-99084285D01*
X45995200Y-99084285D02*
X46042819Y-98941428D01*
X46042819Y-98941428D02*
X46042819Y-98846190D01*
X46042819Y-98846190D02*
X45995200Y-98703333D01*
X45995200Y-98703333D02*
X45899961Y-98608095D01*
X45899961Y-98608095D02*
X45804723Y-98560476D01*
X45804723Y-98560476D02*
X45614247Y-98512857D01*
X45614247Y-98512857D02*
X45471390Y-98512857D01*
X45471390Y-98512857D02*
X45280914Y-98560476D01*
X45280914Y-98560476D02*
X45185676Y-98608095D01*
X45185676Y-98608095D02*
X45090438Y-98703333D01*
X45090438Y-98703333D02*
X45042819Y-98846190D01*
X45042819Y-98846190D02*
X45042819Y-98941428D01*
X45042819Y-98941428D02*
X45090438Y-99084285D01*
X45090438Y-99084285D02*
X45138057Y-99131904D01*
X46042819Y-99703333D02*
X45995200Y-99608095D01*
X45995200Y-99608095D02*
X45947580Y-99560476D01*
X45947580Y-99560476D02*
X45852342Y-99512857D01*
X45852342Y-99512857D02*
X45566628Y-99512857D01*
X45566628Y-99512857D02*
X45471390Y-99560476D01*
X45471390Y-99560476D02*
X45423771Y-99608095D01*
X45423771Y-99608095D02*
X45376152Y-99703333D01*
X45376152Y-99703333D02*
X45376152Y-99846190D01*
X45376152Y-99846190D02*
X45423771Y-99941428D01*
X45423771Y-99941428D02*
X45471390Y-99989047D01*
X45471390Y-99989047D02*
X45566628Y-100036666D01*
X45566628Y-100036666D02*
X45852342Y-100036666D01*
X45852342Y-100036666D02*
X45947580Y-99989047D01*
X45947580Y-99989047D02*
X45995200Y-99941428D01*
X45995200Y-99941428D02*
X46042819Y-99846190D01*
X46042819Y-99846190D02*
X46042819Y-99703333D01*
X45376152Y-100465238D02*
X46042819Y-100465238D01*
X45471390Y-100465238D02*
X45423771Y-100512857D01*
X45423771Y-100512857D02*
X45376152Y-100608095D01*
X45376152Y-100608095D02*
X45376152Y-100750952D01*
X45376152Y-100750952D02*
X45423771Y-100846190D01*
X45423771Y-100846190D02*
X45519009Y-100893809D01*
X45519009Y-100893809D02*
X46042819Y-100893809D01*
X45376152Y-101370000D02*
X46042819Y-101370000D01*
X45471390Y-101370000D02*
X45423771Y-101417619D01*
X45423771Y-101417619D02*
X45376152Y-101512857D01*
X45376152Y-101512857D02*
X45376152Y-101655714D01*
X45376152Y-101655714D02*
X45423771Y-101750952D01*
X45423771Y-101750952D02*
X45519009Y-101798571D01*
X45519009Y-101798571D02*
X46042819Y-101798571D01*
X46138057Y-102036667D02*
X46138057Y-102798571D01*
X45042819Y-103227143D02*
X45042819Y-103322381D01*
X45042819Y-103322381D02*
X45090438Y-103417619D01*
X45090438Y-103417619D02*
X45138057Y-103465238D01*
X45138057Y-103465238D02*
X45233295Y-103512857D01*
X45233295Y-103512857D02*
X45423771Y-103560476D01*
X45423771Y-103560476D02*
X45661866Y-103560476D01*
X45661866Y-103560476D02*
X45852342Y-103512857D01*
X45852342Y-103512857D02*
X45947580Y-103465238D01*
X45947580Y-103465238D02*
X45995200Y-103417619D01*
X45995200Y-103417619D02*
X46042819Y-103322381D01*
X46042819Y-103322381D02*
X46042819Y-103227143D01*
X46042819Y-103227143D02*
X45995200Y-103131905D01*
X45995200Y-103131905D02*
X45947580Y-103084286D01*
X45947580Y-103084286D02*
X45852342Y-103036667D01*
X45852342Y-103036667D02*
X45661866Y-102989048D01*
X45661866Y-102989048D02*
X45423771Y-102989048D01*
X45423771Y-102989048D02*
X45233295Y-103036667D01*
X45233295Y-103036667D02*
X45138057Y-103084286D01*
X45138057Y-103084286D02*
X45090438Y-103131905D01*
X45090438Y-103131905D02*
X45042819Y-103227143D01*
X45138057Y-103941429D02*
X45090438Y-103989048D01*
X45090438Y-103989048D02*
X45042819Y-104084286D01*
X45042819Y-104084286D02*
X45042819Y-104322381D01*
X45042819Y-104322381D02*
X45090438Y-104417619D01*
X45090438Y-104417619D02*
X45138057Y-104465238D01*
X45138057Y-104465238D02*
X45233295Y-104512857D01*
X45233295Y-104512857D02*
X45328533Y-104512857D01*
X45328533Y-104512857D02*
X45471390Y-104465238D01*
X45471390Y-104465238D02*
X46042819Y-103893810D01*
X46042819Y-103893810D02*
X46042819Y-104512857D01*
X46042819Y-104846191D02*
X45376152Y-105370000D01*
X45376152Y-104846191D02*
X46042819Y-105370000D01*
X45042819Y-105941429D02*
X45042819Y-106036667D01*
X45042819Y-106036667D02*
X45090438Y-106131905D01*
X45090438Y-106131905D02*
X45138057Y-106179524D01*
X45138057Y-106179524D02*
X45233295Y-106227143D01*
X45233295Y-106227143D02*
X45423771Y-106274762D01*
X45423771Y-106274762D02*
X45661866Y-106274762D01*
X45661866Y-106274762D02*
X45852342Y-106227143D01*
X45852342Y-106227143D02*
X45947580Y-106179524D01*
X45947580Y-106179524D02*
X45995200Y-106131905D01*
X45995200Y-106131905D02*
X46042819Y-106036667D01*
X46042819Y-106036667D02*
X46042819Y-105941429D01*
X46042819Y-105941429D02*
X45995200Y-105846191D01*
X45995200Y-105846191D02*
X45947580Y-105798572D01*
X45947580Y-105798572D02*
X45852342Y-105750953D01*
X45852342Y-105750953D02*
X45661866Y-105703334D01*
X45661866Y-105703334D02*
X45423771Y-105703334D01*
X45423771Y-105703334D02*
X45233295Y-105750953D01*
X45233295Y-105750953D02*
X45138057Y-105798572D01*
X45138057Y-105798572D02*
X45090438Y-105846191D01*
X45090438Y-105846191D02*
X45042819Y-105941429D01*
X46042819Y-107227143D02*
X46042819Y-106655715D01*
X46042819Y-106941429D02*
X45042819Y-106941429D01*
X45042819Y-106941429D02*
X45185676Y-106846191D01*
X45185676Y-106846191D02*
X45280914Y-106750953D01*
X45280914Y-106750953D02*
X45328533Y-106655715D01*
X358502295Y-102698667D02*
X358121342Y-102432000D01*
X358502295Y-102241524D02*
X357702295Y-102241524D01*
X357702295Y-102241524D02*
X357702295Y-102546286D01*
X357702295Y-102546286D02*
X357740390Y-102622476D01*
X357740390Y-102622476D02*
X357778485Y-102660571D01*
X357778485Y-102660571D02*
X357854676Y-102698667D01*
X357854676Y-102698667D02*
X357968961Y-102698667D01*
X357968961Y-102698667D02*
X358045152Y-102660571D01*
X358045152Y-102660571D02*
X358083247Y-102622476D01*
X358083247Y-102622476D02*
X358121342Y-102546286D01*
X358121342Y-102546286D02*
X358121342Y-102241524D01*
X357740390Y-103460571D02*
X357702295Y-103384381D01*
X357702295Y-103384381D02*
X357702295Y-103270095D01*
X357702295Y-103270095D02*
X357740390Y-103155809D01*
X357740390Y-103155809D02*
X357816580Y-103079619D01*
X357816580Y-103079619D02*
X357892771Y-103041524D01*
X357892771Y-103041524D02*
X358045152Y-103003428D01*
X358045152Y-103003428D02*
X358159438Y-103003428D01*
X358159438Y-103003428D02*
X358311819Y-103041524D01*
X358311819Y-103041524D02*
X358388009Y-103079619D01*
X358388009Y-103079619D02*
X358464200Y-103155809D01*
X358464200Y-103155809D02*
X358502295Y-103270095D01*
X358502295Y-103270095D02*
X358502295Y-103346286D01*
X358502295Y-103346286D02*
X358464200Y-103460571D01*
X358464200Y-103460571D02*
X358426104Y-103498667D01*
X358426104Y-103498667D02*
X358159438Y-103498667D01*
X358159438Y-103498667D02*
X358159438Y-103346286D01*
X358083247Y-104108190D02*
X358121342Y-104222476D01*
X358121342Y-104222476D02*
X358159438Y-104260571D01*
X358159438Y-104260571D02*
X358235628Y-104298667D01*
X358235628Y-104298667D02*
X358349914Y-104298667D01*
X358349914Y-104298667D02*
X358426104Y-104260571D01*
X358426104Y-104260571D02*
X358464200Y-104222476D01*
X358464200Y-104222476D02*
X358502295Y-104146286D01*
X358502295Y-104146286D02*
X358502295Y-103841524D01*
X358502295Y-103841524D02*
X357702295Y-103841524D01*
X357702295Y-103841524D02*
X357702295Y-104108190D01*
X357702295Y-104108190D02*
X357740390Y-104184381D01*
X357740390Y-104184381D02*
X357778485Y-104222476D01*
X357778485Y-104222476D02*
X357854676Y-104260571D01*
X357854676Y-104260571D02*
X357930866Y-104260571D01*
X357930866Y-104260571D02*
X358007057Y-104222476D01*
X358007057Y-104222476D02*
X358045152Y-104184381D01*
X358045152Y-104184381D02*
X358083247Y-104108190D01*
X358083247Y-104108190D02*
X358083247Y-103841524D01*
X358502295Y-105060571D02*
X358502295Y-104603428D01*
X358502295Y-104832000D02*
X357702295Y-104832000D01*
X357702295Y-104832000D02*
X357816580Y-104755809D01*
X357816580Y-104755809D02*
X357892771Y-104679619D01*
X357892771Y-104679619D02*
X357930866Y-104603428D01*
X51027580Y-99131904D02*
X51075200Y-99084285D01*
X51075200Y-99084285D02*
X51122819Y-98941428D01*
X51122819Y-98941428D02*
X51122819Y-98846190D01*
X51122819Y-98846190D02*
X51075200Y-98703333D01*
X51075200Y-98703333D02*
X50979961Y-98608095D01*
X50979961Y-98608095D02*
X50884723Y-98560476D01*
X50884723Y-98560476D02*
X50694247Y-98512857D01*
X50694247Y-98512857D02*
X50551390Y-98512857D01*
X50551390Y-98512857D02*
X50360914Y-98560476D01*
X50360914Y-98560476D02*
X50265676Y-98608095D01*
X50265676Y-98608095D02*
X50170438Y-98703333D01*
X50170438Y-98703333D02*
X50122819Y-98846190D01*
X50122819Y-98846190D02*
X50122819Y-98941428D01*
X50122819Y-98941428D02*
X50170438Y-99084285D01*
X50170438Y-99084285D02*
X50218057Y-99131904D01*
X51122819Y-99703333D02*
X51075200Y-99608095D01*
X51075200Y-99608095D02*
X51027580Y-99560476D01*
X51027580Y-99560476D02*
X50932342Y-99512857D01*
X50932342Y-99512857D02*
X50646628Y-99512857D01*
X50646628Y-99512857D02*
X50551390Y-99560476D01*
X50551390Y-99560476D02*
X50503771Y-99608095D01*
X50503771Y-99608095D02*
X50456152Y-99703333D01*
X50456152Y-99703333D02*
X50456152Y-99846190D01*
X50456152Y-99846190D02*
X50503771Y-99941428D01*
X50503771Y-99941428D02*
X50551390Y-99989047D01*
X50551390Y-99989047D02*
X50646628Y-100036666D01*
X50646628Y-100036666D02*
X50932342Y-100036666D01*
X50932342Y-100036666D02*
X51027580Y-99989047D01*
X51027580Y-99989047D02*
X51075200Y-99941428D01*
X51075200Y-99941428D02*
X51122819Y-99846190D01*
X51122819Y-99846190D02*
X51122819Y-99703333D01*
X50456152Y-100465238D02*
X51122819Y-100465238D01*
X50551390Y-100465238D02*
X50503771Y-100512857D01*
X50503771Y-100512857D02*
X50456152Y-100608095D01*
X50456152Y-100608095D02*
X50456152Y-100750952D01*
X50456152Y-100750952D02*
X50503771Y-100846190D01*
X50503771Y-100846190D02*
X50599009Y-100893809D01*
X50599009Y-100893809D02*
X51122819Y-100893809D01*
X50456152Y-101370000D02*
X51122819Y-101370000D01*
X50551390Y-101370000D02*
X50503771Y-101417619D01*
X50503771Y-101417619D02*
X50456152Y-101512857D01*
X50456152Y-101512857D02*
X50456152Y-101655714D01*
X50456152Y-101655714D02*
X50503771Y-101750952D01*
X50503771Y-101750952D02*
X50599009Y-101798571D01*
X50599009Y-101798571D02*
X51122819Y-101798571D01*
X51218057Y-102036667D02*
X51218057Y-102798571D01*
X50122819Y-103227143D02*
X50122819Y-103322381D01*
X50122819Y-103322381D02*
X50170438Y-103417619D01*
X50170438Y-103417619D02*
X50218057Y-103465238D01*
X50218057Y-103465238D02*
X50313295Y-103512857D01*
X50313295Y-103512857D02*
X50503771Y-103560476D01*
X50503771Y-103560476D02*
X50741866Y-103560476D01*
X50741866Y-103560476D02*
X50932342Y-103512857D01*
X50932342Y-103512857D02*
X51027580Y-103465238D01*
X51027580Y-103465238D02*
X51075200Y-103417619D01*
X51075200Y-103417619D02*
X51122819Y-103322381D01*
X51122819Y-103322381D02*
X51122819Y-103227143D01*
X51122819Y-103227143D02*
X51075200Y-103131905D01*
X51075200Y-103131905D02*
X51027580Y-103084286D01*
X51027580Y-103084286D02*
X50932342Y-103036667D01*
X50932342Y-103036667D02*
X50741866Y-102989048D01*
X50741866Y-102989048D02*
X50503771Y-102989048D01*
X50503771Y-102989048D02*
X50313295Y-103036667D01*
X50313295Y-103036667D02*
X50218057Y-103084286D01*
X50218057Y-103084286D02*
X50170438Y-103131905D01*
X50170438Y-103131905D02*
X50122819Y-103227143D01*
X50218057Y-103941429D02*
X50170438Y-103989048D01*
X50170438Y-103989048D02*
X50122819Y-104084286D01*
X50122819Y-104084286D02*
X50122819Y-104322381D01*
X50122819Y-104322381D02*
X50170438Y-104417619D01*
X50170438Y-104417619D02*
X50218057Y-104465238D01*
X50218057Y-104465238D02*
X50313295Y-104512857D01*
X50313295Y-104512857D02*
X50408533Y-104512857D01*
X50408533Y-104512857D02*
X50551390Y-104465238D01*
X50551390Y-104465238D02*
X51122819Y-103893810D01*
X51122819Y-103893810D02*
X51122819Y-104512857D01*
X51122819Y-104846191D02*
X50456152Y-105370000D01*
X50456152Y-104846191D02*
X51122819Y-105370000D01*
X50122819Y-105941429D02*
X50122819Y-106036667D01*
X50122819Y-106036667D02*
X50170438Y-106131905D01*
X50170438Y-106131905D02*
X50218057Y-106179524D01*
X50218057Y-106179524D02*
X50313295Y-106227143D01*
X50313295Y-106227143D02*
X50503771Y-106274762D01*
X50503771Y-106274762D02*
X50741866Y-106274762D01*
X50741866Y-106274762D02*
X50932342Y-106227143D01*
X50932342Y-106227143D02*
X51027580Y-106179524D01*
X51027580Y-106179524D02*
X51075200Y-106131905D01*
X51075200Y-106131905D02*
X51122819Y-106036667D01*
X51122819Y-106036667D02*
X51122819Y-105941429D01*
X51122819Y-105941429D02*
X51075200Y-105846191D01*
X51075200Y-105846191D02*
X51027580Y-105798572D01*
X51027580Y-105798572D02*
X50932342Y-105750953D01*
X50932342Y-105750953D02*
X50741866Y-105703334D01*
X50741866Y-105703334D02*
X50503771Y-105703334D01*
X50503771Y-105703334D02*
X50313295Y-105750953D01*
X50313295Y-105750953D02*
X50218057Y-105798572D01*
X50218057Y-105798572D02*
X50170438Y-105846191D01*
X50170438Y-105846191D02*
X50122819Y-105941429D01*
X51122819Y-107227143D02*
X51122819Y-106655715D01*
X51122819Y-106941429D02*
X50122819Y-106941429D01*
X50122819Y-106941429D02*
X50265676Y-106846191D01*
X50265676Y-106846191D02*
X50360914Y-106750953D01*
X50360914Y-106750953D02*
X50408533Y-106655715D01*
X63354295Y-141058826D02*
X62973342Y-140792159D01*
X63354295Y-140601683D02*
X62554295Y-140601683D01*
X62554295Y-140601683D02*
X62554295Y-140906445D01*
X62554295Y-140906445D02*
X62592390Y-140982635D01*
X62592390Y-140982635D02*
X62630485Y-141020730D01*
X62630485Y-141020730D02*
X62706676Y-141058826D01*
X62706676Y-141058826D02*
X62820961Y-141058826D01*
X62820961Y-141058826D02*
X62897152Y-141020730D01*
X62897152Y-141020730D02*
X62935247Y-140982635D01*
X62935247Y-140982635D02*
X62973342Y-140906445D01*
X62973342Y-140906445D02*
X62973342Y-140601683D01*
X62592390Y-141820730D02*
X62554295Y-141744540D01*
X62554295Y-141744540D02*
X62554295Y-141630254D01*
X62554295Y-141630254D02*
X62592390Y-141515968D01*
X62592390Y-141515968D02*
X62668580Y-141439778D01*
X62668580Y-141439778D02*
X62744771Y-141401683D01*
X62744771Y-141401683D02*
X62897152Y-141363587D01*
X62897152Y-141363587D02*
X63011438Y-141363587D01*
X63011438Y-141363587D02*
X63163819Y-141401683D01*
X63163819Y-141401683D02*
X63240009Y-141439778D01*
X63240009Y-141439778D02*
X63316200Y-141515968D01*
X63316200Y-141515968D02*
X63354295Y-141630254D01*
X63354295Y-141630254D02*
X63354295Y-141706445D01*
X63354295Y-141706445D02*
X63316200Y-141820730D01*
X63316200Y-141820730D02*
X63278104Y-141858826D01*
X63278104Y-141858826D02*
X63011438Y-141858826D01*
X63011438Y-141858826D02*
X63011438Y-141706445D01*
X62935247Y-142468349D02*
X62973342Y-142582635D01*
X62973342Y-142582635D02*
X63011438Y-142620730D01*
X63011438Y-142620730D02*
X63087628Y-142658826D01*
X63087628Y-142658826D02*
X63201914Y-142658826D01*
X63201914Y-142658826D02*
X63278104Y-142620730D01*
X63278104Y-142620730D02*
X63316200Y-142582635D01*
X63316200Y-142582635D02*
X63354295Y-142506445D01*
X63354295Y-142506445D02*
X63354295Y-142201683D01*
X63354295Y-142201683D02*
X62554295Y-142201683D01*
X62554295Y-142201683D02*
X62554295Y-142468349D01*
X62554295Y-142468349D02*
X62592390Y-142544540D01*
X62592390Y-142544540D02*
X62630485Y-142582635D01*
X62630485Y-142582635D02*
X62706676Y-142620730D01*
X62706676Y-142620730D02*
X62782866Y-142620730D01*
X62782866Y-142620730D02*
X62859057Y-142582635D01*
X62859057Y-142582635D02*
X62897152Y-142544540D01*
X62897152Y-142544540D02*
X62935247Y-142468349D01*
X62935247Y-142468349D02*
X62935247Y-142201683D01*
X62897152Y-143115968D02*
X62859057Y-143039778D01*
X62859057Y-143039778D02*
X62820961Y-143001683D01*
X62820961Y-143001683D02*
X62744771Y-142963587D01*
X62744771Y-142963587D02*
X62706676Y-142963587D01*
X62706676Y-142963587D02*
X62630485Y-143001683D01*
X62630485Y-143001683D02*
X62592390Y-143039778D01*
X62592390Y-143039778D02*
X62554295Y-143115968D01*
X62554295Y-143115968D02*
X62554295Y-143268349D01*
X62554295Y-143268349D02*
X62592390Y-143344540D01*
X62592390Y-143344540D02*
X62630485Y-143382635D01*
X62630485Y-143382635D02*
X62706676Y-143420730D01*
X62706676Y-143420730D02*
X62744771Y-143420730D01*
X62744771Y-143420730D02*
X62820961Y-143382635D01*
X62820961Y-143382635D02*
X62859057Y-143344540D01*
X62859057Y-143344540D02*
X62897152Y-143268349D01*
X62897152Y-143268349D02*
X62897152Y-143115968D01*
X62897152Y-143115968D02*
X62935247Y-143039778D01*
X62935247Y-143039778D02*
X62973342Y-143001683D01*
X62973342Y-143001683D02*
X63049533Y-142963587D01*
X63049533Y-142963587D02*
X63201914Y-142963587D01*
X63201914Y-142963587D02*
X63278104Y-143001683D01*
X63278104Y-143001683D02*
X63316200Y-143039778D01*
X63316200Y-143039778D02*
X63354295Y-143115968D01*
X63354295Y-143115968D02*
X63354295Y-143268349D01*
X63354295Y-143268349D02*
X63316200Y-143344540D01*
X63316200Y-143344540D02*
X63278104Y-143382635D01*
X63278104Y-143382635D02*
X63201914Y-143420730D01*
X63201914Y-143420730D02*
X63049533Y-143420730D01*
X63049533Y-143420730D02*
X62973342Y-143382635D01*
X62973342Y-143382635D02*
X62935247Y-143344540D01*
X62935247Y-143344540D02*
X62897152Y-143268349D01*
X358502295Y-160058826D02*
X358121342Y-159792159D01*
X358502295Y-159601683D02*
X357702295Y-159601683D01*
X357702295Y-159601683D02*
X357702295Y-159906445D01*
X357702295Y-159906445D02*
X357740390Y-159982635D01*
X357740390Y-159982635D02*
X357778485Y-160020730D01*
X357778485Y-160020730D02*
X357854676Y-160058826D01*
X357854676Y-160058826D02*
X357968961Y-160058826D01*
X357968961Y-160058826D02*
X358045152Y-160020730D01*
X358045152Y-160020730D02*
X358083247Y-159982635D01*
X358083247Y-159982635D02*
X358121342Y-159906445D01*
X358121342Y-159906445D02*
X358121342Y-159601683D01*
X357740390Y-160820730D02*
X357702295Y-160744540D01*
X357702295Y-160744540D02*
X357702295Y-160630254D01*
X357702295Y-160630254D02*
X357740390Y-160515968D01*
X357740390Y-160515968D02*
X357816580Y-160439778D01*
X357816580Y-160439778D02*
X357892771Y-160401683D01*
X357892771Y-160401683D02*
X358045152Y-160363587D01*
X358045152Y-160363587D02*
X358159438Y-160363587D01*
X358159438Y-160363587D02*
X358311819Y-160401683D01*
X358311819Y-160401683D02*
X358388009Y-160439778D01*
X358388009Y-160439778D02*
X358464200Y-160515968D01*
X358464200Y-160515968D02*
X358502295Y-160630254D01*
X358502295Y-160630254D02*
X358502295Y-160706445D01*
X358502295Y-160706445D02*
X358464200Y-160820730D01*
X358464200Y-160820730D02*
X358426104Y-160858826D01*
X358426104Y-160858826D02*
X358159438Y-160858826D01*
X358159438Y-160858826D02*
X358159438Y-160706445D01*
X358083247Y-161468349D02*
X358121342Y-161582635D01*
X358121342Y-161582635D02*
X358159438Y-161620730D01*
X358159438Y-161620730D02*
X358235628Y-161658826D01*
X358235628Y-161658826D02*
X358349914Y-161658826D01*
X358349914Y-161658826D02*
X358426104Y-161620730D01*
X358426104Y-161620730D02*
X358464200Y-161582635D01*
X358464200Y-161582635D02*
X358502295Y-161506445D01*
X358502295Y-161506445D02*
X358502295Y-161201683D01*
X358502295Y-161201683D02*
X357702295Y-161201683D01*
X357702295Y-161201683D02*
X357702295Y-161468349D01*
X357702295Y-161468349D02*
X357740390Y-161544540D01*
X357740390Y-161544540D02*
X357778485Y-161582635D01*
X357778485Y-161582635D02*
X357854676Y-161620730D01*
X357854676Y-161620730D02*
X357930866Y-161620730D01*
X357930866Y-161620730D02*
X358007057Y-161582635D01*
X358007057Y-161582635D02*
X358045152Y-161544540D01*
X358045152Y-161544540D02*
X358083247Y-161468349D01*
X358083247Y-161468349D02*
X358083247Y-161201683D01*
X357968961Y-162344540D02*
X358502295Y-162344540D01*
X357664200Y-162154064D02*
X358235628Y-161963587D01*
X358235628Y-161963587D02*
X358235628Y-162458826D01*
X371629726Y-192245895D02*
X371248774Y-192245895D01*
X371486869Y-192912562D02*
X371486869Y-192055419D01*
X371486869Y-192055419D02*
X371439250Y-191960181D01*
X371439250Y-191960181D02*
X371344012Y-191912562D01*
X371344012Y-191912562D02*
X371248774Y-191912562D01*
X370772583Y-192912562D02*
X370867821Y-192864943D01*
X370867821Y-192864943D02*
X370915440Y-192769704D01*
X370915440Y-192769704D02*
X370915440Y-191912562D01*
X369963059Y-192912562D02*
X369963059Y-192388752D01*
X369963059Y-192388752D02*
X370010678Y-192293514D01*
X370010678Y-192293514D02*
X370105916Y-192245895D01*
X370105916Y-192245895D02*
X370296392Y-192245895D01*
X370296392Y-192245895D02*
X370391630Y-192293514D01*
X369963059Y-192864943D02*
X370058297Y-192912562D01*
X370058297Y-192912562D02*
X370296392Y-192912562D01*
X370296392Y-192912562D02*
X370391630Y-192864943D01*
X370391630Y-192864943D02*
X370439249Y-192769704D01*
X370439249Y-192769704D02*
X370439249Y-192674466D01*
X370439249Y-192674466D02*
X370391630Y-192579228D01*
X370391630Y-192579228D02*
X370296392Y-192531609D01*
X370296392Y-192531609D02*
X370058297Y-192531609D01*
X370058297Y-192531609D02*
X369963059Y-192483990D01*
X369058297Y-192245895D02*
X369058297Y-193055419D01*
X369058297Y-193055419D02*
X369105916Y-193150657D01*
X369105916Y-193150657D02*
X369153535Y-193198276D01*
X369153535Y-193198276D02*
X369248773Y-193245895D01*
X369248773Y-193245895D02*
X369391630Y-193245895D01*
X369391630Y-193245895D02*
X369486868Y-193198276D01*
X369058297Y-192864943D02*
X369153535Y-192912562D01*
X369153535Y-192912562D02*
X369344011Y-192912562D01*
X369344011Y-192912562D02*
X369439249Y-192864943D01*
X369439249Y-192864943D02*
X369486868Y-192817323D01*
X369486868Y-192817323D02*
X369534487Y-192722085D01*
X369534487Y-192722085D02*
X369534487Y-192436371D01*
X369534487Y-192436371D02*
X369486868Y-192341133D01*
X369486868Y-192341133D02*
X369439249Y-192293514D01*
X369439249Y-192293514D02*
X369344011Y-192245895D01*
X369344011Y-192245895D02*
X369153535Y-192245895D01*
X369153535Y-192245895D02*
X369058297Y-192293514D01*
X368629725Y-192864943D02*
X368534487Y-192912562D01*
X368534487Y-192912562D02*
X368344011Y-192912562D01*
X368344011Y-192912562D02*
X368248773Y-192864943D01*
X368248773Y-192864943D02*
X368201154Y-192769704D01*
X368201154Y-192769704D02*
X368201154Y-192722085D01*
X368201154Y-192722085D02*
X368248773Y-192626847D01*
X368248773Y-192626847D02*
X368344011Y-192579228D01*
X368344011Y-192579228D02*
X368486868Y-192579228D01*
X368486868Y-192579228D02*
X368582106Y-192531609D01*
X368582106Y-192531609D02*
X368629725Y-192436371D01*
X368629725Y-192436371D02*
X368629725Y-192388752D01*
X368629725Y-192388752D02*
X368582106Y-192293514D01*
X368582106Y-192293514D02*
X368486868Y-192245895D01*
X368486868Y-192245895D02*
X368344011Y-192245895D01*
X368344011Y-192245895D02*
X368248773Y-192293514D01*
X358502295Y-179058826D02*
X358121342Y-178792159D01*
X358502295Y-178601683D02*
X357702295Y-178601683D01*
X357702295Y-178601683D02*
X357702295Y-178906445D01*
X357702295Y-178906445D02*
X357740390Y-178982635D01*
X357740390Y-178982635D02*
X357778485Y-179020730D01*
X357778485Y-179020730D02*
X357854676Y-179058826D01*
X357854676Y-179058826D02*
X357968961Y-179058826D01*
X357968961Y-179058826D02*
X358045152Y-179020730D01*
X358045152Y-179020730D02*
X358083247Y-178982635D01*
X358083247Y-178982635D02*
X358121342Y-178906445D01*
X358121342Y-178906445D02*
X358121342Y-178601683D01*
X357740390Y-179820730D02*
X357702295Y-179744540D01*
X357702295Y-179744540D02*
X357702295Y-179630254D01*
X357702295Y-179630254D02*
X357740390Y-179515968D01*
X357740390Y-179515968D02*
X357816580Y-179439778D01*
X357816580Y-179439778D02*
X357892771Y-179401683D01*
X357892771Y-179401683D02*
X358045152Y-179363587D01*
X358045152Y-179363587D02*
X358159438Y-179363587D01*
X358159438Y-179363587D02*
X358311819Y-179401683D01*
X358311819Y-179401683D02*
X358388009Y-179439778D01*
X358388009Y-179439778D02*
X358464200Y-179515968D01*
X358464200Y-179515968D02*
X358502295Y-179630254D01*
X358502295Y-179630254D02*
X358502295Y-179706445D01*
X358502295Y-179706445D02*
X358464200Y-179820730D01*
X358464200Y-179820730D02*
X358426104Y-179858826D01*
X358426104Y-179858826D02*
X358159438Y-179858826D01*
X358159438Y-179858826D02*
X358159438Y-179706445D01*
X358083247Y-180468349D02*
X358121342Y-180582635D01*
X358121342Y-180582635D02*
X358159438Y-180620730D01*
X358159438Y-180620730D02*
X358235628Y-180658826D01*
X358235628Y-180658826D02*
X358349914Y-180658826D01*
X358349914Y-180658826D02*
X358426104Y-180620730D01*
X358426104Y-180620730D02*
X358464200Y-180582635D01*
X358464200Y-180582635D02*
X358502295Y-180506445D01*
X358502295Y-180506445D02*
X358502295Y-180201683D01*
X358502295Y-180201683D02*
X357702295Y-180201683D01*
X357702295Y-180201683D02*
X357702295Y-180468349D01*
X357702295Y-180468349D02*
X357740390Y-180544540D01*
X357740390Y-180544540D02*
X357778485Y-180582635D01*
X357778485Y-180582635D02*
X357854676Y-180620730D01*
X357854676Y-180620730D02*
X357930866Y-180620730D01*
X357930866Y-180620730D02*
X358007057Y-180582635D01*
X358007057Y-180582635D02*
X358045152Y-180544540D01*
X358045152Y-180544540D02*
X358083247Y-180468349D01*
X358083247Y-180468349D02*
X358083247Y-180201683D01*
X357702295Y-181382635D02*
X357702295Y-181001683D01*
X357702295Y-181001683D02*
X358083247Y-180963587D01*
X358083247Y-180963587D02*
X358045152Y-181001683D01*
X358045152Y-181001683D02*
X358007057Y-181077873D01*
X358007057Y-181077873D02*
X358007057Y-181268349D01*
X358007057Y-181268349D02*
X358045152Y-181344540D01*
X358045152Y-181344540D02*
X358083247Y-181382635D01*
X358083247Y-181382635D02*
X358159438Y-181420730D01*
X358159438Y-181420730D02*
X358349914Y-181420730D01*
X358349914Y-181420730D02*
X358426104Y-181382635D01*
X358426104Y-181382635D02*
X358464200Y-181344540D01*
X358464200Y-181344540D02*
X358502295Y-181268349D01*
X358502295Y-181268349D02*
X358502295Y-181077873D01*
X358502295Y-181077873D02*
X358464200Y-181001683D01*
X358464200Y-181001683D02*
X358426104Y-180963587D01*
X63354295Y-122002667D02*
X62973342Y-121736000D01*
X63354295Y-121545524D02*
X62554295Y-121545524D01*
X62554295Y-121545524D02*
X62554295Y-121850286D01*
X62554295Y-121850286D02*
X62592390Y-121926476D01*
X62592390Y-121926476D02*
X62630485Y-121964571D01*
X62630485Y-121964571D02*
X62706676Y-122002667D01*
X62706676Y-122002667D02*
X62820961Y-122002667D01*
X62820961Y-122002667D02*
X62897152Y-121964571D01*
X62897152Y-121964571D02*
X62935247Y-121926476D01*
X62935247Y-121926476D02*
X62973342Y-121850286D01*
X62973342Y-121850286D02*
X62973342Y-121545524D01*
X62592390Y-122764571D02*
X62554295Y-122688381D01*
X62554295Y-122688381D02*
X62554295Y-122574095D01*
X62554295Y-122574095D02*
X62592390Y-122459809D01*
X62592390Y-122459809D02*
X62668580Y-122383619D01*
X62668580Y-122383619D02*
X62744771Y-122345524D01*
X62744771Y-122345524D02*
X62897152Y-122307428D01*
X62897152Y-122307428D02*
X63011438Y-122307428D01*
X63011438Y-122307428D02*
X63163819Y-122345524D01*
X63163819Y-122345524D02*
X63240009Y-122383619D01*
X63240009Y-122383619D02*
X63316200Y-122459809D01*
X63316200Y-122459809D02*
X63354295Y-122574095D01*
X63354295Y-122574095D02*
X63354295Y-122650286D01*
X63354295Y-122650286D02*
X63316200Y-122764571D01*
X63316200Y-122764571D02*
X63278104Y-122802667D01*
X63278104Y-122802667D02*
X63011438Y-122802667D01*
X63011438Y-122802667D02*
X63011438Y-122650286D01*
X62935247Y-123412190D02*
X62973342Y-123526476D01*
X62973342Y-123526476D02*
X63011438Y-123564571D01*
X63011438Y-123564571D02*
X63087628Y-123602667D01*
X63087628Y-123602667D02*
X63201914Y-123602667D01*
X63201914Y-123602667D02*
X63278104Y-123564571D01*
X63278104Y-123564571D02*
X63316200Y-123526476D01*
X63316200Y-123526476D02*
X63354295Y-123450286D01*
X63354295Y-123450286D02*
X63354295Y-123145524D01*
X63354295Y-123145524D02*
X62554295Y-123145524D01*
X62554295Y-123145524D02*
X62554295Y-123412190D01*
X62554295Y-123412190D02*
X62592390Y-123488381D01*
X62592390Y-123488381D02*
X62630485Y-123526476D01*
X62630485Y-123526476D02*
X62706676Y-123564571D01*
X62706676Y-123564571D02*
X62782866Y-123564571D01*
X62782866Y-123564571D02*
X62859057Y-123526476D01*
X62859057Y-123526476D02*
X62897152Y-123488381D01*
X62897152Y-123488381D02*
X62935247Y-123412190D01*
X62935247Y-123412190D02*
X62935247Y-123145524D01*
X63354295Y-123983619D02*
X63354295Y-124136000D01*
X63354295Y-124136000D02*
X63316200Y-124212190D01*
X63316200Y-124212190D02*
X63278104Y-124250286D01*
X63278104Y-124250286D02*
X63163819Y-124326476D01*
X63163819Y-124326476D02*
X63011438Y-124364571D01*
X63011438Y-124364571D02*
X62706676Y-124364571D01*
X62706676Y-124364571D02*
X62630485Y-124326476D01*
X62630485Y-124326476D02*
X62592390Y-124288381D01*
X62592390Y-124288381D02*
X62554295Y-124212190D01*
X62554295Y-124212190D02*
X62554295Y-124059809D01*
X62554295Y-124059809D02*
X62592390Y-123983619D01*
X62592390Y-123983619D02*
X62630485Y-123945524D01*
X62630485Y-123945524D02*
X62706676Y-123907428D01*
X62706676Y-123907428D02*
X62897152Y-123907428D01*
X62897152Y-123907428D02*
X62973342Y-123945524D01*
X62973342Y-123945524D02*
X63011438Y-123983619D01*
X63011438Y-123983619D02*
X63049533Y-124059809D01*
X63049533Y-124059809D02*
X63049533Y-124212190D01*
X63049533Y-124212190D02*
X63011438Y-124288381D01*
X63011438Y-124288381D02*
X62973342Y-124326476D01*
X62973342Y-124326476D02*
X62897152Y-124364571D01*
M02*
