G04 #@! TF.GenerationSoftware,KiCad,Pcbnew,8.0.3*
G04 #@! TF.CreationDate,2024-12-28T10:17:01+01:00*
G04 #@! TF.ProjectId,orthgyle,6f727468-6779-46c6-952e-6b696361645f,1*
G04 #@! TF.SameCoordinates,Original*
G04 #@! TF.FileFunction,Legend,Bot*
G04 #@! TF.FilePolarity,Positive*
%FSLAX46Y46*%
G04 Gerber Fmt 4.6, Leading zero omitted, Abs format (unit mm)*
G04 Created by KiCad (PCBNEW 8.0.3) date 2024-12-28 10:17:01*
%MOMM*%
%LPD*%
G01*
G04 APERTURE LIST*
%ADD10C,0.150000*%
%ADD11C,0.200000*%
%ADD12C,0.120000*%
%ADD13C,0.100000*%
%ADD14C,2.286000*%
G04 APERTURE END LIST*
D10*
X211931250Y-95250000D02*
X197643750Y-109537500D01*
X183356250Y-95250000D01*
X197643750Y-80962500D01*
X211931250Y-95250000D01*
G36*
X211931250Y-95250000D02*
G01*
X197643750Y-109537500D01*
X183356250Y-95250000D01*
X197643750Y-80962500D01*
X211931250Y-95250000D01*
G37*
X228600000Y-111918750D02*
X214312500Y-126206250D01*
X200025000Y-111918750D01*
X214312500Y-97631250D01*
X228600000Y-111918750D01*
G36*
X228600000Y-111918750D02*
G01*
X214312500Y-126206250D01*
X200025000Y-111918750D01*
X214312500Y-97631250D01*
X228600000Y-111918750D01*
G37*
X245268750Y-123825000D02*
X245268750Y-126206250D01*
X242887500Y-126206250D01*
X228600000Y-111918750D01*
X230981250Y-109537500D01*
X245268750Y-123825000D01*
G36*
X245268750Y-123825000D02*
G01*
X245268750Y-126206250D01*
X242887500Y-126206250D01*
X228600000Y-111918750D01*
X230981250Y-109537500D01*
X245268750Y-123825000D01*
G37*
X228600000Y-78581250D02*
X214312500Y-92868750D01*
X200025000Y-78581250D01*
X214312500Y-64293750D01*
X228600000Y-78581250D01*
G36*
X228600000Y-78581250D02*
G01*
X214312500Y-92868750D01*
X200025000Y-78581250D01*
X214312500Y-64293750D01*
X228600000Y-78581250D01*
G37*
X245268750Y-95250000D02*
X230981250Y-109537500D01*
X216693750Y-95250000D01*
X230981250Y-80962500D01*
X245268750Y-95250000D01*
G36*
X245268750Y-95250000D02*
G01*
X230981250Y-109537500D01*
X216693750Y-95250000D01*
X230981250Y-80962500D01*
X245268750Y-95250000D01*
G37*
X200025000Y-78581250D02*
X197643750Y-80962500D01*
X183356250Y-66675000D01*
X183356250Y-64293750D01*
X185737500Y-64293750D01*
X200025000Y-78581250D01*
G36*
X200025000Y-78581250D02*
G01*
X197643750Y-80962500D01*
X183356250Y-66675000D01*
X183356250Y-64293750D01*
X185737500Y-64293750D01*
X200025000Y-78581250D01*
G37*
X200025000Y-111918750D02*
X185737500Y-126206250D01*
X183356250Y-126206250D01*
X183356250Y-123825000D01*
X197643750Y-109537500D01*
X200025000Y-111918750D01*
G36*
X200025000Y-111918750D02*
G01*
X185737500Y-126206250D01*
X183356250Y-126206250D01*
X183356250Y-123825000D01*
X197643750Y-109537500D01*
X200025000Y-111918750D01*
G37*
X245268750Y-66675000D02*
X230981250Y-80962500D01*
X228600000Y-78581250D01*
X242887500Y-64293750D01*
X245268750Y-64293750D01*
X245268750Y-66675000D01*
G36*
X245268750Y-66675000D02*
G01*
X230981250Y-80962500D01*
X228600000Y-78581250D01*
X242887500Y-64293750D01*
X245268750Y-64293750D01*
X245268750Y-66675000D01*
G37*
X150018750Y-95250000D02*
X135731250Y-109537500D01*
X121443750Y-95250000D01*
X135731250Y-80962500D01*
X150018750Y-95250000D01*
G36*
X150018750Y-95250000D02*
G01*
X135731250Y-109537500D01*
X121443750Y-95250000D01*
X135731250Y-80962500D01*
X150018750Y-95250000D01*
G37*
X166687500Y-111918750D02*
X152400000Y-126206250D01*
X138112500Y-111918750D01*
X152400000Y-97631250D01*
X166687500Y-111918750D01*
G36*
X166687500Y-111918750D02*
G01*
X152400000Y-126206250D01*
X138112500Y-111918750D01*
X152400000Y-97631250D01*
X166687500Y-111918750D01*
G37*
X183356250Y-123825000D02*
X183356250Y-126206250D01*
X180975000Y-126206250D01*
X166687500Y-111918750D01*
X169068750Y-109537500D01*
X183356250Y-123825000D01*
G36*
X183356250Y-123825000D02*
G01*
X183356250Y-126206250D01*
X180975000Y-126206250D01*
X166687500Y-111918750D01*
X169068750Y-109537500D01*
X183356250Y-123825000D01*
G37*
X166687500Y-78581250D02*
X152400000Y-92868750D01*
X138112500Y-78581250D01*
X152400000Y-64293750D01*
X166687500Y-78581250D01*
G36*
X166687500Y-78581250D02*
G01*
X152400000Y-92868750D01*
X138112500Y-78581250D01*
X152400000Y-64293750D01*
X166687500Y-78581250D01*
G37*
X183356250Y-95250000D02*
X169068750Y-109537500D01*
X154781250Y-95250000D01*
X169068750Y-80962500D01*
X183356250Y-95250000D01*
G36*
X183356250Y-95250000D02*
G01*
X169068750Y-109537500D01*
X154781250Y-95250000D01*
X169068750Y-80962500D01*
X183356250Y-95250000D01*
G37*
X138112500Y-78581250D02*
X135731250Y-80962500D01*
X121443750Y-66675000D01*
X121443750Y-64293750D01*
X123825000Y-64293750D01*
X138112500Y-78581250D01*
G36*
X138112500Y-78581250D02*
G01*
X135731250Y-80962500D01*
X121443750Y-66675000D01*
X121443750Y-64293750D01*
X123825000Y-64293750D01*
X138112500Y-78581250D01*
G37*
X138112500Y-111918750D02*
X123825000Y-126206250D01*
X121443750Y-126206250D01*
X121443750Y-123825000D01*
X135731250Y-109537500D01*
X138112500Y-111918750D01*
G36*
X138112500Y-111918750D02*
G01*
X123825000Y-126206250D01*
X121443750Y-126206250D01*
X121443750Y-123825000D01*
X135731250Y-109537500D01*
X138112500Y-111918750D01*
G37*
X183356250Y-66675000D02*
X169068750Y-80962500D01*
X166687500Y-78581250D01*
X180975000Y-64293750D01*
X183356250Y-64293750D01*
X183356250Y-66675000D01*
G36*
X183356250Y-66675000D02*
G01*
X169068750Y-80962500D01*
X166687500Y-78581250D01*
X180975000Y-64293750D01*
X183356250Y-64293750D01*
X183356250Y-66675000D01*
G37*
X121443750Y-123825000D02*
X121443750Y-126206250D01*
X119062500Y-126206250D01*
X104775000Y-111918750D01*
X107156250Y-109537500D01*
X121443750Y-123825000D01*
G36*
X121443750Y-123825000D02*
G01*
X121443750Y-126206250D01*
X119062500Y-126206250D01*
X104775000Y-111918750D01*
X107156250Y-109537500D01*
X121443750Y-123825000D01*
G37*
X76200000Y-111918750D02*
X61912500Y-126206250D01*
X59531250Y-126206250D01*
X59531250Y-123825000D01*
X73818750Y-109537500D01*
X76200000Y-111918750D01*
G36*
X76200000Y-111918750D02*
G01*
X61912500Y-126206250D01*
X59531250Y-126206250D01*
X59531250Y-123825000D01*
X73818750Y-109537500D01*
X76200000Y-111918750D01*
G37*
X76200000Y-78581250D02*
X73818750Y-80962500D01*
X59531250Y-66675000D01*
X59531250Y-64293750D01*
X61912500Y-64293750D01*
X76200000Y-78581250D01*
G36*
X76200000Y-78581250D02*
G01*
X73818750Y-80962500D01*
X59531250Y-66675000D01*
X59531250Y-64293750D01*
X61912500Y-64293750D01*
X76200000Y-78581250D01*
G37*
X121443750Y-66675000D02*
X107156250Y-80962500D01*
X104775000Y-78581250D01*
X119062500Y-64293750D01*
X121443750Y-64293750D01*
X121443750Y-66675000D01*
G36*
X121443750Y-66675000D02*
G01*
X107156250Y-80962500D01*
X104775000Y-78581250D01*
X119062500Y-64293750D01*
X121443750Y-64293750D01*
X121443750Y-66675000D01*
G37*
X104775000Y-111918750D02*
X90487500Y-126206250D01*
X76200000Y-111918750D01*
X90487500Y-97631250D01*
X104775000Y-111918750D01*
G36*
X104775000Y-111918750D02*
G01*
X90487500Y-126206250D01*
X76200000Y-111918750D01*
X90487500Y-97631250D01*
X104775000Y-111918750D01*
G37*
X121443750Y-95250000D02*
X107156250Y-109537500D01*
X92868750Y-95250000D01*
X107156250Y-80962500D01*
X121443750Y-95250000D01*
G36*
X121443750Y-95250000D02*
G01*
X107156250Y-109537500D01*
X92868750Y-95250000D01*
X107156250Y-80962500D01*
X121443750Y-95250000D01*
G37*
X104775000Y-78581250D02*
X90487500Y-92868750D01*
X76200000Y-78581250D01*
X90487500Y-64293750D01*
X104775000Y-78581250D01*
G36*
X104775000Y-78581250D02*
G01*
X90487500Y-92868750D01*
X76200000Y-78581250D01*
X90487500Y-64293750D01*
X104775000Y-78581250D01*
G37*
X88106250Y-95250000D02*
X73818750Y-109537500D01*
X59531250Y-95250000D01*
X73818750Y-80962500D01*
X88106250Y-95250000D01*
G36*
X88106250Y-95250000D02*
G01*
X73818750Y-109537500D01*
X59531250Y-95250000D01*
X73818750Y-80962500D01*
X88106250Y-95250000D01*
G37*
D11*
X318314404Y-132340021D02*
X318028690Y-132340021D01*
X318028690Y-132340021D02*
X317885833Y-132411450D01*
X317885833Y-132411450D02*
X317742976Y-132554307D01*
X317742976Y-132554307D02*
X317671547Y-132840021D01*
X317671547Y-132840021D02*
X317671547Y-133340021D01*
X317671547Y-133340021D02*
X317742976Y-133625735D01*
X317742976Y-133625735D02*
X317885833Y-133768593D01*
X317885833Y-133768593D02*
X318028690Y-133840021D01*
X318028690Y-133840021D02*
X318314404Y-133840021D01*
X318314404Y-133840021D02*
X318457262Y-133768593D01*
X318457262Y-133768593D02*
X318600119Y-133625735D01*
X318600119Y-133625735D02*
X318671547Y-133340021D01*
X318671547Y-133340021D02*
X318671547Y-132840021D01*
X318671547Y-132840021D02*
X318600119Y-132554307D01*
X318600119Y-132554307D02*
X318457262Y-132411450D01*
X318457262Y-132411450D02*
X318314404Y-132340021D01*
X317028690Y-133840021D02*
X317028690Y-132840021D01*
X317028690Y-133125735D02*
X316957261Y-132982878D01*
X316957261Y-132982878D02*
X316885833Y-132911450D01*
X316885833Y-132911450D02*
X316742975Y-132840021D01*
X316742975Y-132840021D02*
X316600118Y-132840021D01*
X316314404Y-132840021D02*
X315742976Y-132840021D01*
X316100119Y-132340021D02*
X316100119Y-133625735D01*
X316100119Y-133625735D02*
X316028690Y-133768593D01*
X316028690Y-133768593D02*
X315885833Y-133840021D01*
X315885833Y-133840021D02*
X315742976Y-133840021D01*
X315242976Y-133840021D02*
X315242976Y-132340021D01*
X314600119Y-133840021D02*
X314600119Y-133054307D01*
X314600119Y-133054307D02*
X314671547Y-132911450D01*
X314671547Y-132911450D02*
X314814404Y-132840021D01*
X314814404Y-132840021D02*
X315028690Y-132840021D01*
X315028690Y-132840021D02*
X315171547Y-132911450D01*
X315171547Y-132911450D02*
X315242976Y-132982878D01*
X313242976Y-132840021D02*
X313242976Y-134054307D01*
X313242976Y-134054307D02*
X313314404Y-134197164D01*
X313314404Y-134197164D02*
X313385833Y-134268593D01*
X313385833Y-134268593D02*
X313528690Y-134340021D01*
X313528690Y-134340021D02*
X313742976Y-134340021D01*
X313742976Y-134340021D02*
X313885833Y-134268593D01*
X313242976Y-133768593D02*
X313385833Y-133840021D01*
X313385833Y-133840021D02*
X313671547Y-133840021D01*
X313671547Y-133840021D02*
X313814404Y-133768593D01*
X313814404Y-133768593D02*
X313885833Y-133697164D01*
X313885833Y-133697164D02*
X313957261Y-133554307D01*
X313957261Y-133554307D02*
X313957261Y-133125735D01*
X313957261Y-133125735D02*
X313885833Y-132982878D01*
X313885833Y-132982878D02*
X313814404Y-132911450D01*
X313814404Y-132911450D02*
X313671547Y-132840021D01*
X313671547Y-132840021D02*
X313385833Y-132840021D01*
X313385833Y-132840021D02*
X313242976Y-132911450D01*
X312671547Y-132840021D02*
X312314404Y-133840021D01*
X311957261Y-132840021D02*
X312314404Y-133840021D01*
X312314404Y-133840021D02*
X312457261Y-134197164D01*
X312457261Y-134197164D02*
X312528690Y-134268593D01*
X312528690Y-134268593D02*
X312671547Y-134340021D01*
X311171547Y-133840021D02*
X311314404Y-133768593D01*
X311314404Y-133768593D02*
X311385833Y-133625735D01*
X311385833Y-133625735D02*
X311385833Y-132340021D01*
X310028690Y-133768593D02*
X310171547Y-133840021D01*
X310171547Y-133840021D02*
X310457262Y-133840021D01*
X310457262Y-133840021D02*
X310600119Y-133768593D01*
X310600119Y-133768593D02*
X310671547Y-133625735D01*
X310671547Y-133625735D02*
X310671547Y-133054307D01*
X310671547Y-133054307D02*
X310600119Y-132911450D01*
X310600119Y-132911450D02*
X310457262Y-132840021D01*
X310457262Y-132840021D02*
X310171547Y-132840021D01*
X310171547Y-132840021D02*
X310028690Y-132911450D01*
X310028690Y-132911450D02*
X309957262Y-133054307D01*
X309957262Y-133054307D02*
X309957262Y-133197164D01*
X309957262Y-133197164D02*
X310671547Y-133340021D01*
X308171548Y-133840021D02*
X308171548Y-132840021D01*
X308171548Y-133125735D02*
X308100119Y-132982878D01*
X308100119Y-132982878D02*
X308028691Y-132911450D01*
X308028691Y-132911450D02*
X307885833Y-132840021D01*
X307885833Y-132840021D02*
X307742976Y-132840021D01*
X306671548Y-133768593D02*
X306814405Y-133840021D01*
X306814405Y-133840021D02*
X307100120Y-133840021D01*
X307100120Y-133840021D02*
X307242977Y-133768593D01*
X307242977Y-133768593D02*
X307314405Y-133625735D01*
X307314405Y-133625735D02*
X307314405Y-133054307D01*
X307314405Y-133054307D02*
X307242977Y-132911450D01*
X307242977Y-132911450D02*
X307100120Y-132840021D01*
X307100120Y-132840021D02*
X306814405Y-132840021D01*
X306814405Y-132840021D02*
X306671548Y-132911450D01*
X306671548Y-132911450D02*
X306600120Y-133054307D01*
X306600120Y-133054307D02*
X306600120Y-133197164D01*
X306600120Y-133197164D02*
X307314405Y-133340021D01*
X306100120Y-132840021D02*
X305742977Y-133840021D01*
X305742977Y-133840021D02*
X305385834Y-132840021D01*
X304028691Y-133840021D02*
X304885834Y-133840021D01*
X304457263Y-133840021D02*
X304457263Y-132340021D01*
X304457263Y-132340021D02*
X304600120Y-132554307D01*
X304600120Y-132554307D02*
X304742977Y-132697164D01*
X304742977Y-132697164D02*
X304885834Y-132768593D01*
X318600119Y-136254937D02*
X318600119Y-134754937D01*
X318600119Y-134754937D02*
X318242976Y-134754937D01*
X318242976Y-134754937D02*
X318028690Y-134826366D01*
X318028690Y-134826366D02*
X317885833Y-134969223D01*
X317885833Y-134969223D02*
X317814404Y-135112080D01*
X317814404Y-135112080D02*
X317742976Y-135397794D01*
X317742976Y-135397794D02*
X317742976Y-135612080D01*
X317742976Y-135612080D02*
X317814404Y-135897794D01*
X317814404Y-135897794D02*
X317885833Y-136040651D01*
X317885833Y-136040651D02*
X318028690Y-136183509D01*
X318028690Y-136183509D02*
X318242976Y-136254937D01*
X318242976Y-136254937D02*
X318600119Y-136254937D01*
X316528690Y-136183509D02*
X316671547Y-136254937D01*
X316671547Y-136254937D02*
X316957262Y-136254937D01*
X316957262Y-136254937D02*
X317100119Y-136183509D01*
X317100119Y-136183509D02*
X317171547Y-136040651D01*
X317171547Y-136040651D02*
X317171547Y-135469223D01*
X317171547Y-135469223D02*
X317100119Y-135326366D01*
X317100119Y-135326366D02*
X316957262Y-135254937D01*
X316957262Y-135254937D02*
X316671547Y-135254937D01*
X316671547Y-135254937D02*
X316528690Y-135326366D01*
X316528690Y-135326366D02*
X316457262Y-135469223D01*
X316457262Y-135469223D02*
X316457262Y-135612080D01*
X316457262Y-135612080D02*
X317171547Y-135754937D01*
X315171548Y-136183509D02*
X315314405Y-136254937D01*
X315314405Y-136254937D02*
X315600119Y-136254937D01*
X315600119Y-136254937D02*
X315742976Y-136183509D01*
X315742976Y-136183509D02*
X315814405Y-136112080D01*
X315814405Y-136112080D02*
X315885833Y-135969223D01*
X315885833Y-135969223D02*
X315885833Y-135540651D01*
X315885833Y-135540651D02*
X315814405Y-135397794D01*
X315814405Y-135397794D02*
X315742976Y-135326366D01*
X315742976Y-135326366D02*
X315600119Y-135254937D01*
X315600119Y-135254937D02*
X315314405Y-135254937D01*
X315314405Y-135254937D02*
X315171548Y-135326366D01*
X313457262Y-134897794D02*
X313385834Y-134826366D01*
X313385834Y-134826366D02*
X313242977Y-134754937D01*
X313242977Y-134754937D02*
X312885834Y-134754937D01*
X312885834Y-134754937D02*
X312742977Y-134826366D01*
X312742977Y-134826366D02*
X312671548Y-134897794D01*
X312671548Y-134897794D02*
X312600119Y-135040651D01*
X312600119Y-135040651D02*
X312600119Y-135183509D01*
X312600119Y-135183509D02*
X312671548Y-135397794D01*
X312671548Y-135397794D02*
X313528691Y-136254937D01*
X313528691Y-136254937D02*
X312600119Y-136254937D01*
X311671548Y-134754937D02*
X311528691Y-134754937D01*
X311528691Y-134754937D02*
X311385834Y-134826366D01*
X311385834Y-134826366D02*
X311314406Y-134897794D01*
X311314406Y-134897794D02*
X311242977Y-135040651D01*
X311242977Y-135040651D02*
X311171548Y-135326366D01*
X311171548Y-135326366D02*
X311171548Y-135683509D01*
X311171548Y-135683509D02*
X311242977Y-135969223D01*
X311242977Y-135969223D02*
X311314406Y-136112080D01*
X311314406Y-136112080D02*
X311385834Y-136183509D01*
X311385834Y-136183509D02*
X311528691Y-136254937D01*
X311528691Y-136254937D02*
X311671548Y-136254937D01*
X311671548Y-136254937D02*
X311814406Y-136183509D01*
X311814406Y-136183509D02*
X311885834Y-136112080D01*
X311885834Y-136112080D02*
X311957263Y-135969223D01*
X311957263Y-135969223D02*
X312028691Y-135683509D01*
X312028691Y-135683509D02*
X312028691Y-135326366D01*
X312028691Y-135326366D02*
X311957263Y-135040651D01*
X311957263Y-135040651D02*
X311885834Y-134897794D01*
X311885834Y-134897794D02*
X311814406Y-134826366D01*
X311814406Y-134826366D02*
X311671548Y-134754937D01*
X310600120Y-134897794D02*
X310528692Y-134826366D01*
X310528692Y-134826366D02*
X310385835Y-134754937D01*
X310385835Y-134754937D02*
X310028692Y-134754937D01*
X310028692Y-134754937D02*
X309885835Y-134826366D01*
X309885835Y-134826366D02*
X309814406Y-134897794D01*
X309814406Y-134897794D02*
X309742977Y-135040651D01*
X309742977Y-135040651D02*
X309742977Y-135183509D01*
X309742977Y-135183509D02*
X309814406Y-135397794D01*
X309814406Y-135397794D02*
X310671549Y-136254937D01*
X310671549Y-136254937D02*
X309742977Y-136254937D01*
X308457264Y-135254937D02*
X308457264Y-136254937D01*
X308814406Y-134683509D02*
X309171549Y-135754937D01*
X309171549Y-135754937D02*
X308242978Y-135754937D01*
D10*
X328159881Y-53789819D02*
X328493214Y-53313628D01*
X328731309Y-53789819D02*
X328731309Y-52789819D01*
X328731309Y-52789819D02*
X328350357Y-52789819D01*
X328350357Y-52789819D02*
X328255119Y-52837438D01*
X328255119Y-52837438D02*
X328207500Y-52885057D01*
X328207500Y-52885057D02*
X328159881Y-52980295D01*
X328159881Y-52980295D02*
X328159881Y-53123152D01*
X328159881Y-53123152D02*
X328207500Y-53218390D01*
X328207500Y-53218390D02*
X328255119Y-53266009D01*
X328255119Y-53266009D02*
X328350357Y-53313628D01*
X328350357Y-53313628D02*
X328731309Y-53313628D01*
X327731309Y-53266009D02*
X327397976Y-53266009D01*
X327255119Y-53789819D02*
X327731309Y-53789819D01*
X327731309Y-53789819D02*
X327731309Y-52789819D01*
X327731309Y-52789819D02*
X327255119Y-52789819D01*
X326874166Y-53742200D02*
X326731309Y-53789819D01*
X326731309Y-53789819D02*
X326493214Y-53789819D01*
X326493214Y-53789819D02*
X326397976Y-53742200D01*
X326397976Y-53742200D02*
X326350357Y-53694580D01*
X326350357Y-53694580D02*
X326302738Y-53599342D01*
X326302738Y-53599342D02*
X326302738Y-53504104D01*
X326302738Y-53504104D02*
X326350357Y-53408866D01*
X326350357Y-53408866D02*
X326397976Y-53361247D01*
X326397976Y-53361247D02*
X326493214Y-53313628D01*
X326493214Y-53313628D02*
X326683690Y-53266009D01*
X326683690Y-53266009D02*
X326778928Y-53218390D01*
X326778928Y-53218390D02*
X326826547Y-53170771D01*
X326826547Y-53170771D02*
X326874166Y-53075533D01*
X326874166Y-53075533D02*
X326874166Y-52980295D01*
X326874166Y-52980295D02*
X326826547Y-52885057D01*
X326826547Y-52885057D02*
X326778928Y-52837438D01*
X326778928Y-52837438D02*
X326683690Y-52789819D01*
X326683690Y-52789819D02*
X326445595Y-52789819D01*
X326445595Y-52789819D02*
X326302738Y-52837438D01*
X325874166Y-53266009D02*
X325540833Y-53266009D01*
X325397976Y-53789819D02*
X325874166Y-53789819D01*
X325874166Y-53789819D02*
X325874166Y-52789819D01*
X325874166Y-52789819D02*
X325397976Y-52789819D01*
X325112261Y-52789819D02*
X324540833Y-52789819D01*
X324826547Y-53789819D02*
X324826547Y-52789819D01*
X328064642Y-58028509D02*
X327921785Y-58076128D01*
X327921785Y-58076128D02*
X327874166Y-58123747D01*
X327874166Y-58123747D02*
X327826547Y-58218985D01*
X327826547Y-58218985D02*
X327826547Y-58361842D01*
X327826547Y-58361842D02*
X327874166Y-58457080D01*
X327874166Y-58457080D02*
X327921785Y-58504700D01*
X327921785Y-58504700D02*
X328017023Y-58552319D01*
X328017023Y-58552319D02*
X328397975Y-58552319D01*
X328397975Y-58552319D02*
X328397975Y-57552319D01*
X328397975Y-57552319D02*
X328064642Y-57552319D01*
X328064642Y-57552319D02*
X327969404Y-57599938D01*
X327969404Y-57599938D02*
X327921785Y-57647557D01*
X327921785Y-57647557D02*
X327874166Y-57742795D01*
X327874166Y-57742795D02*
X327874166Y-57838033D01*
X327874166Y-57838033D02*
X327921785Y-57933271D01*
X327921785Y-57933271D02*
X327969404Y-57980890D01*
X327969404Y-57980890D02*
X328064642Y-58028509D01*
X328064642Y-58028509D02*
X328397975Y-58028509D01*
X327207499Y-57552319D02*
X327017023Y-57552319D01*
X327017023Y-57552319D02*
X326921785Y-57599938D01*
X326921785Y-57599938D02*
X326826547Y-57695176D01*
X326826547Y-57695176D02*
X326778928Y-57885652D01*
X326778928Y-57885652D02*
X326778928Y-58218985D01*
X326778928Y-58218985D02*
X326826547Y-58409461D01*
X326826547Y-58409461D02*
X326921785Y-58504700D01*
X326921785Y-58504700D02*
X327017023Y-58552319D01*
X327017023Y-58552319D02*
X327207499Y-58552319D01*
X327207499Y-58552319D02*
X327302737Y-58504700D01*
X327302737Y-58504700D02*
X327397975Y-58409461D01*
X327397975Y-58409461D02*
X327445594Y-58218985D01*
X327445594Y-58218985D02*
X327445594Y-57885652D01*
X327445594Y-57885652D02*
X327397975Y-57695176D01*
X327397975Y-57695176D02*
X327302737Y-57599938D01*
X327302737Y-57599938D02*
X327207499Y-57552319D01*
X326159880Y-57552319D02*
X325969404Y-57552319D01*
X325969404Y-57552319D02*
X325874166Y-57599938D01*
X325874166Y-57599938D02*
X325778928Y-57695176D01*
X325778928Y-57695176D02*
X325731309Y-57885652D01*
X325731309Y-57885652D02*
X325731309Y-58218985D01*
X325731309Y-58218985D02*
X325778928Y-58409461D01*
X325778928Y-58409461D02*
X325874166Y-58504700D01*
X325874166Y-58504700D02*
X325969404Y-58552319D01*
X325969404Y-58552319D02*
X326159880Y-58552319D01*
X326159880Y-58552319D02*
X326255118Y-58504700D01*
X326255118Y-58504700D02*
X326350356Y-58409461D01*
X326350356Y-58409461D02*
X326397975Y-58218985D01*
X326397975Y-58218985D02*
X326397975Y-57885652D01*
X326397975Y-57885652D02*
X326350356Y-57695176D01*
X326350356Y-57695176D02*
X326255118Y-57599938D01*
X326255118Y-57599938D02*
X326159880Y-57552319D01*
X325445594Y-57552319D02*
X324874166Y-57552319D01*
X325159880Y-58552319D02*
X325159880Y-57552319D01*
D12*
X325307500Y-51735000D02*
X325307500Y-51135000D01*
X326007500Y-50435000D02*
X327407500Y-50435000D01*
X327407500Y-52435000D02*
X326007500Y-52435000D01*
X328107500Y-51135000D02*
X328107500Y-51735000D01*
X325307500Y-51135000D02*
G75*
G02*
X326007500Y-50435000I700000J0D01*
G01*
X326007500Y-52435000D02*
G75*
G02*
X325307500Y-51735000I0J700000D01*
G01*
X327407500Y-50435000D02*
G75*
G02*
X328107500Y-51135000I1J-699999D01*
G01*
X328107500Y-51735000D02*
G75*
G02*
X327407500Y-52435000I-699999J-1D01*
G01*
X325307500Y-56497500D02*
X325307500Y-55897500D01*
X326007500Y-55197500D02*
X327407500Y-55197500D01*
X327407500Y-57197500D02*
X326007500Y-57197500D01*
X328107500Y-55897500D02*
X328107500Y-56497500D01*
X325307500Y-55897500D02*
G75*
G02*
X326007500Y-55197500I700000J0D01*
G01*
X326007500Y-57197500D02*
G75*
G02*
X325307500Y-56497500I0J700000D01*
G01*
X327407500Y-55197500D02*
G75*
G02*
X328107500Y-55897500I1J-699999D01*
G01*
X328107500Y-56497500D02*
G75*
G02*
X327407500Y-57197500I-699999J-1D01*
G01*
D13*
X318245375Y-138965584D02*
X317645375Y-138665584D01*
X317645375Y-138365584D01*
X318245375Y-138965584D01*
G36*
X318245375Y-138965584D02*
G01*
X317645375Y-138665584D01*
X317645375Y-138365584D01*
X318245375Y-138965584D01*
G37*
X317945375Y-139565584D02*
X317645375Y-139565584D01*
X318245375Y-138965584D01*
X317945375Y-139565584D01*
G36*
X317945375Y-139565584D02*
G01*
X317645375Y-139565584D01*
X318245375Y-138965584D01*
X317945375Y-139565584D01*
G37*
X318245375Y-138965584D02*
X318545375Y-138365584D01*
X318845375Y-138365584D01*
X318245375Y-138965584D01*
G36*
X318245375Y-138965584D02*
G01*
X318545375Y-138365584D01*
X318845375Y-138365584D01*
X318245375Y-138965584D01*
G37*
X318845375Y-139265584D02*
X318845375Y-139565584D01*
X318245375Y-138965584D01*
X318845375Y-139265584D01*
G36*
X318845375Y-139265584D02*
G01*
X318845375Y-139565584D01*
X318245375Y-138965584D01*
X318845375Y-139265584D01*
G37*
D12*
X313145375Y-138965584D02*
X310145375Y-138965584D01*
X310145375Y-138365584D01*
X313145375Y-138365584D01*
X313145375Y-138965584D01*
G36*
X313145375Y-138965584D02*
G01*
X310145375Y-138965584D01*
X310145375Y-138365584D01*
X313145375Y-138365584D01*
X313145375Y-138965584D01*
G37*
D14*
X154940000Y-128270000D03*
X148590000Y-130810000D03*
M02*
