G04 #@! TF.GenerationSoftware,KiCad,Pcbnew,8.0.3*
G04 #@! TF.CreationDate,2024-12-28T10:17:01+01:00*
G04 #@! TF.ProjectId,orthgyle,6f727468-6779-46c6-952e-6b696361645f,1*
G04 #@! TF.SameCoordinates,Original*
G04 #@! TF.FileFunction,Soldermask,Bot*
G04 #@! TF.FilePolarity,Negative*
%FSLAX46Y46*%
G04 Gerber Fmt 4.6, Leading zero omitted, Abs format (unit mm)*
G04 Created by KiCad (PCBNEW 8.0.3) date 2024-12-28 10:17:01*
%MOMM*%
%LPD*%
G01*
G04 APERTURE LIST*
G04 Aperture macros list*
%AMFreePoly0*
4,1,19,0.500000,-0.750000,0.000000,-0.750000,0.000000,-0.744911,-0.071157,-0.744911,-0.207708,-0.704816,-0.327430,-0.627875,-0.420627,-0.520320,-0.479746,-0.390866,-0.500000,-0.250000,-0.500000,0.250000,-0.479746,0.390866,-0.420627,0.520320,-0.327430,0.627875,-0.207708,0.704816,-0.071157,0.744911,0.000000,0.744911,0.000000,0.750000,0.500000,0.750000,0.500000,-0.750000,0.500000,-0.750000,
$1*%
%AMFreePoly1*
4,1,19,0.000000,0.744911,0.071157,0.744911,0.207708,0.704816,0.327430,0.627875,0.420627,0.520320,0.479746,0.390866,0.500000,0.250000,0.500000,-0.250000,0.479746,-0.390866,0.420627,-0.520320,0.327430,-0.627875,0.207708,-0.704816,0.071157,-0.744911,0.000000,-0.744911,0.000000,-0.750000,-0.500000,-0.750000,-0.500000,0.750000,0.000000,0.750000,0.000000,0.744911,0.000000,0.744911,
$1*%
G04 Aperture macros list end*
%ADD10C,0.300000*%
%ADD11C,0.010000*%
%ADD12C,0.120000*%
%ADD13C,0.160000*%
%ADD14C,0.500000*%
%ADD15C,0.100000*%
%ADD16C,3.987800*%
%ADD17C,3.048000*%
%ADD18C,2.286000*%
%ADD19R,1.600000X1.600000*%
%ADD20O,1.600000X1.600000*%
%ADD21C,1.701800*%
%ADD22C,1.600000*%
%ADD23C,1.400000*%
%ADD24O,1.400000X1.400000*%
%ADD25C,1.500000*%
%ADD26C,0.650000*%
%ADD27O,1.000000X2.100000*%
%ADD28O,1.000000X1.600000*%
%ADD29R,1.800000X1.800000*%
%ADD30C,1.800000*%
%ADD31C,1.710000*%
%ADD32R,1.700000X1.700000*%
%ADD33O,1.700000X1.700000*%
%ADD34R,1.200000X1.200000*%
%ADD35C,1.200000*%
%ADD36FreePoly0,180.000000*%
%ADD37FreePoly1,180.000000*%
G04 APERTURE END LIST*
D10*
X316550136Y-140090174D02*
X316550136Y-138490174D01*
X316550136Y-138490174D02*
X315635850Y-140090174D01*
X315635850Y-140090174D02*
X315635850Y-138490174D01*
X314112041Y-140090174D02*
X314873946Y-140090174D01*
X314873946Y-140090174D02*
X314873946Y-138490174D01*
D11*
X321932233Y-138140288D02*
X321973199Y-138153077D01*
X322023648Y-138174333D01*
X322048075Y-138185756D01*
X322065704Y-138187821D01*
X322069602Y-138171988D01*
X322069606Y-138171540D01*
X322077861Y-138156423D01*
X322106330Y-138148675D01*
X322161510Y-138146493D01*
X322253418Y-138146493D01*
X322253418Y-138948598D01*
X322069602Y-138948598D01*
X322069602Y-138395555D01*
X322023907Y-138353206D01*
X322009631Y-138341170D01*
X321967107Y-138320606D01*
X321914741Y-138319782D01*
X321843438Y-138337928D01*
X321819401Y-138339077D01*
X321791205Y-138321474D01*
X321753675Y-138279634D01*
X321735470Y-138256491D01*
X321713940Y-138223814D01*
X321710622Y-138203014D01*
X321722677Y-138185467D01*
X321759684Y-138163278D01*
X321817161Y-138145717D01*
X321879521Y-138137010D01*
X321932233Y-138140288D01*
G36*
X321932233Y-138140288D02*
G01*
X321973199Y-138153077D01*
X322023648Y-138174333D01*
X322048075Y-138185756D01*
X322065704Y-138187821D01*
X322069602Y-138171988D01*
X322069606Y-138171540D01*
X322077861Y-138156423D01*
X322106330Y-138148675D01*
X322161510Y-138146493D01*
X322253418Y-138146493D01*
X322253418Y-138948598D01*
X322069602Y-138948598D01*
X322069602Y-138395555D01*
X322023907Y-138353206D01*
X322009631Y-138341170D01*
X321967107Y-138320606D01*
X321914741Y-138319782D01*
X321843438Y-138337928D01*
X321819401Y-138339077D01*
X321791205Y-138321474D01*
X321753675Y-138279634D01*
X321735470Y-138256491D01*
X321713940Y-138223814D01*
X321710622Y-138203014D01*
X321722677Y-138185467D01*
X321759684Y-138163278D01*
X321817161Y-138145717D01*
X321879521Y-138137010D01*
X321932233Y-138140288D01*
G37*
X322175612Y-139410788D02*
X322226099Y-139434416D01*
X322270128Y-139469050D01*
X322270128Y-139434416D01*
X322271225Y-139421266D01*
X322281434Y-139407324D01*
X322309042Y-139401166D01*
X322362036Y-139399782D01*
X322453944Y-139399782D01*
X322453944Y-140218598D01*
X322270128Y-140218598D01*
X322270128Y-139952016D01*
X322270106Y-139936712D01*
X322268538Y-139829132D01*
X322264690Y-139741499D01*
X322258836Y-139678296D01*
X322251250Y-139644001D01*
X322244285Y-139631054D01*
X322201409Y-139590450D01*
X322143007Y-139572476D01*
X322079235Y-139580861D01*
X322063593Y-139586544D01*
X322030270Y-139596589D01*
X322007496Y-139593470D01*
X321984580Y-139573051D01*
X321950832Y-139531199D01*
X321896096Y-139462089D01*
X321934569Y-139430936D01*
X321971141Y-139412184D01*
X322035382Y-139399519D01*
X322107789Y-139399105D01*
X322175612Y-139410788D01*
G36*
X322175612Y-139410788D02*
G01*
X322226099Y-139434416D01*
X322270128Y-139469050D01*
X322270128Y-139434416D01*
X322271225Y-139421266D01*
X322281434Y-139407324D01*
X322309042Y-139401166D01*
X322362036Y-139399782D01*
X322453944Y-139399782D01*
X322453944Y-140218598D01*
X322270128Y-140218598D01*
X322270128Y-139952016D01*
X322270106Y-139936712D01*
X322268538Y-139829132D01*
X322264690Y-139741499D01*
X322258836Y-139678296D01*
X322251250Y-139644001D01*
X322244285Y-139631054D01*
X322201409Y-139590450D01*
X322143007Y-139572476D01*
X322079235Y-139580861D01*
X322063593Y-139586544D01*
X322030270Y-139596589D01*
X322007496Y-139593470D01*
X321984580Y-139573051D01*
X321950832Y-139531199D01*
X321896096Y-139462089D01*
X321934569Y-139430936D01*
X321971141Y-139412184D01*
X322035382Y-139399519D01*
X322107789Y-139399105D01*
X322175612Y-139410788D01*
G37*
X325662365Y-140218598D02*
X325495260Y-140218598D01*
X325495260Y-139960673D01*
X325495075Y-139900677D01*
X325493175Y-139801309D01*
X325488365Y-139727745D01*
X325479601Y-139674899D01*
X325465839Y-139637686D01*
X325446036Y-139611021D01*
X325419149Y-139589818D01*
X325389797Y-139574019D01*
X325355040Y-139569539D01*
X325305607Y-139579501D01*
X325289722Y-139583648D01*
X325250069Y-139589890D01*
X325221716Y-139580947D01*
X325188855Y-139553267D01*
X325182619Y-139547247D01*
X325148143Y-139510009D01*
X325125910Y-139479732D01*
X325122860Y-139472438D01*
X325128903Y-139445504D01*
X325159547Y-139423970D01*
X325207912Y-139408858D01*
X325267115Y-139401186D01*
X325330277Y-139401976D01*
X325390516Y-139412247D01*
X325440951Y-139433020D01*
X325456937Y-139442720D01*
X325483851Y-139456917D01*
X325493813Y-139453666D01*
X325495260Y-139432958D01*
X325495599Y-139425523D01*
X325503661Y-139409054D01*
X325528668Y-139401558D01*
X325578813Y-139399782D01*
X325662365Y-139399782D01*
X325662365Y-140218598D01*
G36*
X325662365Y-140218598D02*
G01*
X325495260Y-140218598D01*
X325495260Y-139960673D01*
X325495075Y-139900677D01*
X325493175Y-139801309D01*
X325488365Y-139727745D01*
X325479601Y-139674899D01*
X325465839Y-139637686D01*
X325446036Y-139611021D01*
X325419149Y-139589818D01*
X325389797Y-139574019D01*
X325355040Y-139569539D01*
X325305607Y-139579501D01*
X325289722Y-139583648D01*
X325250069Y-139589890D01*
X325221716Y-139580947D01*
X325188855Y-139553267D01*
X325182619Y-139547247D01*
X325148143Y-139510009D01*
X325125910Y-139479732D01*
X325122860Y-139472438D01*
X325128903Y-139445504D01*
X325159547Y-139423970D01*
X325207912Y-139408858D01*
X325267115Y-139401186D01*
X325330277Y-139401976D01*
X325390516Y-139412247D01*
X325440951Y-139433020D01*
X325456937Y-139442720D01*
X325483851Y-139456917D01*
X325493813Y-139453666D01*
X325495260Y-139432958D01*
X325495599Y-139425523D01*
X325503661Y-139409054D01*
X325528668Y-139401558D01*
X325578813Y-139399782D01*
X325662365Y-139399782D01*
X325662365Y-140218598D01*
G37*
X322587628Y-138406605D02*
X322589038Y-138523622D01*
X322594556Y-138618130D01*
X322605734Y-138686823D01*
X322624121Y-138733550D01*
X322651266Y-138762161D01*
X322688717Y-138776504D01*
X322738023Y-138780430D01*
X322785101Y-138776926D01*
X322823123Y-138763211D01*
X322850759Y-138735427D01*
X322869558Y-138689723D01*
X322881068Y-138622251D01*
X322886839Y-138529161D01*
X322888418Y-138406605D01*
X322888418Y-138146493D01*
X323055523Y-138146493D01*
X323055523Y-138460076D01*
X323055237Y-138543777D01*
X323053008Y-138652015D01*
X323047418Y-138734561D01*
X323037110Y-138796140D01*
X323020732Y-138841477D01*
X322996928Y-138875298D01*
X322964345Y-138902329D01*
X322921628Y-138927293D01*
X322831926Y-138958897D01*
X322738310Y-138960959D01*
X322650045Y-138931855D01*
X322611535Y-138912989D01*
X322592429Y-138910169D01*
X322587628Y-138923500D01*
X322579658Y-138938468D01*
X322551127Y-138946353D01*
X322495721Y-138948598D01*
X322403813Y-138948598D01*
X322403813Y-138146493D01*
X322587628Y-138146493D01*
X322587628Y-138406605D01*
G36*
X322587628Y-138406605D02*
G01*
X322589038Y-138523622D01*
X322594556Y-138618130D01*
X322605734Y-138686823D01*
X322624121Y-138733550D01*
X322651266Y-138762161D01*
X322688717Y-138776504D01*
X322738023Y-138780430D01*
X322785101Y-138776926D01*
X322823123Y-138763211D01*
X322850759Y-138735427D01*
X322869558Y-138689723D01*
X322881068Y-138622251D01*
X322886839Y-138529161D01*
X322888418Y-138406605D01*
X322888418Y-138146493D01*
X323055523Y-138146493D01*
X323055523Y-138460076D01*
X323055237Y-138543777D01*
X323053008Y-138652015D01*
X323047418Y-138734561D01*
X323037110Y-138796140D01*
X323020732Y-138841477D01*
X322996928Y-138875298D01*
X322964345Y-138902329D01*
X322921628Y-138927293D01*
X322831926Y-138958897D01*
X322738310Y-138960959D01*
X322650045Y-138931855D01*
X322611535Y-138912989D01*
X322592429Y-138910169D01*
X322587628Y-138923500D01*
X322579658Y-138938468D01*
X322551127Y-138946353D01*
X322495721Y-138948598D01*
X322403813Y-138948598D01*
X322403813Y-138146493D01*
X322587628Y-138146493D01*
X322587628Y-138406605D01*
G37*
X325381486Y-138144912D02*
X325457661Y-138168845D01*
X325491248Y-138185112D01*
X325508141Y-138186792D01*
X325511971Y-138171988D01*
X325511974Y-138171540D01*
X325520229Y-138156423D01*
X325548698Y-138148675D01*
X325603878Y-138146493D01*
X325695786Y-138146493D01*
X325695786Y-138948598D01*
X325511971Y-138948598D01*
X325511971Y-138672115D01*
X325511845Y-138578752D01*
X325510985Y-138502060D01*
X325508686Y-138448394D01*
X325504239Y-138412284D01*
X325496939Y-138388263D01*
X325486079Y-138370863D01*
X325470954Y-138354615D01*
X325450350Y-138337333D01*
X325391104Y-138314114D01*
X325328915Y-138320929D01*
X325271947Y-138357653D01*
X325255664Y-138374745D01*
X325243975Y-138392043D01*
X325236135Y-138415062D01*
X325231376Y-138449343D01*
X325228928Y-138500425D01*
X325228022Y-138573849D01*
X325227892Y-138675153D01*
X325227892Y-138948598D01*
X325044076Y-138948598D01*
X325044443Y-138651986D01*
X325044468Y-138638774D01*
X325046062Y-138512607D01*
X325050957Y-138414600D01*
X325060413Y-138339987D01*
X325075688Y-138284003D01*
X325098039Y-138241881D01*
X325128724Y-138208856D01*
X325169003Y-138180162D01*
X325210592Y-138160298D01*
X325294349Y-138142250D01*
X325381486Y-138144912D01*
G36*
X325381486Y-138144912D02*
G01*
X325457661Y-138168845D01*
X325491248Y-138185112D01*
X325508141Y-138186792D01*
X325511971Y-138171988D01*
X325511974Y-138171540D01*
X325520229Y-138156423D01*
X325548698Y-138148675D01*
X325603878Y-138146493D01*
X325695786Y-138146493D01*
X325695786Y-138948598D01*
X325511971Y-138948598D01*
X325511971Y-138672115D01*
X325511845Y-138578752D01*
X325510985Y-138502060D01*
X325508686Y-138448394D01*
X325504239Y-138412284D01*
X325496939Y-138388263D01*
X325486079Y-138370863D01*
X325470954Y-138354615D01*
X325450350Y-138337333D01*
X325391104Y-138314114D01*
X325328915Y-138320929D01*
X325271947Y-138357653D01*
X325255664Y-138374745D01*
X325243975Y-138392043D01*
X325236135Y-138415062D01*
X325231376Y-138449343D01*
X325228928Y-138500425D01*
X325228022Y-138573849D01*
X325227892Y-138675153D01*
X325227892Y-138948598D01*
X325044076Y-138948598D01*
X325044443Y-138651986D01*
X325044468Y-138638774D01*
X325046062Y-138512607D01*
X325050957Y-138414600D01*
X325060413Y-138339987D01*
X325075688Y-138284003D01*
X325098039Y-138241881D01*
X325128724Y-138208856D01*
X325169003Y-138180162D01*
X325210592Y-138160298D01*
X325294349Y-138142250D01*
X325381486Y-138144912D01*
G37*
X321462159Y-138150319D02*
X321553340Y-138185843D01*
X321630456Y-138244485D01*
X321687413Y-138325028D01*
X321691259Y-138333241D01*
X321715679Y-138413339D01*
X321727879Y-138509020D01*
X321727783Y-138608641D01*
X321715313Y-138700560D01*
X321690392Y-138773138D01*
X321659622Y-138823722D01*
X321591893Y-138895382D01*
X321507206Y-138940934D01*
X321434751Y-138959354D01*
X321324424Y-138961365D01*
X321218851Y-138933585D01*
X321125231Y-138877214D01*
X321064637Y-138827268D01*
X321119213Y-138770959D01*
X321153693Y-138737602D01*
X321184881Y-138719030D01*
X321213799Y-138723119D01*
X321250786Y-138748072D01*
X321265534Y-138757840D01*
X321327840Y-138777834D01*
X321399452Y-138777821D01*
X321466499Y-138757215D01*
X321491745Y-138740667D01*
X321528777Y-138691802D01*
X321547341Y-138620030D01*
X321548536Y-138522208D01*
X321548532Y-138522153D01*
X321534720Y-138434634D01*
X321504293Y-138373953D01*
X321454225Y-138336417D01*
X321381490Y-138318333D01*
X321335686Y-138315901D01*
X321295665Y-138325861D01*
X321254619Y-138354714D01*
X321201503Y-138399408D01*
X321134237Y-138345351D01*
X321109662Y-138324642D01*
X321078965Y-138294971D01*
X321066971Y-138277485D01*
X321071218Y-138269605D01*
X321095684Y-138245412D01*
X321134659Y-138214643D01*
X321165154Y-138194621D01*
X321261973Y-138153491D01*
X321363006Y-138139129D01*
X321462159Y-138150319D01*
G36*
X321462159Y-138150319D02*
G01*
X321553340Y-138185843D01*
X321630456Y-138244485D01*
X321687413Y-138325028D01*
X321691259Y-138333241D01*
X321715679Y-138413339D01*
X321727879Y-138509020D01*
X321727783Y-138608641D01*
X321715313Y-138700560D01*
X321690392Y-138773138D01*
X321659622Y-138823722D01*
X321591893Y-138895382D01*
X321507206Y-138940934D01*
X321434751Y-138959354D01*
X321324424Y-138961365D01*
X321218851Y-138933585D01*
X321125231Y-138877214D01*
X321064637Y-138827268D01*
X321119213Y-138770959D01*
X321153693Y-138737602D01*
X321184881Y-138719030D01*
X321213799Y-138723119D01*
X321250786Y-138748072D01*
X321265534Y-138757840D01*
X321327840Y-138777834D01*
X321399452Y-138777821D01*
X321466499Y-138757215D01*
X321491745Y-138740667D01*
X321528777Y-138691802D01*
X321547341Y-138620030D01*
X321548536Y-138522208D01*
X321548532Y-138522153D01*
X321534720Y-138434634D01*
X321504293Y-138373953D01*
X321454225Y-138336417D01*
X321381490Y-138318333D01*
X321335686Y-138315901D01*
X321295665Y-138325861D01*
X321254619Y-138354714D01*
X321201503Y-138399408D01*
X321134237Y-138345351D01*
X321109662Y-138324642D01*
X321078965Y-138294971D01*
X321066971Y-138277485D01*
X321071218Y-138269605D01*
X321095684Y-138245412D01*
X321134659Y-138214643D01*
X321165154Y-138194621D01*
X321261973Y-138153491D01*
X321363006Y-138139129D01*
X321462159Y-138150319D01*
G37*
X323853531Y-138605188D02*
X323848869Y-138658073D01*
X323828263Y-138759037D01*
X323791406Y-138836079D01*
X323735310Y-138894273D01*
X323656983Y-138938689D01*
X323626572Y-138949260D01*
X323547812Y-138962449D01*
X323464933Y-138962090D01*
X323394999Y-138947603D01*
X323393625Y-138947077D01*
X323337267Y-138913924D01*
X323280329Y-138862602D01*
X323233084Y-138803912D01*
X323205804Y-138748656D01*
X323197718Y-138708265D01*
X323190795Y-138632641D01*
X323189634Y-138565233D01*
X323357991Y-138565233D01*
X323368056Y-138646086D01*
X323391700Y-138712523D01*
X323427522Y-138755934D01*
X323441100Y-138763388D01*
X323492876Y-138776936D01*
X323552762Y-138779723D01*
X323603145Y-138770309D01*
X323622809Y-138756808D01*
X323650411Y-138709595D01*
X323667779Y-138635702D01*
X323673813Y-138538735D01*
X323673716Y-138510822D01*
X323671620Y-138454262D01*
X323664649Y-138417366D01*
X323650024Y-138390103D01*
X323624967Y-138362444D01*
X323577285Y-138328921D01*
X323515212Y-138315215D01*
X323455238Y-138328269D01*
X323405440Y-138366023D01*
X323373894Y-138426421D01*
X323362907Y-138478574D01*
X323357991Y-138565233D01*
X323189634Y-138565233D01*
X323189312Y-138546514D01*
X323193027Y-138460791D01*
X323201694Y-138386377D01*
X323215071Y-138334178D01*
X323246228Y-138275078D01*
X323312357Y-138202412D01*
X323396880Y-138156382D01*
X323497283Y-138138162D01*
X323611054Y-138148930D01*
X323629984Y-138153517D01*
X323718144Y-138193072D01*
X323784577Y-138258013D01*
X323829284Y-138348343D01*
X323852267Y-138464066D01*
X323852936Y-138538735D01*
X323853531Y-138605188D01*
G36*
X323853531Y-138605188D02*
G01*
X323848869Y-138658073D01*
X323828263Y-138759037D01*
X323791406Y-138836079D01*
X323735310Y-138894273D01*
X323656983Y-138938689D01*
X323626572Y-138949260D01*
X323547812Y-138962449D01*
X323464933Y-138962090D01*
X323394999Y-138947603D01*
X323393625Y-138947077D01*
X323337267Y-138913924D01*
X323280329Y-138862602D01*
X323233084Y-138803912D01*
X323205804Y-138748656D01*
X323197718Y-138708265D01*
X323190795Y-138632641D01*
X323189634Y-138565233D01*
X323357991Y-138565233D01*
X323368056Y-138646086D01*
X323391700Y-138712523D01*
X323427522Y-138755934D01*
X323441100Y-138763388D01*
X323492876Y-138776936D01*
X323552762Y-138779723D01*
X323603145Y-138770309D01*
X323622809Y-138756808D01*
X323650411Y-138709595D01*
X323667779Y-138635702D01*
X323673813Y-138538735D01*
X323673716Y-138510822D01*
X323671620Y-138454262D01*
X323664649Y-138417366D01*
X323650024Y-138390103D01*
X323624967Y-138362444D01*
X323577285Y-138328921D01*
X323515212Y-138315215D01*
X323455238Y-138328269D01*
X323405440Y-138366023D01*
X323373894Y-138426421D01*
X323362907Y-138478574D01*
X323357991Y-138565233D01*
X323189634Y-138565233D01*
X323189312Y-138546514D01*
X323193027Y-138460791D01*
X323201694Y-138386377D01*
X323215071Y-138334178D01*
X323246228Y-138275078D01*
X323312357Y-138202412D01*
X323396880Y-138156382D01*
X323497283Y-138138162D01*
X323611054Y-138148930D01*
X323629984Y-138153517D01*
X323718144Y-138193072D01*
X323784577Y-138258013D01*
X323829284Y-138348343D01*
X323852267Y-138464066D01*
X323852936Y-138538735D01*
X323853531Y-138605188D01*
G37*
X323986612Y-139662179D02*
X324009204Y-139729582D01*
X324035928Y-139804199D01*
X324058245Y-139860726D01*
X324074308Y-139894558D01*
X324082273Y-139901088D01*
X324084195Y-139895409D01*
X324094598Y-139860579D01*
X324111168Y-139802407D01*
X324132065Y-139727405D01*
X324155449Y-139642085D01*
X324219067Y-139408138D01*
X324316204Y-139403062D01*
X324324403Y-139402656D01*
X324376784Y-139402118D01*
X324401955Y-139407495D01*
X324405161Y-139419773D01*
X324401111Y-139431764D01*
X324387790Y-139472806D01*
X324366933Y-139537808D01*
X324340028Y-139622120D01*
X324308561Y-139721094D01*
X324274018Y-139830078D01*
X324151054Y-140218598D01*
X323997238Y-140218598D01*
X323924762Y-139972118D01*
X323911379Y-139926857D01*
X323886645Y-139844574D01*
X323865511Y-139776012D01*
X323849878Y-139727297D01*
X323841651Y-139704555D01*
X323839307Y-139702859D01*
X323827900Y-139717528D01*
X323811614Y-139756320D01*
X323793155Y-139813174D01*
X323792180Y-139816513D01*
X323767466Y-139900419D01*
X323739190Y-139995423D01*
X323713279Y-140081600D01*
X323671263Y-140220325D01*
X323516299Y-140210243D01*
X323444536Y-139984651D01*
X323413029Y-139885526D01*
X323377736Y-139774353D01*
X323343942Y-139667776D01*
X323315967Y-139579421D01*
X323259162Y-139399782D01*
X323449205Y-139399782D01*
X323495269Y-139571065D01*
X323507514Y-139616323D01*
X323530674Y-139700697D01*
X323552121Y-139777456D01*
X323568425Y-139834256D01*
X323595518Y-139926164D01*
X323681923Y-139667151D01*
X323768329Y-139408138D01*
X323834419Y-139403176D01*
X323900508Y-139398215D01*
X323986612Y-139662179D01*
G36*
X323986612Y-139662179D02*
G01*
X324009204Y-139729582D01*
X324035928Y-139804199D01*
X324058245Y-139860726D01*
X324074308Y-139894558D01*
X324082273Y-139901088D01*
X324084195Y-139895409D01*
X324094598Y-139860579D01*
X324111168Y-139802407D01*
X324132065Y-139727405D01*
X324155449Y-139642085D01*
X324219067Y-139408138D01*
X324316204Y-139403062D01*
X324324403Y-139402656D01*
X324376784Y-139402118D01*
X324401955Y-139407495D01*
X324405161Y-139419773D01*
X324401111Y-139431764D01*
X324387790Y-139472806D01*
X324366933Y-139537808D01*
X324340028Y-139622120D01*
X324308561Y-139721094D01*
X324274018Y-139830078D01*
X324151054Y-140218598D01*
X323997238Y-140218598D01*
X323924762Y-139972118D01*
X323911379Y-139926857D01*
X323886645Y-139844574D01*
X323865511Y-139776012D01*
X323849878Y-139727297D01*
X323841651Y-139704555D01*
X323839307Y-139702859D01*
X323827900Y-139717528D01*
X323811614Y-139756320D01*
X323793155Y-139813174D01*
X323792180Y-139816513D01*
X323767466Y-139900419D01*
X323739190Y-139995423D01*
X323713279Y-140081600D01*
X323671263Y-140220325D01*
X323516299Y-140210243D01*
X323444536Y-139984651D01*
X323413029Y-139885526D01*
X323377736Y-139774353D01*
X323343942Y-139667776D01*
X323315967Y-139579421D01*
X323259162Y-139399782D01*
X323449205Y-139399782D01*
X323495269Y-139571065D01*
X323507514Y-139616323D01*
X323530674Y-139700697D01*
X323552121Y-139777456D01*
X323568425Y-139834256D01*
X323595518Y-139926164D01*
X323681923Y-139667151D01*
X323768329Y-139408138D01*
X323834419Y-139403176D01*
X323900508Y-139398215D01*
X323986612Y-139662179D01*
G37*
X325126535Y-139871731D02*
X325124417Y-139943173D01*
X325120157Y-139992938D01*
X325119427Y-139997499D01*
X325090755Y-140079076D01*
X325038395Y-140148237D01*
X324969707Y-140195093D01*
X324895945Y-140214488D01*
X324805217Y-140212983D01*
X324721754Y-140186978D01*
X324700014Y-140176004D01*
X324672059Y-140164246D01*
X324661421Y-140167904D01*
X324659734Y-140186978D01*
X324658959Y-140196490D01*
X324648956Y-140210557D01*
X324621172Y-140217034D01*
X324567826Y-140218598D01*
X324475918Y-140218598D01*
X324475918Y-139817400D01*
X324659734Y-139817400D01*
X324661051Y-139886904D01*
X324666397Y-139933178D01*
X324677811Y-139964879D01*
X324697332Y-139991445D01*
X324748878Y-140030945D01*
X324809199Y-140044187D01*
X324867693Y-140027812D01*
X324916959Y-139982132D01*
X324929981Y-139948706D01*
X324939600Y-139889513D01*
X324943829Y-139817698D01*
X324942497Y-139744039D01*
X324935433Y-139679311D01*
X324922466Y-139634294D01*
X324918323Y-139626912D01*
X324878389Y-139589810D01*
X324824271Y-139573373D01*
X324766149Y-139577196D01*
X324714202Y-139600874D01*
X324678612Y-139644001D01*
X324677141Y-139647628D01*
X324668316Y-139688098D01*
X324662091Y-139748571D01*
X324659734Y-139817400D01*
X324475918Y-139817400D01*
X324475918Y-139082282D01*
X324659734Y-139082282D01*
X324659734Y-139471804D01*
X324693781Y-139440992D01*
X324726563Y-139421841D01*
X324788608Y-139405832D01*
X324861138Y-139400674D01*
X324931968Y-139407007D01*
X324988917Y-139425472D01*
X325029677Y-139451738D01*
X325071662Y-139496484D01*
X325099919Y-139556660D01*
X325116904Y-139638060D01*
X325125077Y-139746477D01*
X325126278Y-139790302D01*
X325126365Y-139817698D01*
X325126535Y-139871731D01*
G36*
X325126535Y-139871731D02*
G01*
X325124417Y-139943173D01*
X325120157Y-139992938D01*
X325119427Y-139997499D01*
X325090755Y-140079076D01*
X325038395Y-140148237D01*
X324969707Y-140195093D01*
X324895945Y-140214488D01*
X324805217Y-140212983D01*
X324721754Y-140186978D01*
X324700014Y-140176004D01*
X324672059Y-140164246D01*
X324661421Y-140167904D01*
X324659734Y-140186978D01*
X324658959Y-140196490D01*
X324648956Y-140210557D01*
X324621172Y-140217034D01*
X324567826Y-140218598D01*
X324475918Y-140218598D01*
X324475918Y-139817400D01*
X324659734Y-139817400D01*
X324661051Y-139886904D01*
X324666397Y-139933178D01*
X324677811Y-139964879D01*
X324697332Y-139991445D01*
X324748878Y-140030945D01*
X324809199Y-140044187D01*
X324867693Y-140027812D01*
X324916959Y-139982132D01*
X324929981Y-139948706D01*
X324939600Y-139889513D01*
X324943829Y-139817698D01*
X324942497Y-139744039D01*
X324935433Y-139679311D01*
X324922466Y-139634294D01*
X324918323Y-139626912D01*
X324878389Y-139589810D01*
X324824271Y-139573373D01*
X324766149Y-139577196D01*
X324714202Y-139600874D01*
X324678612Y-139644001D01*
X324677141Y-139647628D01*
X324668316Y-139688098D01*
X324662091Y-139748571D01*
X324659734Y-139817400D01*
X324475918Y-139817400D01*
X324475918Y-139082282D01*
X324659734Y-139082282D01*
X324659734Y-139471804D01*
X324693781Y-139440992D01*
X324726563Y-139421841D01*
X324788608Y-139405832D01*
X324861138Y-139400674D01*
X324931968Y-139407007D01*
X324988917Y-139425472D01*
X325029677Y-139451738D01*
X325071662Y-139496484D01*
X325099919Y-139556660D01*
X325116904Y-139638060D01*
X325125077Y-139746477D01*
X325126278Y-139790302D01*
X325126365Y-139817698D01*
X325126535Y-139871731D01*
G37*
X328015980Y-138593440D02*
X328013822Y-138645773D01*
X328008925Y-138709591D01*
X328000582Y-138754824D01*
X327986805Y-138790665D01*
X327965606Y-138826308D01*
X327964703Y-138827659D01*
X327912502Y-138885407D01*
X327848632Y-138929452D01*
X327774362Y-138955589D01*
X327676659Y-138964075D01*
X327580899Y-138947388D01*
X327495304Y-138907178D01*
X327428094Y-138845094D01*
X327408799Y-138815760D01*
X327372765Y-138724568D01*
X327354893Y-138612056D01*
X327355199Y-138583596D01*
X327534798Y-138583596D01*
X327535137Y-138636822D01*
X327540780Y-138672356D01*
X327553638Y-138699661D01*
X327575621Y-138728196D01*
X327606128Y-138756512D01*
X327667141Y-138781782D01*
X327732655Y-138777088D01*
X327795268Y-138741968D01*
X327812930Y-138725194D01*
X327831788Y-138696479D01*
X327842245Y-138656118D01*
X327848173Y-138593226D01*
X327849806Y-138545982D01*
X327840860Y-138449500D01*
X327813409Y-138380424D01*
X327767330Y-138338373D01*
X327713315Y-138318237D01*
X327648898Y-138319932D01*
X327589186Y-138353927D01*
X327574910Y-138366869D01*
X327556896Y-138389512D01*
X327546208Y-138419136D01*
X327540278Y-138464554D01*
X327536537Y-138534578D01*
X327534798Y-138583596D01*
X327355199Y-138583596D01*
X327356272Y-138483696D01*
X327358031Y-138465490D01*
X327382573Y-138348884D01*
X327427979Y-138258362D01*
X327494344Y-138193826D01*
X327581765Y-138155176D01*
X327690340Y-138142315D01*
X327731360Y-138143522D01*
X327815483Y-138158292D01*
X327884271Y-138193546D01*
X327948403Y-138253900D01*
X327958659Y-138266014D01*
X327986323Y-138306809D01*
X328004504Y-138353002D01*
X328014585Y-138411540D01*
X328017950Y-138489371D01*
X328016878Y-138545982D01*
X328015980Y-138593440D01*
G36*
X328015980Y-138593440D02*
G01*
X328013822Y-138645773D01*
X328008925Y-138709591D01*
X328000582Y-138754824D01*
X327986805Y-138790665D01*
X327965606Y-138826308D01*
X327964703Y-138827659D01*
X327912502Y-138885407D01*
X327848632Y-138929452D01*
X327774362Y-138955589D01*
X327676659Y-138964075D01*
X327580899Y-138947388D01*
X327495304Y-138907178D01*
X327428094Y-138845094D01*
X327408799Y-138815760D01*
X327372765Y-138724568D01*
X327354893Y-138612056D01*
X327355199Y-138583596D01*
X327534798Y-138583596D01*
X327535137Y-138636822D01*
X327540780Y-138672356D01*
X327553638Y-138699661D01*
X327575621Y-138728196D01*
X327606128Y-138756512D01*
X327667141Y-138781782D01*
X327732655Y-138777088D01*
X327795268Y-138741968D01*
X327812930Y-138725194D01*
X327831788Y-138696479D01*
X327842245Y-138656118D01*
X327848173Y-138593226D01*
X327849806Y-138545982D01*
X327840860Y-138449500D01*
X327813409Y-138380424D01*
X327767330Y-138338373D01*
X327713315Y-138318237D01*
X327648898Y-138319932D01*
X327589186Y-138353927D01*
X327574910Y-138366869D01*
X327556896Y-138389512D01*
X327546208Y-138419136D01*
X327540278Y-138464554D01*
X327536537Y-138534578D01*
X327534798Y-138583596D01*
X327355199Y-138583596D01*
X327356272Y-138483696D01*
X327358031Y-138465490D01*
X327382573Y-138348884D01*
X327427979Y-138258362D01*
X327494344Y-138193826D01*
X327581765Y-138155176D01*
X327690340Y-138142315D01*
X327731360Y-138143522D01*
X327815483Y-138158292D01*
X327884271Y-138193546D01*
X327948403Y-138253900D01*
X327958659Y-138266014D01*
X327986323Y-138306809D01*
X328004504Y-138353002D01*
X328014585Y-138411540D01*
X328017950Y-138489371D01*
X328016878Y-138545982D01*
X328015980Y-138593440D01*
G37*
X321044916Y-138493699D02*
X321042765Y-138621601D01*
X321042485Y-138624116D01*
X321018458Y-138741477D01*
X320975048Y-138832724D01*
X320910902Y-138899863D01*
X320824668Y-138944896D01*
X320808838Y-138950046D01*
X320710722Y-138965223D01*
X320609247Y-138956760D01*
X320514908Y-138926517D01*
X320438198Y-138876357D01*
X320380739Y-138823269D01*
X320441815Y-138774976D01*
X320502890Y-138726683D01*
X320576496Y-138762443D01*
X320661664Y-138791419D01*
X320736850Y-138792287D01*
X320798365Y-138765664D01*
X320842632Y-138712227D01*
X320858501Y-138680208D01*
X320867360Y-138652843D01*
X320862234Y-138634357D01*
X320839236Y-138623010D01*
X320794480Y-138617059D01*
X320724078Y-138614765D01*
X320624142Y-138614388D01*
X320381839Y-138614388D01*
X320381839Y-138498502D01*
X320383649Y-138447627D01*
X320554255Y-138447627D01*
X320562449Y-138456984D01*
X320586709Y-138461855D01*
X320632821Y-138463702D01*
X320706568Y-138463993D01*
X320746115Y-138463529D01*
X320808520Y-138460460D01*
X320850852Y-138455085D01*
X320866444Y-138448069D01*
X320862455Y-138422180D01*
X320834337Y-138372642D01*
X320787481Y-138331947D01*
X320731623Y-138307367D01*
X320676500Y-138306177D01*
X320635007Y-138325887D01*
X320587989Y-138370740D01*
X320558094Y-138426394D01*
X320556343Y-138432317D01*
X320554255Y-138447627D01*
X320383649Y-138447627D01*
X320384020Y-138437210D01*
X320390425Y-138376568D01*
X320399574Y-138335574D01*
X320406244Y-138319924D01*
X320454792Y-138250221D01*
X320524940Y-138192085D01*
X320606975Y-138154021D01*
X320649765Y-138143626D01*
X320751719Y-138138894D01*
X320842564Y-138162965D01*
X320919802Y-138213160D01*
X320980938Y-138286799D01*
X321023475Y-138381205D01*
X321036220Y-138448069D01*
X321044916Y-138493699D01*
G36*
X321044916Y-138493699D02*
G01*
X321042765Y-138621601D01*
X321042485Y-138624116D01*
X321018458Y-138741477D01*
X320975048Y-138832724D01*
X320910902Y-138899863D01*
X320824668Y-138944896D01*
X320808838Y-138950046D01*
X320710722Y-138965223D01*
X320609247Y-138956760D01*
X320514908Y-138926517D01*
X320438198Y-138876357D01*
X320380739Y-138823269D01*
X320441815Y-138774976D01*
X320502890Y-138726683D01*
X320576496Y-138762443D01*
X320661664Y-138791419D01*
X320736850Y-138792287D01*
X320798365Y-138765664D01*
X320842632Y-138712227D01*
X320858501Y-138680208D01*
X320867360Y-138652843D01*
X320862234Y-138634357D01*
X320839236Y-138623010D01*
X320794480Y-138617059D01*
X320724078Y-138614765D01*
X320624142Y-138614388D01*
X320381839Y-138614388D01*
X320381839Y-138498502D01*
X320383649Y-138447627D01*
X320554255Y-138447627D01*
X320562449Y-138456984D01*
X320586709Y-138461855D01*
X320632821Y-138463702D01*
X320706568Y-138463993D01*
X320746115Y-138463529D01*
X320808520Y-138460460D01*
X320850852Y-138455085D01*
X320866444Y-138448069D01*
X320862455Y-138422180D01*
X320834337Y-138372642D01*
X320787481Y-138331947D01*
X320731623Y-138307367D01*
X320676500Y-138306177D01*
X320635007Y-138325887D01*
X320587989Y-138370740D01*
X320558094Y-138426394D01*
X320556343Y-138432317D01*
X320554255Y-138447627D01*
X320383649Y-138447627D01*
X320384020Y-138437210D01*
X320390425Y-138376568D01*
X320399574Y-138335574D01*
X320406244Y-138319924D01*
X320454792Y-138250221D01*
X320524940Y-138192085D01*
X320606975Y-138154021D01*
X320649765Y-138143626D01*
X320751719Y-138138894D01*
X320842564Y-138162965D01*
X320919802Y-138213160D01*
X320980938Y-138286799D01*
X321023475Y-138381205D01*
X321036220Y-138448069D01*
X321044916Y-138493699D01*
G37*
X324339948Y-138145951D02*
X324436458Y-138170140D01*
X324506960Y-138214974D01*
X324551856Y-138280753D01*
X324571548Y-138367779D01*
X324567561Y-138451095D01*
X324538784Y-138521369D01*
X324483597Y-138573326D01*
X324400897Y-138607982D01*
X324289575Y-138626351D01*
X324217241Y-138635978D01*
X324151219Y-138656809D01*
X324117132Y-138686976D01*
X324115075Y-138726424D01*
X324128792Y-138751021D01*
X324171275Y-138780173D01*
X324231666Y-138793961D01*
X324302438Y-138792076D01*
X324376061Y-138774205D01*
X324445006Y-138740039D01*
X324513746Y-138694549D01*
X324634668Y-138816907D01*
X324584536Y-138857827D01*
X324565043Y-138872045D01*
X324510199Y-138904347D01*
X324450852Y-138932181D01*
X324403884Y-138948155D01*
X324335111Y-138959726D01*
X324250326Y-138959879D01*
X324146355Y-138947139D01*
X324052694Y-138914849D01*
X323986398Y-138863558D01*
X323947309Y-138793137D01*
X323935271Y-138703459D01*
X323943985Y-138624569D01*
X323971957Y-138559979D01*
X324022317Y-138513723D01*
X324098252Y-138482960D01*
X324202949Y-138464850D01*
X324214974Y-138463539D01*
X324280160Y-138455178D01*
X324333039Y-138446429D01*
X324363122Y-138438985D01*
X324373161Y-138432992D01*
X324390133Y-138402085D01*
X324387377Y-138362522D01*
X324364695Y-138328177D01*
X324352785Y-138320687D01*
X324303155Y-138308685D01*
X324239049Y-138309492D01*
X324172202Y-138322264D01*
X324114348Y-138346158D01*
X324053557Y-138382026D01*
X324006403Y-138326924D01*
X323994961Y-138312925D01*
X323969183Y-138275425D01*
X323958571Y-138250009D01*
X323969715Y-138234425D01*
X324004193Y-138210098D01*
X324053977Y-138183920D01*
X324060992Y-138180720D01*
X324126641Y-138155620D01*
X324189921Y-138143619D01*
X324268449Y-138141209D01*
X324339948Y-138145951D01*
G36*
X324339948Y-138145951D02*
G01*
X324436458Y-138170140D01*
X324506960Y-138214974D01*
X324551856Y-138280753D01*
X324571548Y-138367779D01*
X324567561Y-138451095D01*
X324538784Y-138521369D01*
X324483597Y-138573326D01*
X324400897Y-138607982D01*
X324289575Y-138626351D01*
X324217241Y-138635978D01*
X324151219Y-138656809D01*
X324117132Y-138686976D01*
X324115075Y-138726424D01*
X324128792Y-138751021D01*
X324171275Y-138780173D01*
X324231666Y-138793961D01*
X324302438Y-138792076D01*
X324376061Y-138774205D01*
X324445006Y-138740039D01*
X324513746Y-138694549D01*
X324634668Y-138816907D01*
X324584536Y-138857827D01*
X324565043Y-138872045D01*
X324510199Y-138904347D01*
X324450852Y-138932181D01*
X324403884Y-138948155D01*
X324335111Y-138959726D01*
X324250326Y-138959879D01*
X324146355Y-138947139D01*
X324052694Y-138914849D01*
X323986398Y-138863558D01*
X323947309Y-138793137D01*
X323935271Y-138703459D01*
X323943985Y-138624569D01*
X323971957Y-138559979D01*
X324022317Y-138513723D01*
X324098252Y-138482960D01*
X324202949Y-138464850D01*
X324214974Y-138463539D01*
X324280160Y-138455178D01*
X324333039Y-138446429D01*
X324363122Y-138438985D01*
X324373161Y-138432992D01*
X324390133Y-138402085D01*
X324387377Y-138362522D01*
X324364695Y-138328177D01*
X324352785Y-138320687D01*
X324303155Y-138308685D01*
X324239049Y-138309492D01*
X324172202Y-138322264D01*
X324114348Y-138346158D01*
X324053557Y-138382026D01*
X324006403Y-138326924D01*
X323994961Y-138312925D01*
X323969183Y-138275425D01*
X323958571Y-138250009D01*
X323969715Y-138234425D01*
X324004193Y-138210098D01*
X324053977Y-138183920D01*
X324060992Y-138180720D01*
X324126641Y-138155620D01*
X324189921Y-138143619D01*
X324268449Y-138141209D01*
X324339948Y-138145951D01*
G37*
X321901967Y-139809190D02*
X321899794Y-139871570D01*
X321880004Y-139990866D01*
X321839283Y-140084670D01*
X321777273Y-140153653D01*
X321693615Y-140198484D01*
X321666586Y-140206404D01*
X321570073Y-140217467D01*
X321468164Y-140208131D01*
X321376115Y-140179318D01*
X321343687Y-140162964D01*
X321297192Y-140134950D01*
X321269014Y-140111899D01*
X321264854Y-140106632D01*
X321257071Y-140087371D01*
X321268285Y-140066433D01*
X321302435Y-140034722D01*
X321318916Y-140020917D01*
X321351381Y-139995655D01*
X321368404Y-139985330D01*
X321373281Y-139986393D01*
X321401230Y-139997891D01*
X321442957Y-140018072D01*
X321456562Y-140024710D01*
X321536820Y-140049361D01*
X321606546Y-140043007D01*
X321667689Y-140005539D01*
X321674804Y-139998616D01*
X321708817Y-139955250D01*
X321728251Y-139913631D01*
X321739015Y-139867677D01*
X321234076Y-139867677D01*
X321234169Y-139779947D01*
X321234222Y-139771222D01*
X321241039Y-139700835D01*
X321417892Y-139700835D01*
X321419980Y-139715433D01*
X321430701Y-139725494D01*
X321456256Y-139731078D01*
X321502838Y-139733480D01*
X321576642Y-139733993D01*
X321617673Y-139733461D01*
X321678237Y-139730352D01*
X321719894Y-139725084D01*
X321735392Y-139718370D01*
X321722175Y-139663105D01*
X321683479Y-139611524D01*
X321627670Y-139575738D01*
X321563200Y-139563360D01*
X321515734Y-139577314D01*
X321468287Y-139611425D01*
X321432218Y-139655868D01*
X321417892Y-139700835D01*
X321241039Y-139700835D01*
X321244676Y-139663288D01*
X321275104Y-139575485D01*
X321328198Y-139499795D01*
X321360587Y-139467777D01*
X321427481Y-139424917D01*
X321507356Y-139404150D01*
X321608249Y-139402690D01*
X321656984Y-139408415D01*
X321746945Y-139438143D01*
X321815820Y-139492250D01*
X321864213Y-139571570D01*
X321892728Y-139676938D01*
X321895623Y-139718370D01*
X321901967Y-139809190D01*
G36*
X321901967Y-139809190D02*
G01*
X321899794Y-139871570D01*
X321880004Y-139990866D01*
X321839283Y-140084670D01*
X321777273Y-140153653D01*
X321693615Y-140198484D01*
X321666586Y-140206404D01*
X321570073Y-140217467D01*
X321468164Y-140208131D01*
X321376115Y-140179318D01*
X321343687Y-140162964D01*
X321297192Y-140134950D01*
X321269014Y-140111899D01*
X321264854Y-140106632D01*
X321257071Y-140087371D01*
X321268285Y-140066433D01*
X321302435Y-140034722D01*
X321318916Y-140020917D01*
X321351381Y-139995655D01*
X321368404Y-139985330D01*
X321373281Y-139986393D01*
X321401230Y-139997891D01*
X321442957Y-140018072D01*
X321456562Y-140024710D01*
X321536820Y-140049361D01*
X321606546Y-140043007D01*
X321667689Y-140005539D01*
X321674804Y-139998616D01*
X321708817Y-139955250D01*
X321728251Y-139913631D01*
X321739015Y-139867677D01*
X321234076Y-139867677D01*
X321234169Y-139779947D01*
X321234222Y-139771222D01*
X321241039Y-139700835D01*
X321417892Y-139700835D01*
X321419980Y-139715433D01*
X321430701Y-139725494D01*
X321456256Y-139731078D01*
X321502838Y-139733480D01*
X321576642Y-139733993D01*
X321617673Y-139733461D01*
X321678237Y-139730352D01*
X321719894Y-139725084D01*
X321735392Y-139718370D01*
X321722175Y-139663105D01*
X321683479Y-139611524D01*
X321627670Y-139575738D01*
X321563200Y-139563360D01*
X321515734Y-139577314D01*
X321468287Y-139611425D01*
X321432218Y-139655868D01*
X321417892Y-139700835D01*
X321241039Y-139700835D01*
X321244676Y-139663288D01*
X321275104Y-139575485D01*
X321328198Y-139499795D01*
X321360587Y-139467777D01*
X321427481Y-139424917D01*
X321507356Y-139404150D01*
X321608249Y-139402690D01*
X321656984Y-139408415D01*
X321746945Y-139438143D01*
X321815820Y-139492250D01*
X321864213Y-139571570D01*
X321892728Y-139676938D01*
X321895623Y-139718370D01*
X321901967Y-139809190D01*
G37*
X326477092Y-138447163D02*
X326482938Y-138564210D01*
X326481477Y-138615288D01*
X326465003Y-138726915D01*
X326428700Y-138814928D01*
X326370669Y-138882956D01*
X326289010Y-138934623D01*
X326209795Y-138958742D01*
X326110420Y-138963357D01*
X326010156Y-138945609D01*
X325920721Y-138906399D01*
X325887579Y-138884587D01*
X325851064Y-138856628D01*
X325834402Y-138838230D01*
X325835347Y-138830639D01*
X325853997Y-138804775D01*
X325889047Y-138773439D01*
X325949790Y-138727108D01*
X326020967Y-138762656D01*
X326040214Y-138771455D01*
X326096872Y-138790578D01*
X326144360Y-138798203D01*
X326179377Y-138791920D01*
X326234327Y-138761663D01*
X326280516Y-138714692D01*
X326306936Y-138660342D01*
X326317699Y-138614388D01*
X325812760Y-138614388D01*
X325812853Y-138526657D01*
X325813618Y-138498853D01*
X325819198Y-138439191D01*
X325996576Y-138439191D01*
X325996901Y-138442609D01*
X326006089Y-138453253D01*
X326032053Y-138459792D01*
X326080328Y-138463086D01*
X326156452Y-138463993D01*
X326181472Y-138463982D01*
X326246451Y-138463382D01*
X326285513Y-138460787D01*
X326304452Y-138454734D01*
X326309060Y-138443758D01*
X326305130Y-138426394D01*
X326304530Y-138424425D01*
X326270676Y-138364002D01*
X326217306Y-138322401D01*
X326153664Y-138306914D01*
X326130140Y-138308152D01*
X326086477Y-138322968D01*
X326044590Y-138360651D01*
X326033307Y-138373975D01*
X326007062Y-138412028D01*
X325996576Y-138439191D01*
X325819198Y-138439191D01*
X325819915Y-138431521D01*
X325830475Y-138375806D01*
X325842050Y-138344615D01*
X325882744Y-138276772D01*
X325937244Y-138215158D01*
X325994879Y-138172938D01*
X326011531Y-138165099D01*
X326108494Y-138139093D01*
X326207509Y-138141834D01*
X326300601Y-138172164D01*
X326379793Y-138228920D01*
X326422627Y-138281262D01*
X326457650Y-138355000D01*
X326476374Y-138443758D01*
X326477092Y-138447163D01*
G36*
X326477092Y-138447163D02*
G01*
X326482938Y-138564210D01*
X326481477Y-138615288D01*
X326465003Y-138726915D01*
X326428700Y-138814928D01*
X326370669Y-138882956D01*
X326289010Y-138934623D01*
X326209795Y-138958742D01*
X326110420Y-138963357D01*
X326010156Y-138945609D01*
X325920721Y-138906399D01*
X325887579Y-138884587D01*
X325851064Y-138856628D01*
X325834402Y-138838230D01*
X325835347Y-138830639D01*
X325853997Y-138804775D01*
X325889047Y-138773439D01*
X325949790Y-138727108D01*
X326020967Y-138762656D01*
X326040214Y-138771455D01*
X326096872Y-138790578D01*
X326144360Y-138798203D01*
X326179377Y-138791920D01*
X326234327Y-138761663D01*
X326280516Y-138714692D01*
X326306936Y-138660342D01*
X326317699Y-138614388D01*
X325812760Y-138614388D01*
X325812853Y-138526657D01*
X325813618Y-138498853D01*
X325819198Y-138439191D01*
X325996576Y-138439191D01*
X325996901Y-138442609D01*
X326006089Y-138453253D01*
X326032053Y-138459792D01*
X326080328Y-138463086D01*
X326156452Y-138463993D01*
X326181472Y-138463982D01*
X326246451Y-138463382D01*
X326285513Y-138460787D01*
X326304452Y-138454734D01*
X326309060Y-138443758D01*
X326305130Y-138426394D01*
X326304530Y-138424425D01*
X326270676Y-138364002D01*
X326217306Y-138322401D01*
X326153664Y-138306914D01*
X326130140Y-138308152D01*
X326086477Y-138322968D01*
X326044590Y-138360651D01*
X326033307Y-138373975D01*
X326007062Y-138412028D01*
X325996576Y-138439191D01*
X325819198Y-138439191D01*
X325819915Y-138431521D01*
X325830475Y-138375806D01*
X325842050Y-138344615D01*
X325882744Y-138276772D01*
X325937244Y-138215158D01*
X325994879Y-138172938D01*
X326011531Y-138165099D01*
X326108494Y-138139093D01*
X326207509Y-138141834D01*
X326300601Y-138172164D01*
X326379793Y-138228920D01*
X326422627Y-138281262D01*
X326457650Y-138355000D01*
X326476374Y-138443758D01*
X326477092Y-138447163D01*
G37*
X323264217Y-139998672D02*
X323244058Y-140074536D01*
X323200247Y-140139437D01*
X323133790Y-140186123D01*
X323127268Y-140188961D01*
X323054554Y-140209402D01*
X322972620Y-140217371D01*
X322894721Y-140212499D01*
X322834109Y-140194420D01*
X322809897Y-140182626D01*
X322792129Y-140179813D01*
X322788155Y-140194523D01*
X322780627Y-140208127D01*
X322751502Y-140216228D01*
X322694969Y-140218598D01*
X322601784Y-140218598D01*
X322607239Y-139896921D01*
X322607822Y-139867677D01*
X322788155Y-139867677D01*
X322788155Y-139926164D01*
X322794449Y-139969878D01*
X322821576Y-140018072D01*
X322831589Y-140026930D01*
X322872630Y-140045566D01*
X322934372Y-140050362D01*
X322971420Y-140048489D01*
X323040744Y-140034381D01*
X323083712Y-140008096D01*
X323098204Y-139971416D01*
X323082100Y-139926124D01*
X323072703Y-139914272D01*
X323030736Y-139887685D01*
X322964315Y-139872504D01*
X322869619Y-139867677D01*
X322788155Y-139867677D01*
X322607822Y-139867677D01*
X322608721Y-139822534D01*
X322612625Y-139711171D01*
X322619206Y-139626018D01*
X322629763Y-139562432D01*
X322645597Y-139515771D01*
X322668008Y-139481393D01*
X322698296Y-139454655D01*
X322737762Y-139430916D01*
X322758122Y-139421852D01*
X322828557Y-139404745D01*
X322913508Y-139397672D01*
X323001337Y-139400504D01*
X323080406Y-139413113D01*
X323139076Y-139435369D01*
X323159484Y-139448291D01*
X323206470Y-139486591D01*
X323222373Y-139518661D01*
X323218511Y-139524858D01*
X323194443Y-139546504D01*
X323155588Y-139575380D01*
X323135723Y-139588896D01*
X323101895Y-139608046D01*
X323079912Y-139609875D01*
X323059502Y-139596657D01*
X323008635Y-139569888D01*
X322940189Y-139558880D01*
X322870243Y-139567308D01*
X322868919Y-139567690D01*
X322819585Y-139589124D01*
X322795165Y-139622675D01*
X322788411Y-139678163D01*
X322788155Y-139730951D01*
X322962559Y-139736649D01*
X322990345Y-139737587D01*
X323060397Y-139740847D01*
X323107358Y-139745969D01*
X323139101Y-139754870D01*
X323163497Y-139769469D01*
X323188418Y-139791684D01*
X323229564Y-139843067D01*
X323259720Y-139919098D01*
X323262677Y-139971416D01*
X323264217Y-139998672D01*
G36*
X323264217Y-139998672D02*
G01*
X323244058Y-140074536D01*
X323200247Y-140139437D01*
X323133790Y-140186123D01*
X323127268Y-140188961D01*
X323054554Y-140209402D01*
X322972620Y-140217371D01*
X322894721Y-140212499D01*
X322834109Y-140194420D01*
X322809897Y-140182626D01*
X322792129Y-140179813D01*
X322788155Y-140194523D01*
X322780627Y-140208127D01*
X322751502Y-140216228D01*
X322694969Y-140218598D01*
X322601784Y-140218598D01*
X322607239Y-139896921D01*
X322607822Y-139867677D01*
X322788155Y-139867677D01*
X322788155Y-139926164D01*
X322794449Y-139969878D01*
X322821576Y-140018072D01*
X322831589Y-140026930D01*
X322872630Y-140045566D01*
X322934372Y-140050362D01*
X322971420Y-140048489D01*
X323040744Y-140034381D01*
X323083712Y-140008096D01*
X323098204Y-139971416D01*
X323082100Y-139926124D01*
X323072703Y-139914272D01*
X323030736Y-139887685D01*
X322964315Y-139872504D01*
X322869619Y-139867677D01*
X322788155Y-139867677D01*
X322607822Y-139867677D01*
X322608721Y-139822534D01*
X322612625Y-139711171D01*
X322619206Y-139626018D01*
X322629763Y-139562432D01*
X322645597Y-139515771D01*
X322668008Y-139481393D01*
X322698296Y-139454655D01*
X322737762Y-139430916D01*
X322758122Y-139421852D01*
X322828557Y-139404745D01*
X322913508Y-139397672D01*
X323001337Y-139400504D01*
X323080406Y-139413113D01*
X323139076Y-139435369D01*
X323159484Y-139448291D01*
X323206470Y-139486591D01*
X323222373Y-139518661D01*
X323218511Y-139524858D01*
X323194443Y-139546504D01*
X323155588Y-139575380D01*
X323135723Y-139588896D01*
X323101895Y-139608046D01*
X323079912Y-139609875D01*
X323059502Y-139596657D01*
X323008635Y-139569888D01*
X322940189Y-139558880D01*
X322870243Y-139567308D01*
X322868919Y-139567690D01*
X322819585Y-139589124D01*
X322795165Y-139622675D01*
X322788411Y-139678163D01*
X322788155Y-139730951D01*
X322962559Y-139736649D01*
X322990345Y-139737587D01*
X323060397Y-139740847D01*
X323107358Y-139745969D01*
X323139101Y-139754870D01*
X323163497Y-139769469D01*
X323188418Y-139791684D01*
X323229564Y-139843067D01*
X323259720Y-139919098D01*
X323262677Y-139971416D01*
X323264217Y-139998672D01*
G37*
X326477461Y-139995868D02*
X326477271Y-139998072D01*
X326456909Y-140083918D01*
X326411616Y-140148484D01*
X326339142Y-140195009D01*
X326301689Y-140206328D01*
X326237539Y-140215150D01*
X326167389Y-140217257D01*
X326104097Y-140212402D01*
X326060525Y-140200340D01*
X326034061Y-140190678D01*
X326008150Y-140200340D01*
X325998672Y-140205938D01*
X325960843Y-140215015D01*
X325909681Y-140218598D01*
X325829471Y-140218598D01*
X325829471Y-139895214D01*
X325829477Y-139867677D01*
X326013286Y-139867677D01*
X326013286Y-139931929D01*
X326019464Y-139980825D01*
X326043846Y-140023837D01*
X326057798Y-140033146D01*
X326107600Y-140047655D01*
X326169774Y-140051277D01*
X326230745Y-140043917D01*
X326276937Y-140025480D01*
X326299948Y-140001102D01*
X326314076Y-139957785D01*
X326301547Y-139923448D01*
X326260131Y-139893592D01*
X326193554Y-139874438D01*
X326105731Y-139867677D01*
X326013286Y-139867677D01*
X325829477Y-139867677D01*
X325829477Y-139867248D01*
X325829781Y-139761839D01*
X325830925Y-139683473D01*
X325833426Y-139626943D01*
X325837805Y-139587042D01*
X325844581Y-139558564D01*
X325854274Y-139536302D01*
X325867402Y-139515050D01*
X325909633Y-139465252D01*
X325969479Y-139427232D01*
X326048092Y-139406256D01*
X326151685Y-139399808D01*
X326155052Y-139399815D01*
X326227062Y-139403067D01*
X326291515Y-139411175D01*
X326335501Y-139422542D01*
X326347559Y-139428238D01*
X326385940Y-139452361D01*
X326420673Y-139481032D01*
X326443526Y-139506832D01*
X326446265Y-139522345D01*
X326440919Y-139526537D01*
X326382676Y-139571290D01*
X326343730Y-139597685D01*
X326317980Y-139608334D01*
X326299321Y-139605852D01*
X326281650Y-139592854D01*
X326249039Y-139576628D01*
X326194082Y-139565809D01*
X326131969Y-139563003D01*
X326075766Y-139568714D01*
X326038533Y-139583448D01*
X326036574Y-139585241D01*
X326019843Y-139618922D01*
X326013286Y-139669197D01*
X326013286Y-139733993D01*
X326167859Y-139734055D01*
X326238863Y-139735179D01*
X326298631Y-139740068D01*
X326341386Y-139750127D01*
X326375929Y-139766737D01*
X326383968Y-139771839D01*
X326442125Y-139827919D01*
X326473059Y-139902076D01*
X326475674Y-139957785D01*
X326477461Y-139995868D01*
G36*
X326477461Y-139995868D02*
G01*
X326477271Y-139998072D01*
X326456909Y-140083918D01*
X326411616Y-140148484D01*
X326339142Y-140195009D01*
X326301689Y-140206328D01*
X326237539Y-140215150D01*
X326167389Y-140217257D01*
X326104097Y-140212402D01*
X326060525Y-140200340D01*
X326034061Y-140190678D01*
X326008150Y-140200340D01*
X325998672Y-140205938D01*
X325960843Y-140215015D01*
X325909681Y-140218598D01*
X325829471Y-140218598D01*
X325829471Y-139895214D01*
X325829477Y-139867677D01*
X326013286Y-139867677D01*
X326013286Y-139931929D01*
X326019464Y-139980825D01*
X326043846Y-140023837D01*
X326057798Y-140033146D01*
X326107600Y-140047655D01*
X326169774Y-140051277D01*
X326230745Y-140043917D01*
X326276937Y-140025480D01*
X326299948Y-140001102D01*
X326314076Y-139957785D01*
X326301547Y-139923448D01*
X326260131Y-139893592D01*
X326193554Y-139874438D01*
X326105731Y-139867677D01*
X326013286Y-139867677D01*
X325829477Y-139867677D01*
X325829477Y-139867248D01*
X325829781Y-139761839D01*
X325830925Y-139683473D01*
X325833426Y-139626943D01*
X325837805Y-139587042D01*
X325844581Y-139558564D01*
X325854274Y-139536302D01*
X325867402Y-139515050D01*
X325909633Y-139465252D01*
X325969479Y-139427232D01*
X326048092Y-139406256D01*
X326151685Y-139399808D01*
X326155052Y-139399815D01*
X326227062Y-139403067D01*
X326291515Y-139411175D01*
X326335501Y-139422542D01*
X326347559Y-139428238D01*
X326385940Y-139452361D01*
X326420673Y-139481032D01*
X326443526Y-139506832D01*
X326446265Y-139522345D01*
X326440919Y-139526537D01*
X326382676Y-139571290D01*
X326343730Y-139597685D01*
X326317980Y-139608334D01*
X326299321Y-139605852D01*
X326281650Y-139592854D01*
X326249039Y-139576628D01*
X326194082Y-139565809D01*
X326131969Y-139563003D01*
X326075766Y-139568714D01*
X326038533Y-139583448D01*
X326036574Y-139585241D01*
X326019843Y-139618922D01*
X326013286Y-139669197D01*
X326013286Y-139733993D01*
X326167859Y-139734055D01*
X326238863Y-139735179D01*
X326298631Y-139740068D01*
X326341386Y-139750127D01*
X326375929Y-139766737D01*
X326383968Y-139771839D01*
X326442125Y-139827919D01*
X326473059Y-139902076D01*
X326475674Y-139957785D01*
X326477461Y-139995868D01*
G37*
X327233155Y-140220345D02*
X327145424Y-140215294D01*
X327057694Y-140210243D01*
X327053523Y-139942874D01*
X327052289Y-139877860D01*
X327048786Y-139780183D01*
X327042773Y-139708506D01*
X327033146Y-139658012D01*
X327018798Y-139623882D01*
X326998624Y-139601299D01*
X326971519Y-139585444D01*
X326920661Y-139569252D01*
X326870083Y-139575544D01*
X326816674Y-139610149D01*
X326765260Y-139653411D01*
X326765260Y-140218598D01*
X326581444Y-140218598D01*
X326581444Y-139912082D01*
X326581621Y-139816007D01*
X326582598Y-139730634D01*
X326584948Y-139668143D01*
X326589240Y-139622866D01*
X326596044Y-139589140D01*
X326605927Y-139561299D01*
X326619459Y-139533677D01*
X326622668Y-139527813D01*
X326665341Y-139470699D01*
X326715284Y-139430786D01*
X326775497Y-139409828D01*
X326855229Y-139400499D01*
X326935076Y-139405552D01*
X327000037Y-139425277D01*
X327049339Y-139450772D01*
X327049339Y-138899003D01*
X326981786Y-138934214D01*
X326953568Y-138947006D01*
X326864499Y-138965095D01*
X326775983Y-138952593D01*
X326693930Y-138911024D01*
X326624253Y-138841915D01*
X326613338Y-138825672D01*
X326602847Y-138801862D01*
X326596004Y-138769490D01*
X326592053Y-138722343D01*
X326590237Y-138654207D01*
X326589911Y-138583214D01*
X326766440Y-138583214D01*
X326766589Y-138642503D01*
X326771122Y-138682041D01*
X326781309Y-138710261D01*
X326798421Y-138735591D01*
X326820159Y-138759141D01*
X326854921Y-138776964D01*
X326907299Y-138781493D01*
X326953569Y-138777552D01*
X326999366Y-138757831D01*
X327028861Y-138717881D01*
X327044653Y-138653672D01*
X327049339Y-138561173D01*
X327048127Y-138511966D01*
X327036030Y-138419078D01*
X327011072Y-138356268D01*
X326973393Y-138323978D01*
X326935338Y-138314894D01*
X326869062Y-138319153D01*
X326813065Y-138345524D01*
X326799663Y-138357617D01*
X326785462Y-138378539D01*
X326776682Y-138409683D01*
X326771468Y-138458782D01*
X326767965Y-138533570D01*
X326766440Y-138583214D01*
X326589911Y-138583214D01*
X326589799Y-138558869D01*
X326589949Y-138515368D01*
X326592511Y-138414183D01*
X326599646Y-138338594D01*
X326613155Y-138282889D01*
X326634843Y-138241355D01*
X326666509Y-138208278D01*
X326709957Y-138177946D01*
X326745189Y-138160540D01*
X326828722Y-138141343D01*
X326916771Y-138143959D01*
X326995030Y-138168844D01*
X327028616Y-138185111D01*
X327045509Y-138186792D01*
X327049339Y-138171988D01*
X327049343Y-138171540D01*
X327057597Y-138156423D01*
X327086066Y-138148675D01*
X327141247Y-138146493D01*
X327233155Y-138146493D01*
X327233155Y-138561173D01*
X327233155Y-140220345D01*
G36*
X327233155Y-140220345D02*
G01*
X327145424Y-140215294D01*
X327057694Y-140210243D01*
X327053523Y-139942874D01*
X327052289Y-139877860D01*
X327048786Y-139780183D01*
X327042773Y-139708506D01*
X327033146Y-139658012D01*
X327018798Y-139623882D01*
X326998624Y-139601299D01*
X326971519Y-139585444D01*
X326920661Y-139569252D01*
X326870083Y-139575544D01*
X326816674Y-139610149D01*
X326765260Y-139653411D01*
X326765260Y-140218598D01*
X326581444Y-140218598D01*
X326581444Y-139912082D01*
X326581621Y-139816007D01*
X326582598Y-139730634D01*
X326584948Y-139668143D01*
X326589240Y-139622866D01*
X326596044Y-139589140D01*
X326605927Y-139561299D01*
X326619459Y-139533677D01*
X326622668Y-139527813D01*
X326665341Y-139470699D01*
X326715284Y-139430786D01*
X326775497Y-139409828D01*
X326855229Y-139400499D01*
X326935076Y-139405552D01*
X327000037Y-139425277D01*
X327049339Y-139450772D01*
X327049339Y-138899003D01*
X326981786Y-138934214D01*
X326953568Y-138947006D01*
X326864499Y-138965095D01*
X326775983Y-138952593D01*
X326693930Y-138911024D01*
X326624253Y-138841915D01*
X326613338Y-138825672D01*
X326602847Y-138801862D01*
X326596004Y-138769490D01*
X326592053Y-138722343D01*
X326590237Y-138654207D01*
X326589911Y-138583214D01*
X326766440Y-138583214D01*
X326766589Y-138642503D01*
X326771122Y-138682041D01*
X326781309Y-138710261D01*
X326798421Y-138735591D01*
X326820159Y-138759141D01*
X326854921Y-138776964D01*
X326907299Y-138781493D01*
X326953569Y-138777552D01*
X326999366Y-138757831D01*
X327028861Y-138717881D01*
X327044653Y-138653672D01*
X327049339Y-138561173D01*
X327048127Y-138511966D01*
X327036030Y-138419078D01*
X327011072Y-138356268D01*
X326973393Y-138323978D01*
X326935338Y-138314894D01*
X326869062Y-138319153D01*
X326813065Y-138345524D01*
X326799663Y-138357617D01*
X326785462Y-138378539D01*
X326776682Y-138409683D01*
X326771468Y-138458782D01*
X326767965Y-138533570D01*
X326766440Y-138583214D01*
X326589911Y-138583214D01*
X326589799Y-138558869D01*
X326589949Y-138515368D01*
X326592511Y-138414183D01*
X326599646Y-138338594D01*
X326613155Y-138282889D01*
X326634843Y-138241355D01*
X326666509Y-138208278D01*
X326709957Y-138177946D01*
X326745189Y-138160540D01*
X326828722Y-138141343D01*
X326916771Y-138143959D01*
X326995030Y-138168844D01*
X327028616Y-138185111D01*
X327045509Y-138186792D01*
X327049339Y-138171988D01*
X327049343Y-138171540D01*
X327057597Y-138156423D01*
X327086066Y-138148675D01*
X327141247Y-138146493D01*
X327233155Y-138146493D01*
X327233155Y-138561173D01*
X327233155Y-140220345D01*
G37*
X324692803Y-132606648D02*
X324768352Y-133007394D01*
X325047116Y-133122310D01*
X325325881Y-133237226D01*
X325660305Y-133009820D01*
X325726495Y-132964989D01*
X325814242Y-132906143D01*
X325890212Y-132855882D01*
X325950460Y-132816787D01*
X325991040Y-132791437D01*
X326008006Y-132782414D01*
X326018426Y-132788831D01*
X326049574Y-132815719D01*
X326096710Y-132859846D01*
X326155842Y-132917159D01*
X326222975Y-132983607D01*
X326294115Y-133055137D01*
X326365268Y-133127698D01*
X326432441Y-133197239D01*
X326491639Y-133259707D01*
X326538868Y-133311050D01*
X326570135Y-133347217D01*
X326581444Y-133364155D01*
X326578813Y-133371433D01*
X326560597Y-133403896D01*
X326527331Y-133457321D01*
X326481713Y-133527521D01*
X326426439Y-133610308D01*
X326364207Y-133701493D01*
X326330055Y-133751224D01*
X326271306Y-133837803D01*
X326220937Y-133913363D01*
X326181635Y-133973805D01*
X326156084Y-134015033D01*
X326146971Y-134032948D01*
X326147120Y-134033941D01*
X326155160Y-134056652D01*
X326173603Y-134103027D01*
X326199880Y-134167009D01*
X326231420Y-134242540D01*
X326265651Y-134323561D01*
X326300003Y-134404015D01*
X326331904Y-134477844D01*
X326358784Y-134538990D01*
X326378071Y-134581394D01*
X326387195Y-134598998D01*
X326392594Y-134600560D01*
X326425395Y-134607603D01*
X326483855Y-134619271D01*
X326563295Y-134634652D01*
X326659035Y-134652832D01*
X326766395Y-134672902D01*
X326822980Y-134683543D01*
X326926838Y-134703845D01*
X327017646Y-134722594D01*
X327090440Y-134738714D01*
X327140257Y-134751128D01*
X327162135Y-134758758D01*
X327166065Y-134766322D01*
X327172583Y-134803281D01*
X327177705Y-134864837D01*
X327181433Y-134945199D01*
X327183772Y-135038575D01*
X327184726Y-135139173D01*
X327184298Y-135241200D01*
X327182494Y-135338865D01*
X327179315Y-135426376D01*
X327174768Y-135497941D01*
X327168855Y-135547768D01*
X327161580Y-135570065D01*
X327157166Y-135572580D01*
X327124243Y-135583368D01*
X327067131Y-135597641D01*
X326992431Y-135613836D01*
X326906745Y-135630391D01*
X326877834Y-135635664D01*
X326744304Y-135660185D01*
X326639362Y-135679893D01*
X326559369Y-135695603D01*
X326500688Y-135708134D01*
X326459681Y-135718301D01*
X326432710Y-135726923D01*
X326416137Y-135734817D01*
X326406324Y-135742799D01*
X326405184Y-135744139D01*
X326389137Y-135772069D01*
X326365392Y-135823176D01*
X326336250Y-135891464D01*
X326304012Y-135970938D01*
X326270979Y-136055601D01*
X326239453Y-136139459D01*
X326211735Y-136216516D01*
X326190126Y-136280776D01*
X326176928Y-136326244D01*
X326174442Y-136346924D01*
X326176104Y-136349607D01*
X326193314Y-136375556D01*
X326225679Y-136423417D01*
X326270199Y-136488782D01*
X326323872Y-136567242D01*
X326383698Y-136654387D01*
X326400116Y-136678364D01*
X326457852Y-136764367D01*
X326507749Y-136841283D01*
X326546958Y-136904549D01*
X326572632Y-136949604D01*
X326581923Y-136971887D01*
X326579921Y-136977745D01*
X326559052Y-137006613D01*
X326517880Y-137053752D01*
X326459352Y-137115992D01*
X326386416Y-137190159D01*
X326302022Y-137273080D01*
X326253783Y-137319493D01*
X326177511Y-137391780D01*
X326110754Y-137453696D01*
X326057095Y-137501983D01*
X326020119Y-137533379D01*
X326003412Y-137544626D01*
X325991934Y-137540456D01*
X325956594Y-137520735D01*
X325905272Y-137488482D01*
X325844662Y-137447783D01*
X325801569Y-137418083D01*
X325715536Y-137359102D01*
X325623728Y-137296462D01*
X325539872Y-137239541D01*
X325375602Y-137128431D01*
X325237709Y-137202988D01*
X325205239Y-137220197D01*
X325146191Y-137249632D01*
X325100528Y-137269955D01*
X325076123Y-137277532D01*
X325068137Y-137267802D01*
X325048305Y-137230751D01*
X325019011Y-137169665D01*
X324981887Y-137088421D01*
X324938562Y-136990895D01*
X324890667Y-136880963D01*
X324839830Y-136762504D01*
X324787682Y-136639393D01*
X324735853Y-136515507D01*
X324685973Y-136394722D01*
X324639672Y-136280916D01*
X324598580Y-136177965D01*
X324564327Y-136089745D01*
X324538542Y-136020134D01*
X324522857Y-135973008D01*
X324518900Y-135952244D01*
X324519168Y-135951637D01*
X324537599Y-135932442D01*
X324576151Y-135902378D01*
X324626865Y-135867681D01*
X324642873Y-135857086D01*
X324764674Y-135756570D01*
X324865478Y-135636849D01*
X324942900Y-135502906D01*
X324994553Y-135359725D01*
X325018049Y-135212288D01*
X325011003Y-135065579D01*
X324982459Y-134935092D01*
X324931208Y-134803329D01*
X324856494Y-134685778D01*
X324753963Y-134574114D01*
X324713676Y-134538441D01*
X324583438Y-134450552D01*
X324442746Y-134391360D01*
X324295676Y-134360337D01*
X324146307Y-134356951D01*
X323998716Y-134380674D01*
X323856978Y-134430976D01*
X323725172Y-134507327D01*
X323607375Y-134609197D01*
X323507663Y-134736056D01*
X323488492Y-134767472D01*
X323423332Y-134911064D01*
X323388726Y-135060589D01*
X323383767Y-135212177D01*
X323407550Y-135361954D01*
X323459168Y-135506048D01*
X323537715Y-135640587D01*
X323642285Y-135761697D01*
X323771971Y-135865506D01*
X323776183Y-135868304D01*
X323826359Y-135903662D01*
X323863966Y-135933725D01*
X323881143Y-135952244D01*
X323878975Y-135966762D01*
X323865500Y-136009037D01*
X323841607Y-136074558D01*
X323808924Y-136159449D01*
X323769082Y-136259831D01*
X323723709Y-136371829D01*
X323674436Y-136491563D01*
X323622890Y-136615156D01*
X323570703Y-136738731D01*
X323519502Y-136858411D01*
X323470917Y-136970317D01*
X323426579Y-137070572D01*
X323388115Y-137155299D01*
X323357155Y-137220619D01*
X323335328Y-137262656D01*
X323324265Y-137277532D01*
X323315065Y-137275518D01*
X323278920Y-137261038D01*
X323225500Y-137235650D01*
X323162680Y-137202988D01*
X323024787Y-137128431D01*
X322860517Y-137239541D01*
X322811985Y-137272442D01*
X322721715Y-137333917D01*
X322631720Y-137395490D01*
X322555726Y-137447783D01*
X322513786Y-137476281D01*
X322459275Y-137511688D01*
X322418858Y-137535927D01*
X322399117Y-137544914D01*
X322390636Y-137541098D01*
X322359978Y-137517728D01*
X322312717Y-137476582D01*
X322252965Y-137421707D01*
X322184837Y-137357149D01*
X322112445Y-137286957D01*
X322039905Y-137215178D01*
X321971329Y-137145858D01*
X321910831Y-137083045D01*
X321862525Y-137030786D01*
X321830525Y-136993129D01*
X321818944Y-136974120D01*
X321819612Y-136970503D01*
X321833396Y-136941065D01*
X321862841Y-136890134D01*
X321905102Y-136822310D01*
X321957334Y-136742195D01*
X322016691Y-136654387D01*
X322033338Y-136630168D01*
X322091793Y-136544940D01*
X322143282Y-136469593D01*
X322184805Y-136408535D01*
X322213360Y-136366176D01*
X322225947Y-136346924D01*
X322226256Y-136346099D01*
X322222542Y-136322545D01*
X322208356Y-136274831D01*
X322186000Y-136208951D01*
X322157776Y-136130902D01*
X322125984Y-136046679D01*
X322092927Y-135962277D01*
X322060905Y-135883693D01*
X322032220Y-135816922D01*
X322009172Y-135767958D01*
X321994064Y-135742799D01*
X321992551Y-135741237D01*
X321981734Y-135733335D01*
X321963464Y-135725366D01*
X321934105Y-135716513D01*
X321890019Y-135705959D01*
X321827567Y-135692887D01*
X321743113Y-135676480D01*
X321633018Y-135655920D01*
X321493644Y-135630391D01*
X321464736Y-135625018D01*
X321381926Y-135608409D01*
X321312267Y-135592672D01*
X321262361Y-135579370D01*
X321238808Y-135570065D01*
X321234868Y-135562302D01*
X321228299Y-135525014D01*
X321223093Y-135463197D01*
X321219255Y-135382644D01*
X321216788Y-135289147D01*
X321215696Y-135188498D01*
X321215984Y-135086489D01*
X321217656Y-134988911D01*
X321220714Y-134901557D01*
X321225164Y-134830219D01*
X321231009Y-134780689D01*
X321238253Y-134758758D01*
X321245650Y-134755518D01*
X321282445Y-134745305D01*
X321344640Y-134730861D01*
X321427272Y-134713261D01*
X321525377Y-134693582D01*
X321633993Y-134672902D01*
X321693299Y-134661853D01*
X321794947Y-134642693D01*
X321882439Y-134625916D01*
X321951098Y-134612433D01*
X321996242Y-134603156D01*
X322013193Y-134598998D01*
X322013830Y-134598141D01*
X322024626Y-134576365D01*
X322045206Y-134530743D01*
X322072998Y-134467330D01*
X322105431Y-134392179D01*
X322139931Y-134311342D01*
X322173927Y-134230871D01*
X322204846Y-134156821D01*
X322230115Y-134095244D01*
X322247164Y-134052193D01*
X322253418Y-134033722D01*
X322250659Y-134027222D01*
X322232299Y-133996294D01*
X322198995Y-133944235D01*
X322153423Y-133875131D01*
X322098260Y-133793065D01*
X322036181Y-133702124D01*
X322002122Y-133652320D01*
X321943346Y-133565003D01*
X321892952Y-133488370D01*
X321853629Y-133426603D01*
X321828063Y-133383878D01*
X321818944Y-133364377D01*
X321825281Y-133353799D01*
X321851786Y-133322191D01*
X321895269Y-133274355D01*
X321951738Y-133214345D01*
X322017202Y-133146214D01*
X322087670Y-133074017D01*
X322159150Y-133001805D01*
X322227649Y-132933634D01*
X322289178Y-132873555D01*
X322339743Y-132825623D01*
X322375354Y-132793892D01*
X322392019Y-132782414D01*
X322401269Y-132786877D01*
X322435238Y-132807574D01*
X322490054Y-132842799D01*
X322561767Y-132889968D01*
X322646427Y-132946503D01*
X322740084Y-133009820D01*
X323074508Y-133237226D01*
X323632036Y-133007394D01*
X323707585Y-132606648D01*
X323783134Y-132205901D01*
X324617255Y-132205901D01*
X324692803Y-132606648D01*
G36*
X324692803Y-132606648D02*
G01*
X324768352Y-133007394D01*
X325047116Y-133122310D01*
X325325881Y-133237226D01*
X325660305Y-133009820D01*
X325726495Y-132964989D01*
X325814242Y-132906143D01*
X325890212Y-132855882D01*
X325950460Y-132816787D01*
X325991040Y-132791437D01*
X326008006Y-132782414D01*
X326018426Y-132788831D01*
X326049574Y-132815719D01*
X326096710Y-132859846D01*
X326155842Y-132917159D01*
X326222975Y-132983607D01*
X326294115Y-133055137D01*
X326365268Y-133127698D01*
X326432441Y-133197239D01*
X326491639Y-133259707D01*
X326538868Y-133311050D01*
X326570135Y-133347217D01*
X326581444Y-133364155D01*
X326578813Y-133371433D01*
X326560597Y-133403896D01*
X326527331Y-133457321D01*
X326481713Y-133527521D01*
X326426439Y-133610308D01*
X326364207Y-133701493D01*
X326330055Y-133751224D01*
X326271306Y-133837803D01*
X326220937Y-133913363D01*
X326181635Y-133973805D01*
X326156084Y-134015033D01*
X326146971Y-134032948D01*
X326147120Y-134033941D01*
X326155160Y-134056652D01*
X326173603Y-134103027D01*
X326199880Y-134167009D01*
X326231420Y-134242540D01*
X326265651Y-134323561D01*
X326300003Y-134404015D01*
X326331904Y-134477844D01*
X326358784Y-134538990D01*
X326378071Y-134581394D01*
X326387195Y-134598998D01*
X326392594Y-134600560D01*
X326425395Y-134607603D01*
X326483855Y-134619271D01*
X326563295Y-134634652D01*
X326659035Y-134652832D01*
X326766395Y-134672902D01*
X326822980Y-134683543D01*
X326926838Y-134703845D01*
X327017646Y-134722594D01*
X327090440Y-134738714D01*
X327140257Y-134751128D01*
X327162135Y-134758758D01*
X327166065Y-134766322D01*
X327172583Y-134803281D01*
X327177705Y-134864837D01*
X327181433Y-134945199D01*
X327183772Y-135038575D01*
X327184726Y-135139173D01*
X327184298Y-135241200D01*
X327182494Y-135338865D01*
X327179315Y-135426376D01*
X327174768Y-135497941D01*
X327168855Y-135547768D01*
X327161580Y-135570065D01*
X327157166Y-135572580D01*
X327124243Y-135583368D01*
X327067131Y-135597641D01*
X326992431Y-135613836D01*
X326906745Y-135630391D01*
X326877834Y-135635664D01*
X326744304Y-135660185D01*
X326639362Y-135679893D01*
X326559369Y-135695603D01*
X326500688Y-135708134D01*
X326459681Y-135718301D01*
X326432710Y-135726923D01*
X326416137Y-135734817D01*
X326406324Y-135742799D01*
X326405184Y-135744139D01*
X326389137Y-135772069D01*
X326365392Y-135823176D01*
X326336250Y-135891464D01*
X326304012Y-135970938D01*
X326270979Y-136055601D01*
X326239453Y-136139459D01*
X326211735Y-136216516D01*
X326190126Y-136280776D01*
X326176928Y-136326244D01*
X326174442Y-136346924D01*
X326176104Y-136349607D01*
X326193314Y-136375556D01*
X326225679Y-136423417D01*
X326270199Y-136488782D01*
X326323872Y-136567242D01*
X326383698Y-136654387D01*
X326400116Y-136678364D01*
X326457852Y-136764367D01*
X326507749Y-136841283D01*
X326546958Y-136904549D01*
X326572632Y-136949604D01*
X326581923Y-136971887D01*
X326579921Y-136977745D01*
X326559052Y-137006613D01*
X326517880Y-137053752D01*
X326459352Y-137115992D01*
X326386416Y-137190159D01*
X326302022Y-137273080D01*
X326253783Y-137319493D01*
X326177511Y-137391780D01*
X326110754Y-137453696D01*
X326057095Y-137501983D01*
X326020119Y-137533379D01*
X326003412Y-137544626D01*
X325991934Y-137540456D01*
X325956594Y-137520735D01*
X325905272Y-137488482D01*
X325844662Y-137447783D01*
X325801569Y-137418083D01*
X325715536Y-137359102D01*
X325623728Y-137296462D01*
X325539872Y-137239541D01*
X325375602Y-137128431D01*
X325237709Y-137202988D01*
X325205239Y-137220197D01*
X325146191Y-137249632D01*
X325100528Y-137269955D01*
X325076123Y-137277532D01*
X325068137Y-137267802D01*
X325048305Y-137230751D01*
X325019011Y-137169665D01*
X324981887Y-137088421D01*
X324938562Y-136990895D01*
X324890667Y-136880963D01*
X324839830Y-136762504D01*
X324787682Y-136639393D01*
X324735853Y-136515507D01*
X324685973Y-136394722D01*
X324639672Y-136280916D01*
X324598580Y-136177965D01*
X324564327Y-136089745D01*
X324538542Y-136020134D01*
X324522857Y-135973008D01*
X324518900Y-135952244D01*
X324519168Y-135951637D01*
X324537599Y-135932442D01*
X324576151Y-135902378D01*
X324626865Y-135867681D01*
X324642873Y-135857086D01*
X324764674Y-135756570D01*
X324865478Y-135636849D01*
X324942900Y-135502906D01*
X324994553Y-135359725D01*
X325018049Y-135212288D01*
X325011003Y-135065579D01*
X324982459Y-134935092D01*
X324931208Y-134803329D01*
X324856494Y-134685778D01*
X324753963Y-134574114D01*
X324713676Y-134538441D01*
X324583438Y-134450552D01*
X324442746Y-134391360D01*
X324295676Y-134360337D01*
X324146307Y-134356951D01*
X323998716Y-134380674D01*
X323856978Y-134430976D01*
X323725172Y-134507327D01*
X323607375Y-134609197D01*
X323507663Y-134736056D01*
X323488492Y-134767472D01*
X323423332Y-134911064D01*
X323388726Y-135060589D01*
X323383767Y-135212177D01*
X323407550Y-135361954D01*
X323459168Y-135506048D01*
X323537715Y-135640587D01*
X323642285Y-135761697D01*
X323771971Y-135865506D01*
X323776183Y-135868304D01*
X323826359Y-135903662D01*
X323863966Y-135933725D01*
X323881143Y-135952244D01*
X323878975Y-135966762D01*
X323865500Y-136009037D01*
X323841607Y-136074558D01*
X323808924Y-136159449D01*
X323769082Y-136259831D01*
X323723709Y-136371829D01*
X323674436Y-136491563D01*
X323622890Y-136615156D01*
X323570703Y-136738731D01*
X323519502Y-136858411D01*
X323470917Y-136970317D01*
X323426579Y-137070572D01*
X323388115Y-137155299D01*
X323357155Y-137220619D01*
X323335328Y-137262656D01*
X323324265Y-137277532D01*
X323315065Y-137275518D01*
X323278920Y-137261038D01*
X323225500Y-137235650D01*
X323162680Y-137202988D01*
X323024787Y-137128431D01*
X322860517Y-137239541D01*
X322811985Y-137272442D01*
X322721715Y-137333917D01*
X322631720Y-137395490D01*
X322555726Y-137447783D01*
X322513786Y-137476281D01*
X322459275Y-137511688D01*
X322418858Y-137535927D01*
X322399117Y-137544914D01*
X322390636Y-137541098D01*
X322359978Y-137517728D01*
X322312717Y-137476582D01*
X322252965Y-137421707D01*
X322184837Y-137357149D01*
X322112445Y-137286957D01*
X322039905Y-137215178D01*
X321971329Y-137145858D01*
X321910831Y-137083045D01*
X321862525Y-137030786D01*
X321830525Y-136993129D01*
X321818944Y-136974120D01*
X321819612Y-136970503D01*
X321833396Y-136941065D01*
X321862841Y-136890134D01*
X321905102Y-136822310D01*
X321957334Y-136742195D01*
X322016691Y-136654387D01*
X322033338Y-136630168D01*
X322091793Y-136544940D01*
X322143282Y-136469593D01*
X322184805Y-136408535D01*
X322213360Y-136366176D01*
X322225947Y-136346924D01*
X322226256Y-136346099D01*
X322222542Y-136322545D01*
X322208356Y-136274831D01*
X322186000Y-136208951D01*
X322157776Y-136130902D01*
X322125984Y-136046679D01*
X322092927Y-135962277D01*
X322060905Y-135883693D01*
X322032220Y-135816922D01*
X322009172Y-135767958D01*
X321994064Y-135742799D01*
X321992551Y-135741237D01*
X321981734Y-135733335D01*
X321963464Y-135725366D01*
X321934105Y-135716513D01*
X321890019Y-135705959D01*
X321827567Y-135692887D01*
X321743113Y-135676480D01*
X321633018Y-135655920D01*
X321493644Y-135630391D01*
X321464736Y-135625018D01*
X321381926Y-135608409D01*
X321312267Y-135592672D01*
X321262361Y-135579370D01*
X321238808Y-135570065D01*
X321234868Y-135562302D01*
X321228299Y-135525014D01*
X321223093Y-135463197D01*
X321219255Y-135382644D01*
X321216788Y-135289147D01*
X321215696Y-135188498D01*
X321215984Y-135086489D01*
X321217656Y-134988911D01*
X321220714Y-134901557D01*
X321225164Y-134830219D01*
X321231009Y-134780689D01*
X321238253Y-134758758D01*
X321245650Y-134755518D01*
X321282445Y-134745305D01*
X321344640Y-134730861D01*
X321427272Y-134713261D01*
X321525377Y-134693582D01*
X321633993Y-134672902D01*
X321693299Y-134661853D01*
X321794947Y-134642693D01*
X321882439Y-134625916D01*
X321951098Y-134612433D01*
X321996242Y-134603156D01*
X322013193Y-134598998D01*
X322013830Y-134598141D01*
X322024626Y-134576365D01*
X322045206Y-134530743D01*
X322072998Y-134467330D01*
X322105431Y-134392179D01*
X322139931Y-134311342D01*
X322173927Y-134230871D01*
X322204846Y-134156821D01*
X322230115Y-134095244D01*
X322247164Y-134052193D01*
X322253418Y-134033722D01*
X322250659Y-134027222D01*
X322232299Y-133996294D01*
X322198995Y-133944235D01*
X322153423Y-133875131D01*
X322098260Y-133793065D01*
X322036181Y-133702124D01*
X322002122Y-133652320D01*
X321943346Y-133565003D01*
X321892952Y-133488370D01*
X321853629Y-133426603D01*
X321828063Y-133383878D01*
X321818944Y-133364377D01*
X321825281Y-133353799D01*
X321851786Y-133322191D01*
X321895269Y-133274355D01*
X321951738Y-133214345D01*
X322017202Y-133146214D01*
X322087670Y-133074017D01*
X322159150Y-133001805D01*
X322227649Y-132933634D01*
X322289178Y-132873555D01*
X322339743Y-132825623D01*
X322375354Y-132793892D01*
X322392019Y-132782414D01*
X322401269Y-132786877D01*
X322435238Y-132807574D01*
X322490054Y-132842799D01*
X322561767Y-132889968D01*
X322646427Y-132946503D01*
X322740084Y-133009820D01*
X323074508Y-133237226D01*
X323632036Y-133007394D01*
X323707585Y-132606648D01*
X323783134Y-132205901D01*
X324617255Y-132205901D01*
X324692803Y-132606648D01*
G37*
D12*
X310145375Y-138365584D02*
X313145375Y-138365584D01*
X310145375Y-140165584D02*
X310145375Y-138365584D01*
X313145375Y-138365584D02*
X313145375Y-140165584D01*
X313145375Y-140165584D02*
X310145375Y-140165584D01*
X307286796Y-139265584D02*
G75*
G02*
X307003954Y-139265584I-141421J0D01*
G01*
X307003954Y-139265584D02*
G75*
G02*
X307286796Y-139265584I141421J0D01*
G01*
X307386796Y-138965584D02*
G75*
G02*
X307103954Y-138965584I-141421J0D01*
G01*
X307103954Y-138965584D02*
G75*
G02*
X307386796Y-138965584I141421J0D01*
G01*
X307386796Y-139565584D02*
G75*
G02*
X307103954Y-139565584I-141421J0D01*
G01*
X307103954Y-139565584D02*
G75*
G02*
X307386796Y-139565584I141421J0D01*
G01*
X307586796Y-138765584D02*
G75*
G02*
X307303954Y-138765584I-141421J0D01*
G01*
X307303954Y-138765584D02*
G75*
G02*
X307586796Y-138765584I141421J0D01*
G01*
X307586796Y-139765584D02*
G75*
G02*
X307303954Y-139765584I-141421J0D01*
G01*
X307303954Y-139765584D02*
G75*
G02*
X307586796Y-139765584I141421J0D01*
G01*
X307886796Y-138665584D02*
G75*
G02*
X307603954Y-138665584I-141421J0D01*
G01*
X307603954Y-138665584D02*
G75*
G02*
X307886796Y-138665584I141421J0D01*
G01*
D13*
X308506952Y-139265584D02*
G75*
G02*
X306983798Y-139265584I-761577J0D01*
G01*
X306983798Y-139265584D02*
G75*
G02*
X308506952Y-139265584I761577J0D01*
G01*
D14*
X307968982Y-139265584D02*
G75*
G02*
X307521768Y-139265584I-223607J0D01*
G01*
X307521768Y-139265584D02*
G75*
G02*
X307968982Y-139265584I223607J0D01*
G01*
D12*
X307886796Y-139865584D02*
G75*
G02*
X307603954Y-139865584I-141421J0D01*
G01*
X307603954Y-139865584D02*
G75*
G02*
X307886796Y-139865584I141421J0D01*
G01*
X308186796Y-138765584D02*
G75*
G02*
X307903954Y-138765584I-141421J0D01*
G01*
X307903954Y-138765584D02*
G75*
G02*
X308186796Y-138765584I141421J0D01*
G01*
X308186796Y-139765584D02*
G75*
G02*
X307903954Y-139765584I-141421J0D01*
G01*
X307903954Y-139765584D02*
G75*
G02*
X308186796Y-139765584I141421J0D01*
G01*
X308386796Y-138965584D02*
G75*
G02*
X308103954Y-138965584I-141421J0D01*
G01*
X308103954Y-138965584D02*
G75*
G02*
X308386796Y-138965584I141421J0D01*
G01*
X308386796Y-139565584D02*
G75*
G02*
X308103954Y-139565584I-141421J0D01*
G01*
X308103954Y-139565584D02*
G75*
G02*
X308386796Y-139565584I141421J0D01*
G01*
X308486796Y-139265584D02*
G75*
G02*
X308203954Y-139265584I-141421J0D01*
G01*
X308203954Y-139265584D02*
G75*
G02*
X308486796Y-139265584I141421J0D01*
G01*
D15*
X313145375Y-140165584D02*
X310145375Y-140165584D01*
X310145375Y-139665584D01*
X313145375Y-139665584D01*
X313145375Y-140165584D01*
G36*
X313145375Y-140165584D02*
G01*
X310145375Y-140165584D01*
X310145375Y-139665584D01*
X313145375Y-139665584D01*
X313145375Y-140165584D01*
G37*
X318645375Y-139765584D02*
X318645375Y-140165584D01*
X317845375Y-140165584D01*
X317845375Y-139765584D01*
X318145375Y-138865584D01*
X318345375Y-138865584D01*
X318645375Y-139765584D01*
G36*
X318645375Y-139765584D02*
G01*
X318645375Y-140165584D01*
X317845375Y-140165584D01*
X317845375Y-139765584D01*
X318145375Y-138865584D01*
X318345375Y-138865584D01*
X318645375Y-139765584D01*
G37*
D12*
X309245375Y-140165584D02*
X307745375Y-140165584D01*
X307745375Y-140065584D01*
X308045375Y-140065584D01*
X308345375Y-139865584D01*
X308545375Y-139465584D01*
X308545375Y-139065584D01*
X308345375Y-138665584D01*
X307945375Y-138465584D01*
X307745375Y-138465584D01*
X307745375Y-138365584D01*
X309245375Y-138365584D01*
X309245375Y-140165584D01*
G36*
X309245375Y-140165584D02*
G01*
X307745375Y-140165584D01*
X307745375Y-140065584D01*
X308045375Y-140065584D01*
X308345375Y-139865584D01*
X308545375Y-139465584D01*
X308545375Y-139065584D01*
X308345375Y-138665584D01*
X307945375Y-138465584D01*
X307745375Y-138465584D01*
X307745375Y-138365584D01*
X309245375Y-138365584D01*
X309245375Y-140165584D01*
G37*
X307745375Y-138465584D02*
X307445375Y-138465584D01*
X307145375Y-138665584D01*
X306945375Y-139065584D01*
X306945375Y-139465584D01*
X307145375Y-139865584D01*
X307545375Y-140065584D01*
X307745375Y-140065584D01*
X307745375Y-140165584D01*
X306245375Y-140165584D01*
X306245375Y-138365584D01*
X307745375Y-138365584D01*
X307745375Y-138465584D01*
G36*
X307745375Y-138465584D02*
G01*
X307445375Y-138465584D01*
X307145375Y-138665584D01*
X306945375Y-139065584D01*
X306945375Y-139465584D01*
X307145375Y-139865584D01*
X307545375Y-140065584D01*
X307745375Y-140065584D01*
X307745375Y-140165584D01*
X306245375Y-140165584D01*
X306245375Y-138365584D01*
X307745375Y-138365584D01*
X307745375Y-138465584D01*
G37*
D16*
X211963000Y-125095000D03*
X188087000Y-125095000D03*
D17*
X211963000Y-140335000D03*
X188087000Y-140335000D03*
D16*
X200025000Y-133350000D03*
D18*
X196215000Y-130810000D03*
X202565000Y-128270000D03*
D16*
X116713000Y-125095000D03*
X92837000Y-125095000D03*
D17*
X116713000Y-140335000D03*
X92837000Y-140335000D03*
D16*
X104775000Y-133350000D03*
D18*
X100965000Y-130810000D03*
X107315000Y-128270000D03*
D19*
X-21907500Y-125730000D03*
D20*
X-21907500Y-118110000D03*
D21*
X147320000Y-114300000D03*
D16*
X152400000Y-114300000D03*
D21*
X157480000Y-114300000D03*
D18*
X154940000Y-109220000D03*
X148590000Y-111760000D03*
D19*
X318135000Y-115252500D03*
D20*
X318135000Y-107632500D03*
D21*
X128270000Y-114300000D03*
D16*
X133350000Y-114300000D03*
D21*
X138430000Y-114300000D03*
D18*
X135890000Y-109220000D03*
X129540000Y-111760000D03*
D21*
X90170000Y-114300000D03*
D16*
X95250000Y-114300000D03*
D21*
X100330000Y-114300000D03*
D18*
X97790000Y-109220000D03*
X91440000Y-111760000D03*
D21*
X223520000Y-133350000D03*
D16*
X228600000Y-133350000D03*
D21*
X233680000Y-133350000D03*
D18*
X231140000Y-128270000D03*
X224790000Y-130810000D03*
D19*
X-10477500Y-125730000D03*
D20*
X-10477500Y-118110000D03*
D19*
X309562500Y-62865000D03*
D20*
X309562500Y-55245000D03*
D21*
X223520000Y-114300000D03*
D16*
X228600000Y-114300000D03*
D21*
X233680000Y-114300000D03*
D18*
X231140000Y-109220000D03*
X224790000Y-111760000D03*
D19*
X-13335000Y-104775000D03*
D20*
X-13335000Y-97155000D03*
D19*
X312420000Y-125730000D03*
D20*
X312420000Y-118110000D03*
D21*
X13970000Y-95250000D03*
D16*
X19050000Y-95250000D03*
D21*
X24130000Y-95250000D03*
D18*
X21590000Y-90170000D03*
X15240000Y-92710000D03*
D19*
X-10477500Y-104775000D03*
D20*
X-10477500Y-97155000D03*
D19*
X952500Y-73342500D03*
D20*
X952500Y-65722500D03*
D22*
X952500Y-56435000D03*
X952500Y-51435000D03*
D19*
X326707500Y-115252500D03*
D20*
X326707500Y-107632500D03*
D19*
X-4762500Y-94297500D03*
D20*
X-4762500Y-86677500D03*
D19*
X-10477500Y-115252500D03*
D20*
X-10477500Y-107632500D03*
D19*
X-19050000Y-125730000D03*
D20*
X-19050000Y-118110000D03*
D21*
X185420000Y-133350000D03*
D16*
X190500000Y-133350000D03*
D21*
X195580000Y-133350000D03*
D18*
X193040000Y-128270000D03*
X186690000Y-130810000D03*
D19*
X306705000Y-104775000D03*
D20*
X306705000Y-97155000D03*
D19*
X303847500Y-73342500D03*
D20*
X303847500Y-65722500D03*
D22*
X312777500Y-128587500D03*
X317777500Y-128587500D03*
D21*
X71120000Y-95250000D03*
D16*
X76200000Y-95250000D03*
D21*
X81280000Y-95250000D03*
D18*
X78740000Y-90170000D03*
X72390000Y-92710000D03*
D22*
X327660000Y-60960000D03*
X325160000Y-60960000D03*
D21*
X52070000Y-95250000D03*
D16*
X57150000Y-95250000D03*
D21*
X62230000Y-95250000D03*
D18*
X59690000Y-90170000D03*
X53340000Y-92710000D03*
D19*
X952500Y-104775000D03*
D20*
X952500Y-97155000D03*
D19*
X-16192500Y-125730000D03*
D20*
X-16192500Y-118110000D03*
D23*
X-22860000Y-59055000D03*
D24*
X-22860000Y-66675000D03*
D19*
X323850000Y-115252500D03*
D20*
X323850000Y-107632500D03*
D21*
X261620000Y-57150000D03*
D16*
X266700000Y-57150000D03*
D21*
X271780000Y-57150000D03*
D18*
X269240000Y-52070000D03*
X262890000Y-54610000D03*
D21*
X128270000Y-76200000D03*
D16*
X133350000Y-76200000D03*
D21*
X138430000Y-76200000D03*
D18*
X135890000Y-71120000D03*
X129540000Y-73660000D03*
D21*
X185420000Y-95250000D03*
D16*
X190500000Y-95250000D03*
D21*
X195580000Y-95250000D03*
D18*
X193040000Y-90170000D03*
X186690000Y-92710000D03*
D21*
X185420000Y-114300000D03*
D16*
X190500000Y-114300000D03*
D21*
X195580000Y-114300000D03*
D18*
X193040000Y-109220000D03*
X186690000Y-111760000D03*
D19*
X315277500Y-125730000D03*
D20*
X315277500Y-118110000D03*
D19*
X-4762500Y-83820000D03*
D20*
X-4762500Y-76200000D03*
D21*
X109220000Y-57150000D03*
D16*
X114300000Y-57150000D03*
D21*
X119380000Y-57150000D03*
D18*
X116840000Y-52070000D03*
X110490000Y-54610000D03*
D19*
X306705000Y-125730000D03*
D20*
X306705000Y-118110000D03*
D21*
X52070000Y-133350000D03*
D16*
X57150000Y-133350000D03*
D21*
X62230000Y-133350000D03*
D18*
X59690000Y-128270000D03*
X53340000Y-130810000D03*
D21*
X166370000Y-133350000D03*
D16*
X171450000Y-133350000D03*
D21*
X176530000Y-133350000D03*
D18*
X173990000Y-128270000D03*
X167640000Y-130810000D03*
D22*
X-4762500Y-56435000D03*
X-4762500Y-51435000D03*
D21*
X13970000Y-133350000D03*
D16*
X19050000Y-133350000D03*
D21*
X24130000Y-133350000D03*
D18*
X21590000Y-128270000D03*
X15240000Y-130810000D03*
D21*
X242570000Y-133350000D03*
D16*
X247650000Y-133350000D03*
D21*
X252730000Y-133350000D03*
D18*
X250190000Y-128270000D03*
X243840000Y-130810000D03*
D21*
X280670000Y-57150000D03*
D16*
X285750000Y-57150000D03*
D21*
X290830000Y-57150000D03*
D18*
X288290000Y-52070000D03*
X281940000Y-54610000D03*
D19*
X-13335000Y-125730000D03*
D20*
X-13335000Y-118110000D03*
D21*
X280670000Y-95250000D03*
D16*
X285750000Y-95250000D03*
D21*
X290830000Y-95250000D03*
D18*
X288290000Y-90170000D03*
X281940000Y-92710000D03*
D19*
X-7620000Y-115252500D03*
D20*
X-7620000Y-107632500D03*
D22*
X-4405000Y-60007500D03*
X595000Y-60007500D03*
D21*
X242570000Y-57150000D03*
D16*
X247650000Y-57150000D03*
D21*
X252730000Y-57150000D03*
D18*
X250190000Y-52070000D03*
X243840000Y-54610000D03*
D25*
X326707500Y-71030000D03*
X326707500Y-66150000D03*
D21*
X128270000Y-133350000D03*
D16*
X133350000Y-133350000D03*
D21*
X138430000Y-133350000D03*
D18*
X135890000Y-128270000D03*
X129540000Y-130810000D03*
D19*
X-13335000Y-115252500D03*
D20*
X-13335000Y-107632500D03*
D19*
X-4762500Y-104775000D03*
D20*
X-4762500Y-97155000D03*
D19*
X303847500Y-115252500D03*
D20*
X303847500Y-107632500D03*
D21*
X90170000Y-95250000D03*
D16*
X95250000Y-95250000D03*
D21*
X100330000Y-95250000D03*
D18*
X97790000Y-90170000D03*
X91440000Y-92710000D03*
D21*
X185420000Y-57150000D03*
D16*
X190500000Y-57150000D03*
D21*
X195580000Y-57150000D03*
D18*
X193040000Y-52070000D03*
X186690000Y-54610000D03*
D21*
X147320000Y-76200000D03*
D16*
X152400000Y-76200000D03*
D21*
X157480000Y-76200000D03*
D18*
X154940000Y-71120000D03*
X148590000Y-73660000D03*
D19*
X-21907500Y-115252500D03*
D20*
X-21907500Y-107632500D03*
D19*
X303847500Y-125730000D03*
D20*
X303847500Y-118110000D03*
D22*
X303847500Y-51435000D03*
X308847500Y-51435000D03*
D19*
X309562500Y-115252500D03*
D20*
X309562500Y-107632500D03*
D21*
X242570000Y-76200000D03*
D16*
X247650000Y-76200000D03*
D21*
X252730000Y-76200000D03*
D18*
X250190000Y-71120000D03*
X243840000Y-73660000D03*
D19*
X306705000Y-73342500D03*
D20*
X306705000Y-65722500D03*
D22*
X311467500Y-51435000D03*
X316467500Y-51435000D03*
D23*
X-22860000Y-87630000D03*
D24*
X-22860000Y-80010000D03*
D21*
X33020000Y-57150000D03*
D16*
X38100000Y-57150000D03*
D21*
X43180000Y-57150000D03*
D18*
X40640000Y-52070000D03*
X34290000Y-54610000D03*
D19*
X952500Y-125730000D03*
D20*
X952500Y-118110000D03*
D19*
X309562500Y-94297500D03*
D20*
X309562500Y-86677500D03*
D21*
X147320000Y-95250000D03*
D16*
X152400000Y-95250000D03*
D21*
X157480000Y-95250000D03*
D18*
X154940000Y-90170000D03*
X148590000Y-92710000D03*
D21*
X109220000Y-114300000D03*
D16*
X114300000Y-114300000D03*
D21*
X119380000Y-114300000D03*
D18*
X116840000Y-109220000D03*
X110490000Y-111760000D03*
D21*
X33020000Y-114300000D03*
D16*
X38100000Y-114300000D03*
D21*
X43180000Y-114300000D03*
D18*
X40640000Y-109220000D03*
X34290000Y-111760000D03*
D19*
X-16192500Y-80010000D03*
D20*
X-8572500Y-80010000D03*
D19*
X303847500Y-83820000D03*
D20*
X303847500Y-76200000D03*
D21*
X185420000Y-76200000D03*
D16*
X190500000Y-76200000D03*
D21*
X195580000Y-76200000D03*
D18*
X193040000Y-71120000D03*
X186690000Y-73660000D03*
D21*
X52070000Y-57150000D03*
D16*
X57150000Y-57150000D03*
D21*
X62230000Y-57150000D03*
D18*
X59690000Y-52070000D03*
X53340000Y-54610000D03*
D21*
X166370000Y-95250000D03*
D16*
X171450000Y-95250000D03*
D21*
X176530000Y-95250000D03*
D18*
X173990000Y-90170000D03*
X167640000Y-92710000D03*
D19*
X952500Y-115252500D03*
D20*
X952500Y-107632500D03*
D19*
X-1905000Y-104775000D03*
D20*
X-1905000Y-97155000D03*
D19*
X-7620000Y-104775000D03*
D20*
X-7620000Y-97155000D03*
D23*
X-20002500Y-87630000D03*
D24*
X-20002500Y-80010000D03*
D21*
X90170000Y-133350000D03*
D16*
X95250000Y-133350000D03*
D21*
X100330000Y-133350000D03*
D18*
X97790000Y-128270000D03*
X91440000Y-130810000D03*
D21*
X280670000Y-76200000D03*
D16*
X285750000Y-76200000D03*
D21*
X290830000Y-76200000D03*
D18*
X288290000Y-71120000D03*
X281940000Y-73660000D03*
D26*
X-9458750Y-52227500D03*
X-15238750Y-52227500D03*
D27*
X-8028750Y-52757500D03*
D28*
X-8028750Y-48577500D03*
D27*
X-16668750Y-52757500D03*
D28*
X-16668750Y-48577500D03*
D29*
X-12382500Y-90170000D03*
D30*
X-12382500Y-87630000D03*
D19*
X-16192500Y-104775000D03*
D20*
X-16192500Y-97155000D03*
D19*
X303847500Y-94297500D03*
D20*
X303847500Y-86677500D03*
D21*
X166370000Y-76200000D03*
D16*
X171450000Y-76200000D03*
D21*
X176530000Y-76200000D03*
D18*
X173990000Y-71120000D03*
X167640000Y-73660000D03*
D21*
X128270000Y-57150000D03*
D16*
X133350000Y-57150000D03*
D21*
X138430000Y-57150000D03*
D18*
X135890000Y-52070000D03*
X129540000Y-54610000D03*
D19*
X320992500Y-115252500D03*
D20*
X320992500Y-107632500D03*
D21*
X13970000Y-114300000D03*
D16*
X19050000Y-114300000D03*
D21*
X24130000Y-114300000D03*
D18*
X21590000Y-109220000D03*
X15240000Y-111760000D03*
D19*
X318135000Y-125730000D03*
D20*
X318135000Y-118110000D03*
D19*
X306705000Y-94297500D03*
D20*
X306705000Y-86677500D03*
D19*
X952500Y-94297500D03*
D20*
X952500Y-86677500D03*
D19*
X-1905000Y-83820000D03*
D20*
X-1905000Y-76200000D03*
D19*
X312420000Y-104775000D03*
D20*
X312420000Y-97155000D03*
D22*
X327660000Y-76200000D03*
X325160000Y-76200000D03*
D21*
X109220000Y-133350000D03*
D16*
X114300000Y-133350000D03*
D21*
X119380000Y-133350000D03*
D18*
X116840000Y-128270000D03*
X110490000Y-130810000D03*
D21*
X204470000Y-95250000D03*
D16*
X209550000Y-95250000D03*
D21*
X214630000Y-95250000D03*
D18*
X212090000Y-90170000D03*
X205740000Y-92710000D03*
D19*
X-7620000Y-125730000D03*
D20*
X-7620000Y-118110000D03*
D21*
X223520000Y-95250000D03*
D16*
X228600000Y-95250000D03*
D21*
X233680000Y-95250000D03*
D18*
X231140000Y-90170000D03*
X224790000Y-92710000D03*
D19*
X323850000Y-104775000D03*
D20*
X323850000Y-97155000D03*
D19*
X312420000Y-115252500D03*
D20*
X312420000Y-107632500D03*
D22*
X-12977500Y-128587500D03*
X-7977500Y-128587500D03*
D19*
X318135000Y-104775000D03*
D20*
X318135000Y-97155000D03*
D21*
X204470000Y-114300000D03*
D16*
X209550000Y-114300000D03*
D21*
X214630000Y-114300000D03*
D18*
X212090000Y-109220000D03*
X205740000Y-111760000D03*
D19*
X952500Y-83820000D03*
D20*
X952500Y-76200000D03*
D19*
X-1905000Y-94297500D03*
D20*
X-1905000Y-86677500D03*
D19*
X315277500Y-104775000D03*
D20*
X315277500Y-97155000D03*
D21*
X13970000Y-57150000D03*
D16*
X19050000Y-57150000D03*
D21*
X24130000Y-57150000D03*
D18*
X21590000Y-52070000D03*
X15240000Y-54610000D03*
D19*
X-1905000Y-125730000D03*
D20*
X-1905000Y-118110000D03*
D19*
X-19050000Y-115252500D03*
D20*
X-19050000Y-107632500D03*
D19*
X306705000Y-62865000D03*
D20*
X306705000Y-55245000D03*
D21*
X52070000Y-114300000D03*
D16*
X57150000Y-114300000D03*
D21*
X62230000Y-114300000D03*
D18*
X59690000Y-109220000D03*
X53340000Y-111760000D03*
D22*
X321350000Y-128587500D03*
X326350000Y-128587500D03*
D19*
X303847500Y-104775000D03*
D20*
X303847500Y-97155000D03*
D19*
X-1905000Y-115252500D03*
D20*
X-1905000Y-107632500D03*
D23*
X320040000Y-94297500D03*
D24*
X327660000Y-94297500D03*
D19*
X315277500Y-115252500D03*
D20*
X315277500Y-107632500D03*
D19*
X309562500Y-73342500D03*
D20*
X309562500Y-65722500D03*
D19*
X303847500Y-62865000D03*
D20*
X303847500Y-55245000D03*
D21*
X223520000Y-57150000D03*
D16*
X228600000Y-57150000D03*
D21*
X233680000Y-57150000D03*
D18*
X231140000Y-52070000D03*
X224790000Y-54610000D03*
D21*
X261620000Y-133350000D03*
D16*
X266700000Y-133350000D03*
D21*
X271780000Y-133350000D03*
D18*
X269240000Y-128270000D03*
X262890000Y-130810000D03*
D21*
X71120000Y-114300000D03*
D16*
X76200000Y-114300000D03*
D21*
X81280000Y-114300000D03*
D18*
X78740000Y-109220000D03*
X72390000Y-111760000D03*
D19*
X309562500Y-125730000D03*
D20*
X309562500Y-118110000D03*
D21*
X204470000Y-76200000D03*
D16*
X209550000Y-76200000D03*
D21*
X214630000Y-76200000D03*
D18*
X212090000Y-71120000D03*
X205740000Y-73660000D03*
D21*
X204470000Y-133350000D03*
D16*
X209550000Y-133350000D03*
D21*
X214630000Y-133350000D03*
D18*
X212090000Y-128270000D03*
X205740000Y-130810000D03*
D21*
X261620000Y-114300000D03*
D16*
X266700000Y-114300000D03*
D21*
X271780000Y-114300000D03*
D18*
X269240000Y-109220000D03*
X262890000Y-111760000D03*
D21*
X166370000Y-57150000D03*
D16*
X171450000Y-57150000D03*
D21*
X176530000Y-57150000D03*
D18*
X173990000Y-52070000D03*
X167640000Y-54610000D03*
D21*
X204470000Y-57150000D03*
D16*
X209550000Y-57150000D03*
D21*
X214630000Y-57150000D03*
D18*
X212090000Y-52070000D03*
X205740000Y-54610000D03*
D19*
X306705000Y-115252500D03*
D20*
X306705000Y-107632500D03*
D21*
X147320000Y-57150000D03*
D16*
X152400000Y-57150000D03*
D21*
X157480000Y-57150000D03*
D18*
X154940000Y-52070000D03*
X148590000Y-54610000D03*
D21*
X128270000Y-95250000D03*
D16*
X133350000Y-95250000D03*
D21*
X138430000Y-95250000D03*
D18*
X135890000Y-90170000D03*
X129540000Y-92710000D03*
D21*
X166370000Y-114300000D03*
D16*
X171450000Y-114300000D03*
D21*
X176530000Y-114300000D03*
D18*
X173990000Y-109220000D03*
X167640000Y-111760000D03*
D21*
X33020000Y-76200000D03*
D16*
X38100000Y-76200000D03*
D21*
X43180000Y-76200000D03*
D18*
X40640000Y-71120000D03*
X34290000Y-73660000D03*
D22*
X-21550000Y-128587500D03*
X-16550000Y-128587500D03*
D21*
X52070000Y-76200000D03*
D16*
X57150000Y-76200000D03*
D21*
X62230000Y-76200000D03*
D18*
X59690000Y-71120000D03*
X53340000Y-73660000D03*
D19*
X323850000Y-125730000D03*
D20*
X323850000Y-118110000D03*
D19*
X320992500Y-104775000D03*
D20*
X320992500Y-97155000D03*
D18*
X154940000Y-128270000D03*
X148590000Y-130810000D03*
D19*
X-4762500Y-125730000D03*
D20*
X-4762500Y-118110000D03*
D21*
X33020000Y-133350000D03*
D16*
X38100000Y-133350000D03*
D21*
X43180000Y-133350000D03*
D18*
X40640000Y-128270000D03*
X34290000Y-130810000D03*
D31*
X-15101292Y-61069949D03*
X-10001292Y-62269949D03*
D23*
X-22860000Y-77152500D03*
D24*
X-22860000Y-69532500D03*
D22*
X304205000Y-128587500D03*
X309205000Y-128587500D03*
D21*
X242570000Y-95250000D03*
D16*
X247650000Y-95250000D03*
D21*
X252730000Y-95250000D03*
D18*
X250190000Y-90170000D03*
X243840000Y-92710000D03*
D32*
X325432500Y-85105000D03*
D33*
X327972500Y-85105000D03*
X325432500Y-87645000D03*
X327972500Y-87645000D03*
X325432500Y-90185000D03*
X327972500Y-90185000D03*
D21*
X90170000Y-57150000D03*
D16*
X95250000Y-57150000D03*
D21*
X100330000Y-57150000D03*
D18*
X97790000Y-52070000D03*
X91440000Y-54610000D03*
D19*
X-4762500Y-73342500D03*
D20*
X-4762500Y-65722500D03*
D23*
X-20002500Y-77152500D03*
D24*
X-20002500Y-69532500D03*
D19*
X-16192500Y-77152500D03*
D20*
X-8572500Y-77152500D03*
D21*
X261620000Y-95250000D03*
D16*
X266700000Y-95250000D03*
D21*
X271780000Y-95250000D03*
D18*
X269240000Y-90170000D03*
X262890000Y-92710000D03*
D21*
X13970000Y-76200000D03*
D16*
X19050000Y-76200000D03*
D21*
X24130000Y-76200000D03*
D18*
X21590000Y-71120000D03*
X15240000Y-73660000D03*
D19*
X326707500Y-104775000D03*
D20*
X326707500Y-97155000D03*
D19*
X326707500Y-125730000D03*
D20*
X326707500Y-118110000D03*
D21*
X90170000Y-76200000D03*
D16*
X95250000Y-76200000D03*
D21*
X100330000Y-76200000D03*
D18*
X97790000Y-71120000D03*
X91440000Y-73660000D03*
D19*
X-21907500Y-104775000D03*
D20*
X-21907500Y-97155000D03*
D21*
X109220000Y-95250000D03*
D16*
X114300000Y-95250000D03*
D21*
X119380000Y-95250000D03*
D18*
X116840000Y-90170000D03*
X110490000Y-92710000D03*
D19*
X320992500Y-90487500D03*
D20*
X320992500Y-87947500D03*
X320992500Y-85407500D03*
X320992500Y-82867500D03*
X320992500Y-80327500D03*
X320992500Y-77787500D03*
X320992500Y-75247500D03*
X320992500Y-72707500D03*
X320992500Y-70167500D03*
X320992500Y-67627500D03*
X320992500Y-65087500D03*
X320992500Y-62547500D03*
X320992500Y-60007500D03*
X320992500Y-57467500D03*
X313372500Y-57467500D03*
X313372500Y-60007500D03*
X313372500Y-62547500D03*
X313372500Y-65087500D03*
X313372500Y-67627500D03*
X313372500Y-70167500D03*
X313372500Y-72707500D03*
X313372500Y-75247500D03*
X313372500Y-77787500D03*
X313372500Y-80327500D03*
X313372500Y-82867500D03*
X313372500Y-85407500D03*
X313372500Y-87947500D03*
X313372500Y-90487500D03*
D22*
X-1905000Y-56435000D03*
X-1905000Y-51435000D03*
D19*
X-16192500Y-115252500D03*
D20*
X-16192500Y-107632500D03*
D19*
X-19050000Y-104775000D03*
D20*
X-19050000Y-97155000D03*
D21*
X71120000Y-133350000D03*
D16*
X76200000Y-133350000D03*
D21*
X81280000Y-133350000D03*
D18*
X78740000Y-128270000D03*
X72390000Y-130810000D03*
D21*
X280670000Y-114300000D03*
D16*
X285750000Y-114300000D03*
D21*
X290830000Y-114300000D03*
D18*
X288290000Y-109220000D03*
X281940000Y-111760000D03*
D22*
X-4405000Y-128587500D03*
X595000Y-128587500D03*
D23*
X-20002500Y-59055000D03*
D24*
X-20002500Y-66675000D03*
D21*
X71120000Y-57150000D03*
D16*
X76200000Y-57150000D03*
D21*
X81280000Y-57150000D03*
D18*
X78740000Y-52070000D03*
X72390000Y-54610000D03*
D19*
X306705000Y-83820000D03*
D20*
X306705000Y-76200000D03*
D19*
X-4762500Y-115252500D03*
D20*
X-4762500Y-107632500D03*
D21*
X242570000Y-114300000D03*
D16*
X247650000Y-114300000D03*
D21*
X252730000Y-114300000D03*
D18*
X250190000Y-109220000D03*
X243840000Y-111760000D03*
D19*
X320992500Y-125730000D03*
D20*
X320992500Y-118110000D03*
D21*
X280670000Y-133350000D03*
D16*
X285750000Y-133350000D03*
D21*
X290830000Y-133350000D03*
D18*
X288290000Y-128270000D03*
X281940000Y-130810000D03*
D34*
X-13335000Y-72390304D03*
D35*
X-11835000Y-72390304D03*
D19*
X309562500Y-83820000D03*
D20*
X309562500Y-76200000D03*
D21*
X261620000Y-76200000D03*
D16*
X266700000Y-76200000D03*
D21*
X271780000Y-76200000D03*
D18*
X269240000Y-71120000D03*
X262890000Y-73660000D03*
D21*
X71120000Y-76200000D03*
D16*
X76200000Y-76200000D03*
D21*
X81280000Y-76200000D03*
D18*
X78740000Y-71120000D03*
X72390000Y-73660000D03*
D21*
X109220000Y-76200000D03*
D16*
X114300000Y-76200000D03*
D21*
X119380000Y-76200000D03*
D18*
X116840000Y-71120000D03*
X110490000Y-73660000D03*
D19*
X309562500Y-104775000D03*
D20*
X309562500Y-97155000D03*
D19*
X-1905000Y-73342500D03*
D20*
X-1905000Y-65722500D03*
D21*
X223520000Y-76200000D03*
D16*
X228600000Y-76200000D03*
D21*
X233680000Y-76200000D03*
D18*
X231140000Y-71120000D03*
X224790000Y-73660000D03*
D21*
X33020000Y-95250000D03*
D16*
X38100000Y-95250000D03*
D21*
X43180000Y-95250000D03*
D18*
X40640000Y-90170000D03*
X34290000Y-92710000D03*
D36*
X327357500Y-51435000D03*
D37*
X326057500Y-51435000D03*
D36*
X327357500Y-56197500D03*
D37*
X326057500Y-56197500D03*
M02*
