G04 #@! TF.GenerationSoftware,KiCad,Pcbnew,8.0.7*
G04 #@! TF.CreationDate,2025-01-05T17:06:37+01:00*
G04 #@! TF.ProjectId,orthgyle,6f727468-6779-46c6-952e-6b696361645f,1*
G04 #@! TF.SameCoordinates,Original*
G04 #@! TF.FileFunction,Paste,Top*
G04 #@! TF.FilePolarity,Positive*
%FSLAX46Y46*%
G04 Gerber Fmt 4.6, Leading zero omitted, Abs format (unit mm)*
G04 Created by KiCad (PCBNEW 8.0.7) date 2025-01-05 17:06:37*
%MOMM*%
%LPD*%
G01*
G04 APERTURE LIST*
G04 Aperture macros list*
%AMRoundRect*
0 Rectangle with rounded corners*
0 $1 Rounding radius*
0 $2 $3 $4 $5 $6 $7 $8 $9 X,Y pos of 4 corners*
0 Add a 4 corners polygon primitive as box body*
4,1,4,$2,$3,$4,$5,$6,$7,$8,$9,$2,$3,0*
0 Add four circle primitives for the rounded corners*
1,1,$1+$1,$2,$3*
1,1,$1+$1,$4,$5*
1,1,$1+$1,$6,$7*
1,1,$1+$1,$8,$9*
0 Add four rect primitives between the rounded corners*
20,1,$1+$1,$2,$3,$4,$5,0*
20,1,$1+$1,$4,$5,$6,$7,0*
20,1,$1+$1,$6,$7,$8,$9,0*
20,1,$1+$1,$8,$9,$2,$3,0*%
G04 Aperture macros list end*
%ADD10RoundRect,0.250000X-0.350000X-0.650000X0.350000X-0.650000X0.350000X0.650000X-0.350000X0.650000X0*%
%ADD11RoundRect,0.150000X-0.150000X-0.625000X0.150000X-0.625000X0.150000X0.625000X-0.150000X0.625000X0*%
%ADD12R,0.900000X1.500000*%
%ADD13R,0.600000X1.450000*%
%ADD14R,0.300000X1.450000*%
G04 APERTURE END LIST*
D10*
X6725000Y-5180000D03*
X1125000Y-5180000D03*
D11*
X5425000Y-1305000D03*
X4425000Y-1305000D03*
X3425000Y-1305000D03*
X2425000Y-1305000D03*
D12*
X355912447Y-125492159D03*
X359212447Y-125492159D03*
X359212447Y-120592159D03*
X355912447Y-120592159D03*
X355912447Y-144492159D03*
X359212447Y-144492159D03*
X359212447Y-139592159D03*
X355912447Y-139592159D03*
X62032447Y-182442159D03*
X65332447Y-182442159D03*
X65332447Y-177542159D03*
X62032447Y-177542159D03*
X62032447Y-163442159D03*
X65332447Y-163442159D03*
X65332447Y-158542159D03*
X62032447Y-158542159D03*
D13*
X49123697Y-100464659D03*
X48323697Y-100464659D03*
D14*
X47123697Y-100464659D03*
X46123697Y-100464659D03*
X45623697Y-100464659D03*
X44623697Y-100464659D03*
D13*
X43423697Y-100464659D03*
X42623697Y-100464659D03*
X42623697Y-100464659D03*
X43423697Y-100464659D03*
D14*
X44123697Y-100464659D03*
X45123697Y-100464659D03*
X46623697Y-100464659D03*
X47623697Y-100464659D03*
D13*
X48323697Y-100464659D03*
X49123697Y-100464659D03*
D12*
X62032447Y-106242159D03*
X65332447Y-106242159D03*
X65332447Y-101342159D03*
X62032447Y-101342159D03*
X355912447Y-106492159D03*
X359212447Y-106492159D03*
X359212447Y-101592159D03*
X355912447Y-101592159D03*
X62032447Y-144442159D03*
X65332447Y-144442159D03*
X65332447Y-139542159D03*
X62032447Y-139542159D03*
X355913711Y-163492316D03*
X359213711Y-163492316D03*
X359213711Y-158592316D03*
X355913711Y-158592316D03*
X355912447Y-182492159D03*
X359212447Y-182492159D03*
X359212447Y-177592159D03*
X355912447Y-177592159D03*
X62032447Y-125442159D03*
X65332447Y-125442159D03*
X65332447Y-120542159D03*
X62032447Y-120542159D03*
M02*
