G04 #@! TF.GenerationSoftware,KiCad,Pcbnew,8.0.3*
G04 #@! TF.CreationDate,2024-12-28T10:17:01+01:00*
G04 #@! TF.ProjectId,orthgyle,6f727468-6779-46c6-952e-6b696361645f,1*
G04 #@! TF.SameCoordinates,Original*
G04 #@! TF.FileFunction,Paste,Top*
G04 #@! TF.FilePolarity,Positive*
%FSLAX46Y46*%
G04 Gerber Fmt 4.6, Leading zero omitted, Abs format (unit mm)*
G04 Created by KiCad (PCBNEW 8.0.3) date 2024-12-28 10:17:01*
%MOMM*%
%LPD*%
G01*
G04 APERTURE LIST*
%ADD10R,0.900000X1.500000*%
%ADD11R,0.600000X1.450000*%
%ADD12R,0.300000X1.450000*%
G04 APERTURE END LIST*
D10*
X300990000Y-73800000D03*
X297690000Y-73800000D03*
X297690000Y-78700000D03*
X300990000Y-78700000D03*
X300990000Y-92800000D03*
X297690000Y-92800000D03*
X297690000Y-97700000D03*
X300990000Y-97700000D03*
X3810000Y-135650000D03*
X7110000Y-135650000D03*
X7110000Y-130750000D03*
X3810000Y-130750000D03*
X3810000Y-116650000D03*
X7110000Y-116650000D03*
X7110000Y-111750000D03*
X3810000Y-111750000D03*
D11*
X-9098750Y-53672500D03*
X-9898750Y-53672500D03*
D12*
X-11098750Y-53672500D03*
X-12098750Y-53672500D03*
X-12598750Y-53672500D03*
X-13598750Y-53672500D03*
D11*
X-14798750Y-53672500D03*
X-15598750Y-53672500D03*
X-15598750Y-53672500D03*
X-14798750Y-53672500D03*
D12*
X-14098750Y-53672500D03*
X-13098750Y-53672500D03*
X-11598750Y-53672500D03*
X-10598750Y-53672500D03*
D11*
X-9898750Y-53672500D03*
X-9098750Y-53672500D03*
D10*
X3810000Y-59450000D03*
X7110000Y-59450000D03*
X7110000Y-54550000D03*
X3810000Y-54550000D03*
X300990000Y-54800000D03*
X297690000Y-54800000D03*
X297690000Y-59700000D03*
X300990000Y-59700000D03*
X3810000Y-97650000D03*
X7110000Y-97650000D03*
X7110000Y-92750000D03*
X3810000Y-92750000D03*
X300991264Y-111800157D03*
X297691264Y-111800157D03*
X297691264Y-116700157D03*
X300991264Y-116700157D03*
X300990000Y-130800000D03*
X297690000Y-130800000D03*
X297690000Y-135700000D03*
X300990000Y-135700000D03*
X3810000Y-78650000D03*
X7110000Y-78650000D03*
X7110000Y-73750000D03*
X3810000Y-73750000D03*
M02*
