M48
; DRILL file {KiCad 9.0.0} date 2025-03-15T16:45:45+0100
; FORMAT={-:-/ absolute / metric / decimal}
; #@! TF.CreationDate,2025-03-15T16:45:45+01:00
; #@! TF.GenerationSoftware,Kicad,Pcbnew,9.0.0
; #@! TF.FileFunction,Plated,1,2,PTH
FMAT,2
METRIC
; #@! TA.AperFunction,Plated,PTH,ViaDrill
T1C0.400
; #@! TA.AperFunction,Plated,PTH,ComponentDrill
T2C0.600
; #@! TA.AperFunction,Plated,PTH,ComponentDrill
T3C0.700
; #@! TA.AperFunction,Plated,PTH,ComponentDrill
T4C0.710
; #@! TA.AperFunction,Plated,PTH,ComponentDrill
T5C0.800
; #@! TA.AperFunction,Plated,PTH,ComponentDrill
T6C0.900
; #@! TA.AperFunction,Plated,PTH,ComponentDrill
T7C1.000
; #@! TA.AperFunction,Plated,PTH,ComponentDrill
T8C1.499
%
G90
G05
T1
X41.808Y-114.092
X43.339Y-167.76
X44.315Y-103.68
X45.511Y-103.126
X49.174Y-150.165
X57.865Y-163.593
X64.718Y-175.387
X86.798Y-142.043
X86.917Y-122.992
X149.662Y-128.27
X334.568Y-122.992
X334.568Y-161.093
X334.687Y-139.661
X356.414Y-113.817
X356.414Y-175.26
X366.665Y-106.35
X387.431Y-120.904
T2
X44.887Y-122.872
X46.387Y-122.872
T3
X35.362Y-105.847
X35.362Y-113.467
X35.362Y-116.325
X35.362Y-123.945
X35.362Y-126.802
X35.362Y-134.422
X38.22Y-105.847
X38.22Y-113.467
X38.22Y-116.325
X38.22Y-123.945
X38.22Y-126.802
X38.22Y-134.422
X385.05Y-143.947
X385.05Y-151.567
T4
X43.121Y-105.847
X48.221Y-107.047
T5
X36.314Y-143.947
X36.314Y-151.567
X36.314Y-154.425
X36.314Y-162.045
X36.314Y-164.902
X36.314Y-172.522
X39.172Y-143.947
X39.172Y-151.567
X39.172Y-154.425
X39.172Y-162.045
X39.172Y-164.902
X39.172Y-172.522
X41.91Y-127.635
X41.91Y-130.493
X42.029Y-143.947
X42.029Y-151.567
X42.029Y-154.425
X42.029Y-162.045
X42.03Y-164.902
X42.03Y-172.522
X44.887Y-143.947
X44.887Y-151.567
X44.887Y-154.425
X44.887Y-162.045
X44.887Y-164.902
X44.887Y-172.522
X47.744Y-154.425
X47.744Y-162.045
X47.744Y-143.947
X47.744Y-151.567
X47.745Y-164.902
X47.745Y-172.522
X49.53Y-127.635
X49.53Y-130.493
X50.602Y-154.425
X50.602Y-162.045
X50.602Y-143.947
X50.602Y-151.567
X50.602Y-164.902
X50.602Y-172.522
X53.459Y-112.515
X53.459Y-120.135
X53.459Y-122.992
X53.459Y-130.612
X53.459Y-133.47
X53.459Y-141.09
X53.459Y-154.425
X53.459Y-162.045
X53.459Y-143.947
X53.459Y-151.567
X53.46Y-164.902
X53.46Y-172.522
X54.174Y-175.38
X54.182Y-99.06
X56.317Y-101.918
X56.317Y-109.538
X56.317Y-112.515
X56.317Y-120.135
X56.317Y-122.992
X56.317Y-130.612
X56.317Y-133.47
X56.317Y-141.09
X56.317Y-154.425
X56.317Y-162.045
X56.317Y-143.947
X56.317Y-151.567
X56.317Y-164.902
X56.317Y-172.522
X59.174Y-101.918
X59.174Y-109.538
X59.174Y-112.515
X59.174Y-120.135
X59.174Y-122.992
X59.174Y-130.612
X59.174Y-133.47
X59.174Y-141.09
X59.174Y-143.947
X59.174Y-151.567
X59.174Y-154.425
X59.174Y-162.045
X59.174Y-175.38
X59.175Y-164.902
X59.175Y-172.522
X59.182Y-99.06
X361.95Y-99.06
X361.95Y-101.917
X361.95Y-109.537
X362.07Y-112.515
X362.07Y-120.135
X362.07Y-122.992
X362.07Y-130.612
X362.07Y-133.47
X362.07Y-141.09
X362.07Y-143.947
X362.07Y-151.567
X362.07Y-154.425
X362.07Y-162.045
X362.071Y-164.902
X362.071Y-172.522
X362.071Y-175.26
X364.808Y-101.917
X364.808Y-109.537
X364.927Y-112.515
X364.927Y-120.135
X364.927Y-122.992
X364.927Y-130.612
X364.927Y-133.47
X364.927Y-141.09
X364.927Y-143.947
X364.927Y-151.567
X364.927Y-154.425
X364.927Y-162.045
X364.928Y-164.902
X364.928Y-172.522
X366.95Y-99.06
X367.071Y-175.26
X367.665Y-101.917
X367.665Y-109.537
X367.785Y-122.992
X367.785Y-130.612
X367.785Y-133.47
X367.785Y-141.09
X367.785Y-143.947
X367.785Y-151.567
X367.785Y-154.425
X367.785Y-162.045
X367.786Y-164.902
X367.786Y-172.522
X367.786Y-113.825
X367.786Y-118.825
X370.642Y-143.947
X370.642Y-151.567
X370.642Y-154.425
X370.642Y-162.045
X370.643Y-164.902
X370.643Y-172.522
X371.595Y-104.26
X371.595Y-106.8
X371.595Y-109.34
X371.595Y-111.88
X371.595Y-114.42
X371.595Y-116.96
X371.595Y-119.5
X371.595Y-122.04
X371.595Y-124.58
X371.595Y-127.12
X371.595Y-129.66
X371.595Y-132.2
X371.595Y-134.74
X371.595Y-137.28
X373.5Y-143.947
X373.5Y-151.567
X373.5Y-154.425
X373.5Y-162.045
X373.501Y-164.902
X373.501Y-172.522
X376.357Y-143.947
X376.357Y-151.567
X376.357Y-154.425
X376.357Y-162.045
X376.358Y-164.902
X376.358Y-172.522
X379.215Y-104.26
X379.215Y-106.8
X379.215Y-109.34
X379.215Y-111.88
X379.215Y-114.42
X379.215Y-116.96
X379.215Y-119.5
X379.215Y-122.04
X379.215Y-124.58
X379.215Y-127.12
X379.215Y-129.66
X379.215Y-132.2
X379.215Y-134.74
X379.215Y-137.28
X379.215Y-143.947
X379.215Y-151.567
X379.215Y-154.425
X379.215Y-162.045
X379.216Y-164.902
X379.216Y-172.522
X382.072Y-143.947
X382.072Y-151.567
X382.072Y-154.425
X382.072Y-162.045
X382.073Y-164.902
X382.073Y-172.522
X383.382Y-107.752
X383.621Y-123.231
X383.621Y-128.231
X384.93Y-112.942
X384.93Y-117.822
X385.05Y-154.425
X385.05Y-162.045
X385.05Y-164.902
X385.05Y-172.522
X385.882Y-107.752
X386.24Y-123.29
X386.24Y-125.79
T6
X46.196Y-136.049
X46.196Y-138.589
T7
X383.655Y-131.897
X383.655Y-134.437
X383.655Y-136.977
X386.195Y-131.897
X386.195Y-134.437
X386.195Y-136.977
T8
X73.462Y-101.402
X73.462Y-120.452
X73.462Y-139.502
X73.462Y-158.552
X73.462Y-177.602
X79.812Y-98.862
X79.812Y-117.912
X79.812Y-136.962
X79.812Y-156.012
X79.812Y-175.062
X92.512Y-101.402
X92.512Y-120.452
X92.512Y-139.502
X92.512Y-158.552
X92.512Y-177.602
X98.862Y-98.862
X98.862Y-117.912
X98.862Y-136.962
X98.862Y-156.012
X98.862Y-175.062
X111.562Y-101.402
X111.562Y-120.452
X111.562Y-139.502
X111.562Y-158.552
X111.562Y-177.602
X117.912Y-98.862
X117.912Y-117.912
X117.912Y-136.962
X117.912Y-156.012
X117.912Y-175.062
X130.612Y-101.402
X130.612Y-120.452
X130.612Y-139.502
X130.612Y-158.552
X130.612Y-177.602
X136.962Y-98.862
X136.962Y-117.912
X136.962Y-136.962
X136.962Y-156.012
X136.962Y-175.062
X149.662Y-101.402
X149.662Y-120.452
X149.662Y-139.502
X149.662Y-158.552
X149.662Y-177.602
X156.012Y-98.862
X156.012Y-117.912
X156.012Y-136.962
X156.012Y-156.012
X156.012Y-175.062
X159.187Y-177.602
X165.537Y-175.062
X168.712Y-101.402
X168.712Y-120.452
X168.712Y-139.502
X168.712Y-158.552
X168.712Y-177.602
X175.062Y-98.862
X175.062Y-117.912
X175.062Y-136.962
X175.062Y-156.012
X175.062Y-175.062
X187.762Y-101.402
X187.762Y-120.452
X187.762Y-139.502
X187.762Y-158.552
X187.762Y-177.602
X194.112Y-98.862
X194.112Y-117.912
X194.112Y-136.962
X194.112Y-156.012
X194.112Y-175.062
X206.812Y-101.402
X206.812Y-120.452
X206.812Y-139.502
X206.812Y-158.552
X206.812Y-177.602
X213.162Y-98.862
X213.162Y-117.912
X213.162Y-136.962
X213.162Y-156.012
X213.162Y-175.062
X225.862Y-101.402
X225.862Y-120.452
X225.862Y-139.502
X225.862Y-158.552
X225.862Y-177.602
X232.212Y-98.862
X232.212Y-117.912
X232.212Y-136.962
X232.212Y-156.012
X232.212Y-175.062
X244.912Y-101.402
X244.912Y-120.452
X244.912Y-139.502
X244.912Y-158.552
X244.912Y-177.602
X251.262Y-98.862
X251.262Y-117.912
X251.262Y-136.962
X251.262Y-156.012
X251.262Y-175.062
X254.437Y-177.602
X260.787Y-175.062
X263.962Y-101.402
X263.962Y-120.452
X263.962Y-139.502
X263.962Y-158.552
X263.962Y-177.602
X270.312Y-98.862
X270.312Y-117.912
X270.312Y-136.962
X270.312Y-156.012
X270.312Y-175.062
X283.012Y-101.402
X283.012Y-120.452
X283.012Y-139.502
X283.012Y-158.552
X283.012Y-177.602
X289.362Y-98.862
X289.362Y-117.912
X289.362Y-136.962
X289.362Y-156.012
X289.362Y-175.062
X302.062Y-101.402
X302.062Y-120.452
X302.062Y-139.502
X302.062Y-158.552
X302.062Y-177.602
X308.412Y-98.862
X308.412Y-117.912
X308.412Y-136.962
X308.412Y-156.012
X308.412Y-175.062
X321.112Y-101.402
X321.112Y-120.452
X321.112Y-139.502
X321.112Y-158.552
X321.112Y-177.602
X327.462Y-98.862
X327.462Y-117.912
X327.462Y-136.962
X327.462Y-156.012
X327.462Y-175.062
X340.162Y-101.402
X340.162Y-120.452
X340.162Y-139.502
X340.162Y-158.552
X340.162Y-177.602
X346.512Y-98.862
X346.512Y-117.912
X346.512Y-136.962
X346.512Y-156.012
X346.512Y-175.062
T2
G00X40.59Y-95.21
M15
G01X40.59Y-94.61
M16
G05
G00X40.59Y-99.64
M15
G01X40.59Y-98.54
M16
G05
G00X49.23Y-95.21
M15
G01X49.23Y-94.61
M16
G05
G00X49.23Y-99.64
M15
G01X49.23Y-98.54
M16
G05
M30
