M48
METRIC
T1C0.650
T2C1.702
T3C1.800
T4C3.048
T5C3.988
%
G90
G05
T1
X-15.239Y-52.227
X-9.459Y-52.227
T2
X13.97Y-57.15
X13.97Y-76.2
X13.97Y-95.25
X13.97Y-114.3
X13.97Y-133.35
X24.13Y-57.15
X24.13Y-76.2
X24.13Y-95.25
X24.13Y-114.3
X24.13Y-133.35
X33.02Y-57.15
X33.02Y-76.2
X33.02Y-95.25
X33.02Y-114.3
X33.02Y-133.35
X43.18Y-57.15
X43.18Y-76.2
X43.18Y-95.25
X43.18Y-114.3
X43.18Y-133.35
X52.07Y-57.15
X52.07Y-76.2
X52.07Y-95.25
X52.07Y-114.3
X52.07Y-133.35
X62.23Y-57.15
X62.23Y-76.2
X62.23Y-95.25
X62.23Y-114.3
X62.23Y-133.35
X71.12Y-57.15
X71.12Y-76.2
X71.12Y-95.25
X71.12Y-114.3
X71.12Y-133.35
X81.28Y-57.15
X81.28Y-76.2
X81.28Y-95.25
X81.28Y-114.3
X81.28Y-133.35
X90.17Y-57.15
X90.17Y-76.2
X90.17Y-95.25
X90.17Y-114.3
X90.17Y-133.35
X99.695Y-133.35
X100.33Y-57.15
X100.33Y-76.2
X100.33Y-95.25
X100.33Y-114.3
X100.33Y-133.35
X109.22Y-57.15
X109.22Y-76.2
X109.22Y-95.25
X109.22Y-114.3
X109.22Y-133.35
X109.855Y-133.35
X119.38Y-57.15
X119.38Y-76.2
X119.38Y-95.25
X119.38Y-114.3
X119.38Y-133.35
X128.27Y-57.15
X128.27Y-76.2
X128.27Y-95.25
X128.27Y-114.3
X128.27Y-133.35
X138.43Y-57.15
X138.43Y-76.2
X138.43Y-95.25
X138.43Y-114.3
X138.43Y-133.35
X147.32Y-57.15
X147.32Y-76.2
X147.32Y-95.25
X147.32Y-114.3
X157.48Y-57.15
X157.48Y-76.2
X157.48Y-95.25
X157.48Y-114.3
X166.37Y-57.15
X166.37Y-76.2
X166.37Y-95.25
X166.37Y-114.3
X166.37Y-133.35
X176.53Y-57.15
X176.53Y-76.2
X176.53Y-95.25
X176.53Y-114.3
X176.53Y-133.35
X185.42Y-57.15
X185.42Y-76.2
X185.42Y-95.25
X185.42Y-114.3
X185.42Y-133.35
X194.945Y-133.35
X195.58Y-57.15
X195.58Y-76.2
X195.58Y-95.25
X195.58Y-114.3
X195.58Y-133.35
X204.47Y-57.15
X204.47Y-76.2
X204.47Y-95.25
X204.47Y-114.3
X204.47Y-133.35
X205.105Y-133.35
X214.63Y-57.15
X214.63Y-76.2
X214.63Y-95.25
X214.63Y-114.3
X214.63Y-133.35
X223.52Y-57.15
X223.52Y-76.2
X223.52Y-95.25
X223.52Y-114.3
X223.52Y-133.35
X233.68Y-57.15
X233.68Y-76.2
X233.68Y-95.25
X233.68Y-114.3
X233.68Y-133.35
X242.57Y-57.15
X242.57Y-76.2
X242.57Y-95.25
X242.57Y-114.3
X242.57Y-133.35
X252.73Y-57.15
X252.73Y-76.2
X252.73Y-95.25
X252.73Y-114.3
X252.73Y-133.35
X261.62Y-57.15
X261.62Y-76.2
X261.62Y-95.25
X261.62Y-114.3
X261.62Y-133.35
X271.78Y-57.15
X271.78Y-76.2
X271.78Y-95.25
X271.78Y-114.3
X271.78Y-133.35
X280.67Y-57.15
X280.67Y-76.2
X280.67Y-95.25
X280.67Y-114.3
X280.67Y-133.35
X290.83Y-57.15
X290.83Y-76.2
X290.83Y-95.25
X290.83Y-114.3
X290.83Y-133.35
T3
X147.32Y-133.35
X157.48Y-133.35
T4
X92.837Y-140.335
X95.25Y-126.365
X95.25Y-126.365
X116.713Y-140.335
X188.087Y-140.335
X209.55Y-126.365
X211.963Y-140.335
T5
X19.05Y-57.15
X19.05Y-76.2
X19.05Y-95.25
X19.05Y-114.3
X19.05Y-133.35
X38.1Y-57.15
X38.1Y-76.2
X38.1Y-95.25
X38.1Y-114.3
X38.1Y-133.35
X57.15Y-57.15
X57.15Y-76.2
X57.15Y-95.25
X57.15Y-114.3
X57.15Y-133.35
X76.2Y-57.15
X76.2Y-76.2
X76.2Y-95.25
X76.2Y-114.3
X76.2Y-133.35
X92.837Y-125.095
X95.25Y-57.15
X95.25Y-76.2
X95.25Y-95.25
X95.25Y-114.3
X95.25Y-133.35
X95.25Y-141.605
X95.25Y-141.605
X104.775Y-133.35
X114.3Y-57.15
X114.3Y-76.2
X114.3Y-95.25
X114.3Y-114.3
X114.3Y-133.35
X116.713Y-125.095
X133.35Y-57.15
X133.35Y-76.2
X133.35Y-95.25
X133.35Y-114.3
X133.35Y-133.35
X152.4Y-57.15
X152.4Y-76.2
X152.4Y-95.25
X152.4Y-114.3
X152.4Y-133.35
X171.45Y-57.15
X171.45Y-76.2
X171.45Y-95.25
X171.45Y-114.3
X171.45Y-133.35
X188.087Y-125.095
X190.5Y-57.15
X190.5Y-76.2
X190.5Y-95.25
X190.5Y-114.3
X190.5Y-133.35
X200.025Y-133.35
X209.55Y-57.15
X209.55Y-76.2
X209.55Y-95.25
X209.55Y-114.3
X209.55Y-133.35
X209.55Y-141.605
X211.963Y-125.095
X228.6Y-57.15
X228.6Y-76.2
X228.6Y-95.25
X228.6Y-114.3
X228.6Y-133.35
X247.65Y-57.15
X247.65Y-76.2
X247.65Y-95.25
X247.65Y-114.3
X247.65Y-133.35
X266.7Y-57.15
X266.7Y-76.2
X266.7Y-95.25
X266.7Y-114.3
X266.7Y-133.35
X285.75Y-57.15
X285.75Y-76.2
X285.75Y-95.25
X285.75Y-114.3
X285.75Y-133.35
M30
