%TF.GenerationSoftware,KiCad,Pcbnew,9.0.0*%
%TF.CreationDate,2025-03-15T16:45:42+01:00*%
%TF.ProjectId,orthgyle,6f727468-6779-46c6-952e-6b696361645f,1*%
%TF.SameCoordinates,Original*%
%TF.FileFunction,Soldermask,Top*%
%TF.FilePolarity,Negative*%
%FSLAX46Y46*%
G04 Gerber Fmt 4.6, Leading zero omitted, Abs format (unit mm)*
G04 Created by KiCad (PCBNEW 9.0.0) date 2025-03-15 16:45:42*
%MOMM*%
%LPD*%
G01*
G04 APERTURE LIST*
%ADD10C,0.650000*%
%ADD11R,0.600000X1.450000*%
%ADD12R,0.300000X1.450000*%
%ADD13O,1.000000X2.100000*%
%ADD14O,1.000000X1.600000*%
%ADD15R,1.600000X1.600000*%
%ADD16O,1.600000X1.600000*%
%ADD17C,1.701800*%
%ADD18C,3.987800*%
%ADD19C,2.286000*%
%ADD20C,1.600000*%
%ADD21C,1.400000*%
%ADD22O,1.400000X1.400000*%
%ADD23C,3.048000*%
%ADD24C,1.500000*%
%ADD25R,1.800000X1.800000*%
%ADD26C,1.800000*%
%ADD27C,1.710000*%
%ADD28R,1.700000X1.700000*%
%ADD29O,1.700000X1.700000*%
%ADD30R,1.200000X1.200000*%
%ADD31C,1.200000*%
G04 APERTURE END LIST*
D10*
X47800499Y-98560000D03*
X42020499Y-98560000D03*
D11*
X48160499Y-100005000D03*
X47360499Y-100005000D03*
D12*
X46160499Y-100005000D03*
X45160499Y-100005000D03*
X44660499Y-100005000D03*
X43660499Y-100005000D03*
D11*
X42460499Y-100005000D03*
X41660499Y-100005000D03*
X41660499Y-100005000D03*
X42460499Y-100005000D03*
D12*
X43160499Y-100005000D03*
X44160499Y-100005000D03*
X45660499Y-100005000D03*
X46660499Y-100005000D03*
D11*
X47360499Y-100005000D03*
X48160499Y-100005000D03*
D13*
X49230499Y-99090000D03*
D14*
X49230499Y-94910000D03*
D13*
X40590499Y-99090000D03*
D14*
X40590499Y-94910000D03*
D15*
X36314215Y-151567167D03*
D16*
X36314215Y-143947167D03*
D17*
X205542447Y-161092159D03*
D18*
X210622447Y-161092159D03*
D17*
X215702447Y-161092159D03*
D19*
X213162447Y-156012159D03*
X206812447Y-158552159D03*
D15*
X376357447Y-162044659D03*
D16*
X376357447Y-154424659D03*
D17*
X186492447Y-161092159D03*
D18*
X191572447Y-161092159D03*
D17*
X196652447Y-161092159D03*
D19*
X194112447Y-156012159D03*
X187762447Y-158552159D03*
D17*
X148392447Y-161092159D03*
D18*
X153472447Y-161092159D03*
D17*
X158552447Y-161092159D03*
D19*
X156012447Y-156012159D03*
X149662447Y-158552159D03*
D17*
X281742447Y-180142159D03*
D18*
X286822447Y-180142159D03*
D17*
X291902447Y-180142159D03*
D19*
X289362447Y-175062159D03*
X283012447Y-177602159D03*
D15*
X47744947Y-172522159D03*
D16*
X47744947Y-164902159D03*
D15*
X385049742Y-162044727D03*
D16*
X385049742Y-154424727D03*
D17*
X281742447Y-161092159D03*
D18*
X286822447Y-161092159D03*
D17*
X291902447Y-161092159D03*
D19*
X289362447Y-156012159D03*
X283012447Y-158552159D03*
D15*
X50601811Y-151567167D03*
D16*
X50601811Y-143947167D03*
D15*
X364928095Y-172522255D03*
D16*
X364928095Y-164902255D03*
D17*
X72192447Y-142042159D03*
D18*
X77272447Y-142042159D03*
D17*
X82352447Y-142042159D03*
D19*
X79812447Y-136962159D03*
X73462447Y-139502159D03*
D15*
X53459311Y-151567167D03*
D16*
X53459311Y-143947167D03*
D15*
X53459287Y-120134659D03*
D16*
X53459287Y-112514659D03*
D20*
X383620986Y-123230528D03*
X383620986Y-128230528D03*
D15*
X382073167Y-172522255D03*
D16*
X382073167Y-164902255D03*
D15*
X59174311Y-130612079D03*
D16*
X59174311Y-122992079D03*
D15*
X47744299Y-162044627D03*
D16*
X47744299Y-154424627D03*
D15*
X39171727Y-172522255D03*
D16*
X39171727Y-164902255D03*
D17*
X243642447Y-180142159D03*
D18*
X248722447Y-180142159D03*
D17*
X253802447Y-180142159D03*
D19*
X251262447Y-175062159D03*
X244912447Y-177602159D03*
D15*
X364927447Y-151567159D03*
D16*
X364927447Y-143947159D03*
D15*
X362069947Y-120134659D03*
D16*
X362069947Y-112514659D03*
D17*
X129342447Y-142042159D03*
D18*
X134422447Y-142042159D03*
D17*
X139502447Y-142042159D03*
D19*
X136962447Y-136962159D03*
X130612447Y-139502159D03*
D20*
X385882447Y-107752159D03*
X383382447Y-107752159D03*
D17*
X110292447Y-142042159D03*
D18*
X115372447Y-142042159D03*
D17*
X120452447Y-142042159D03*
D19*
X117912447Y-136962159D03*
X111562447Y-139502159D03*
D15*
X59174311Y-141089623D03*
D16*
X59174311Y-133469623D03*
D15*
X42029947Y-172522159D03*
D16*
X42029947Y-164902159D03*
D19*
X165537447Y-175062159D03*
X159187447Y-177602159D03*
D21*
X35362447Y-105847159D03*
D22*
X35362447Y-113467159D03*
D18*
X153472447Y-171887159D03*
D23*
X153472447Y-187127159D03*
D18*
X267772447Y-171887159D03*
D23*
X267772447Y-187127159D03*
D15*
X382072447Y-162044659D03*
D16*
X382072447Y-154424659D03*
D17*
X319842447Y-103942159D03*
D18*
X324922447Y-103942159D03*
D17*
X330002447Y-103942159D03*
D19*
X327462447Y-98862159D03*
X321112447Y-101402159D03*
D17*
X186492447Y-122992159D03*
D18*
X191572447Y-122992159D03*
D17*
X196652447Y-122992159D03*
D19*
X194112447Y-117912159D03*
X187762447Y-120452159D03*
D17*
X243642447Y-142042159D03*
D18*
X248722447Y-142042159D03*
D17*
X253802447Y-142042159D03*
D19*
X251262447Y-136962159D03*
X244912447Y-139502159D03*
D17*
X243642447Y-161092159D03*
D18*
X248722447Y-161092159D03*
D17*
X253802447Y-161092159D03*
D19*
X251262447Y-156012159D03*
X244912447Y-158552159D03*
D15*
X367785595Y-172522255D03*
D16*
X367785595Y-164902255D03*
D15*
X56316799Y-120134535D03*
D16*
X56316799Y-112514535D03*
D17*
X167442447Y-103942159D03*
D18*
X172522447Y-103942159D03*
D17*
X177602447Y-103942159D03*
D19*
X175062447Y-98862159D03*
X168712447Y-101402159D03*
D15*
X39171727Y-151567167D03*
D16*
X39171727Y-143947167D03*
D17*
X110292447Y-180142159D03*
D18*
X115372447Y-180142159D03*
D17*
X120452447Y-180142159D03*
D19*
X117912447Y-175062159D03*
X111562447Y-177602159D03*
D17*
X224592447Y-180142159D03*
D18*
X229672447Y-180142159D03*
D17*
X234752447Y-180142159D03*
D19*
X232212447Y-175062159D03*
X225862447Y-177602159D03*
D17*
X72192447Y-180142159D03*
D18*
X77272447Y-180142159D03*
D17*
X82352447Y-180142159D03*
D19*
X79812447Y-175062159D03*
X73462447Y-177602159D03*
D17*
X300792447Y-180142159D03*
D18*
X305872447Y-180142159D03*
D17*
X310952447Y-180142159D03*
D19*
X308412447Y-175062159D03*
X302062447Y-177602159D03*
D17*
X338892447Y-103942159D03*
D18*
X343972447Y-103942159D03*
D17*
X349052447Y-103942159D03*
D19*
X346512447Y-98862159D03*
X340162447Y-101402159D03*
D15*
X44887447Y-172522159D03*
D16*
X44887447Y-164902159D03*
D17*
X338892447Y-142042159D03*
D18*
X343972447Y-142042159D03*
D17*
X349052447Y-142042159D03*
D19*
X346512447Y-136962159D03*
X340162447Y-139502159D03*
D15*
X50601799Y-162044627D03*
D16*
X50601799Y-154424627D03*
D20*
X367785607Y-118824874D03*
X367785607Y-113824874D03*
D17*
X300792447Y-103942159D03*
D18*
X305872447Y-103942159D03*
D17*
X310952447Y-103942159D03*
D19*
X308412447Y-98862159D03*
X302062447Y-101402159D03*
D24*
X384929947Y-117822159D03*
X384929947Y-112942159D03*
D17*
X186492447Y-180142159D03*
D18*
X191572447Y-180142159D03*
D17*
X196652447Y-180142159D03*
D19*
X194112447Y-175062159D03*
X187762447Y-177602159D03*
D15*
X44886799Y-162044627D03*
D16*
X44886799Y-154424627D03*
D15*
X59174311Y-151567167D03*
D16*
X59174311Y-143947167D03*
D15*
X362069947Y-162044659D03*
D16*
X362069947Y-154424659D03*
D17*
X148392447Y-142042159D03*
D18*
X153472447Y-142042159D03*
D17*
X158552447Y-142042159D03*
D19*
X156012447Y-136962159D03*
X149662447Y-139502159D03*
D17*
X243642447Y-103942159D03*
D18*
X248722447Y-103942159D03*
D17*
X253802447Y-103942159D03*
D19*
X251262447Y-98862159D03*
X244912447Y-101402159D03*
D17*
X205542447Y-122992159D03*
D18*
X210622447Y-122992159D03*
D17*
X215702447Y-122992159D03*
D19*
X213162447Y-117912159D03*
X206812447Y-120452159D03*
D15*
X36314227Y-172522255D03*
D16*
X36314227Y-164902255D03*
D15*
X39171727Y-162044711D03*
D16*
X39171727Y-154424711D03*
D20*
X361950000Y-99060000D03*
X366950000Y-99060000D03*
D15*
X367784947Y-162044659D03*
D16*
X367784947Y-154424659D03*
D17*
X300792447Y-122992159D03*
D18*
X305872447Y-122992159D03*
D17*
X310952447Y-122992159D03*
D19*
X308412447Y-117912159D03*
X302062447Y-120452159D03*
D15*
X364927447Y-120134659D03*
D16*
X364927447Y-112514659D03*
D21*
X35362447Y-134422159D03*
D22*
X35362447Y-126802159D03*
D17*
X91242447Y-103942159D03*
D18*
X96322447Y-103942159D03*
D17*
X101402447Y-103942159D03*
D19*
X98862447Y-98862159D03*
X92512447Y-101402159D03*
D15*
X59174947Y-172522159D03*
D16*
X59174947Y-164902159D03*
D15*
X367784947Y-141089659D03*
D16*
X367784947Y-133469659D03*
D17*
X205542447Y-142042159D03*
D18*
X210622447Y-142042159D03*
D17*
X215702447Y-142042159D03*
D19*
X213162447Y-136962159D03*
X206812447Y-139502159D03*
D17*
X167442447Y-161092159D03*
D18*
X172522447Y-161092159D03*
D17*
X177602447Y-161092159D03*
D19*
X175062447Y-156012159D03*
X168712447Y-158552159D03*
D17*
X91242447Y-161092159D03*
D18*
X96322447Y-161092159D03*
D17*
X101402447Y-161092159D03*
D19*
X98862447Y-156012159D03*
X92512447Y-158552159D03*
D15*
X41910000Y-130492500D03*
D16*
X49530000Y-130492500D03*
D15*
X362069947Y-130612159D03*
D16*
X362069947Y-122992159D03*
D17*
X243642447Y-122992159D03*
D18*
X248722447Y-122992159D03*
D17*
X253802447Y-122992159D03*
D19*
X251262447Y-117912159D03*
X244912447Y-120452159D03*
D17*
X110292447Y-103942159D03*
D18*
X115372447Y-103942159D03*
D17*
X120452447Y-103942159D03*
D19*
X117912447Y-98862159D03*
X111562447Y-101402159D03*
D17*
X224592447Y-142042159D03*
D18*
X229672447Y-142042159D03*
D17*
X234752447Y-142042159D03*
D19*
X232212447Y-136962159D03*
X225862447Y-139502159D03*
D15*
X59174311Y-162044727D03*
D16*
X59174311Y-154424727D03*
D15*
X56316799Y-141089623D03*
D16*
X56316799Y-133469623D03*
D15*
X56316811Y-151567167D03*
D16*
X56316811Y-143947167D03*
D21*
X38219947Y-134422159D03*
D22*
X38219947Y-126802159D03*
D17*
X148392447Y-180142159D03*
D18*
X153472447Y-180142159D03*
D17*
X158552447Y-180142159D03*
D19*
X156012447Y-175062159D03*
X149662447Y-177602159D03*
D17*
X338892447Y-122992159D03*
D18*
X343972447Y-122992159D03*
D17*
X349052447Y-122992159D03*
D19*
X346512447Y-117912159D03*
X340162447Y-120452159D03*
D25*
X46196250Y-138588750D03*
D26*
X46196250Y-136048750D03*
D15*
X47744311Y-151567167D03*
D16*
X47744311Y-143947167D03*
D15*
X362069947Y-141089659D03*
D16*
X362069947Y-133469659D03*
D17*
X224592447Y-122992159D03*
D18*
X229672447Y-122992159D03*
D17*
X234752447Y-122992159D03*
D19*
X232212447Y-117912159D03*
X225862447Y-120452159D03*
D17*
X186492447Y-103942159D03*
D18*
X191572447Y-103942159D03*
D17*
X196652447Y-103942159D03*
D19*
X194112447Y-98862159D03*
X187762447Y-101402159D03*
D15*
X379214947Y-162044659D03*
D16*
X379214947Y-154424659D03*
D17*
X72192447Y-161092159D03*
D18*
X77272447Y-161092159D03*
D17*
X82352447Y-161092159D03*
D19*
X79812447Y-156012159D03*
X73462447Y-158552159D03*
D15*
X370643095Y-172522255D03*
D16*
X370643095Y-164902255D03*
D15*
X364927447Y-141089659D03*
D16*
X364927447Y-133469659D03*
D15*
X56316799Y-130612079D03*
D16*
X56316799Y-122992079D03*
D15*
X59174311Y-120134535D03*
D16*
X59174311Y-112514535D03*
D15*
X370642447Y-151567159D03*
D16*
X370642447Y-143947159D03*
D20*
X386240372Y-123289898D03*
X386240372Y-125789898D03*
D17*
X167442447Y-180142159D03*
D18*
X172522447Y-180142159D03*
D17*
X177602447Y-180142159D03*
D19*
X175062447Y-175062159D03*
X168712447Y-177602159D03*
D17*
X262692447Y-142042159D03*
D18*
X267772447Y-142042159D03*
D17*
X272852447Y-142042159D03*
D19*
X270312447Y-136962159D03*
X263962447Y-139502159D03*
D15*
X50602447Y-172522159D03*
D16*
X50602447Y-164902159D03*
D17*
X281742447Y-142042159D03*
D18*
X286822447Y-142042159D03*
D17*
X291902447Y-142042159D03*
D19*
X289362447Y-136962159D03*
X283012447Y-139502159D03*
D15*
X382072447Y-151567159D03*
D16*
X382072447Y-143947159D03*
D15*
X370642447Y-162044659D03*
D16*
X370642447Y-154424659D03*
D15*
X376357447Y-151567159D03*
D16*
X376357447Y-143947159D03*
D17*
X262692447Y-161092159D03*
D18*
X267772447Y-161092159D03*
D17*
X272852447Y-161092159D03*
D19*
X270312447Y-156012159D03*
X263962447Y-158552159D03*
D15*
X53459287Y-141089623D03*
D16*
X53459287Y-133469623D03*
D15*
X53459287Y-130612079D03*
D16*
X53459287Y-122992079D03*
D15*
X373499947Y-151567159D03*
D16*
X373499947Y-143947159D03*
D17*
X72192447Y-103942159D03*
D18*
X77272447Y-103942159D03*
D17*
X82352447Y-103942159D03*
D19*
X79812447Y-98862159D03*
X73462447Y-101402159D03*
D15*
X56317447Y-172522159D03*
D16*
X56317447Y-164902159D03*
D15*
X36314215Y-162044711D03*
D16*
X36314215Y-154424711D03*
D15*
X367665000Y-109537500D03*
D16*
X367665000Y-101917500D03*
D17*
X110292447Y-161092159D03*
D18*
X115372447Y-161092159D03*
D17*
X120452447Y-161092159D03*
D19*
X117912447Y-156012159D03*
X111562447Y-158552159D03*
X260787447Y-175062159D03*
X254437447Y-177602159D03*
D20*
X362070583Y-175260000D03*
X367070583Y-175260000D03*
D15*
X362069947Y-151567159D03*
D16*
X362069947Y-143947159D03*
D15*
X56316799Y-162044627D03*
D16*
X56316799Y-154424627D03*
D21*
X385049742Y-143947167D03*
D22*
X385049742Y-151567167D03*
D15*
X373499947Y-162044659D03*
D16*
X373499947Y-154424659D03*
D15*
X361950000Y-109537500D03*
D16*
X361950000Y-101917500D03*
D15*
X364807500Y-109537500D03*
D16*
X364807500Y-101917500D03*
D17*
X281742447Y-103942159D03*
D18*
X286822447Y-103942159D03*
D17*
X291902447Y-103942159D03*
D19*
X289362447Y-98862159D03*
X283012447Y-101402159D03*
D17*
X319842447Y-180142159D03*
D18*
X324922447Y-180142159D03*
D17*
X330002447Y-180142159D03*
D19*
X327462447Y-175062159D03*
X321112447Y-177602159D03*
D17*
X129342447Y-161092159D03*
D18*
X134422447Y-161092159D03*
D17*
X139502447Y-161092159D03*
D19*
X136962447Y-156012159D03*
X130612447Y-158552159D03*
D15*
X362070583Y-172522159D03*
D16*
X362070583Y-164902159D03*
D17*
X262692447Y-122992159D03*
D18*
X267772447Y-122992159D03*
D17*
X272852447Y-122992159D03*
D19*
X270312447Y-117912159D03*
X263962447Y-120452159D03*
D17*
X262692447Y-180142159D03*
D18*
X267772447Y-180142159D03*
D17*
X272852447Y-180142159D03*
D19*
X270312447Y-175062159D03*
X263962447Y-177602159D03*
D17*
X319842447Y-161092159D03*
D18*
X324922447Y-161092159D03*
D17*
X330002447Y-161092159D03*
D19*
X327462447Y-156012159D03*
X321112447Y-158552159D03*
D17*
X224592447Y-103942159D03*
D18*
X229672447Y-103942159D03*
D17*
X234752447Y-103942159D03*
D19*
X232212447Y-98862159D03*
X225862447Y-101402159D03*
D17*
X262692447Y-103942159D03*
D18*
X267772447Y-103942159D03*
D17*
X272852447Y-103942159D03*
D19*
X270312447Y-98862159D03*
X263962447Y-101402159D03*
D15*
X364927447Y-162044659D03*
D16*
X364927447Y-154424659D03*
D17*
X205542447Y-103942159D03*
D18*
X210622447Y-103942159D03*
D17*
X215702447Y-103942159D03*
D19*
X213162447Y-98862159D03*
X206812447Y-101402159D03*
D17*
X186492447Y-142042159D03*
D18*
X191572447Y-142042159D03*
D17*
X196652447Y-142042159D03*
D19*
X194112447Y-136962159D03*
X187762447Y-139502159D03*
D17*
X224592447Y-161092159D03*
D18*
X229672447Y-161092159D03*
D17*
X234752447Y-161092159D03*
D19*
X232212447Y-156012159D03*
X225862447Y-158552159D03*
D17*
X91242447Y-122992159D03*
D18*
X96322447Y-122992159D03*
D17*
X101402447Y-122992159D03*
D19*
X98862447Y-117912159D03*
X92512447Y-120452159D03*
D17*
X110292447Y-122992159D03*
D18*
X115372447Y-122992159D03*
D17*
X120452447Y-122992159D03*
D19*
X117912447Y-117912159D03*
X111562447Y-120452159D03*
D15*
X376358095Y-172522255D03*
D16*
X376358095Y-164902255D03*
D15*
X379214947Y-151567159D03*
D16*
X379214947Y-143947159D03*
D17*
X205542447Y-180142159D03*
D18*
X210622447Y-180142159D03*
D17*
X215702447Y-180142159D03*
D19*
X213162447Y-175062159D03*
X206812447Y-177602159D03*
D15*
X53459947Y-172522159D03*
D16*
X53459947Y-164902159D03*
D17*
X91242447Y-180142159D03*
D18*
X96322447Y-180142159D03*
D17*
X101402447Y-180142159D03*
D19*
X98862447Y-175062159D03*
X92512447Y-177602159D03*
D27*
X43121155Y-105847007D03*
X48221155Y-107047007D03*
D21*
X35362447Y-123944659D03*
D22*
X35362447Y-116324659D03*
D17*
X300792447Y-142042159D03*
D18*
X305872447Y-142042159D03*
D17*
X310952447Y-142042159D03*
D19*
X308412447Y-136962159D03*
X302062447Y-139502159D03*
D28*
X383654947Y-131897159D03*
D29*
X386194947Y-131897159D03*
X383654947Y-134437159D03*
X386194947Y-134437159D03*
X383654947Y-136977159D03*
X386194947Y-136977159D03*
D17*
X148392447Y-103942159D03*
D18*
X153472447Y-103942159D03*
D17*
X158552447Y-103942159D03*
D19*
X156012447Y-98862159D03*
X149662447Y-101402159D03*
D15*
X59174311Y-109537928D03*
D16*
X59174311Y-101917928D03*
D21*
X38219947Y-123944659D03*
D22*
X38219947Y-116324659D03*
D15*
X41910000Y-127635000D03*
D16*
X49530000Y-127635000D03*
D17*
X319842447Y-142042159D03*
D18*
X324922447Y-142042159D03*
D17*
X330002447Y-142042159D03*
D19*
X327462447Y-136962159D03*
X321112447Y-139502159D03*
D17*
X72192447Y-122992159D03*
D18*
X77272447Y-122992159D03*
D17*
X82352447Y-122992159D03*
D19*
X79812447Y-117912159D03*
X73462447Y-120452159D03*
D15*
X385049742Y-172522255D03*
D16*
X385049742Y-164902255D03*
D15*
X379215595Y-172522255D03*
D16*
X379215595Y-164902255D03*
D17*
X148392447Y-122992159D03*
D18*
X153472447Y-122992159D03*
D17*
X158552447Y-122992159D03*
D19*
X156012447Y-117912159D03*
X149662447Y-120452159D03*
D15*
X42029239Y-151567167D03*
D16*
X42029239Y-143947167D03*
D17*
X167442447Y-142042159D03*
D18*
X172522447Y-142042159D03*
D17*
X177602447Y-142042159D03*
D19*
X175062447Y-136962159D03*
X168712447Y-139502159D03*
D15*
X379214947Y-137279659D03*
D16*
X379214947Y-134739659D03*
X379214947Y-132199659D03*
X379214947Y-129659659D03*
X379214947Y-127119659D03*
X379214947Y-124579659D03*
X379214947Y-122039659D03*
X379214947Y-119499659D03*
X379214947Y-116959659D03*
X379214947Y-114419659D03*
X379214947Y-111879659D03*
X379214947Y-109339659D03*
X379214947Y-106799659D03*
X379214947Y-104259659D03*
X371594947Y-104259659D03*
X371594947Y-106799659D03*
X371594947Y-109339659D03*
X371594947Y-111879659D03*
X371594947Y-114419659D03*
X371594947Y-116959659D03*
X371594947Y-119499659D03*
X371594947Y-122039659D03*
X371594947Y-124579659D03*
X371594947Y-127119659D03*
X371594947Y-129659659D03*
X371594947Y-132199659D03*
X371594947Y-134739659D03*
X371594947Y-137279659D03*
D20*
X59182000Y-99060000D03*
X54182000Y-99060000D03*
D15*
X42029239Y-162044711D03*
D16*
X42029239Y-154424711D03*
D15*
X44886751Y-151567167D03*
D16*
X44886751Y-143947167D03*
D17*
X129342447Y-180142159D03*
D18*
X134422447Y-180142159D03*
D17*
X139502447Y-180142159D03*
D19*
X136962447Y-175062159D03*
X130612447Y-177602159D03*
D17*
X338892447Y-161092159D03*
D18*
X343972447Y-161092159D03*
D17*
X349052447Y-161092159D03*
D19*
X346512447Y-156012159D03*
X340162447Y-158552159D03*
D20*
X59174311Y-175379799D03*
X54174311Y-175379799D03*
D21*
X38219947Y-105847159D03*
D22*
X38219947Y-113467159D03*
D17*
X129342447Y-103942159D03*
D18*
X134422447Y-103942159D03*
D17*
X139502447Y-103942159D03*
D19*
X136962447Y-98862159D03*
X130612447Y-101402159D03*
D15*
X364927447Y-130612159D03*
D16*
X364927447Y-122992159D03*
D15*
X53459299Y-162044627D03*
D16*
X53459299Y-154424627D03*
D17*
X300792447Y-161092159D03*
D18*
X305872447Y-161092159D03*
D17*
X310952447Y-161092159D03*
D19*
X308412447Y-156012159D03*
X302062447Y-158552159D03*
D15*
X373500595Y-172522255D03*
D16*
X373500595Y-164902255D03*
D17*
X338892447Y-180142159D03*
D18*
X343972447Y-180142159D03*
D17*
X349052447Y-180142159D03*
D19*
X346512447Y-175062159D03*
X340162447Y-177602159D03*
D30*
X44887447Y-122872500D03*
D31*
X46387447Y-122872500D03*
D15*
X367784947Y-130612159D03*
D16*
X367784947Y-122992159D03*
D17*
X319842447Y-122992159D03*
D18*
X324922447Y-122992159D03*
D17*
X330002447Y-122992159D03*
D19*
X327462447Y-117912159D03*
X321112447Y-120452159D03*
D17*
X129342447Y-122992159D03*
D18*
X134422447Y-122992159D03*
D17*
X139502447Y-122992159D03*
D19*
X136962447Y-117912159D03*
X130612447Y-120452159D03*
D17*
X167442447Y-122992159D03*
D18*
X172522447Y-122992159D03*
D17*
X177602447Y-122992159D03*
D19*
X175062447Y-117912159D03*
X168712447Y-120452159D03*
D15*
X367784947Y-151567159D03*
D16*
X367784947Y-143947159D03*
D15*
X56316799Y-109537928D03*
D16*
X56316799Y-101917928D03*
D17*
X281742447Y-122992159D03*
D18*
X286822447Y-122992159D03*
D17*
X291902447Y-122992159D03*
D19*
X289362447Y-117912159D03*
X283012447Y-120452159D03*
D17*
X91242447Y-142042159D03*
D18*
X96322447Y-142042159D03*
D17*
X101402447Y-142042159D03*
D19*
X98862447Y-136962159D03*
X92512447Y-139502159D03*
M02*
