G04 #@! TF.GenerationSoftware,KiCad,Pcbnew,8.0.7*
G04 #@! TF.CreationDate,2025-01-04T22:40:08+01:00*
G04 #@! TF.ProjectId,orthgyle,6f727468-6779-46c6-952e-6b696361645f,1*
G04 #@! TF.SameCoordinates,Original*
G04 #@! TF.FileFunction,Legend,Bot*
G04 #@! TF.FilePolarity,Positive*
%FSLAX46Y46*%
G04 Gerber Fmt 4.6, Leading zero omitted, Abs format (unit mm)*
G04 Created by KiCad (PCBNEW 8.0.7) date 2025-01-04 22:40:08*
%MOMM*%
%LPD*%
G01*
G04 APERTURE LIST*
%ADD10C,0.150000*%
%ADD11C,0.200000*%
%ADD12C,0.120000*%
%ADD13C,0.100000*%
%ADD14C,2.286000*%
G04 APERTURE END LIST*
D10*
X162997447Y-125373409D02*
X148709947Y-139660909D01*
X134422447Y-125373409D01*
X148709947Y-111085909D01*
X162997447Y-125373409D01*
G36*
X162997447Y-125373409D02*
G01*
X148709947Y-139660909D01*
X134422447Y-125373409D01*
X148709947Y-111085909D01*
X162997447Y-125373409D01*
G37*
X196334947Y-158710909D02*
X182047447Y-172998409D01*
X179666197Y-172998409D01*
X179666197Y-170617159D01*
X193953697Y-156329659D01*
X196334947Y-158710909D01*
G36*
X196334947Y-158710909D02*
G01*
X182047447Y-172998409D01*
X179666197Y-172998409D01*
X179666197Y-170617159D01*
X193953697Y-156329659D01*
X196334947Y-158710909D01*
G37*
X303491197Y-170617159D02*
X303491197Y-172998409D01*
X301109947Y-172998409D01*
X286822447Y-158710909D01*
X289203697Y-156329659D01*
X303491197Y-170617159D01*
G36*
X303491197Y-170617159D02*
G01*
X303491197Y-172998409D01*
X301109947Y-172998409D01*
X286822447Y-158710909D01*
X289203697Y-156329659D01*
X303491197Y-170617159D01*
G37*
X162997447Y-158710909D02*
X148709947Y-172998409D01*
X134422447Y-158710909D01*
X148709947Y-144423409D01*
X162997447Y-158710909D01*
G36*
X162997447Y-158710909D02*
G01*
X148709947Y-172998409D01*
X134422447Y-158710909D01*
X148709947Y-144423409D01*
X162997447Y-158710909D01*
G37*
X241578697Y-142042159D02*
X227291197Y-156329659D01*
X213003697Y-142042159D01*
X227291197Y-127754659D01*
X241578697Y-142042159D01*
G36*
X241578697Y-142042159D02*
G01*
X227291197Y-156329659D01*
X213003697Y-142042159D01*
X227291197Y-127754659D01*
X241578697Y-142042159D01*
G37*
X146328697Y-142042159D02*
X132041197Y-156329659D01*
X117753697Y-142042159D01*
X132041197Y-127754659D01*
X146328697Y-142042159D01*
G36*
X146328697Y-142042159D02*
G01*
X132041197Y-156329659D01*
X117753697Y-142042159D01*
X132041197Y-127754659D01*
X146328697Y-142042159D01*
G37*
X303491197Y-142042159D02*
X289203697Y-156329659D01*
X274916197Y-142042159D01*
X289203697Y-127754659D01*
X303491197Y-142042159D01*
G36*
X303491197Y-142042159D02*
G01*
X289203697Y-156329659D01*
X274916197Y-142042159D01*
X289203697Y-127754659D01*
X303491197Y-142042159D01*
G37*
X241578697Y-113467159D02*
X227291197Y-127754659D01*
X224909947Y-125373409D01*
X239197447Y-111085909D01*
X241578697Y-111085909D01*
X241578697Y-113467159D01*
G36*
X241578697Y-113467159D02*
G01*
X227291197Y-127754659D01*
X224909947Y-125373409D01*
X239197447Y-111085909D01*
X241578697Y-111085909D01*
X241578697Y-113467159D01*
G37*
X303491197Y-113467159D02*
X289203697Y-127754659D01*
X286822447Y-125373409D01*
X301109947Y-111085909D01*
X303491197Y-111085909D01*
X303491197Y-113467159D01*
G36*
X303491197Y-113467159D02*
G01*
X289203697Y-127754659D01*
X286822447Y-125373409D01*
X301109947Y-111085909D01*
X303491197Y-111085909D01*
X303491197Y-113467159D01*
G37*
X179666197Y-170617159D02*
X179666197Y-172998409D01*
X177284947Y-172998409D01*
X162997447Y-158710909D01*
X165378697Y-156329659D01*
X179666197Y-170617159D01*
G36*
X179666197Y-170617159D02*
G01*
X179666197Y-172998409D01*
X177284947Y-172998409D01*
X162997447Y-158710909D01*
X165378697Y-156329659D01*
X179666197Y-170617159D01*
G37*
X208241197Y-142042159D02*
X193953697Y-156329659D01*
X179666197Y-142042159D01*
X193953697Y-127754659D01*
X208241197Y-142042159D01*
G36*
X208241197Y-142042159D02*
G01*
X193953697Y-156329659D01*
X179666197Y-142042159D01*
X193953697Y-127754659D01*
X208241197Y-142042159D01*
G37*
X286822447Y-158710909D02*
X272534947Y-172998409D01*
X258247447Y-158710909D01*
X272534947Y-144423409D01*
X286822447Y-158710909D01*
G36*
X286822447Y-158710909D02*
G01*
X272534947Y-172998409D01*
X258247447Y-158710909D01*
X272534947Y-144423409D01*
X286822447Y-158710909D01*
G37*
X179666197Y-142042159D02*
X165378697Y-156329659D01*
X151091197Y-142042159D01*
X165378697Y-127754659D01*
X179666197Y-142042159D01*
G36*
X179666197Y-142042159D02*
G01*
X165378697Y-156329659D01*
X151091197Y-142042159D01*
X165378697Y-127754659D01*
X179666197Y-142042159D01*
G37*
X241578697Y-170617159D02*
X241578697Y-172998409D01*
X239197447Y-172998409D01*
X224909947Y-158710909D01*
X227291197Y-156329659D01*
X241578697Y-170617159D01*
G36*
X241578697Y-170617159D02*
G01*
X241578697Y-172998409D01*
X239197447Y-172998409D01*
X224909947Y-158710909D01*
X227291197Y-156329659D01*
X241578697Y-170617159D01*
G37*
X258247447Y-158710909D02*
X243959947Y-172998409D01*
X241578697Y-172998409D01*
X241578697Y-170617159D01*
X255866197Y-156329659D01*
X258247447Y-158710909D01*
G36*
X258247447Y-158710909D02*
G01*
X243959947Y-172998409D01*
X241578697Y-172998409D01*
X241578697Y-170617159D01*
X255866197Y-156329659D01*
X258247447Y-158710909D01*
G37*
X224909947Y-158710909D02*
X210622447Y-172998409D01*
X196334947Y-158710909D01*
X210622447Y-144423409D01*
X224909947Y-158710909D01*
G36*
X224909947Y-158710909D02*
G01*
X210622447Y-172998409D01*
X196334947Y-158710909D01*
X210622447Y-144423409D01*
X224909947Y-158710909D01*
G37*
X134422447Y-158710909D02*
X120134947Y-172998409D01*
X117753697Y-172998409D01*
X117753697Y-170617159D01*
X132041197Y-156329659D01*
X134422447Y-158710909D01*
G36*
X134422447Y-158710909D02*
G01*
X120134947Y-172998409D01*
X117753697Y-172998409D01*
X117753697Y-170617159D01*
X132041197Y-156329659D01*
X134422447Y-158710909D01*
G37*
X224909947Y-125373409D02*
X210622447Y-139660909D01*
X196334947Y-125373409D01*
X210622447Y-111085909D01*
X224909947Y-125373409D01*
G36*
X224909947Y-125373409D02*
G01*
X210622447Y-139660909D01*
X196334947Y-125373409D01*
X210622447Y-111085909D01*
X224909947Y-125373409D01*
G37*
X270153697Y-142042159D02*
X255866197Y-156329659D01*
X241578697Y-142042159D01*
X255866197Y-127754659D01*
X270153697Y-142042159D01*
G36*
X270153697Y-142042159D02*
G01*
X255866197Y-156329659D01*
X241578697Y-142042159D01*
X255866197Y-127754659D01*
X270153697Y-142042159D01*
G37*
X258247447Y-125373409D02*
X255866197Y-127754659D01*
X241578697Y-113467159D01*
X241578697Y-111085909D01*
X243959947Y-111085909D01*
X258247447Y-125373409D01*
G36*
X258247447Y-125373409D02*
G01*
X255866197Y-127754659D01*
X241578697Y-113467159D01*
X241578697Y-111085909D01*
X243959947Y-111085909D01*
X258247447Y-125373409D01*
G37*
X179666197Y-113467159D02*
X165378697Y-127754659D01*
X162997447Y-125373409D01*
X177284947Y-111085909D01*
X179666197Y-111085909D01*
X179666197Y-113467159D01*
G36*
X179666197Y-113467159D02*
G01*
X165378697Y-127754659D01*
X162997447Y-125373409D01*
X177284947Y-111085909D01*
X179666197Y-111085909D01*
X179666197Y-113467159D01*
G37*
X286822447Y-125373409D02*
X272534947Y-139660909D01*
X258247447Y-125373409D01*
X272534947Y-111085909D01*
X286822447Y-125373409D01*
G36*
X286822447Y-125373409D02*
G01*
X272534947Y-139660909D01*
X258247447Y-125373409D01*
X272534947Y-111085909D01*
X286822447Y-125373409D01*
G37*
X134422447Y-125373409D02*
X132041197Y-127754659D01*
X117753697Y-113467159D01*
X117753697Y-111085909D01*
X120134947Y-111085909D01*
X134422447Y-125373409D01*
G36*
X134422447Y-125373409D02*
G01*
X132041197Y-127754659D01*
X117753697Y-113467159D01*
X117753697Y-111085909D01*
X120134947Y-111085909D01*
X134422447Y-125373409D01*
G37*
X196334947Y-125373409D02*
X193953697Y-127754659D01*
X179666197Y-113467159D01*
X179666197Y-111085909D01*
X182047447Y-111085909D01*
X196334947Y-125373409D01*
G36*
X196334947Y-125373409D02*
G01*
X193953697Y-127754659D01*
X179666197Y-113467159D01*
X179666197Y-111085909D01*
X182047447Y-111085909D01*
X196334947Y-125373409D01*
G37*
D11*
X376536851Y-179132180D02*
X376251137Y-179132180D01*
X376251137Y-179132180D02*
X376108280Y-179203609D01*
X376108280Y-179203609D02*
X375965423Y-179346466D01*
X375965423Y-179346466D02*
X375893994Y-179632180D01*
X375893994Y-179632180D02*
X375893994Y-180132180D01*
X375893994Y-180132180D02*
X375965423Y-180417894D01*
X375965423Y-180417894D02*
X376108280Y-180560752D01*
X376108280Y-180560752D02*
X376251137Y-180632180D01*
X376251137Y-180632180D02*
X376536851Y-180632180D01*
X376536851Y-180632180D02*
X376679709Y-180560752D01*
X376679709Y-180560752D02*
X376822566Y-180417894D01*
X376822566Y-180417894D02*
X376893994Y-180132180D01*
X376893994Y-180132180D02*
X376893994Y-179632180D01*
X376893994Y-179632180D02*
X376822566Y-179346466D01*
X376822566Y-179346466D02*
X376679709Y-179203609D01*
X376679709Y-179203609D02*
X376536851Y-179132180D01*
X375251137Y-180632180D02*
X375251137Y-179632180D01*
X375251137Y-179917894D02*
X375179708Y-179775037D01*
X375179708Y-179775037D02*
X375108280Y-179703609D01*
X375108280Y-179703609D02*
X374965422Y-179632180D01*
X374965422Y-179632180D02*
X374822565Y-179632180D01*
X374536851Y-179632180D02*
X373965423Y-179632180D01*
X374322566Y-179132180D02*
X374322566Y-180417894D01*
X374322566Y-180417894D02*
X374251137Y-180560752D01*
X374251137Y-180560752D02*
X374108280Y-180632180D01*
X374108280Y-180632180D02*
X373965423Y-180632180D01*
X373465423Y-180632180D02*
X373465423Y-179132180D01*
X372822566Y-180632180D02*
X372822566Y-179846466D01*
X372822566Y-179846466D02*
X372893994Y-179703609D01*
X372893994Y-179703609D02*
X373036851Y-179632180D01*
X373036851Y-179632180D02*
X373251137Y-179632180D01*
X373251137Y-179632180D02*
X373393994Y-179703609D01*
X373393994Y-179703609D02*
X373465423Y-179775037D01*
X371465423Y-179632180D02*
X371465423Y-180846466D01*
X371465423Y-180846466D02*
X371536851Y-180989323D01*
X371536851Y-180989323D02*
X371608280Y-181060752D01*
X371608280Y-181060752D02*
X371751137Y-181132180D01*
X371751137Y-181132180D02*
X371965423Y-181132180D01*
X371965423Y-181132180D02*
X372108280Y-181060752D01*
X371465423Y-180560752D02*
X371608280Y-180632180D01*
X371608280Y-180632180D02*
X371893994Y-180632180D01*
X371893994Y-180632180D02*
X372036851Y-180560752D01*
X372036851Y-180560752D02*
X372108280Y-180489323D01*
X372108280Y-180489323D02*
X372179708Y-180346466D01*
X372179708Y-180346466D02*
X372179708Y-179917894D01*
X372179708Y-179917894D02*
X372108280Y-179775037D01*
X372108280Y-179775037D02*
X372036851Y-179703609D01*
X372036851Y-179703609D02*
X371893994Y-179632180D01*
X371893994Y-179632180D02*
X371608280Y-179632180D01*
X371608280Y-179632180D02*
X371465423Y-179703609D01*
X370893994Y-179632180D02*
X370536851Y-180632180D01*
X370179708Y-179632180D02*
X370536851Y-180632180D01*
X370536851Y-180632180D02*
X370679708Y-180989323D01*
X370679708Y-180989323D02*
X370751137Y-181060752D01*
X370751137Y-181060752D02*
X370893994Y-181132180D01*
X369393994Y-180632180D02*
X369536851Y-180560752D01*
X369536851Y-180560752D02*
X369608280Y-180417894D01*
X369608280Y-180417894D02*
X369608280Y-179132180D01*
X368251137Y-180560752D02*
X368393994Y-180632180D01*
X368393994Y-180632180D02*
X368679709Y-180632180D01*
X368679709Y-180632180D02*
X368822566Y-180560752D01*
X368822566Y-180560752D02*
X368893994Y-180417894D01*
X368893994Y-180417894D02*
X368893994Y-179846466D01*
X368893994Y-179846466D02*
X368822566Y-179703609D01*
X368822566Y-179703609D02*
X368679709Y-179632180D01*
X368679709Y-179632180D02*
X368393994Y-179632180D01*
X368393994Y-179632180D02*
X368251137Y-179703609D01*
X368251137Y-179703609D02*
X368179709Y-179846466D01*
X368179709Y-179846466D02*
X368179709Y-179989323D01*
X368179709Y-179989323D02*
X368893994Y-180132180D01*
X366393995Y-180632180D02*
X366393995Y-179632180D01*
X366393995Y-179917894D02*
X366322566Y-179775037D01*
X366322566Y-179775037D02*
X366251138Y-179703609D01*
X366251138Y-179703609D02*
X366108280Y-179632180D01*
X366108280Y-179632180D02*
X365965423Y-179632180D01*
X364893995Y-180560752D02*
X365036852Y-180632180D01*
X365036852Y-180632180D02*
X365322567Y-180632180D01*
X365322567Y-180632180D02*
X365465424Y-180560752D01*
X365465424Y-180560752D02*
X365536852Y-180417894D01*
X365536852Y-180417894D02*
X365536852Y-179846466D01*
X365536852Y-179846466D02*
X365465424Y-179703609D01*
X365465424Y-179703609D02*
X365322567Y-179632180D01*
X365322567Y-179632180D02*
X365036852Y-179632180D01*
X365036852Y-179632180D02*
X364893995Y-179703609D01*
X364893995Y-179703609D02*
X364822567Y-179846466D01*
X364822567Y-179846466D02*
X364822567Y-179989323D01*
X364822567Y-179989323D02*
X365536852Y-180132180D01*
X364322567Y-179632180D02*
X363965424Y-180632180D01*
X363965424Y-180632180D02*
X363608281Y-179632180D01*
X362251138Y-180632180D02*
X363108281Y-180632180D01*
X362679710Y-180632180D02*
X362679710Y-179132180D01*
X362679710Y-179132180D02*
X362822567Y-179346466D01*
X362822567Y-179346466D02*
X362965424Y-179489323D01*
X362965424Y-179489323D02*
X363108281Y-179560752D01*
X376822566Y-183047096D02*
X376822566Y-181547096D01*
X376822566Y-181547096D02*
X376465423Y-181547096D01*
X376465423Y-181547096D02*
X376251137Y-181618525D01*
X376251137Y-181618525D02*
X376108280Y-181761382D01*
X376108280Y-181761382D02*
X376036851Y-181904239D01*
X376036851Y-181904239D02*
X375965423Y-182189953D01*
X375965423Y-182189953D02*
X375965423Y-182404239D01*
X375965423Y-182404239D02*
X376036851Y-182689953D01*
X376036851Y-182689953D02*
X376108280Y-182832810D01*
X376108280Y-182832810D02*
X376251137Y-182975668D01*
X376251137Y-182975668D02*
X376465423Y-183047096D01*
X376465423Y-183047096D02*
X376822566Y-183047096D01*
X374751137Y-182975668D02*
X374893994Y-183047096D01*
X374893994Y-183047096D02*
X375179709Y-183047096D01*
X375179709Y-183047096D02*
X375322566Y-182975668D01*
X375322566Y-182975668D02*
X375393994Y-182832810D01*
X375393994Y-182832810D02*
X375393994Y-182261382D01*
X375393994Y-182261382D02*
X375322566Y-182118525D01*
X375322566Y-182118525D02*
X375179709Y-182047096D01*
X375179709Y-182047096D02*
X374893994Y-182047096D01*
X374893994Y-182047096D02*
X374751137Y-182118525D01*
X374751137Y-182118525D02*
X374679709Y-182261382D01*
X374679709Y-182261382D02*
X374679709Y-182404239D01*
X374679709Y-182404239D02*
X375393994Y-182547096D01*
X373393995Y-182975668D02*
X373536852Y-183047096D01*
X373536852Y-183047096D02*
X373822566Y-183047096D01*
X373822566Y-183047096D02*
X373965423Y-182975668D01*
X373965423Y-182975668D02*
X374036852Y-182904239D01*
X374036852Y-182904239D02*
X374108280Y-182761382D01*
X374108280Y-182761382D02*
X374108280Y-182332810D01*
X374108280Y-182332810D02*
X374036852Y-182189953D01*
X374036852Y-182189953D02*
X373965423Y-182118525D01*
X373965423Y-182118525D02*
X373822566Y-182047096D01*
X373822566Y-182047096D02*
X373536852Y-182047096D01*
X373536852Y-182047096D02*
X373393995Y-182118525D01*
X371679709Y-181689953D02*
X371608281Y-181618525D01*
X371608281Y-181618525D02*
X371465424Y-181547096D01*
X371465424Y-181547096D02*
X371108281Y-181547096D01*
X371108281Y-181547096D02*
X370965424Y-181618525D01*
X370965424Y-181618525D02*
X370893995Y-181689953D01*
X370893995Y-181689953D02*
X370822566Y-181832810D01*
X370822566Y-181832810D02*
X370822566Y-181975668D01*
X370822566Y-181975668D02*
X370893995Y-182189953D01*
X370893995Y-182189953D02*
X371751138Y-183047096D01*
X371751138Y-183047096D02*
X370822566Y-183047096D01*
X369893995Y-181547096D02*
X369751138Y-181547096D01*
X369751138Y-181547096D02*
X369608281Y-181618525D01*
X369608281Y-181618525D02*
X369536853Y-181689953D01*
X369536853Y-181689953D02*
X369465424Y-181832810D01*
X369465424Y-181832810D02*
X369393995Y-182118525D01*
X369393995Y-182118525D02*
X369393995Y-182475668D01*
X369393995Y-182475668D02*
X369465424Y-182761382D01*
X369465424Y-182761382D02*
X369536853Y-182904239D01*
X369536853Y-182904239D02*
X369608281Y-182975668D01*
X369608281Y-182975668D02*
X369751138Y-183047096D01*
X369751138Y-183047096D02*
X369893995Y-183047096D01*
X369893995Y-183047096D02*
X370036853Y-182975668D01*
X370036853Y-182975668D02*
X370108281Y-182904239D01*
X370108281Y-182904239D02*
X370179710Y-182761382D01*
X370179710Y-182761382D02*
X370251138Y-182475668D01*
X370251138Y-182475668D02*
X370251138Y-182118525D01*
X370251138Y-182118525D02*
X370179710Y-181832810D01*
X370179710Y-181832810D02*
X370108281Y-181689953D01*
X370108281Y-181689953D02*
X370036853Y-181618525D01*
X370036853Y-181618525D02*
X369893995Y-181547096D01*
X368822567Y-181689953D02*
X368751139Y-181618525D01*
X368751139Y-181618525D02*
X368608282Y-181547096D01*
X368608282Y-181547096D02*
X368251139Y-181547096D01*
X368251139Y-181547096D02*
X368108282Y-181618525D01*
X368108282Y-181618525D02*
X368036853Y-181689953D01*
X368036853Y-181689953D02*
X367965424Y-181832810D01*
X367965424Y-181832810D02*
X367965424Y-181975668D01*
X367965424Y-181975668D02*
X368036853Y-182189953D01*
X368036853Y-182189953D02*
X368893996Y-183047096D01*
X368893996Y-183047096D02*
X367965424Y-183047096D01*
X366679711Y-182047096D02*
X366679711Y-183047096D01*
X367036853Y-181475668D02*
X367393996Y-182547096D01*
X367393996Y-182547096D02*
X366465425Y-182547096D01*
D10*
X386382328Y-100581978D02*
X386715661Y-100105787D01*
X386953756Y-100581978D02*
X386953756Y-99581978D01*
X386953756Y-99581978D02*
X386572804Y-99581978D01*
X386572804Y-99581978D02*
X386477566Y-99629597D01*
X386477566Y-99629597D02*
X386429947Y-99677216D01*
X386429947Y-99677216D02*
X386382328Y-99772454D01*
X386382328Y-99772454D02*
X386382328Y-99915311D01*
X386382328Y-99915311D02*
X386429947Y-100010549D01*
X386429947Y-100010549D02*
X386477566Y-100058168D01*
X386477566Y-100058168D02*
X386572804Y-100105787D01*
X386572804Y-100105787D02*
X386953756Y-100105787D01*
X385953756Y-100058168D02*
X385620423Y-100058168D01*
X385477566Y-100581978D02*
X385953756Y-100581978D01*
X385953756Y-100581978D02*
X385953756Y-99581978D01*
X385953756Y-99581978D02*
X385477566Y-99581978D01*
X385096613Y-100534359D02*
X384953756Y-100581978D01*
X384953756Y-100581978D02*
X384715661Y-100581978D01*
X384715661Y-100581978D02*
X384620423Y-100534359D01*
X384620423Y-100534359D02*
X384572804Y-100486739D01*
X384572804Y-100486739D02*
X384525185Y-100391501D01*
X384525185Y-100391501D02*
X384525185Y-100296263D01*
X384525185Y-100296263D02*
X384572804Y-100201025D01*
X384572804Y-100201025D02*
X384620423Y-100153406D01*
X384620423Y-100153406D02*
X384715661Y-100105787D01*
X384715661Y-100105787D02*
X384906137Y-100058168D01*
X384906137Y-100058168D02*
X385001375Y-100010549D01*
X385001375Y-100010549D02*
X385048994Y-99962930D01*
X385048994Y-99962930D02*
X385096613Y-99867692D01*
X385096613Y-99867692D02*
X385096613Y-99772454D01*
X385096613Y-99772454D02*
X385048994Y-99677216D01*
X385048994Y-99677216D02*
X385001375Y-99629597D01*
X385001375Y-99629597D02*
X384906137Y-99581978D01*
X384906137Y-99581978D02*
X384668042Y-99581978D01*
X384668042Y-99581978D02*
X384525185Y-99629597D01*
X384096613Y-100058168D02*
X383763280Y-100058168D01*
X383620423Y-100581978D02*
X384096613Y-100581978D01*
X384096613Y-100581978D02*
X384096613Y-99581978D01*
X384096613Y-99581978D02*
X383620423Y-99581978D01*
X383334708Y-99581978D02*
X382763280Y-99581978D01*
X383048994Y-100581978D02*
X383048994Y-99581978D01*
X386287089Y-104820668D02*
X386144232Y-104868287D01*
X386144232Y-104868287D02*
X386096613Y-104915906D01*
X386096613Y-104915906D02*
X386048994Y-105011144D01*
X386048994Y-105011144D02*
X386048994Y-105154001D01*
X386048994Y-105154001D02*
X386096613Y-105249239D01*
X386096613Y-105249239D02*
X386144232Y-105296859D01*
X386144232Y-105296859D02*
X386239470Y-105344478D01*
X386239470Y-105344478D02*
X386620422Y-105344478D01*
X386620422Y-105344478D02*
X386620422Y-104344478D01*
X386620422Y-104344478D02*
X386287089Y-104344478D01*
X386287089Y-104344478D02*
X386191851Y-104392097D01*
X386191851Y-104392097D02*
X386144232Y-104439716D01*
X386144232Y-104439716D02*
X386096613Y-104534954D01*
X386096613Y-104534954D02*
X386096613Y-104630192D01*
X386096613Y-104630192D02*
X386144232Y-104725430D01*
X386144232Y-104725430D02*
X386191851Y-104773049D01*
X386191851Y-104773049D02*
X386287089Y-104820668D01*
X386287089Y-104820668D02*
X386620422Y-104820668D01*
X385429946Y-104344478D02*
X385239470Y-104344478D01*
X385239470Y-104344478D02*
X385144232Y-104392097D01*
X385144232Y-104392097D02*
X385048994Y-104487335D01*
X385048994Y-104487335D02*
X385001375Y-104677811D01*
X385001375Y-104677811D02*
X385001375Y-105011144D01*
X385001375Y-105011144D02*
X385048994Y-105201620D01*
X385048994Y-105201620D02*
X385144232Y-105296859D01*
X385144232Y-105296859D02*
X385239470Y-105344478D01*
X385239470Y-105344478D02*
X385429946Y-105344478D01*
X385429946Y-105344478D02*
X385525184Y-105296859D01*
X385525184Y-105296859D02*
X385620422Y-105201620D01*
X385620422Y-105201620D02*
X385668041Y-105011144D01*
X385668041Y-105011144D02*
X385668041Y-104677811D01*
X385668041Y-104677811D02*
X385620422Y-104487335D01*
X385620422Y-104487335D02*
X385525184Y-104392097D01*
X385525184Y-104392097D02*
X385429946Y-104344478D01*
X384382327Y-104344478D02*
X384191851Y-104344478D01*
X384191851Y-104344478D02*
X384096613Y-104392097D01*
X384096613Y-104392097D02*
X384001375Y-104487335D01*
X384001375Y-104487335D02*
X383953756Y-104677811D01*
X383953756Y-104677811D02*
X383953756Y-105011144D01*
X383953756Y-105011144D02*
X384001375Y-105201620D01*
X384001375Y-105201620D02*
X384096613Y-105296859D01*
X384096613Y-105296859D02*
X384191851Y-105344478D01*
X384191851Y-105344478D02*
X384382327Y-105344478D01*
X384382327Y-105344478D02*
X384477565Y-105296859D01*
X384477565Y-105296859D02*
X384572803Y-105201620D01*
X384572803Y-105201620D02*
X384620422Y-105011144D01*
X384620422Y-105011144D02*
X384620422Y-104677811D01*
X384620422Y-104677811D02*
X384572803Y-104487335D01*
X384572803Y-104487335D02*
X384477565Y-104392097D01*
X384477565Y-104392097D02*
X384382327Y-104344478D01*
X383668041Y-104344478D02*
X383096613Y-104344478D01*
X383382327Y-105344478D02*
X383382327Y-104344478D01*
D12*
X383529947Y-98527159D02*
X383529947Y-97927159D01*
X384229947Y-97227159D02*
X385629947Y-97227159D01*
X385629947Y-99227159D02*
X384229947Y-99227159D01*
X386329947Y-97927159D02*
X386329947Y-98527159D01*
X383529947Y-97927159D02*
G75*
G02*
X384229947Y-97227159I700000J0D01*
G01*
X384229947Y-99227159D02*
G75*
G02*
X383529947Y-98527159I0J700000D01*
G01*
X385629947Y-97227159D02*
G75*
G02*
X386329947Y-97927159I1J-699999D01*
G01*
X386329947Y-98527159D02*
G75*
G02*
X385629947Y-99227159I-699999J-1D01*
G01*
X383529947Y-103289659D02*
X383529947Y-102689659D01*
X384229947Y-101989659D02*
X385629947Y-101989659D01*
X385629947Y-103989659D02*
X384229947Y-103989659D01*
X386329947Y-102689659D02*
X386329947Y-103289659D01*
X383529947Y-102689659D02*
G75*
G02*
X384229947Y-101989659I700000J0D01*
G01*
X384229947Y-103989659D02*
G75*
G02*
X383529947Y-103289659I0J700000D01*
G01*
X385629947Y-101989659D02*
G75*
G02*
X386329947Y-102689659I1J-699999D01*
G01*
X386329947Y-103289659D02*
G75*
G02*
X385629947Y-103989659I-699999J-1D01*
G01*
D13*
X376467822Y-185757743D02*
X375867822Y-185457743D01*
X375867822Y-185157743D01*
X376467822Y-185757743D01*
G36*
X376467822Y-185757743D02*
G01*
X375867822Y-185457743D01*
X375867822Y-185157743D01*
X376467822Y-185757743D01*
G37*
X376167822Y-186357743D02*
X375867822Y-186357743D01*
X376467822Y-185757743D01*
X376167822Y-186357743D01*
G36*
X376167822Y-186357743D02*
G01*
X375867822Y-186357743D01*
X376467822Y-185757743D01*
X376167822Y-186357743D01*
G37*
X376467822Y-185757743D02*
X376767822Y-185157743D01*
X377067822Y-185157743D01*
X376467822Y-185757743D01*
G36*
X376467822Y-185757743D02*
G01*
X376767822Y-185157743D01*
X377067822Y-185157743D01*
X376467822Y-185757743D01*
G37*
X377067822Y-186057743D02*
X377067822Y-186357743D01*
X376467822Y-185757743D01*
X377067822Y-186057743D01*
G36*
X377067822Y-186057743D02*
G01*
X377067822Y-186357743D01*
X376467822Y-185757743D01*
X377067822Y-186057743D01*
G37*
D12*
X371367822Y-185757743D02*
X368367822Y-185757743D01*
X368367822Y-185157743D01*
X371367822Y-185157743D01*
X371367822Y-185757743D01*
G36*
X371367822Y-185757743D02*
G01*
X368367822Y-185757743D01*
X368367822Y-185157743D01*
X371367822Y-185157743D01*
X371367822Y-185757743D01*
G37*
D14*
X165537447Y-175062159D03*
X159187447Y-177602159D03*
X260787447Y-175062159D03*
X254437447Y-177602159D03*
X213162447Y-175062159D03*
X206812447Y-177602159D03*
M02*
