%TF.GenerationSoftware,KiCad,Pcbnew,9.0.0*%
%TF.CreationDate,2026-01-20T22:23:28+01:00*%
%TF.ProjectId,orthgyle,6f727468-6779-46c6-952e-6b696361645f,1*%
%TF.SameCoordinates,Original*%
%TF.FileFunction,Other,User*%
%FSLAX46Y46*%
G04 Gerber Fmt 4.6, Leading zero omitted, Abs format (unit mm)*
G04 Created by KiCad (PCBNEW 9.0.0) date 2026-01-20 22:23:28*
%MOMM*%
%LPD*%
G01*
G04 APERTURE LIST*
%ADD10C,0.050000*%
G04 APERTURE END LIST*
D10*
X44978000Y-101220000D02*
X44978000Y-104520000D01*
X44978000Y-101220000D02*
X47478000Y-101220000D01*
X47478000Y-104520000D02*
X44978000Y-104520000D01*
X47478000Y-104520000D02*
X47478000Y-101220000D01*
X383279947Y-96977159D02*
X383279947Y-99477159D01*
X383279947Y-96977159D02*
X386579947Y-96977159D01*
X386579947Y-99477159D02*
X383279947Y-99477159D01*
X386579947Y-99477159D02*
X386579947Y-96977159D01*
X37358000Y-101220000D02*
X37358000Y-104520000D01*
X37358000Y-101220000D02*
X39858000Y-101220000D01*
X39858000Y-104520000D02*
X37358000Y-104520000D01*
X39858000Y-104520000D02*
X39858000Y-101220000D01*
X50058000Y-101220000D02*
X50058000Y-104520000D01*
X50058000Y-101220000D02*
X52558000Y-101220000D01*
X52558000Y-104520000D02*
X50058000Y-104520000D01*
X52558000Y-104520000D02*
X52558000Y-101220000D01*
X383279947Y-101739659D02*
X383279947Y-104239659D01*
X383279947Y-101739659D02*
X386579947Y-101739659D01*
X386579947Y-104239659D02*
X383279947Y-104239659D01*
X386579947Y-104239659D02*
X386579947Y-101739659D01*
X39898000Y-101220000D02*
X39898000Y-104520000D01*
X39898000Y-101220000D02*
X42398000Y-101220000D01*
X42398000Y-104520000D02*
X39898000Y-104520000D01*
X42398000Y-104520000D02*
X42398000Y-101220000D01*
X42438000Y-101220000D02*
X42438000Y-104520000D01*
X42438000Y-101220000D02*
X44938000Y-101220000D01*
X44938000Y-104520000D02*
X42438000Y-104520000D01*
X44938000Y-104520000D02*
X44938000Y-101220000D01*
X47518000Y-101220000D02*
X47518000Y-104520000D01*
X47518000Y-101220000D02*
X50018000Y-101220000D01*
X50018000Y-104520000D02*
X47518000Y-104520000D01*
X50018000Y-104520000D02*
X50018000Y-101220000D01*
M02*
