M48
METRIC
T1C0.400
T2C0.600
T3C0.700
T4C0.710
T5C0.800
T6C0.900
T7C1.000
T8C1.499
%
G90
G05
T1
X-14.764Y-102.156
X-14.049Y-59.055
X-12.799Y-60.008
X-11.496Y-60.371
X-10.974Y-57.745
X10.001Y-106.8
X28.575Y-95.25
X28.694Y-76.2
X276.345Y-76.2
X276.345Y-114.3
X276.464Y-92.869
X319.017Y-83.106
T2
X-13.335Y-72.39
X-11.835Y-72.39
T3
X-22.86Y-59.055
X-22.86Y-66.675
X-22.86Y-69.532
X-22.86Y-77.153
X-22.86Y-80.01
X-22.86Y-87.63
X-20.002Y-59.055
X-20.002Y-66.675
X-20.002Y-69.532
X-20.002Y-77.153
X-20.002Y-80.01
X-20.002Y-87.63
X320.04Y-94.297
X327.66Y-94.297
T4
X-15.101Y-61.07
X-10.001Y-62.27
T5
X-21.907Y-97.155
X-21.907Y-104.775
X-21.907Y-107.632
X-21.907Y-115.252
X-21.907Y-118.11
X-21.907Y-125.73
X-21.55Y-128.588
X-19.05Y-97.155
X-19.05Y-104.775
X-19.05Y-107.632
X-19.05Y-115.252
X-19.05Y-118.11
X-19.05Y-125.73
X-16.55Y-128.588
X-16.192Y-77.153
X-16.192Y-80.01
X-16.192Y-97.155
X-16.192Y-104.775
X-16.192Y-107.632
X-16.192Y-115.252
X-16.192Y-118.11
X-16.192Y-125.73
X-13.335Y-97.155
X-13.335Y-104.775
X-13.335Y-107.632
X-13.335Y-115.252
X-13.335Y-118.11
X-13.335Y-125.73
X-12.977Y-128.588
X-10.477Y-97.155
X-10.477Y-104.775
X-10.477Y-107.632
X-10.477Y-115.252
X-10.477Y-118.11
X-10.477Y-125.73
X-8.572Y-77.153
X-8.572Y-80.01
X-7.978Y-128.588
X-7.62Y-97.155
X-7.62Y-104.775
X-7.62Y-107.632
X-7.62Y-115.252
X-7.62Y-118.11
X-7.62Y-125.73
X-4.763Y-51.435
X-4.763Y-56.435
X-4.763Y-65.722
X-4.763Y-73.343
X-4.763Y-76.2
X-4.763Y-83.82
X-4.763Y-86.677
X-4.763Y-94.297
X-4.763Y-97.155
X-4.763Y-104.775
X-4.763Y-107.632
X-4.763Y-115.252
X-4.763Y-118.11
X-4.763Y-125.73
X-4.405Y-60.008
X-4.405Y-128.588
X-1.905Y-51.435
X-1.905Y-56.435
X-1.905Y-65.722
X-1.905Y-73.343
X-1.905Y-76.2
X-1.905Y-83.82
X-1.905Y-86.677
X-1.905Y-94.297
X-1.905Y-97.155
X-1.905Y-104.775
X-1.905Y-107.632
X-1.905Y-115.252
X-1.905Y-118.11
X-1.905Y-125.73
X0.595Y-60.008
X0.595Y-128.588
X0.952Y-51.435
X0.952Y-56.435
X0.952Y-65.722
X0.952Y-73.343
X0.952Y-76.2
X0.952Y-83.82
X0.952Y-86.677
X0.952Y-94.297
X0.952Y-97.155
X0.952Y-104.775
X0.952Y-107.632
X0.952Y-115.252
X0.952Y-118.11
X0.952Y-125.73
X303.847Y-51.435
X303.847Y-55.245
X303.847Y-62.865
X303.847Y-65.722
X303.847Y-73.343
X303.847Y-76.2
X303.847Y-83.82
X303.847Y-86.677
X303.847Y-94.297
X303.847Y-97.155
X303.847Y-104.775
X303.847Y-107.632
X303.847Y-115.252
X303.847Y-118.11
X303.847Y-125.73
X304.205Y-128.588
X306.705Y-55.245
X306.705Y-62.865
X306.705Y-65.722
X306.705Y-73.343
X306.705Y-76.2
X306.705Y-83.82
X306.705Y-86.677
X306.705Y-94.297
X306.705Y-97.155
X306.705Y-104.775
X306.705Y-107.632
X306.705Y-115.252
X306.705Y-118.11
X306.705Y-125.73
X308.847Y-51.435
X309.205Y-128.588
X309.562Y-55.245
X309.562Y-62.865
X309.562Y-65.722
X309.562Y-73.343
X309.562Y-76.2
X309.562Y-83.82
X309.562Y-86.677
X309.562Y-94.297
X309.562Y-97.155
X309.562Y-104.775
X309.562Y-107.632
X309.562Y-115.252
X309.562Y-118.11
X309.562Y-125.73
X311.467Y-51.435
X312.42Y-97.155
X312.42Y-104.775
X312.42Y-107.632
X312.42Y-115.252
X312.42Y-118.11
X312.42Y-125.73
X312.777Y-128.588
X313.373Y-57.467
X313.373Y-60.008
X313.373Y-62.547
X313.373Y-65.087
X313.373Y-67.627
X313.373Y-70.167
X313.373Y-72.707
X313.373Y-75.248
X313.373Y-77.787
X313.373Y-80.328
X313.373Y-82.867
X313.373Y-85.407
X313.373Y-87.947
X313.373Y-90.487
X315.277Y-97.155
X315.277Y-104.775
X315.277Y-107.632
X315.277Y-115.252
X315.277Y-118.11
X315.277Y-125.73
X316.467Y-51.435
X317.777Y-128.588
X318.135Y-97.155
X318.135Y-104.775
X318.135Y-107.632
X318.135Y-115.252
X318.135Y-118.11
X318.135Y-125.73
X320.993Y-57.467
X320.993Y-60.008
X320.993Y-62.547
X320.993Y-65.087
X320.993Y-67.627
X320.993Y-70.167
X320.993Y-72.707
X320.993Y-75.248
X320.993Y-77.787
X320.993Y-80.328
X320.993Y-82.867
X320.993Y-85.407
X320.993Y-87.947
X320.993Y-90.487
X320.993Y-97.155
X320.993Y-104.775
X320.993Y-107.632
X320.993Y-115.252
X320.993Y-118.11
X320.993Y-125.73
X321.35Y-128.588
X323.85Y-97.155
X323.85Y-104.775
X323.85Y-107.632
X323.85Y-115.252
X323.85Y-118.11
X323.85Y-125.73
X325.16Y-60.96
X325.16Y-76.2
X326.35Y-128.588
X326.707Y-66.15
X326.707Y-71.03
X326.707Y-97.155
X326.707Y-104.775
X326.707Y-107.632
X326.707Y-115.252
X326.707Y-118.11
X326.707Y-125.73
X327.66Y-60.96
X327.66Y-76.2
T6
X-12.383Y-87.63
X-12.383Y-90.17
T7
X325.433Y-85.105
X325.433Y-87.645
X325.433Y-90.185
X327.972Y-85.105
X327.972Y-87.645
X327.972Y-90.185
T8
X15.24Y-54.61
X15.24Y-73.66
X15.24Y-92.71
X15.24Y-111.76
X15.24Y-130.81
X21.59Y-52.07
X21.59Y-71.12
X21.59Y-90.17
X21.59Y-109.22
X21.59Y-128.27
X34.29Y-54.61
X34.29Y-73.66
X34.29Y-92.71
X34.29Y-111.76
X34.29Y-130.81
X40.64Y-52.07
X40.64Y-71.12
X40.64Y-90.17
X40.64Y-109.22
X40.64Y-128.27
X53.34Y-54.61
X53.34Y-73.66
X53.34Y-92.71
X53.34Y-111.76
X53.34Y-130.81
X59.69Y-52.07
X59.69Y-71.12
X59.69Y-90.17
X59.69Y-109.22
X59.69Y-128.27
X72.39Y-54.61
X72.39Y-73.66
X72.39Y-92.71
X72.39Y-111.76
X72.39Y-130.81
X78.74Y-52.07
X78.74Y-71.12
X78.74Y-90.17
X78.74Y-109.22
X78.74Y-128.27
X91.44Y-54.61
X91.44Y-73.66
X91.44Y-92.71
X91.44Y-111.76
X91.44Y-130.81
X97.79Y-52.07
X97.79Y-71.12
X97.79Y-90.17
X97.79Y-109.22
X97.79Y-128.27
X100.965Y-130.81
X107.315Y-128.27
X110.49Y-54.61
X110.49Y-73.66
X110.49Y-92.71
X110.49Y-111.76
X110.49Y-130.81
X116.84Y-52.07
X116.84Y-71.12
X116.84Y-90.17
X116.84Y-109.22
X116.84Y-128.27
X129.54Y-54.61
X129.54Y-73.66
X129.54Y-92.71
X129.54Y-111.76
X129.54Y-130.81
X135.89Y-52.07
X135.89Y-71.12
X135.89Y-90.17
X135.89Y-109.22
X135.89Y-128.27
X148.59Y-54.61
X148.59Y-73.66
X148.59Y-92.71
X148.59Y-111.76
X148.59Y-130.81
X154.94Y-52.07
X154.94Y-71.12
X154.94Y-90.17
X154.94Y-109.22
X154.94Y-128.27
X167.64Y-54.61
X167.64Y-73.66
X167.64Y-92.71
X167.64Y-111.76
X167.64Y-130.81
X173.99Y-52.07
X173.99Y-71.12
X173.99Y-90.17
X173.99Y-109.22
X173.99Y-128.27
X186.69Y-54.61
X186.69Y-73.66
X186.69Y-92.71
X186.69Y-111.76
X186.69Y-130.81
X193.04Y-52.07
X193.04Y-71.12
X193.04Y-90.17
X193.04Y-109.22
X193.04Y-128.27
X196.215Y-130.81
X202.565Y-128.27
X205.74Y-54.61
X205.74Y-73.66
X205.74Y-92.71
X205.74Y-111.76
X205.74Y-130.81
X212.09Y-52.07
X212.09Y-71.12
X212.09Y-90.17
X212.09Y-109.22
X212.09Y-128.27
X224.79Y-54.61
X224.79Y-73.66
X224.79Y-92.71
X224.79Y-111.76
X224.79Y-130.81
X231.14Y-52.07
X231.14Y-71.12
X231.14Y-90.17
X231.14Y-109.22
X231.14Y-128.27
X243.84Y-54.61
X243.84Y-73.66
X243.84Y-92.71
X243.84Y-111.76
X243.84Y-130.81
X250.19Y-52.07
X250.19Y-71.12
X250.19Y-90.17
X250.19Y-109.22
X250.19Y-128.27
X262.89Y-54.61
X262.89Y-73.66
X262.89Y-92.71
X262.89Y-111.76
X262.89Y-130.81
X269.24Y-52.07
X269.24Y-71.12
X269.24Y-90.17
X269.24Y-109.22
X269.24Y-128.27
X281.94Y-54.61
X281.94Y-73.66
X281.94Y-92.71
X281.94Y-111.76
X281.94Y-130.81
X288.29Y-52.07
X288.29Y-71.12
X288.29Y-90.17
X288.29Y-109.22
X288.29Y-128.27
T2
X-16.669Y-48.877G85X-16.669Y-48.277
G05
X-16.669Y-53.307G85X-16.669Y-52.207
G05
X-8.029Y-48.877G85X-8.029Y-48.277
G05
X-8.029Y-53.307G85X-8.029Y-52.207
G05
M30
